<?xml version="1.0" standalone="no"?>
<!DOCTYPE svg PUBLIC "-//W3C//DTD SVG 1.1//EN" "http://www.w3.org/Graphics/SVG/1.1/DTD/svg11.dtd" >
<svg xmlns="http://www.w3.org/2000/svg" xmlns:xlink="http://www.w3.org/1999/xlink" version="1.1">
<metadata>
Created by FontForge 20170731 at Mon Jul 27 18:48:02 2020
 By Aleksey,,,
Copyright (c) 2018 Kilotype GmbH. All rights reserved. |DCNT
</metadata>
<defs>
<font id="OldschoolGrotesk-Heavy" horiz-adv-x="0" >
  <font-face 
    font-family="Oldschool Grotesk Heavy"
    font-weight="900"
    font-stretch="normal"
    units-per-em="2048"
    panose-1="2 11 11 4 3 2 4 2 8 4"
    ascent="1659"
    descent="-389"
    x-height="1194"
    cap-height="1597"
    bbox="-735 -680 3070 7479"
    underline-thickness="49"
    underline-position="-173"
    unicode-range="U+000D-1F310"
  />
<missing-glyph horiz-adv-x="1187" 
 />
    <glyph glyph-name="f_f" unicode="ff" horiz-adv-x="1812" 
d="M705 0h-461v817h-203v377h203v63q0 459 497 459q123 0 209 -28v-345q-44 15 -96 15q-67 0 -108 -33.5t-41 -89.5v-41h362v63q0 459 498 459q156 0 243 -37v-344q-54 23 -127 23q-72 0 -112.5 -34t-40.5 -89v-41h268v-377h-268v-817h-461v817h-362v-817z" />
    <glyph glyph-name="fi" unicode="fi" horiz-adv-x="1642" 
d="M1309 1300q-114 0 -187 69t-73 173q0 105 73 174.5t187 69.5t187 -69.5t73 -174.5q0 -104 -73 -173t-187 -69zM705 0h-461v817h-203v377h203v63q0 459 497 459q117 0 193 -24v-344q-42 10 -80 10q-67 0 -108 -33.5t-41 -89.5v-41h270v-377h-270v-817zM1544 0h-473v1194
h473v-1194z" />
    <glyph glyph-name="fl" unicode="fl" horiz-adv-x="1636" 
d="M705 0h-461v817h-203v377h203v63q0 459 497 459q117 0 193 -24v-344q-42 10 -80 10q-67 0 -108 -33.5t-41 -89.5v-41h270v-377h-270v-817zM1538 0h-471v1659h471v-1659z" />
    <glyph glyph-name="f_f_i" unicode="ffi" horiz-adv-x="2465" 
d="M2132 1300q-115 0 -187.5 69t-72.5 173q0 106 72 175t188 69q112 0 185 -69.5t73 -174.5q0 -103 -73 -172.5t-185 -69.5zM705 0h-461v817h-203v377h203v63q0 459 497 459q123 0 209 -28v-345q-44 15 -96 15q-67 0 -108 -33.5t-41 -89.5v-41h362v63q0 459 498 459
q116 0 192 -24v-344q-42 10 -80 10q-67 0 -108 -33.5t-41 -89.5v-41h268v-377h-268v-817h-461v817h-362v-817zM2367 0h-473v1194h473v-1194z" />
    <glyph glyph-name="f_f_l" unicode="ffl" horiz-adv-x="2459" 
d="M705 0h-461v817h-203v377h203v63q0 459 497 459q123 0 209 -28v-345q-44 15 -96 15q-67 0 -108 -33.5t-41 -89.5v-41h362v63q0 459 498 459q116 0 192 -24v-344q-42 10 -80 10q-67 0 -108 -33.5t-41 -89.5v-41h268v-377h-268v-817h-461v817h-362v-817zM2361 0h-471v1659
h471v-1659z" />
    <glyph glyph-name=".notdef" horiz-adv-x="1187" 
 />
    <glyph glyph-name=".null" 
 />
    <glyph glyph-name="nonmarkingreturn" horiz-adv-x="682" 
 />
    <glyph glyph-name="NULL" 
 />
    <glyph glyph-name="CR" unicode="&#xd;" horiz-adv-x="393" 
 />
    <glyph glyph-name="space" unicode=" " horiz-adv-x="393" 
 />
    <glyph glyph-name="exclam" unicode="!" horiz-adv-x="686" 
d="M532 575h-376l-60 1022h496zM342 -37q-116 0 -191 72.5t-75 179.5t75 179.5t191 72.5q117 0 192.5 -72.5t75.5 -179.5t-75.5 -179.5t-192.5 -72.5z" />
    <glyph glyph-name="quotedbl" unicode="&#x22;" horiz-adv-x="1067" 
d="M434 1032h-354l-43 565h440zM926 1032h-355l-43 565h441z" />
    <glyph glyph-name="numbersign" unicode="#" horiz-adv-x="1646" 
d="M520 0h-327l86 401h-226v265h281l57 266h-239v264h297l86 401h327l-86 -401h264l86 401h330l-86 -401h223v-264h-278l-60 -266h240v-265h-295l-86 -401h-330l86 401h-264zM721 932l-57 -266h264l57 266h-264z" />
    <glyph glyph-name="dollar" unicode="$" horiz-adv-x="1392" 
d="M895 -141h-389v164q-196 47 -315.5 176.5t-131.5 306.5h488q7 -77 53.5 -119.5t116.5 -42.5q125 0 125 100q0 48 -44 80t-159 62q-294 78 -425.5 205.5t-131.5 332.5q0 179 112.5 298.5t311.5 156.5v160h389v-162q190 -41 298.5 -156.5t133.5 -296.5h-475
q-5 66 -42.5 105t-109.5 39q-61 0 -96 -27t-35 -70q0 -50 41.5 -80.5t163.5 -66.5q306 -90 430.5 -212t124.5 -314q0 -185 -114 -312t-320 -168v-159z" />
    <glyph glyph-name="percent" unicode="%" horiz-adv-x="2115" 
d="M498 760q-199 0 -325 122t-126 316q0 195 125.5 316.5t325.5 121.5q201 0 324.5 -121.5t123.5 -316.5q0 -194 -124 -316t-324 -122zM651 0h-352l1163 1597h353zM498 1040q104 0 104 158t-104 158q-105 0 -105 -158t105 -158zM1618 -39q-201 0 -326 122.5t-125 317.5
q0 193 125.5 316t325.5 123q198 0 323 -123.5t125 -315.5q0 -195 -125 -317.5t-323 -122.5zM1618 244q102 0 102 157q0 158 -102 158q-105 0 -105 -158q0 -157 105 -157z" />
    <glyph glyph-name="ampersand" unicode="&#x26;" horiz-adv-x="1802" 
d="M657 -41q-138 0 -252 37t-188 100.5t-114 147.5t-40 178q0 165 89.5 268t265.5 166q-95 93 -135.5 175.5t-40.5 187.5q0 181 144 300t392 119q257 0 398 -120t141 -312q0 -139 -89 -246t-227 -176l136 -127q48 69 67 164h445q-13 -86 -80 -216.5t-150 -213.5l418 -391
h-520l-146 135q-121 -98 -238 -137t-276 -39zM748 1024l34 -35q51 33 82 85t31 108q0 48 -27.5 77t-76.5 29q-115 3 -115 -114q0 -84 72 -150zM539 475q0 -68 46 -106.5t130 -38.5q108 0 190 55l-262 248q-104 -52 -104 -158z" />
    <glyph glyph-name="quotesingle" unicode="'" horiz-adv-x="575" 
d="M465 1032h-354l-43 565h440z" />
    <glyph glyph-name="parenleft" unicode="(" horiz-adv-x="913" 
d="M946 -410h-352q-105 78 -199 189t-171 249.5t-122 310t-45 349.5t45 349.5t122 310t171 249.5t199 189h352q-208 -196 -320 -478t-112 -620t112 -620t320 -478z" />
    <glyph glyph-name="parenright" unicode=")" horiz-adv-x="913" 
d="M319 -410h-352q208 196 320 478t112 620t-112 620t-320 478h352q105 -78 199 -189t171 -249.5t122 -310t45 -349.5t-45 -349.5t-122 -310t-171 -249.5t-199 -189z" />
    <glyph glyph-name="asterisk" unicode="*" horiz-adv-x="899" 
d="M573 840h-249l18 202l-166 -118l-125 211l180 84l-180 84l125 210l166 -118l-18 202h249l-18 -200l166 116l125 -210l-189 -84l189 -84l-125 -211l-166 116z" />
    <glyph glyph-name="plus" unicode="+" horiz-adv-x="1460" 
d="M932 207h-404v373h-360v360h360v375h404v-375h360v-360h-360v-373z" />
    <glyph glyph-name="comma" unicode="," horiz-adv-x="645" 
d="M367 -285h-351l103 660h479z" />
    <glyph glyph-name="hyphen" unicode="-" horiz-adv-x="1015" 
d="M915 516h-815v426h815v-426z" />
    <glyph glyph-name="period" unicode="." horiz-adv-x="638" 
d="M319 -37q-116 0 -192 72.5t-76 179.5t76 179.5t192 72.5t191.5 -72.5t75.5 -179.5t-75.5 -179.5t-191.5 -72.5z" />
    <glyph glyph-name="slash" unicode="/" horiz-adv-x="1142" 
d="M385 -297h-350l721 2044h352z" />
    <glyph glyph-name="zero" unicode="0" horiz-adv-x="1564" 
d="M782 -39q-322 0 -514 228.5t-192 609.5q0 382 191.5 609.5t514.5 227.5t515 -227.5t192 -609.5q0 -381 -192.5 -609.5t-514.5 -228.5zM782 375q99 0 147 104t48 320q0 218 -48 322t-147 104q-98 0 -145 -103.5t-47 -322.5q0 -217 47 -320.5t145 -103.5z" />
    <glyph glyph-name="one" unicode="1" horiz-adv-x="1036" 
d="M897 0h-494v901q-132 -99 -352 -96v446q204 7 323 91.5t169 254.5h354v-1597z" />
    <glyph glyph-name="two" unicode="2" horiz-adv-x="1394" 
d="M1294 0h-1210q0 114 8.5 201t31.5 172t62.5 153t101 135.5t148 129t203.5 124.5q128 70 169.5 114t41.5 106q0 51 -33 81.5t-92 30.5q-79 0 -122.5 -48.5t-49.5 -141.5h-481q31 274 200.5 427.5t450.5 153.5q279 0 430.5 -140t151.5 -378q0 -161 -96 -287.5t-316 -250.5
q-114 -62 -165.5 -106t-63.5 -87h630v-389z" />
    <glyph glyph-name="three" unicode="3" horiz-adv-x="1402" 
d="M721 -43q-298 0 -472 148.5t-204 412.5h473q7 -86 61 -130t134 -44q73 0 116 38.5t43 102.5q0 70 -49 103t-133 33h-213v362h193q161 0 161 137q0 62 -31.5 97.5t-90.5 35.5q-68 0 -110.5 -40.5t-49.5 -118.5h-471q42 269 207.5 406.5t433.5 137.5q256 0 408.5 -128
t152.5 -345q0 -240 -244 -340q139 -37 216 -135t77 -239q0 -220 -165 -357t-443 -137z" />
    <glyph glyph-name="four" unicode="4" horiz-adv-x="1468" 
d="M1245 0h-465v319h-733v412l717 866h481v-892h146v-386h-146v-319zM780 1090l-311 -385h311v385z" />
    <glyph glyph-name="five" unicode="5" horiz-adv-x="1454" 
d="M741 -41q-154 0 -277.5 39.5t-206.5 111t-134.5 164t-71.5 205.5h494q41 -135 186 -135q78 0 129 57t51 140q0 80 -52.5 132t-133.5 52q-51 0 -96 -21.5t-70 -56.5h-450l124 950h1016v-399h-651l-31 -264q108 125 322 125q136 0 250 -64.5t180.5 -176.5t66.5 -247
q0 -266 -178 -439t-467 -173z" />
    <glyph glyph-name="six" unicode="6" horiz-adv-x="1503" 
d="M791 -43q-157 0 -287 53t-225 153.5t-148 254t-53 346.5q0 197 45.5 357t135 275.5t229 178.5t319.5 63q254 0 416 -136t192 -384h-467q-21 137 -151 137q-236 0 -236 -399v-18q62 82 159 129t218 47q211 3 349 -133t138 -349q0 -250 -178.5 -412.5t-455.5 -162.5z
M772 334q79 0 128.5 50t49.5 128q0 82 -51 131t-127 49q-75 0 -125.5 -48.5t-50.5 -131.5q0 -78 49 -128t127 -50z" />
    <glyph glyph-name="seven" unicode="7" horiz-adv-x="1345" 
d="M696 0h-534q97 337 230.5 667t244.5 529h-590v401h1296v-6q-172 -323 -352.5 -767t-294.5 -824z" />
    <glyph glyph-name="eight" unicode="8" horiz-adv-x="1445" 
d="M723 -43q-187 0 -335 59.5t-233 173.5t-85 263q0 140 83.5 243.5t227.5 151.5q-116 48 -179 136.5t-63 209.5q0 200 160 322t424 122q263 0 422.5 -122t159.5 -322q0 -121 -63 -209.5t-179 -136.5q144 -48 227.5 -151.5t83.5 -243.5q0 -149 -85 -263t-232.5 -173.5
t-333.5 -59.5zM723 979q65 0 108 42.5t43 106.5q0 68 -42 110t-109 42q-68 0 -111 -42.5t-43 -109.5q0 -64 43.5 -106.5t110.5 -42.5zM723 326q79 0 129.5 49.5t50.5 122.5q0 77 -50.5 125.5t-129.5 48.5q-80 0 -131 -48t-51 -126q0 -73 51 -122.5t131 -49.5z" />
    <glyph glyph-name="nine" unicode="9" horiz-adv-x="1499" 
d="M733 -31q-269 0 -441 138.5t-206 381.5h469q12 -67 59 -102t115 -35q110 0 161.5 93.5t51.5 295.5v33q-55 -79 -145.5 -125t-204.5 -47q-232 0 -373 135.5t-141 354.5q0 236 180 396.5t453 160.5q327 0 518.5 -213t191.5 -578q0 -428 -180.5 -658.5t-507.5 -230.5z
M731 926q76 0 127 47.5t51 126.5q0 78 -50 126t-130 48q-78 0 -127 -48t-49 -126q0 -79 51 -126.5t127 -47.5z" />
    <glyph glyph-name="colon" unicode=":" horiz-adv-x="690" 
d="M346 -37q-116 0 -192 72.5t-76 179.5t76 179.5t192 72.5t191 -72.5t75 -179.5t-75 -179.5t-191 -72.5zM346 690q-116 0 -192 72.5t-76 179.5t76 179.5t192 72.5t191 -72.5t75 -179.5t-75 -179.5t-191 -72.5z" />
    <glyph glyph-name="semicolon" unicode=";" horiz-adv-x="751" 
d="M385 -285h-350l102 660h479zM410 690q-116 0 -192.5 72.5t-76.5 179.5t76.5 179.5t192.5 72.5t191 -72.5t75 -179.5t-75 -179.5t-191 -72.5z" />
    <glyph glyph-name="less" unicode="&#x3c;" horiz-adv-x="1460" 
d="M1208 492v-406l-1009 668l1009 665v-405l-409 -260z" />
    <glyph glyph-name="equal" unicode="=" horiz-adv-x="1460" 
d="M1255 827h-1050v361h1050v-361zM1255 332h-1050v360h1050v-360z" />
    <glyph glyph-name="greater" unicode="&#x3e;" horiz-adv-x="1460" 
d="M236 86v406l409 262l-409 260v405l1009 -665z" />
    <glyph glyph-name="question" unicode="?" horiz-adv-x="1249" 
d="M768 565h-416v60q0 126 68.5 217.5t220.5 185.5q78 49 103.5 83t25.5 79q0 44 -31.5 70t-85.5 26q-130 0 -159 -147h-453q32 235 194 367t418 132q239 0 390 -124t151 -318q0 -141 -62.5 -243.5t-222.5 -200.5q-78 -44 -109.5 -81.5t-31.5 -84.5v-21zM578 -37
q-116 0 -192.5 72.5t-76.5 179.5t76.5 179.5t192.5 72.5t191 -72.5t75 -179.5t-75 -179.5t-191 -72.5z" />
    <glyph glyph-name="at" unicode="@" horiz-adv-x="2119" 
d="M1069 -395q-213 0 -399.5 71t-321.5 196.5t-213 306t-78 390.5q0 281 136 509t369 355.5t515 127.5q286 0 509 -116.5t346.5 -328t123.5 -483.5q0 -248 -120 -409t-304 -161q-84 0 -139 26.5t-100 80.5q-27 35 -47 35q-16 0 -25.5 -5.5t-30.5 -25.5q-61 -56 -134 -88.5
t-181 -32.5q-201 0 -340 150t-139 368q0 143 63.5 261t173.5 185.5t242 67.5q155 0 272 -98q36 -31 51 -31q24 0 33 33q9 26 12 70h267v-676q0 -117 84 -117q92 0 142 99t50 286q0 225 -102 399t-284 268.5t-415 94.5q-250 0 -444 -106t-301 -298.5t-107 -439.5
q0 -237 111 -425t301.5 -291t423.5 -103q358 0 625 203v-164q-263 -184 -625 -184zM1059 356q92 0 146.5 59t54.5 156q0 94 -54.5 152.5t-146.5 58.5t-145.5 -57t-53.5 -154q0 -99 53.5 -157t145.5 -58z" />
    <glyph glyph-name="A" unicode="A" horiz-adv-x="1728" 
d="M537 0h-541l500 1597h718l535 -1597h-582l-86 285h-458zM850 1206l-154 -559h314z" />
    <glyph glyph-name="B" unicode="B" horiz-adv-x="1568" 
d="M954 0h-827v1597h782q259 0 399 -115.5t140 -305.5q0 -106 -53.5 -189.5t-155.5 -134.5q138 -49 211.5 -148.5t73.5 -228.5q0 -227 -147 -351t-423 -124zM633 1210v-258h176q147 0 147 131q0 127 -147 127h-176zM633 653v-266h233q148 0 148 131q0 135 -150 135h-231z
" />
    <glyph glyph-name="C" unicode="C" horiz-adv-x="1857" 
d="M942 -41q-191 0 -357 64.5t-282.5 176t-183 267t-66.5 332.5q0 237 113.5 428.5t317 301t458.5 109.5q365 3 599 -187t271 -521h-542q-12 121 -98.5 192.5t-208.5 71.5q-163 0 -256 -109t-93 -286q0 -176 93.5 -286t255.5 -110q122 0 208.5 71.5t98.5 193.5h542
q-37 -331 -271.5 -521.5t-598.5 -187.5z" />
    <glyph glyph-name="D" unicode="D" horiz-adv-x="1792" 
d="M874 0h-747v1597h747q258 0 452.5 -96t301.5 -277t107 -425q0 -243 -107 -424.5t-301.5 -278t-452.5 -96.5zM655 1186v-774h174q178 0 262.5 93.5t84.5 293.5t-84.5 293.5t-262.5 93.5h-174z" />
    <glyph glyph-name="E" unicode="E" horiz-adv-x="1417" 
d="M1354 0h-1227v1597h1190v-419h-678v-177h580v-401h-580v-180h715v-420z" />
    <glyph glyph-name="F" unicode="F" horiz-adv-x="1302" 
d="M643 0h-516v1597h1120v-411h-604v-234h522v-411h-522v-541z" />
    <glyph glyph-name="G" unicode="G" horiz-adv-x="1861" 
d="M860 -31q-234 0 -418 105.5t-285.5 293.5t-101.5 425q0 183 65 339.5t181 268t282.5 174.5t362.5 63q367 0 598 -185t256 -499h-545q-17 115 -93 177.5t-199 62.5q-155 0 -252 -106t-97 -289q0 -185 96 -290.5t248 -105.5q225 0 304 166q31 58 41 166h464v-735h-356
q-3 38 -18 88q-15 49 -50 49q-26 0 -65 -37q-152 -131 -418 -131z" />
    <glyph glyph-name="H" unicode="H" horiz-adv-x="1806" 
d="M655 0h-528v1597h528v-581h496v581h528v-1597h-528v602h-496v-602z" />
    <glyph glyph-name="I" unicode="I" horiz-adv-x="782" 
d="M655 0h-528v1597h528v-1597z" />
    <glyph glyph-name="J" unicode="J" horiz-adv-x="1595" 
d="M768 -41q-314 0 -519.5 171.5t-254.5 475.5h547q22 -106 74.5 -161.5t154.5 -55.5q184 0 184 209v999h531v-974q0 -301 -189 -482.5t-528 -181.5z" />
    <glyph glyph-name="K" unicode="K" horiz-adv-x="1730" 
d="M655 0h-528v1597h528v-757l482 757h614l-524 -761l540 -836h-657l-455 754v-754z" />
    <glyph glyph-name="L" unicode="L" horiz-adv-x="1280" 
d="M1253 0h-1126v1597h528v-1177h598v-420z" />
    <glyph glyph-name="M" unicode="M" horiz-adv-x="2199" 
d="M584 0h-457v1597h719l264 -929l256 929h707v-1597h-490v1032l-274 -1032h-449l-276 1034v-1034z" />
    <glyph glyph-name="N" unicode="N" horiz-adv-x="1816" 
d="M602 0h-475v1597h580l507 -913v913h476v-1597h-580l-508 913v-913z" />
    <glyph glyph-name="O" unicode="O" horiz-adv-x="1923" 
d="M963 -41q-203 0 -374 64.5t-288 176.5t-182.5 266.5t-65.5 332.5t65.5 332.5t182.5 266.5t288 176t374 64q202 0 372.5 -64t287.5 -176t182 -266.5t65 -332.5t-65 -332.5t-182 -266.5t-287.5 -176.5t-372.5 -64.5zM963 412q158 0 253 105t95 282q0 178 -94.5 283.5
t-253.5 105.5q-160 0 -254.5 -105.5t-94.5 -283.5q0 -177 94.5 -282t254.5 -105z" />
    <glyph glyph-name="P" unicode="P" horiz-adv-x="1558" 
d="M655 0h-528v1597h725q162 0 291 -44t213.5 -122t129 -184t44.5 -233q0 -125 -44.5 -231t-129 -184.5t-214.5 -122.5t-292 -44h-195v-432zM655 1198v-373h146q98 0 152.5 48t54.5 139q0 92 -54 139t-153 47h-146z" />
    <glyph glyph-name="Q" unicode="Q" horiz-adv-x="1951" 
d="M963 -41q-203 0 -374 64.5t-288 176.5t-182.5 266.5t-65.5 332.5t65.5 332.5t182.5 266.5t288 176t374 64q202 0 372.5 -64t287.5 -176t182 -266.5t65 -332.5q0 -296 -172 -518l221 -322h-541l-45 64q-170 -64 -370 -64zM963 399q50 0 104 13l-201 288h447q8 41 8 99
q0 182 -98 288.5t-260 106.5q-165 0 -262 -106.5t-97 -288.5q0 -183 97.5 -291.5t261.5 -108.5z" />
    <glyph glyph-name="R" unicode="R" horiz-adv-x="1615" 
d="M643 0h-516v1597h842q266 0 412.5 -117.5t146.5 -340.5q0 -140 -74 -241t-199 -140q99 -20 148.5 -84t69.5 -195l43 -278q20 -146 71 -201h-528q-18 11 -33.5 49t-21.5 90l-31 271q-8 81 -36.5 113t-100.5 32h-193v-555zM645 1202v-299h209q156 0 156 154q0 145 -156 145
h-209z" />
    <glyph glyph-name="S" unicode="S" horiz-adv-x="1480" 
d="M743 -41q-203 0 -360.5 73.5t-245.5 199.5t-98 286h508q10 -89 66.5 -136.5t144.5 -47.5q71 0 108 29t37 75q0 51 -39 78t-159 53q-324 74 -469.5 205t-145.5 352q0 236 174 374t471 138q300 0 468 -134.5t198 -381.5h-498q-23 142 -160 142q-60 0 -96.5 -29.5
t-36.5 -73.5q0 -51 39 -81t131 -50q328 -72 485.5 -209t157.5 -338q0 -248 -183.5 -386t-496.5 -138z" />
    <glyph glyph-name="T" unicode="T" horiz-adv-x="1441" 
d="M985 0h-528v1178h-432v419h1392v-419h-432v-1178z" />
    <glyph glyph-name="U" unicode="U" horiz-adv-x="1730" 
d="M866 -41q-167 0 -304.5 45t-238.5 130.5t-156.5 218.5t-55.5 302v942h528v-981q0 -110 59 -169.5t168 -59.5q106 0 166 59.5t60 169.5v981h530v-942q0 -169 -56 -302t-157 -218.5t-239 -130.5t-304 -45z" />
    <glyph glyph-name="V" unicode="V" horiz-adv-x="1742" 
d="M1200 0h-645l-582 1597h592l340 -1058l324 1058h526z" />
    <glyph glyph-name="W" unicode="W" horiz-adv-x="2514" 
d="M1036 0h-608l-440 1597h532l240 -1038l229 1038h565l238 -1040l238 1040h495l-434 -1597h-608l-226 1014z" />
    <glyph glyph-name="X" unicode="X" horiz-adv-x="1685" 
d="M557 0h-584l529 809l-520 788h622l254 -434l258 434h578l-504 -772l528 -825h-620l-264 459z" />
    <glyph glyph-name="Y" unicode="Y" horiz-adv-x="1656" 
d="M1081 0h-503v623l-605 974h578l303 -526l301 526h524l-598 -972v-625z" />
    <glyph glyph-name="Z" unicode="Z" horiz-adv-x="1425" 
d="M1352 0h-1342v6l617 1180h-551v411h1339v-6l-616 -1177h553v-414z" />
    <glyph glyph-name="bracketleft" unicode="[" horiz-adv-x="868" 
d="M829 -410h-702v2196h702v-283h-311v-1632h311v-281z" />
    <glyph glyph-name="backslash" unicode="\" horiz-adv-x="1142" 
d="M1108 -297h-350l-723 2044h352z" />
    <glyph glyph-name="bracketright" unicode="]" horiz-adv-x="868" 
d="M741 -410h-702v281h311v1632h-311v283h702v-2196z" />
    <glyph glyph-name="asciicircum" unicode="^" horiz-adv-x="1460" 
d="M506 809h-391l428 788h370l433 -788h-404l-217 467z" />
    <glyph glyph-name="underscore" unicode="_" horiz-adv-x="1228" 
d="M1229 -516h-1229v332h1229v-332z" />
    <glyph glyph-name="grave" unicode="`" horiz-adv-x="757" 
d="M707 1323h-353l-305 442h471z" />
    <glyph glyph-name="a" unicode="a" horiz-adv-x="1325" 
d="M481 -35q-188 0 -313 103t-125 282q0 171 122.5 266t356.5 109q137 3 264 35v37q0 42 -28 68t-78 26q-51 0 -86 -25.5t-41 -68.5h-479q16 93 61.5 171.5t119 138t181 93t238.5 33.5q272 0 417.5 -125t145.5 -365v-743h-346q-2 18 -19 84q-7 23 -13.5 30t-18.5 7
q-20 0 -43 -29q-57 -66 -132.5 -96.5t-183.5 -30.5zM514 381q0 -47 31 -72.5t86 -25.5q84 0 129 59q26 37 26 119v49q-49 -19 -163 -35q-109 -10 -109 -94z" />
    <glyph glyph-name="b" unicode="b" horiz-adv-x="1521" 
d="M891 -37q-105 0 -179.5 29.5t-140.5 85.5q-42 39 -67 39q-29 0 -41 -41q-14 -53 -17 -76h-348v1659h473v-479q0 -35 23 -35q12 0 41 16q107 68 254 68q161 0 296 -82.5t213.5 -229t78.5 -325.5q0 -174 -77.5 -318.5t-212 -227.5t-296.5 -83zM778 365q98 0 156.5 63.5
t58.5 169.5q0 103 -58.5 166t-156.5 63q-101 0 -159 -62.5t-58 -166.5q0 -106 58 -169.5t159 -63.5z" />
    <glyph glyph-name="c" unicode="c" horiz-adv-x="1417" 
d="M715 -43q-294 0 -483 180.5t-189 460.5q0 183 85.5 328.5t239 227t347.5 81.5q282 0 457 -150t206 -411h-467q-11 76 -58 118t-124 42q-96 0 -151.5 -63.5t-55.5 -172.5q0 -111 55.5 -175.5t151.5 -64.5q78 0 124.5 42t57.5 120h467q-31 -262 -206 -412.5t-457 -150.5z
" />
    <glyph glyph-name="d" unicode="d" horiz-adv-x="1519" 
d="M631 -37q-162 0 -296.5 83t-212 227.5t-77.5 318.5q0 179 78.5 325.5t213.5 229t296 82.5q155 0 254 -68q29 -16 41 -16q22 0 22 35v479h471v-1659h-348q-2 30 -14 76q-15 41 -41 41t-68 -39q-66 -56 -141 -85.5t-178 -29.5zM743 365q102 0 160 63.5t58 169.5
q0 104 -58 166.5t-160 62.5q-99 0 -157 -62.5t-58 -166.5q0 -106 58 -169.5t157 -63.5z" />
    <glyph glyph-name="e" unicode="e" horiz-adv-x="1390" 
d="M700 -41q-185 0 -334.5 79t-235 223.5t-85.5 328.5t84.5 331t234.5 229.5t336 82.5q188 0 334 -75t227.5 -213.5t81.5 -319.5q0 -109 -12 -158h-813q4 -74 55.5 -116t131.5 -42q120 0 155 78h461q-50 -200 -211 -314t-410 -114zM707 891q-82 0 -132.5 -47t-58.5 -121h369
q-7 82 -55 125t-123 43z" />
    <glyph glyph-name="f" unicode="f" horiz-adv-x="989" 
d="M705 0h-461v817h-203v377h203v63q0 459 497 459q157 0 244 -37v-350q-54 23 -127 23q-72 0 -112.5 -34t-40.5 -89v-35h270v-377h-270v-817z" />
    <glyph glyph-name="g" unicode="g" horiz-adv-x="1472" 
d="M737 -514q-271 0 -441 130t-222 343h463q44 -137 202 -137q94 0 141.5 41t47.5 131v102q0 33 -25 33q-13 0 -39 -16q-82 -56 -246 -56q-161 0 -291.5 74.5t-204 205t-73.5 290.5q0 134 46 248t122.5 190t175.5 119t205 43q92 0 167.5 -29t149.5 -94q23 -20 33 -25.5
t23 -5.5q28 0 43 41q12 50 14 80h346v-1153q0 -180 -79.5 -306t-221.5 -187.5t-336 -61.5zM727 428q92 0 144.5 54t52.5 145q0 89 -53 142.5t-144 53.5q-93 0 -146 -52.5t-53 -143.5t53 -145t146 -54z" />
    <glyph glyph-name="h" unicode="h" horiz-adv-x="1417" 
d="M569 0h-471v1659h471v-531q0 -38 27 -38q18 0 39 24q102 119 287 119q186 0 295.5 -125t109.5 -344v-764h-473v668q0 145 -121 145q-68 0 -112 -41q-52 -46 -52 -135v-637z" />
    <glyph glyph-name="i" unicode="i" horiz-adv-x="669" 
d="M334 1300q-114 0 -186 69t-72 173q0 105 72 174.5t186 69.5t187 -69.5t73 -174.5q0 -104 -73 -173t-187 -69zM569 0h-471v1194h471v-1194z" />
    <glyph glyph-name="j" unicode="j" horiz-adv-x="669" 
d="M334 1300q-114 0 -186 69t-72 173q0 105 72 174.5t186 69.5t187 -69.5t73 -174.5q0 -104 -73 -173t-187 -69zM569 -487h-471v1681h471v-1681z" />
    <glyph glyph-name="k" unicode="k" horiz-adv-x="1433" 
d="M571 0h-473v1659h473v-1006l314 541h549l-365 -571l410 -623h-580l-328 543v-543z" />
    <glyph glyph-name="l" unicode="l" horiz-adv-x="669" 
d="M571 0h-473v1659h473v-1659z" />
    <glyph glyph-name="m" unicode="m" horiz-adv-x="2095" 
d="M569 0h-471v1194h342q2 -26 19 -78q15 -47 49 -47q22 0 53 31q136 133 316 133q109 0 180.5 -34.5t124.5 -106.5q16 -23 27 -30t26 -7q18 0 59 41q71 77 144 107t176 30q183 0 287 -124t104 -345v-764h-469v684q0 133 -109 133q-70 0 -110 -55q-29 -39 -29 -113v-649
h-471v684q0 133 -108 133q-71 0 -111 -55q-29 -39 -29 -113v-649z" />
    <glyph glyph-name="n" unicode="n" horiz-adv-x="1417" 
d="M569 0h-471v1194h342q3 -25 21 -82q17 -43 47 -43q24 0 53 33q72 69 150.5 100t181.5 31q206 0 320 -123.5t114 -343.5v-766h-473v668q0 145 -123 145q-67 0 -108 -41q-54 -48 -54 -135v-637z" />
    <glyph glyph-name="o" unicode="o" horiz-adv-x="1468" 
d="M733 -39q-197 0 -354.5 81.5t-246.5 227t-89 328.5q0 182 89 327t246.5 226.5t354.5 81.5q150 0 278.5 -47.5t219 -131t141.5 -201.5t51 -255t-51 -255.5t-141.5 -202.5t-219 -131.5t-278.5 -47.5zM733 362q99 0 156 63.5t57 172.5q0 107 -57 170t-156 63
q-98 0 -154.5 -63.5t-56.5 -169.5q0 -109 56.5 -172.5t154.5 -63.5z" />
    <glyph glyph-name="p" unicode="p" horiz-adv-x="1521" 
d="M891 1231q162 0 296.5 -83t212 -227.5t77.5 -318.5q0 -179 -78.5 -325.5t-213.5 -229t-296 -82.5q-147 0 -254 68q-29 16 -41 16q-23 0 -23 -35v-516h-471l-2 1696h348q3 -23 17 -76q12 -41 41 -41q25 0 67 39q66 56 140.5 85.5t179.5 29.5zM778 829q-101 0 -159 -63.5
t-58 -167.5q0 -105 57.5 -168t159.5 -63q98 0 156.5 63t58.5 168t-58.5 168t-156.5 63z" />
    <glyph glyph-name="q" unicode="q" horiz-adv-x="1521" 
d="M631 1231q103 0 178 -29.5t141 -85.5q42 -39 68 -39t41 41q12 46 14 76h348v-1696h-471v516q0 35 -22 35q-12 0 -41 -16q-99 -68 -254 -68q-161 0 -296 82.5t-213.5 229t-78.5 325.5q0 174 77.5 318.5t212 227.5t296.5 83zM743 829q-99 0 -157 -63t-58 -168t58 -168
t157 -63q102 0 160 63t58 168q0 104 -58.5 167.5t-159.5 63.5z" />
    <glyph glyph-name="r" unicode="r" horiz-adv-x="1144" 
d="M569 0h-471v1194h340q7 -32 21 -72q14 -32 43 -32q13 0 23 5.5t34 24.5q59 51 117 74t141 23q155 0 238.5 -114t81.5 -323q0 -23 -4 -59h-416q4 16 4 31q0 33 -18 53t-52 20q-46 0 -67 -34q-15 -24 -15 -64v-727z" />
    <glyph glyph-name="s" unicode="s" horiz-adv-x="1216" 
d="M625 -43q-250 0 -405.5 112.5t-184.5 313.5h467q12 -119 123 -119q84 0 84 68q0 35 -28.5 54t-92.5 30q-283 46 -404 140.5t-121 274.5q0 186 144.5 295t390.5 109q501 0 553 -418h-446q-9 111 -97 111q-37 0 -59.5 -18t-22.5 -48q0 -41 33.5 -60.5t122.5 -33.5
q261 -38 374 -131.5t113 -267.5q0 -186 -149 -299t-395 -113z" />
    <glyph glyph-name="t" unicode="t" horiz-adv-x="1017" 
d="M725 -18q-258 0 -379 104.5t-121 347.5v383h-202v377h131q70 0 106.5 24.5t58.5 77.5q33 74 54 207h313v-309h270v-377h-270v-332q0 -72 38 -105.5t114 -33.5q56 0 131 19v-347q-91 -36 -244 -36z" />
    <glyph glyph-name="u" unicode="u" horiz-adv-x="1411" 
d="M524 -39q-206 0 -320 123.5t-114 343.5v766h471v-668q0 -147 129 -147q65 0 109 35q43 46 43 127v653h471v-1194h-340q-3 27 -19 72q-12 43 -45 43q-14 0 -25 -7t-36 -30q-123 -117 -324 -117z" />
    <glyph glyph-name="v" unicode="v" horiz-adv-x="1439" 
d="M1004 0h-564l-458 1194h518l233 -748l228 748h493z" />
    <glyph glyph-name="w" unicode="w" horiz-adv-x="2021" 
d="M858 0h-481l-389 1194h504l157 -657l166 657h430l166 -655l164 655h459l-389 -1194h-484l-147 598z" />
    <glyph glyph-name="x" unicode="x" horiz-adv-x="1337" 
d="M479 0h-499l385 602l-390 592h555l154 -274l156 274h497l-364 -571l401 -623h-557l-170 295z" />
    <glyph glyph-name="y" unicode="y" horiz-adv-x="1380" 
d="M737 -502h-491l196 502l-458 1194h518l205 -662l202 662h490z" />
    <glyph glyph-name="z" unicode="z" horiz-adv-x="1175" 
d="M1112 0h-1094v6l441 811h-389v377h1093v-6l-454 -836h403v-352z" />
    <glyph glyph-name="braceleft" unicode="{" horiz-adv-x="825" 
d="M758 -160v-268q-291 5 -443.5 98t-152.5 291q0 84 42 254t42 219q0 48 -19.5 72.5t-68.5 34.5q-82 14 -107 14v266q11 1 107 17q50 12 69 34.5t19 69.5q0 50 -42 220.5t-42 252.5q0 200 151.5 292.5t444.5 98.5v-268q-114 -6 -163.5 -46.5t-49.5 -123.5
q0 -34 35.5 -191.5t35.5 -220.5q0 -209 -206 -268q206 -56 206 -266q0 -65 -35.5 -221.5t-35.5 -192.5q0 -81 49.5 -121.5t163.5 -46.5z" />
    <glyph glyph-name="bar" unicode="|" horiz-adv-x="645" 
d="M518 -369h-391v2116h391v-2116z" />
    <glyph glyph-name="braceright" unicode="}" horiz-adv-x="825" 
d="M68 -428v268q114 6 163.5 46.5t49.5 121.5q0 36 -36 192.5t-36 221.5q0 210 207 266q-207 59 -207 268q0 63 36 220.5t36 191.5q0 83 -49.5 123.5t-163.5 46.5v268q293 -6 444.5 -98.5t151.5 -292.5q0 -82 -42 -252.5t-42 -220.5q0 -47 19 -69.5t69 -34.5q96 -16 106 -17
v-266q-24 0 -106 -14q-49 -10 -68.5 -34.5t-19.5 -72.5q0 -49 42 -219t42 -254q0 -198 -152.5 -291t-443.5 -98z" />
    <glyph glyph-name="asciitilde" unicode="~" horiz-adv-x="1460" 
d="M944 561q-72 0 -140 20t-109.5 43.5t-86.5 43.5t-76 20q-96 0 -124 -110h-285q15 133 63.5 237.5t135.5 169t200 64.5q72 0 139.5 -20t109 -43.5t86.5 -43.5t79 -20q96 0 123 112h287q-13 -100 -44.5 -184.5t-81 -149.5t-120.5 -102t-156 -37z" />
    <glyph glyph-name="uni00A0" unicode="&#xa0;" horiz-adv-x="393" 
 />
    <glyph glyph-name="exclamdown" unicode="&#xa1;" horiz-adv-x="671" 
d="M147 623h377l60 -1022h-496zM334 1235q117 0 192.5 -72.5t75.5 -179.5t-75.5 -179.5t-192.5 -72.5q-116 0 -191 72.5t-75 179.5t75 179.5t191 72.5z" />
    <glyph glyph-name="cent" unicode="&#xa2;" horiz-adv-x="1452" 
d="M887 0h-293v172q-239 43 -387 215t-148 412q0 243 148 414.5t387 211.5v172h293v-172q216 -38 349 -181.5t159 -366.5h-437q-12 92 -71 139v-432q59 47 71 139h437q-26 -223 -159 -367t-349 -182v-174zM504 799q0 -139 90 -211v424q-90 -72 -90 -213z" />
    <glyph glyph-name="sterling" unicode="&#xa3;" horiz-adv-x="1466" 
d="M1354 0h-1297v6q126 165 170.5 274.5t44.5 245.5q0 67 -18 170h-182v195h139q-31 143 -31 225q0 237 169 380.5t439 143.5q273 0 441 -150.5t180 -393.5h-487q-3 153 -121 153q-60 0 -89.5 -34.5t-29.5 -96.5q0 -64 35 -227h401v-195h-373q3 -35 3 -63q0 -71 -19 -124
t-74 -99h699v-410z" />
    <glyph glyph-name="currency" unicode="&#xa4;" horiz-adv-x="1484" 
d="M461 297l-178 -186l-213 196l157 168q-110 147 -110 346q0 205 110 346l-157 168l213 201l178 -186q130 53 280 53q155 0 283 -55l178 188l213 -201l-158 -168q109 -147 109 -346q0 -205 -109 -344l158 -170l-213 -196l-178 186q-128 -55 -283 -55q-152 0 -280 55z
M741 631q81 0 126.5 51t45.5 139q0 91 -45.5 143t-126.5 52q-79 0 -124.5 -52t-45.5 -143q0 -88 45.5 -139t124.5 -51z" />
    <glyph glyph-name="yen" unicode="&#xa5;" horiz-adv-x="1679" 
d="M600 328h-326v186h326v107h-326v186h228l-469 790h532l295 -557l295 557h492l-465 -790h223v-186h-326v-107h326v-186h-326v-328h-479v328z" />
    <glyph glyph-name="brokenbar" unicode="&#xa6;" horiz-adv-x="645" 
d="M518 838h-391v909h391v-909zM518 -369h-391v910h391v-910z" />
    <glyph glyph-name="section" unicode="&#xa7;" horiz-adv-x="1343" 
d="M676 -260q-252 0 -406.5 114t-183.5 318h469q12 -123 121 -123q86 0 86 74q0 35 -38 62t-132 46q-292 65 -410.5 156.5t-118.5 259.5q0 97 58.5 176.5t159.5 130.5q-80 51 -118 124.5t-38 181.5q0 179 147.5 289t386.5 110q252 0 395 -109.5t169 -320.5h-455
q-6 60 -29.5 89.5t-74.5 29.5q-34 0 -56 -18t-22 -52q0 -44 35.5 -67.5t130.5 -47.5q296 -65 413 -157.5t117 -264.5q0 -92 -55.5 -170.5t-151.5 -130.5q77 -52 113.5 -120.5t36.5 -169.5q0 -184 -152.5 -297t-396.5 -113zM686 586l68 -19q65 41 65 109q0 51 -29.5 78
t-119.5 53q-6 1 -78 20q-66 -41 -66 -106q0 -49 32 -79.5t128 -55.5z" />
    <glyph glyph-name="dieresis" unicode="&#xa8;" horiz-adv-x="1107" 
d="M836 1292q-94 0 -157 60.5t-63 152.5t63 151.5t157 59.5q97 0 159 -59.5t62 -151.5t-62 -152.5t-159 -60.5zM272 1292q-94 0 -156.5 60.5t-62.5 152.5t62.5 151.5t156.5 59.5q95 0 158.5 -59.5t63.5 -151.5t-64 -152.5t-158 -60.5z" />
    <glyph glyph-name="copyright" unicode="&#xa9;" horiz-adv-x="1826" 
d="M913 -35q-177 0 -334.5 64t-270.5 174.5t-179 266t-66 331.5q0 234 112 425t307 299.5t431 108.5t431 -108.5t307 -299.5t112 -425q0 -176 -66 -331.5t-179 -266t-270.5 -174.5t-334.5 -64zM913 109q191 0 347 89.5t245.5 248.5t89.5 354q0 145 -52.5 273t-143 219.5
t-217 144.5t-269.5 53q-190 0 -346.5 -90t-246 -248.5t-89.5 -351.5q0 -146 53 -275t143.5 -220.5t217 -144t268.5 -52.5zM930 305q-225 0 -376 140t-151 356q0 142 69.5 255t190 175.5t267.5 62.5q221 0 354 -118.5t160 -323.5h-389q-17 106 -115 106q-66 0 -101.5 -42
t-35.5 -115q0 -75 35.5 -118.5t101.5 -43.5q98 0 115 109h389q-27 -207 -159.5 -325t-354.5 -118z" />
    <glyph glyph-name="ordfeminine" unicode="&#xaa;" horiz-adv-x="1132" 
d="M434 618q-160 0 -261 82t-101 226q0 274 397 295q178 14 233 28v19q0 51 -33 80.5t-89 29.5q-54 0 -89.5 -25t-46.5 -65h-348q31 153 155.5 246.5t330.5 93.5q215 0 329.5 -99t114.5 -290v-592h-250q0 25 -12 72q-10 29 -25 29q-8 0 -13.5 -3.5t-12 -11.5t-8.5 -10
q-50 -55 -114 -80t-157 -25zM418 944q0 -44 31.5 -67t87.5 -23q93 0 139 61q26 45 26 117v31q-43 -18 -170 -31q-114 -14 -114 -88zM1026 289h-903v246h903v-246z" />
    <glyph glyph-name="guillemotleft" unicode="&#xab;" horiz-adv-x="1409" 
d="M987 125l-366 481l366 481h383l-317 -481l317 -481h-383zM422 125l-367 481l367 481h383l-318 -481l318 -481h-383z" />
    <glyph glyph-name="logicalnot" unicode="&#xac;" horiz-adv-x="1460" 
d="M135 827v361h1163v-742h-370v381h-793z" />
    <glyph glyph-name="uni00AD" unicode="&#xad;" horiz-adv-x="1015" 
d="M915 516h-815v426h815v-426z" />
    <glyph glyph-name="registered" unicode="&#xae;" horiz-adv-x="1122" 
d="M561 639q-221 0 -363.5 141.5t-142.5 358.5q0 214 143 356.5t363 142.5q221 0 363.5 -142.5t142.5 -356.5q0 -218 -142 -359t-364 -141zM561 743q167 0 277 112t110 284t-110 283.5t-277 111.5q-166 0 -276.5 -112t-110.5 -283t110.5 -283.5t276.5 -112.5zM524 891h-176
v495h277q87 0 134.5 -37t47.5 -108q0 -43 -24 -74t-62 -43q58 -12 67 -84l15 -86q7 -48 22 -63h-182q-13 10 -16 49l-11 78q-2 22 -8.5 30.5t-25.5 8.5h-58v-166zM524 1251v-75h62q43 0 43 38q0 37 -43 37h-62z" />
    <glyph glyph-name="macron" unicode="&#xaf;" horiz-adv-x="833" 
d="M803 1333h-770v281h770v-281z" />
    <glyph glyph-name="degree" unicode="&#xb0;" horiz-adv-x="854" 
d="M426 920q-167 0 -275 100.5t-108 255.5q0 156 107.5 256t275.5 100q171 0 277 -99.5t106 -256.5q0 -156 -106 -256t-277 -100zM426 1167q48 0 78.5 30t30.5 79t-30.5 79.5t-78.5 30.5t-78.5 -30.5t-30.5 -79.5t30.5 -79t78.5 -30z" />
    <glyph glyph-name="plusminus" unicode="&#xb1;" horiz-adv-x="1460" 
d="M1290 0h-1120v360h358v265h-358v360h358v375h404v-375h360v-360h-360v-265h360z" />
    <glyph glyph-name="twosuperior" unicode="&#xb2;" horiz-adv-x="829" 
d="M756 1014h-693q0 78 7.5 133.5t27 108.5t55 94.5t90.5 81.5t134 79q67 32 87.5 50.5t20.5 44.5q0 23 -15.5 36t-41.5 13q-41 0 -62.5 -26.5t-19.5 -69.5h-291q17 154 114 238.5t257 84.5q161 0 248.5 -76.5t87.5 -206.5q0 -65 -24.5 -112.5t-73 -85.5t-138.5 -84
q-64 -31 -83.5 -44.5t-20.5 -29.5h334v-229z" />
    <glyph glyph-name="threesuperior" unicode="&#xb3;" horiz-adv-x="833" 
d="M434 991q-170 0 -271 80t-118 221h287q5 -36 29.5 -57t64.5 -21q37 0 56.5 18t19.5 46q0 68 -84 68h-123v184h121q73 0 73 65q0 60 -63 60q-34 0 -56 -18t-28 -50h-285q29 149 125 222t248 73t239 -68t87 -184q0 -128 -140 -180q75 -14 117.5 -66t42.5 -131
q0 -116 -95 -189t-247 -73z" />
    <glyph glyph-name="acute" unicode="&#xb4;" horiz-adv-x="757" 
d="M403 1323h-352l187 442h471z" />
    <glyph glyph-name="mu" unicode="&#xb5;" horiz-adv-x="1421" 
d="M469 -487h-371v1681h471v-668q0 -147 129 -147q65 0 109 35q45 45 45 127v653h471v-1194h-342q0 26 -16 72q-15 43 -45 43q-13 0 -25 -8t-37 -33q-83 -90 -199 -90q-63 0 -118 34q-29 19 -43 19q-29 0 -29 -41v-483z" />
    <glyph glyph-name="paragraph" unicode="&#xb6;" horiz-adv-x="1617" 
d="M1036 -299h-299v883h-123q-260 0 -415.5 138t-155.5 368q0 232 154 369.5t415 137.5h424v-1896zM1464 -299h-299v1896h299v-1896z" />
    <glyph glyph-name="periodcentered" unicode="&#xb7;" horiz-adv-x="649" 
d="M326 346q-116 0 -192.5 72.5t-76.5 179.5t76.5 179.5t192.5 72.5t191 -72.5t75 -179.5t-75 -179.5t-191 -72.5z" />
    <glyph glyph-name="cedilla" unicode="&#xb8;" horiz-adv-x="808" 
d="M422 -535q-173 0 -269 91t-104 243h301q3 -82 74 -82q55 0 55 52q0 90 -221 231h309q191 -102 191 -252q0 -125 -89.5 -204t-246.5 -79z" />
    <glyph glyph-name="onesuperior" unicode="&#xb9;" horiz-adv-x="634" 
d="M539 1014h-297v438q-72 -49 -195 -39v268q119 2 185 44.5t92 134.5h215v-846z" />
    <glyph glyph-name="ordmasculine" unicode="&#xba;" horiz-adv-x="1247" 
d="M625 614q-243 0 -400 143.5t-157 364.5q0 220 156.5 363t400.5 143q241 0 398 -143t157 -363q0 -221 -156.5 -364.5t-398.5 -143.5zM625 903q98 0 155.5 59.5t57.5 159.5q0 99 -57.5 158t-155.5 59t-155.5 -59t-57.5 -158t57.5 -159t155.5 -60zM1104 289h-959v246h959
v-246z" />
    <glyph glyph-name="guillemotright" unicode="&#xbb;" horiz-adv-x="1409" 
d="M791 606l-367 -481h-383l317 481l-317 481h383zM1356 606l-367 -481h-383l318 481l-318 481h383z" />
    <glyph glyph-name="onequarter" unicode="&#xbc;" horiz-adv-x="1789" 
d="M539 754h-297v438q-72 -49 -195 -39v268q119 2 185 44t92 134h215v-845zM565 0h-309l909 1597h310zM1657 0h-281v160h-401v241l405 445h277v-465h78v-221h-78v-160zM1376 549l-153 -168h153v168z" />
    <glyph glyph-name="onehalf" unicode="&#xbd;" horiz-adv-x="1810" 
d="M539 754h-297v438q-72 -49 -195 -39v268q119 2 185 44t92 134h215v-845zM520 0h-309l909 1597h310zM1737 0h-693q0 78 7.5 133.5t27 108.5t55 95t90.5 82t134 79q67 32 87.5 50t20.5 44q0 23 -15.5 36t-41.5 13q-41 0 -62.5 -26.5t-19.5 -69.5h-291q17 154 114 238.5
t257 84.5q161 0 248.5 -76t87.5 -206q0 -95 -52 -155t-184 -128q-64 -31 -83.5 -44.5t-20.5 -29.5h334v-229z" />
    <glyph glyph-name="threequarters" unicode="&#xbe;" horiz-adv-x="1974" 
d="M434 731q-170 0 -271 80t-118 221h287q5 -36 29.5 -57t64.5 -21q37 0 56.5 18t19.5 46q0 67 -84 67h-123v185h121q73 0 73 65q0 60 -63 60q-34 0 -56 -18t-28 -50h-285q29 149 125 222t248 73t239 -68t87 -184q0 -128 -140 -180q75 -14 117.5 -66t42.5 -131
q0 -116 -95 -189t-247 -73zM717 0h-309l909 1597h309zM1841 0h-280v160h-402v241l406 445h276v-465h78v-221h-78v-160zM1561 549l-154 -168h154v168z" />
    <glyph glyph-name="questiondown" unicode="&#xbf;" horiz-adv-x="1241" 
d="M477 633h416v-60q0 -126 -68.5 -217.5t-220.5 -185.5q-78 -49 -103.5 -83t-25.5 -79q0 -44 31.5 -70t85.5 -26q131 0 160 147h452q-32 -235 -194 -367t-418 -132q-239 0 -390 124t-151 318q0 141 62.5 243.5t222.5 200.5q78 44 109.5 81.5t31.5 84.5v21zM668 1235
q116 0 192 -72.5t76 -179.5t-76 -179.5t-192 -72.5t-191.5 72.5t-75.5 179.5t75.5 179.5t191.5 72.5z" />
    <glyph glyph-name="Agrave" unicode="&#xc0;" horiz-adv-x="1728" 
d="M537 0h-541l500 1597h718l535 -1597h-582l-86 285h-458zM850 1206l-154 -559h314zM1055 1722h-430l-406 340h533z" />
    <glyph glyph-name="Aacute" unicode="&#xc1;" horiz-adv-x="1728" 
d="M-4 0h541l86 285h458l86 -285h582l-535 1597h-718zM696 647l154 559l160 -559h-314zM1075 1722h-430l303 340h533z" />
    <glyph glyph-name="Acircumflex" unicode="&#xc2;" horiz-adv-x="1728" 
d="M537 0h-541l500 1597h718l535 -1597h-582l-86 285h-458zM850 1206l-154 -559h314zM682 1722h-342l297 353h426l297 -353h-342l-133 99q-18 14 -35 14q-19 0 -35 -14z" />
    <glyph glyph-name="Atilde" unicode="&#xc3;" horiz-adv-x="1728" 
d="M537 0h-541l500 1597h718l535 -1597h-582l-86 285h-458zM850 1206l-154 -559h314zM1010 1704q-58 0 -113 18t-89.5 39.5t-70 39.5t-57.5 18q-68 0 -86 -101h-234q21 173 109 281q89 108 209 108q58 0 113.5 -17.5t89.5 -38.5t68.5 -38.5t56.5 -17.5q71 0 88 98h233
q-21 -174 -110 -283q-87 -106 -207 -106z" />
    <glyph glyph-name="Adieresis" unicode="&#xc4;" horiz-adv-x="1728" 
d="M537 0h-541l500 1597h718l535 -1597h-582l-86 285h-458zM850 1206l-154 -559h314zM1157 1690q-97 0 -160 61.5t-63 155.5t63 155.5t160 61.5q98 0 162.5 -61.5t64.5 -155.5t-64.5 -155.5t-162.5 -61.5zM541 1690q-98 0 -162 61.5t-64 155.5t64 155.5t162 61.5
q97 0 161 -61.5t64 -155.5t-64 -155.5t-161 -61.5z" />
    <glyph glyph-name="Aring" unicode="&#xc5;" horiz-adv-x="1728" 
d="M537 0h-541l500 1597h718l535 -1597h-582l-86 285h-458zM850 1206l-154 -559h314zM850 1696q-140 0 -230 81t-90 208q0 125 91 210q88 82 229 82q140 0 228.5 -81.5t88.5 -210.5q0 -125 -90 -209q-89 -80 -227 -80zM850 1909q34 0 56 22t22 54q0 35 -21.5 56t-56.5 21
t-56.5 -21t-21.5 -56q0 -32 22 -54t56 -22z" />
    <glyph glyph-name="AE" unicode="&#xc6;" horiz-adv-x="2398" 
d="M541 0h-609l885 1597h1481v-419h-649v-177h549v-401h-549v-180h684v-420h-1198v373l-398 2zM1135 1200l-228 -440h228v440z" />
    <glyph glyph-name="Ccedilla" unicode="&#xc7;" horiz-adv-x="1857" 
d="M942 -41q-191 0 -357 64.5t-282.5 176t-183 267t-66.5 332.5q0 237 113.5 428.5t317 301t458.5 109.5q365 3 599 -187t271 -521h-542q-12 121 -98.5 192.5t-208.5 71.5q-163 0 -256 -109t-93 -286q0 -176 93.5 -286t255.5 -110q122 0 208.5 71.5t98.5 193.5h542
q-37 -331 -271.5 -521.5t-598.5 -187.5zM956 -539q-181 0 -282.5 89t-112.5 251h307q9 -86 80 -86q64 0 64 66q0 49 -53.5 101t-172.5 118l252 23q136 -50 202.5 -120.5t66.5 -168.5q0 -122 -97.5 -197.5t-253.5 -75.5z" />
    <glyph glyph-name="Egrave" unicode="&#xc8;" horiz-adv-x="1417" 
d="M1354 0h-1227v1597h1190v-419h-678v-177h580v-401h-580v-180h715v-420zM942 1722h-430l-406 340h533z" />
    <glyph glyph-name="Eacute" unicode="&#xc9;" horiz-adv-x="1417" 
d="M127 0h1227v420h-715v180h580v401h-580v177h678v419h-1190v-1597zM963 1722h-431l304 340h532z" />
    <glyph glyph-name="Ecircumflex" unicode="&#xca;" horiz-adv-x="1417" 
d="M1354 0h-1227v1597h1190v-419h-678v-177h580v-401h-580v-180h715v-420zM571 1722h-342l297 353h426l297 -353h-342l-133 99q-18 14 -35 14q-18 0 -34 -14z" />
    <glyph glyph-name="Edieresis" unicode="&#xcb;" horiz-adv-x="1417" 
d="M1354 0h-1227v1597h1190v-419h-678v-177h580v-401h-580v-180h715v-420zM1044 1690q-97 0 -160 61.5t-63 155.5t63 155.5t160 61.5q98 0 163 -61.5t65 -155.5t-65 -155.5t-163 -61.5zM428 1690q-98 0 -161.5 61.5t-63.5 155.5t63.5 155.5t161.5 61.5q97 0 161 -61.5
t64 -155.5t-64 -155.5t-161 -61.5z" />
    <glyph glyph-name="Igrave" unicode="&#xcc;" horiz-adv-x="782" 
d="M655 0h-528v1597h528v-1597zM598 1722h-430l-406 340h533z" />
    <glyph glyph-name="Iacute" unicode="&#xcd;" horiz-adv-x="782" 
d="M127 0h528v1597h-528v-1597zM618 1722h-430l304 340h532z" />
    <glyph glyph-name="Icircumflex" unicode="&#xce;" horiz-adv-x="782" 
d="M655 0h-528v1597h528v-1597zM225 1722h-342l297 353h426l297 -353h-342l-133 99q-18 14 -35 14q-19 0 -35 -14z" />
    <glyph glyph-name="Idieresis" unicode="&#xcf;" horiz-adv-x="782" 
d="M655 0h-528v1597h528v-1597zM700 1690q-97 0 -160 61.5t-63 155.5t63 155.5t160 61.5q98 0 163 -61.5t65 -155.5t-65 -155.5t-163 -61.5zM84 1690q-98 0 -161.5 61.5t-63.5 155.5t63.5 155.5t161.5 61.5q97 0 161 -61.5t64 -155.5t-64 -155.5t-161 -61.5z" />
    <glyph glyph-name="Eth" unicode="&#xd0;" horiz-adv-x="1931" 
d="M1014 0h-748v625h-215v360h215v612h748q392 0 626 -215t234 -583q0 -367 -234 -583t-626 -216zM797 625v-213h172q179 0 262.5 93t83.5 294t-83.5 294t-262.5 93h-172v-201h301v-360h-301z" />
    <glyph glyph-name="Ntilde" unicode="&#xd1;" horiz-adv-x="1816" 
d="M602 0h-475v1597h580l507 -913v913h476v-1597h-580l-508 913v-913zM1073 1704q-58 0 -113 18t-89.5 39.5t-70 39.5t-57.5 18q-68 0 -86 -101h-233q21 175 108 281q88 108 209 108q58 0 113.5 -17.5t89.5 -38.5t68.5 -38.5t56.5 -17.5q71 0 88 98h234q-21 -173 -111 -283
q-87 -106 -207 -106z" />
    <glyph glyph-name="Ograve" unicode="&#xd2;" horiz-adv-x="1923" 
d="M963 -41q-203 0 -374 64.5t-288 176.5t-182.5 266.5t-65.5 332.5t65.5 332.5t182.5 266.5t288 176t374 64q202 0 372.5 -64t287.5 -176t182 -266.5t65 -332.5t-65 -332.5t-182 -266.5t-287.5 -176.5t-372.5 -64.5zM963 412q158 0 253 105t95 282q0 178 -94.5 283.5
t-253.5 105.5q-160 0 -254.5 -105.5t-94.5 -283.5q0 -177 94.5 -282t254.5 -105zM1167 1722h-430l-405 340h532z" />
    <glyph glyph-name="Oacute" unicode="&#xd3;" horiz-adv-x="1923" 
d="M963 -41q202 0 372.5 64.5t287.5 176.5t182 266.5t65 332.5t-65 332.5t-182 266.5t-287.5 176t-372.5 64q-203 0 -374 -64t-288 -176t-182.5 -266.5t-65.5 -332.5t65.5 -332.5t182.5 -266.5t288 -176.5t374 -64.5zM963 412q-160 0 -254.5 105t-94.5 282q0 178 94.5 283.5
t254.5 105.5q159 0 253.5 -105.5t94.5 -283.5q0 -177 -95 -282t-253 -105zM1188 1722h-430l303 340h532z" />
    <glyph glyph-name="Ocircumflex" unicode="&#xd4;" horiz-adv-x="1923" 
d="M963 -41q-203 0 -374 64.5t-288 176.5t-182.5 266.5t-65.5 332.5t65.5 332.5t182.5 266.5t288 176t374 64q202 0 372.5 -64t287.5 -176t182 -266.5t65 -332.5t-65 -332.5t-182 -266.5t-287.5 -176.5t-372.5 -64.5zM963 412q158 0 253 105t95 282q0 178 -94.5 283.5
t-253.5 105.5q-160 0 -254.5 -105.5t-94.5 -283.5q0 -177 94.5 -282t254.5 -105zM795 1722h-342l297 353h426l297 -353h-343l-133 99q-18 14 -34 14q-19 0 -35 -14z" />
    <glyph glyph-name="Otilde" unicode="&#xd5;" horiz-adv-x="1923" 
d="M963 -41q-203 0 -374 64.5t-288 176.5t-182.5 266.5t-65.5 332.5t65.5 332.5t182.5 266.5t288 176t374 64q202 0 372.5 -64t287.5 -176t182 -266.5t65 -332.5t-65 -332.5t-182 -266.5t-287.5 -176.5t-372.5 -64.5zM963 412q158 0 253 105t95 282q0 178 -94.5 283.5
t-253.5 105.5q-160 0 -254.5 -105.5t-94.5 -283.5q0 -177 94.5 -282t254.5 -105zM1122 1704q-58 0 -113 18t-89.5 39.5t-69.5 39.5t-57 18q-68 0 -86 -101h-234q21 173 109 281t209 108q58 0 113.5 -17.5t89.5 -38.5t68 -38.5t56 -17.5q71 0 88 98h234q-21 -173 -111 -283
q-87 -106 -207 -106z" />
    <glyph glyph-name="Odieresis" unicode="&#xd6;" horiz-adv-x="1923" 
d="M963 -41q-203 0 -374 64.5t-288 176.5t-182.5 266.5t-65.5 332.5t65.5 332.5t182.5 266.5t288 176t374 64q202 0 372.5 -64t287.5 -176t182 -266.5t65 -332.5t-65 -332.5t-182 -266.5t-287.5 -176.5t-372.5 -64.5zM963 412q158 0 253 105t95 282q0 178 -94.5 283.5
t-253.5 105.5q-160 0 -254.5 -105.5t-94.5 -283.5q0 -177 94.5 -282t254.5 -105zM1270 1690q-97 0 -160 61.5t-63 155.5t63 155.5t160 61.5q98 0 162.5 -61.5t64.5 -155.5t-64.5 -155.5t-162.5 -61.5zM653 1690q-98 0 -161.5 61.5t-63.5 155.5t63.5 155.5t161.5 61.5
q97 0 161.5 -61.5t64.5 -155.5t-64.5 -155.5t-161.5 -61.5z" />
    <glyph glyph-name="multiply" unicode="&#xd7;" horiz-adv-x="1460" 
d="M729 559l-295 -303l-244 236l304 311l-304 311l244 236l295 -303l297 303l244 -236l-303 -311l303 -311l-244 -236z" />
    <glyph glyph-name="Oslash" unicode="&#xd8;" horiz-adv-x="1923" 
d="M567 -100h-508l228 313q-113 113 -173.5 263.5t-60.5 322.5q0 178 65.5 332.5t182.5 266.5t288 176t374 64q175 0 317 -45l76 105h508l-228 -314q113 -111 173.5 -261.5t60.5 -323.5q0 -178 -65 -332.5t-182 -266.5t-287.5 -176.5t-372.5 -64.5q-175 0 -320 45zM582 799
q0 -113 36 -195l431 598q-36 8 -86 8q-173 0 -277 -111.5t-104 -299.5zM963 387q172 0 276 113t104 299q0 112 -36 194l-430 -598q36 -8 86 -8z" />
    <glyph glyph-name="Ugrave" unicode="&#xd9;" horiz-adv-x="1730" 
d="M866 -41q-167 0 -304.5 45t-238.5 130.5t-156.5 218.5t-55.5 302v942h528v-981q0 -110 59 -169.5t168 -59.5q106 0 166 59.5t60 169.5v981h530v-942q0 -169 -56 -302t-157 -218.5t-239 -130.5t-304 -45zM1071 1722h-430l-405 340h532z" />
    <glyph glyph-name="Uacute" unicode="&#xda;" horiz-adv-x="1730" 
d="M866 -41q166 0 304 45t239 130.5t157 218.5t56 302v942h-530v-981q0 -110 -60 -169.5t-166 -59.5q-109 0 -168 59.5t-59 169.5v981h-528v-942q0 -169 55.5 -302t156.5 -218.5t238.5 -130.5t304.5 -45zM1092 1722h-430l303 340h532z" />
    <glyph glyph-name="Ucircumflex" unicode="&#xdb;" horiz-adv-x="1730" 
d="M866 -41q-167 0 -304.5 45t-238.5 130.5t-156.5 218.5t-55.5 302v942h528v-981q0 -110 59 -169.5t168 -59.5q106 0 166 59.5t60 169.5v981h530v-942q0 -169 -56 -302t-157 -218.5t-239 -130.5t-304 -45zM698 1722h-342l297 353h426l297 -353h-342l-133 99q-18 14 -35 14
q-19 0 -35 -14z" />
    <glyph glyph-name="Udieresis" unicode="&#xdc;" horiz-adv-x="1730" 
d="M866 -41q-167 0 -304.5 45t-238.5 130.5t-156.5 218.5t-55.5 302v942h528v-981q0 -110 59 -169.5t168 -59.5q106 0 166 59.5t60 169.5v981h530v-942q0 -169 -56 -302t-157 -218.5t-239 -130.5t-304 -45zM1174 1690q-97 0 -160.5 61.5t-63.5 155.5t63.5 155.5t160.5 61.5
q98 0 162.5 -61.5t64.5 -155.5t-64.5 -155.5t-162.5 -61.5zM557 1690q-98 0 -161.5 61.5t-63.5 155.5t63.5 155.5t161.5 61.5q97 0 161 -61.5t64 -155.5t-64 -155.5t-161 -61.5z" />
    <glyph glyph-name="Yacute" unicode="&#xdd;" horiz-adv-x="1656" 
d="M578 0h503v625l598 972h-524l-301 -526l-303 526h-578l605 -974v-623zM1053 1722h-430l303 340h532z" />
    <glyph glyph-name="Thorn" unicode="&#xde;" horiz-adv-x="1579" 
d="M655 0h-528v1597h528v-217h197q321 0 499.5 -161.5t178.5 -419.5q0 -125 -44.5 -231t-129 -184.5t-214.5 -122.5t-292 -44h-195v-217zM655 983v-373h146q100 0 153.5 47t53.5 140q0 92 -53.5 139t-153.5 47h-146z" />
    <glyph glyph-name="germandbls" unicode="&#xdf;" horiz-adv-x="1429" 
d="M911 -25q-185 0 -280 58v348q77 -23 137 -23q72 0 111 33.5t39 95.5q0 170 -289 170v328q98 19 152.5 73t54.5 138q0 63 -34 98t-95 35q-65 0 -105.5 -42.5t-40.5 -106.5v-1180h-465l4 1130q1 280 162.5 432t450.5 152q240 0 395.5 -127.5t155.5 -329.5q0 -270 -256 -362
q178 -42 278 -164.5t100 -290.5q0 -98 -29 -178.5t-76 -132.5t-109.5 -87.5t-127.5 -51t-133 -15.5z" />
    <glyph glyph-name="agrave" unicode="&#xe0;" horiz-adv-x="1325" 
d="M481 -35q-188 0 -313 103t-125 282q0 171 122.5 266t356.5 109q137 3 264 35v37q0 42 -28 68t-78 26q-51 0 -86 -25.5t-41 -68.5h-479q16 93 61.5 171.5t119 138t181 93t238.5 33.5q272 0 417.5 -125t145.5 -365v-743h-346q-2 18 -19 84q-7 23 -13.5 30t-18.5 7
q-20 0 -43 -29q-57 -66 -132.5 -96.5t-183.5 -30.5zM514 381q0 -47 31 -72.5t86 -25.5q84 0 129 59q26 37 26 119v49q-49 -19 -163 -35q-109 -10 -109 -94zM860 1323h-352l-305 442h471z" />
    <glyph glyph-name="aacute" unicode="&#xe1;" horiz-adv-x="1325" 
d="M481 -35q108 0 183.5 30.5t132.5 96.5q23 29 43 29q12 0 18.5 -7t13.5 -30q17 -66 19 -84h346v743q0 240 -145.5 365t-417.5 125q-131 0 -238.5 -33.5t-181 -93t-119 -138t-61.5 -171.5h479q6 43 41 68.5t86 25.5q50 0 78 -26t28 -68v-37q-127 -32 -264 -35
q-234 -14 -356.5 -109t-122.5 -266q0 -179 125 -282t313 -103zM514 381q0 84 109 94q114 16 163 35v-49q0 -82 -26 -119q-45 -59 -129 -59q-55 0 -86 25.5t-31 72.5zM811 1323h-352l186 442h471z" />
    <glyph glyph-name="acircumflex" unicode="&#xe2;" horiz-adv-x="1325" 
d="M481 -35q-188 0 -313 103t-125 282q0 171 122.5 266t356.5 109q137 3 264 35v37q0 42 -28 68t-78 26q-51 0 -86 -25.5t-41 -68.5h-479q16 93 61.5 171.5t119 138t181 93t238.5 33.5q272 0 417.5 -125t145.5 -365v-743h-346q-2 18 -19 84q-7 23 -13.5 30t-18.5 7
q-20 0 -43 -29q-57 -66 -132.5 -96.5t-183.5 -30.5zM514 381q0 -47 31 -72.5t86 -25.5q84 0 129 59q26 37 26 119v49q-49 -19 -163 -35q-109 -10 -109 -94zM506 1323h-287l320 442h278l318 -442h-287l-137 127q-16 16 -33 16t-33 -16z" />
    <glyph glyph-name="atilde" unicode="&#xe3;" horiz-adv-x="1325" 
d="M481 -35q-188 0 -313 103t-125 282q0 171 122.5 266t356.5 109q137 3 264 35v37q0 42 -28 68t-78 26q-51 0 -86 -25.5t-41 -68.5h-479q16 93 61.5 171.5t119 138t181 93t238.5 33.5q272 0 417.5 -125t145.5 -365v-743h-346q-2 18 -19 84q-7 23 -13.5 30t-18.5 7
q-20 0 -43 -29q-57 -66 -132.5 -96.5t-183.5 -30.5zM514 381q0 -47 31 -72.5t86 -25.5q84 0 129 59q26 37 26 119v49q-49 -19 -163 -35q-109 -10 -109 -94zM838 1327q-58 0 -113 18t-89.5 39.5t-70 39.5t-57.5 18q-68 0 -86 -101h-234q21 173 109 281q89 109 209 109
q58 0 113.5 -17.5t89.5 -39t68.5 -39t56.5 -17.5q71 0 88 98h233q-21 -172 -111 -282q-88 -107 -206 -107z" />
    <glyph glyph-name="adieresis" unicode="&#xe4;" horiz-adv-x="1325" 
d="M481 -35q-188 0 -313 103t-125 282q0 171 122.5 266t356.5 109q137 3 264 35v37q0 42 -28 68t-78 26q-51 0 -86 -25.5t-41 -68.5h-479q16 93 61.5 171.5t119 138t181 93t238.5 33.5q272 0 417.5 -125t145.5 -365v-743h-346q-2 18 -19 84q-7 23 -13.5 30t-18.5 7
q-20 0 -43 -29q-57 -66 -132.5 -96.5t-183.5 -30.5zM514 381q0 -47 31 -72.5t86 -25.5q84 0 129 59q26 37 26 119v49q-49 -19 -163 -35q-109 -10 -109 -94zM958 1292q-94 0 -156.5 60.5t-62.5 152.5t62.5 151.5t156.5 59.5q97 0 159.5 -59.5t62.5 -151.5t-62.5 -152.5
t-159.5 -60.5zM395 1292q-94 0 -156.5 60.5t-62.5 152.5t62.5 151.5t156.5 59.5t157.5 -59.5t63.5 -151.5t-63.5 -152.5t-157.5 -60.5z" />
    <glyph glyph-name="aring" unicode="&#xe5;" horiz-adv-x="1325" 
d="M481 -35q-188 0 -313 103t-125 282q0 171 122.5 266t356.5 109q137 3 264 35v37q0 42 -28 68t-78 26q-51 0 -86 -25.5t-41 -68.5h-479q16 93 61.5 171.5t119 138t181 93t238.5 33.5q272 0 417.5 -125t145.5 -365v-743h-346q-2 18 -19 84q-7 23 -13.5 30t-18.5 7
q-20 0 -43 -29q-57 -66 -132.5 -96.5t-183.5 -30.5zM514 381q0 -47 31 -72.5t86 -25.5q84 0 129 59q26 37 26 119v49q-49 -19 -163 -35q-109 -10 -109 -94zM678 1300q-135 0 -221 79t-86 202q0 125 86 205t221 80t221 -80t86 -205q0 -123 -86 -202t-221 -79zM678 1497
q38 0 62 24t24 60q0 38 -24 62t-62 24q-37 0 -61.5 -24t-24.5 -62q0 -35 24.5 -59.5t61.5 -24.5z" />
    <glyph glyph-name="ae" unicode="&#xe6;" horiz-adv-x="2103" 
d="M598 -39q-156 0 -280 45.5t-199.5 138.5t-75.5 220q0 168 127.5 264t370.5 96h252v63q0 103 -113 103q-107 0 -125 -92h-483q17 91 60.5 167.5t114 137.5t176.5 95t239 34q127 0 231.5 -33t161.5 -90q146 125 393 125q177 0 316 -77.5t215.5 -215.5t76.5 -311
q0 -119 -12 -168h-791q6 -72 51.5 -112t120.5 -40q111 0 146 74h461q-50 -198 -207 -311t-385 -113q-137 0 -246.5 40.5t-173.5 111.5q-66 -74 -178 -113t-244 -39zM1430 889q-78 0 -126.5 -47t-50.5 -117h342q-6 79 -49.5 121.5t-115.5 42.5zM645 283q73 0 110.5 39
t37.5 112v29h-154q-119 0 -119 -90q0 -39 34.5 -64.5t90.5 -25.5z" />
    <glyph glyph-name="ccedilla" unicode="&#xe7;" horiz-adv-x="1417" 
d="M715 -43q-294 0 -483 180.5t-189 460.5q0 183 85.5 328.5t239 227t347.5 81.5q282 0 457 -150t206 -411h-467q-11 76 -58 118t-124 42q-96 0 -151.5 -63.5t-55.5 -172.5q0 -111 55.5 -175.5t151.5 -64.5q78 0 124.5 42t57.5 120h467q-31 -262 -206 -412.5t-457 -150.5z
M723 -532q-173 0 -269 91t-104 242h301q3 -82 74 -82q55 0 55 52q0 90 -221 231h309q191 -102 191 -252q0 -125 -89.5 -203.5t-246.5 -78.5z" />
    <glyph glyph-name="egrave" unicode="&#xe8;" horiz-adv-x="1390" 
d="M700 -41q-185 0 -334.5 79t-235 223.5t-85.5 328.5t84.5 331t234.5 229.5t336 82.5q188 0 334 -75t227.5 -213.5t81.5 -319.5q0 -109 -12 -158h-813q4 -74 55.5 -116t131.5 -42q120 0 155 78h461q-50 -200 -211 -314t-410 -114zM707 891q-82 0 -132.5 -47t-58.5 -121h369
q-7 82 -55 125t-123 43zM893 1323h-352l-305 442h471z" />
    <glyph glyph-name="eacute" unicode="&#xe9;" horiz-adv-x="1390" 
d="M700 -41q249 0 410 114t211 314h-461q-35 -78 -155 -78q-80 0 -131.5 42t-55.5 116h813q12 50 12 158q0 181 -81.5 319.5t-227.5 213.5t-334 75q-186 0 -336 -82.5t-234.5 -229.5t-84.5 -331t85.5 -328.5t235 -223.5t334.5 -79zM707 891q75 0 123 -43t55 -125h-369
q8 74 58.5 121t132.5 47zM846 1323h-352l186 442h471z" />
    <glyph glyph-name="ecircumflex" unicode="&#xea;" horiz-adv-x="1390" 
d="M700 -41q-185 0 -334.5 79t-235 223.5t-85.5 328.5t84.5 331t234.5 229.5t336 82.5q188 0 334 -75t227.5 -213.5t81.5 -319.5q0 -109 -12 -158h-813q4 -74 55.5 -116t131.5 -42q120 0 155 78h461q-50 -200 -211 -314t-410 -114zM707 891q-82 0 -132.5 -47t-58.5 -121h369
q-7 82 -55 125t-123 43zM539 1323h-287l319 442h279l317 -442h-286l-138 127q-16 16 -32 16q-17 0 -33 -16z" />
    <glyph glyph-name="edieresis" unicode="&#xeb;" horiz-adv-x="1390" 
d="M700 -41q-185 0 -334.5 79t-235 223.5t-85.5 328.5t84.5 331t234.5 229.5t336 82.5q188 0 334 -75t227.5 -213.5t81.5 -319.5q0 -109 -12 -158h-813q4 -74 55.5 -116t131.5 -42q120 0 155 78h461q-50 -200 -211 -314t-410 -114zM707 891q-82 0 -132.5 -47t-58.5 -121h369
q-7 82 -55 125t-123 43zM991 1292q-94 0 -156.5 60.5t-62.5 152.5t62.5 151.5t156.5 59.5q97 0 159 -59.5t62 -151.5t-62 -152.5t-159 -60.5zM428 1292q-94 0 -156.5 60.5t-62.5 152.5t62.5 151.5t156.5 59.5t157.5 -59.5t63.5 -151.5t-63.5 -152.5t-157.5 -60.5z" />
    <glyph glyph-name="igrave" unicode="&#xec;" horiz-adv-x="669" 
d="M569 0h-471v1194h471v-1194zM502 1323h-330l-231 440h434z" />
    <glyph glyph-name="iacute" unicode="&#xed;" horiz-adv-x="669" 
d="M98 0h471v1194h-471v-1194zM496 1323h-330l127 440h434z" />
    <glyph glyph-name="icircumflex" unicode="&#xee;" horiz-adv-x="657" 
d="M88 0h471v1194h-471v-1194zM176 1763h295l258 -440h-264l-109 133q-20 23 -32 23q-13 0 -33 -23l-109 -133h-264z" />
    <glyph glyph-name="idieresis" unicode="&#xef;" horiz-adv-x="669" 
d="M569 0h-471v1194h471v-1194zM602 1282q-98 0 -161.5 62t-63.5 155q0 96 63 156.5t162 60.5q98 0 161.5 -60.5t63.5 -156.5q0 -92 -64.5 -154.5t-160.5 -62.5zM66 1282q-98 0 -162 62t-64 155q0 96 63.5 156.5t162.5 60.5q98 0 161.5 -60.5t63.5 -156.5
q0 -92 -64.5 -154.5t-160.5 -62.5z" />
    <glyph glyph-name="eth" unicode="&#xf0;" horiz-adv-x="1390" 
d="M686 -41q-185 0 -331.5 73t-229 205.5t-82.5 301.5q0 156 72 285.5t194.5 203.5t268.5 74q74 0 176 -25q18 -6 32 -6q21 0 21 29q0 59 -53 123q-21 28 -52 55l-325 -131v203l151 61q-86 56 -155 88l284 199q132 -56 246 -135l268 106v-203l-110 -45q128 -137 199 -315.5
t77 -384.5q4 -186 -41.5 -332t-133 -239.5t-208 -142t-268.5 -48.5zM686 346q80 0 127 48t47 134q0 90 -47 141.5t-127 51.5t-127 -51.5t-47 -139.5q0 -86 47 -135t127 -49z" />
    <glyph glyph-name="ntilde" unicode="&#xf1;" horiz-adv-x="1417" 
d="M569 0h-471v1194h342q3 -25 21 -82q17 -43 47 -43q24 0 53 33q72 69 150.5 100t181.5 31q206 0 320 -123.5t114 -343.5v-766h-473v668q0 145 -123 145q-67 0 -108 -41q-54 -48 -54 -135v-637zM872 1327q-58 0 -113 18t-89.5 39.5t-69.5 39.5t-57 18q-68 0 -86 -101h-234
q21 173 109 281q89 109 209 109q58 0 113.5 -17.5t89.5 -39t68 -39t56 -17.5q71 0 88 98h234q-21 -172 -111 -282q-88 -107 -207 -107z" />
    <glyph glyph-name="ograve" unicode="&#xf2;" horiz-adv-x="1468" 
d="M733 -39q-197 0 -354.5 81.5t-246.5 227t-89 328.5q0 182 89 327t246.5 226.5t354.5 81.5q150 0 278.5 -47.5t219 -131t141.5 -201.5t51 -255t-51 -255.5t-141.5 -202.5t-219 -131.5t-278.5 -47.5zM733 362q99 0 156 63.5t57 172.5q0 107 -57 170t-156 63
q-98 0 -154.5 -63.5t-56.5 -169.5q0 -109 56.5 -172.5t154.5 -63.5zM915 1323h-352l-305 442h471z" />
    <glyph glyph-name="oacute" unicode="&#xf3;" horiz-adv-x="1468" 
d="M733 -39q150 0 278.5 47.5t219 131.5t141.5 202.5t51 255.5t-51 255t-141.5 201.5t-219 131t-278.5 47.5q-197 0 -354.5 -81.5t-246.5 -226.5t-89 -327q0 -183 89 -328.5t246.5 -227t354.5 -81.5zM733 362q-98 0 -154.5 63.5t-56.5 172.5q0 106 56.5 169.5t154.5 63.5
q99 0 156 -63t57 -170q0 -109 -57 -172.5t-156 -63.5zM868 1323h-352l186 442h472z" />
    <glyph glyph-name="ocircumflex" unicode="&#xf4;" horiz-adv-x="1468" 
d="M733 -39q-197 0 -354.5 81.5t-246.5 227t-89 328.5q0 182 89 327t246.5 226.5t354.5 81.5q150 0 278.5 -47.5t219 -131t141.5 -201.5t51 -255t-51 -255.5t-141.5 -202.5t-219 -131.5t-278.5 -47.5zM733 362q99 0 156 63.5t57 172.5q0 107 -57 170t-156 63
q-98 0 -154.5 -63.5t-56.5 -169.5q0 -109 56.5 -172.5t154.5 -63.5zM561 1323h-287l320 442h278l318 -442h-287l-137 127q-16 16 -33 16t-33 -16z" />
    <glyph glyph-name="otilde" unicode="&#xf5;" horiz-adv-x="1468" 
d="M733 -39q-197 0 -354.5 81.5t-246.5 227t-89 328.5q0 182 89 327t246.5 226.5t354.5 81.5q150 0 278.5 -47.5t219 -131t141.5 -201.5t51 -255t-51 -255.5t-141.5 -202.5t-219 -131.5t-278.5 -47.5zM733 362q99 0 156 63.5t57 172.5q0 107 -57 170t-156 63
q-98 0 -154.5 -63.5t-56.5 -169.5q0 -109 56.5 -172.5t154.5 -63.5zM893 1327q-58 0 -113 18t-89.5 39.5t-70 39.5t-57.5 18q-68 0 -86 -101h-233q21 175 108 281q89 109 209 109q58 0 113.5 -17.5t89.5 -39t68.5 -39t56.5 -17.5q71 0 88 98h233q-21 -173 -110 -282
q-88 -107 -207 -107z" />
    <glyph glyph-name="odieresis" unicode="&#xf6;" horiz-adv-x="1468" 
d="M733 -39q-197 0 -354.5 81.5t-246.5 227t-89 328.5q0 182 89 327t246.5 226.5t354.5 81.5q150 0 278.5 -47.5t219 -131t141.5 -201.5t51 -255t-51 -255.5t-141.5 -202.5t-219 -131.5t-278.5 -47.5zM733 362q99 0 156 63.5t57 172.5q0 107 -57 170t-156 63
q-98 0 -154.5 -63.5t-56.5 -169.5q0 -109 56.5 -172.5t154.5 -63.5zM1014 1292q-94 0 -156.5 60.5t-62.5 152.5t62.5 151.5t156.5 59.5q97 0 159 -59.5t62 -151.5t-62 -152.5t-159 -60.5zM451 1292q-94 0 -157 60.5t-63 152.5t63 151.5t157 59.5t157.5 -59.5t63.5 -151.5
t-63.5 -152.5t-157.5 -60.5z" />
    <glyph glyph-name="divide" unicode="&#xf7;" horiz-adv-x="1460" 
d="M729 1008q-96 0 -157.5 60t-61.5 149t61.5 147.5t157.5 58.5t157.5 -58.5t61.5 -147.5t-61.5 -149t-157.5 -60zM1251 580h-1042v360h1042v-360zM729 96q-96 0 -157.5 60t-61.5 149t61.5 148t157.5 59t157.5 -59t61.5 -148t-61.5 -149t-157.5 -60z" />
    <glyph glyph-name="oslash" unicode="&#xf8;" horiz-adv-x="1466" 
d="M426 -100h-387l182 256q-86 83 -132 196.5t-46 245.5q0 182 89 327t246.5 226.5t354.5 81.5q126 0 242 -35l65 94h390l-183 -254q84 -87 130 -199.5t46 -240.5q0 -183 -88.5 -328.5t-246 -227t-355.5 -81.5q-121 0 -237 35zM481 598q0 -64 19 -119l278 387q-14 2 -45 2
q-116 0 -184 -73t-68 -197zM733 326q117 0 184.5 73.5t67.5 198.5q0 62 -18 115l-277 -385q14 -2 43 -2z" />
    <glyph glyph-name="ugrave" unicode="&#xf9;" horiz-adv-x="1411" 
d="M524 -39q-206 0 -320 123.5t-114 343.5v766h471v-668q0 -147 129 -147q65 0 109 35q43 46 43 127v653h471v-1194h-340q-3 27 -19 72q-12 43 -45 43q-14 0 -25 -7t-36 -30q-123 -117 -324 -117zM893 1323h-352l-305 442h471z" />
    <glyph glyph-name="uacute" unicode="&#xfa;" horiz-adv-x="1411" 
d="M524 -39q201 0 324 117q25 23 36 30t25 7q33 0 45 -43q16 -45 19 -72h340v1194h-471v-653q0 -81 -43 -127q-44 -35 -109 -35q-129 0 -129 147v668h-471v-766q0 -220 114 -343.5t320 -123.5zM846 1323h-352l186 442h471z" />
    <glyph glyph-name="ucircumflex" unicode="&#xfb;" horiz-adv-x="1411" 
d="M524 -39q-206 0 -320 123.5t-114 343.5v766h471v-668q0 -147 129 -147q65 0 109 35q43 46 43 127v653h471v-1194h-340q-3 27 -19 72q-12 43 -45 43q-14 0 -25 -7t-36 -30q-123 -117 -324 -117zM539 1323h-287l319 442h279l317 -442h-286l-138 127q-16 16 -32 16
q-17 0 -33 -16z" />
    <glyph glyph-name="udieresis" unicode="&#xfc;" horiz-adv-x="1411" 
d="M524 -39q-206 0 -320 123.5t-114 343.5v766h471v-668q0 -147 129 -147q65 0 109 35q43 46 43 127v653h471v-1194h-340q-3 27 -19 72q-12 43 -45 43q-14 0 -25 -7t-36 -30q-123 -117 -324 -117zM991 1292q-94 0 -156.5 60.5t-62.5 152.5t62.5 151.5t156.5 59.5
q97 0 159 -59.5t62 -151.5t-62 -152.5t-159 -60.5zM428 1292q-94 0 -156.5 60.5t-62.5 152.5t62.5 151.5t156.5 59.5t157.5 -59.5t63.5 -151.5t-63.5 -152.5t-157.5 -60.5z" />
    <glyph glyph-name="yacute" unicode="&#xfd;" horiz-adv-x="1380" 
d="M246 -502h491l662 1696h-490l-202 -662l-205 662h-518l458 -1194zM842 1323h-353l187 442h471z" />
    <glyph glyph-name="thorn" unicode="&#xfe;" horiz-adv-x="1519" 
d="M571 -502h-473v2161h473v-451q0 -51 27 -51q6 0 45 17q119 55 242 55q164 2 300.5 -82t214 -229.5t75.5 -319.5q0 -177 -76.5 -322.5t-212 -229t-301.5 -83.5q-122 0 -242 57q-30 15 -45 15q-27 0 -27 -51v-486zM778 365q98 0 155.5 63.5t57.5 169.5q0 103 -57.5 166
t-155.5 63q-102 0 -160.5 -62.5t-58.5 -166.5q0 -105 58.5 -169t160.5 -64z" />
    <glyph glyph-name="ydieresis" unicode="&#xff;" horiz-adv-x="1380" 
d="M737 -502h-491l196 502l-458 1194h518l205 -662l202 662h490zM987 1292q-94 0 -156.5 60.5t-62.5 152.5t62.5 151.5t156.5 59.5q97 0 159 -59.5t62 -151.5t-62 -152.5t-159 -60.5zM424 1292q-94 0 -156.5 60.5t-62.5 152.5t62.5 151.5t156.5 59.5t157.5 -59.5
t63.5 -151.5t-63.5 -152.5t-157.5 -60.5z" />
    <glyph glyph-name="Amacron" unicode="&#x100;" horiz-adv-x="1728" 
d="M537 0h-541l500 1597h718l535 -1597h-582l-86 285h-458zM850 1206l-154 -559h314zM1235 1716h-770v281h770v-281z" />
    <glyph glyph-name="amacron" unicode="&#x101;" horiz-adv-x="1325" 
d="M481 -35q-188 0 -313 103t-125 282q0 171 122.5 266t356.5 109q137 3 264 35v37q0 42 -28 68t-78 26q-51 0 -86 -25.5t-41 -68.5h-479q16 93 61.5 171.5t119 138t181 93t238.5 33.5q272 0 417.5 -125t145.5 -365v-743h-346q-2 18 -19 84q-7 23 -13.5 30t-18.5 7
q-20 0 -43 -29q-57 -66 -132.5 -96.5t-183.5 -30.5zM514 381q0 -47 31 -72.5t86 -25.5q84 0 129 59q26 37 26 119v49q-49 -19 -163 -35q-109 -10 -109 -94zM1063 1333h-770v281h770v-281z" />
    <glyph glyph-name="Abreve" unicode="&#x102;" horiz-adv-x="1728" 
d="M537 0h-541l500 1597h718l535 -1597h-582l-86 285h-458zM850 1206l-154 -559h314zM850 1706q-202 0 -317 96.5t-121 270.5h282q18 -111 156 -111t156 111h282q-6 -174 -121 -270.5t-317 -96.5z" />
    <glyph glyph-name="abreve" unicode="&#x103;" horiz-adv-x="1325" 
d="M481 -35q-188 0 -313 103t-125 282q0 171 122.5 266t356.5 109q137 3 264 35v37q0 42 -28 68t-78 26q-51 0 -86 -25.5t-41 -68.5h-479q16 93 61.5 171.5t119 138t181 93t238.5 33.5q272 0 417.5 -125t145.5 -365v-743h-346q-2 18 -19 84q-7 23 -13.5 30t-18.5 7
q-20 0 -43 -29q-57 -66 -132.5 -96.5t-183.5 -30.5zM514 381q0 -47 31 -72.5t86 -25.5q84 0 129 59q26 37 26 119v49q-49 -19 -163 -35q-109 -10 -109 -94zM678 1327q-192 0 -302.5 106.5t-115.5 292.5h277q13 -131 141 -131t141 131h277q-5 -186 -115.5 -292.5
t-302.5 -106.5z" />
    <glyph glyph-name="Aogonek" unicode="&#x104;" horiz-adv-x="1728" 
d="M537 0h-541l500 1597h718l535 -1597h-582l-86 285h-458zM850 1206l-154 -559h314zM1616 -580q-173 0 -272 80.5t-99 225.5q0 214 311 387l193 -113q-164 -102 -164 -193q0 -43 31.5 -66.5t87.5 -23.5q36 0 76 7v-283q-76 -21 -164 -21z" />
    <glyph glyph-name="aogonek" unicode="&#x105;" horiz-adv-x="1325" 
d="M481 -35q-188 0 -313 103t-125 282q0 171 122.5 266t356.5 109q137 3 264 35v37q0 42 -28 68t-78 26q-51 0 -86 -25.5t-41 -68.5h-479q16 93 61.5 171.5t119 138t181 93t238.5 33.5q272 0 417.5 -125t145.5 -365v-743h-346q-2 18 -19 84q-7 23 -13.5 30t-18.5 7
q-20 0 -43 -29q-57 -66 -132.5 -96.5t-183.5 -30.5zM514 381q0 -47 31 -72.5t86 -25.5q84 0 129 59q26 37 26 119v49q-49 -19 -163 -35q-109 -10 -109 -94zM1104 -557q-164 0 -260 77t-96 206q0 208 280 372l209 -98q-164 -102 -164 -195q0 -45 33 -66.5t86 -21.5q17 0 37 2
t38.5 5.5t22.5 3.5v-258q-77 -27 -186 -27z" />
    <glyph glyph-name="Cacute" unicode="&#x106;" horiz-adv-x="1857" 
d="M942 -41q364 -3 598.5 187.5t271.5 521.5h-542q-12 -122 -98.5 -193.5t-208.5 -71.5q-162 0 -255.5 110t-93.5 286q0 177 93 286t256 109q122 0 208.5 -71.5t98.5 -192.5h542q-37 331 -271 521t-599 187q-255 0 -458.5 -109.5t-317 -301t-113.5 -428.5
q0 -177 66.5 -332.5t183 -267t282.5 -176t357 -64.5zM1184 1722h-430l303 340h532z" />
    <glyph glyph-name="cacute" unicode="&#x107;" horiz-adv-x="1417" 
d="M715 -43q282 0 457 150.5t206 412.5h-467q-11 -78 -57.5 -120t-124.5 -42q-96 0 -151.5 64.5t-55.5 175.5q0 109 55.5 172.5t151.5 63.5q77 0 124 -42t58 -118h467q-31 261 -206 411t-457 150q-194 0 -347.5 -81.5t-239 -227t-85.5 -328.5q0 -280 189 -460.5t483 -180.5z
M842 1323h-353l187 442h471z" />
    <glyph glyph-name="Ccircumflex" unicode="&#x108;" horiz-adv-x="1857" 
d="M942 -41q-191 0 -357 64.5t-282.5 176t-183 267t-66.5 332.5q0 237 113.5 428.5t317 301t458.5 109.5q365 3 599 -187t271 -521h-542q-12 121 -98.5 192.5t-208.5 71.5q-163 0 -256 -109t-93 -286q0 -176 93.5 -286t255.5 -110q122 0 208.5 71.5t98.5 193.5h542
q-37 -331 -271.5 -521.5t-598.5 -187.5zM793 1722h-342l297 353h426l296 -353h-342l-133 99q-18 14 -34 14q-19 0 -35 -14z" />
    <glyph glyph-name="ccircumflex" unicode="&#x109;" horiz-adv-x="1417" 
d="M715 -43q-294 0 -483 180.5t-189 460.5q0 183 85.5 328.5t239 227t347.5 81.5q282 0 457 -150t206 -411h-467q-11 76 -58 118t-124 42q-96 0 -151.5 -63.5t-55.5 -172.5q0 -111 55.5 -175.5t151.5 -64.5q78 0 124.5 42t57.5 120h467q-31 -262 -206 -412.5t-457 -150.5z
M535 1323h-287l319 442h279l317 -442h-286l-138 127q-16 16 -32 16q-17 0 -33 -16z" />
    <glyph glyph-name="Cdotaccent" unicode="&#x10a;" horiz-adv-x="1857" 
d="M942 -41q-191 0 -357 64.5t-282.5 176t-183 267t-66.5 332.5q0 237 113.5 428.5t317 301t458.5 109.5q365 3 599 -187t271 -521h-542q-12 121 -98.5 192.5t-208.5 71.5q-163 0 -256 -109t-93 -286q0 -176 93.5 -286t255.5 -110q122 0 208.5 71.5t98.5 193.5h542
q-37 -331 -271.5 -521.5t-598.5 -187.5zM958 1692q-98 0 -161.5 61.5t-63.5 155.5q0 96 63 156.5t162 60.5q97 0 160.5 -60.5t63.5 -156.5q0 -94 -63.5 -155.5t-160.5 -61.5z" />
    <glyph glyph-name="cdotaccent" unicode="&#x10b;" horiz-adv-x="1417" 
d="M715 -43q-294 0 -483 180.5t-189 460.5q0 183 85.5 328.5t239 227t347.5 81.5q282 0 457 -150t206 -411h-467q-11 76 -58 118t-124 42q-96 0 -151.5 -63.5t-55.5 -172.5q0 -111 55.5 -175.5t151.5 -64.5q78 0 124.5 42t57.5 120h467q-31 -262 -206 -412.5t-457 -150.5z
M707 1292q-94 0 -157 60t-63 153q0 92 63 151.5t157 59.5t156.5 -59.5t62.5 -151.5q0 -93 -62.5 -153t-156.5 -60z" />
    <glyph glyph-name="Ccaron" unicode="&#x10c;" horiz-adv-x="1857" 
d="M942 -41q364 -3 598.5 187.5t271.5 521.5h-542q-12 -122 -98.5 -193.5t-208.5 -71.5q-162 0 -255.5 110t-93.5 286q0 177 93 286t256 109q122 0 208.5 -71.5t98.5 -192.5h542q-37 331 -271 521t-599 187q-255 0 -458.5 -109.5t-317 -301t-113.5 -428.5
q0 -177 66.5 -332.5t183 -267t282.5 -176t357 -64.5zM449 2075h342l133 -99q16 -14 34 -14q17 0 35 14l133 99h342l-297 -353h-426z" />
    <glyph glyph-name="ccaron" unicode="&#x10d;" horiz-adv-x="1417" 
d="M715 -43q282 0 457 150.5t206 412.5h-467q-11 -78 -57.5 -120t-124.5 -42q-96 0 -151.5 64.5t-55.5 175.5q0 109 55.5 172.5t151.5 63.5q77 0 124 -42t58 -118h467q-31 261 -206 411t-457 150q-194 0 -347.5 -81.5t-239 -227t-85.5 -328.5q0 -280 189 -460.5t483 -180.5z
M248 1763h287l139 -127q16 -16 33 -16q16 0 32 16l138 127h286l-317 -442h-279z" />
    <glyph glyph-name="Dcaron" unicode="&#x10e;" horiz-adv-x="1792" 
d="M127 0h747q258 0 452.5 96.5t301.5 278t107 424.5q0 244 -107 425t-301.5 277t-452.5 96h-747v-1597zM655 412v774h174q178 0 262.5 -93.5t84.5 -293.5t-84.5 -293.5t-262.5 -93.5h-174zM330 2075h342l133 -99q16 -14 35 -14q16 0 34 14l134 99h342l-297 -353h-426z" />
    <glyph glyph-name="dcaron" unicode="&#x10f;" horiz-adv-x="1816" 
d="M631 -37q-162 0 -296.5 83t-212 227.5t-77.5 318.5q0 179 78.5 325.5t213.5 229t296 82.5q155 0 254 -68q29 -16 41 -16q22 0 22 35v479h471v-1659h-348q-2 30 -14 76q-15 41 -41 41t-68 -39q-66 -56 -141 -85.5t-178 -29.5zM743 365q102 0 160 63.5t58 169.5
q0 104 -58 166.5t-160 62.5q-99 0 -157 -62.5t-58 -166.5q0 -106 58 -169.5t157 -63.5zM1827 1149h-324l33 510h399z" />
    <glyph glyph-name="Dcroat" unicode="&#x110;" horiz-adv-x="1931" 
d="M1014 0h-748v625h-215v360h215v612h748q392 0 626 -215t234 -583q0 -367 -234 -583t-626 -216zM797 625v-213h172q179 0 262.5 93t83.5 294t-83.5 294t-262.5 93h-172v-201h301v-360h-301z" />
    <glyph glyph-name="dcroat" unicode="&#x111;" horiz-adv-x="1519" 
d="M631 -37q-162 0 -296.5 83t-212 227.5t-77.5 318.5q0 179 78.5 325.5t213.5 229t296 82.5q155 0 254 -68q29 -16 41 -16q22 0 22 35v123h-260v231h260v125h471v-125h156v-231h-156v-1303h-348q-2 30 -14 76q-15 41 -41 41t-68 -39q-66 -56 -141 -85.5t-178 -29.5z
M743 365q102 0 160 63.5t58 169.5q0 104 -58 166.5t-160 62.5q-99 0 -157 -62.5t-58 -166.5q0 -106 58 -169.5t157 -63.5z" />
    <glyph glyph-name="Emacron" unicode="&#x112;" horiz-adv-x="1417" 
d="M1354 0h-1227v1597h1190v-419h-678v-177h580v-401h-580v-180h715v-420zM1122 1716h-770v281h770v-281z" />
    <glyph glyph-name="emacron" unicode="&#x113;" horiz-adv-x="1390" 
d="M700 -41q-185 0 -334.5 79t-235 223.5t-85.5 328.5t84.5 331t234.5 229.5t336 82.5q188 0 334 -75t227.5 -213.5t81.5 -319.5q0 -109 -12 -158h-813q4 -74 55.5 -116t131.5 -42q120 0 155 78h461q-50 -200 -211 -314t-410 -114zM707 891q-82 0 -132.5 -47t-58.5 -121h369
q-7 82 -55 125t-123 43zM1096 1333h-770v281h770v-281z" />
    <glyph glyph-name="Ebreve" unicode="&#x114;" horiz-adv-x="1417" 
d="M1354 0h-1227v1597h1190v-419h-678v-177h580v-401h-580v-180h715v-420zM737 1706q-202 0 -317 96.5t-121 270.5h283q18 -111 155 -111q138 0 156 111h283q-6 -174 -121.5 -270.5t-317.5 -96.5z" />
    <glyph glyph-name="ebreve" unicode="&#x115;" horiz-adv-x="1390" 
d="M700 -41q-185 0 -334.5 79t-235 223.5t-85.5 328.5t84.5 331t234.5 229.5t336 82.5q188 0 334 -75t227.5 -213.5t81.5 -319.5q0 -109 -12 -158h-813q4 -74 55.5 -116t131.5 -42q120 0 155 78h461q-50 -200 -211 -314t-410 -114zM707 891q-82 0 -132.5 -47t-58.5 -121h369
q-7 82 -55 125t-123 43zM711 1327q-192 0 -302.5 106.5t-115.5 292.5h276q13 -131 142 -131q128 0 141 131h276q-5 -187 -115.5 -293t-301.5 -106z" />
    <glyph glyph-name="Edotaccent" unicode="&#x116;" horiz-adv-x="1417" 
d="M1354 0h-1227v1597h1190v-419h-678v-177h580v-401h-580v-180h715v-420zM737 1692q-98 0 -161.5 61.5t-63.5 155.5q0 96 63 156.5t162 60.5q97 0 160.5 -60.5t63.5 -156.5q0 -94 -63.5 -155.5t-160.5 -61.5z" />
    <glyph glyph-name="edotaccent" unicode="&#x117;" horiz-adv-x="1390" 
d="M700 -41q-185 0 -334.5 79t-235 223.5t-85.5 328.5t84.5 331t234.5 229.5t336 82.5q188 0 334 -75t227.5 -213.5t81.5 -319.5q0 -109 -12 -158h-813q4 -74 55.5 -116t131.5 -42q120 0 155 78h461q-50 -200 -211 -314t-410 -114zM707 891q-82 0 -132.5 -47t-58.5 -121h369
q-7 82 -55 125t-123 43zM709 1292q-94 0 -157 60t-63 153q0 92 63 151.5t157 59.5t156.5 -59.5t62.5 -151.5q0 -93 -62.5 -153t-156.5 -60z" />
    <glyph glyph-name="Eogonek" unicode="&#x118;" horiz-adv-x="1417" 
d="M1354 0h-1227v1597h1190v-419h-678v-177h580v-401h-580v-180h715v-420zM1221 -580q-173 0 -272 80.5t-99 225.5q0 214 311 387l193 -113q-164 -102 -164 -193q0 -43 31.5 -66.5t87.5 -23.5q35 0 75 7v-283q-76 -21 -163 -21z" />
    <glyph glyph-name="eogonek" unicode="&#x119;" horiz-adv-x="1390" 
d="M700 -41q-185 0 -334.5 79t-235 223.5t-85.5 328.5t84.5 331t234.5 229.5t336 82.5q188 0 334 -75t227.5 -213.5t81.5 -319.5q0 -109 -12 -158h-813q4 -74 55.5 -116t131.5 -42q120 0 155 78h461q-50 -200 -211 -314t-410 -114zM707 891q-82 0 -132.5 -47t-58.5 -121h369
q-7 82 -55 125t-123 43zM971 -528q-162 0 -255 83t-93 220q0 111 77.5 203.5t233.5 175.5l168 -86q-92 -62 -125 -112.5t-33 -100.5q0 -56 36.5 -82.5t92.5 -26.5q40 0 94 14l2 -256q-71 -32 -198 -32z" />
    <glyph glyph-name="Ecaron" unicode="&#x11a;" horiz-adv-x="1417" 
d="M127 0h1227v420h-715v180h580v401h-580v177h678v419h-1190v-1597zM227 2075h342l133 -99q16 -14 35 -14q17 0 35 14l133 99h342l-297 -353h-426z" />
    <glyph glyph-name="ecaron" unicode="&#x11b;" horiz-adv-x="1390" 
d="M700 -41q249 0 410 114t211 314h-461q-35 -78 -155 -78q-80 0 -131.5 42t-55.5 116h813q12 50 12 158q0 181 -81.5 319.5t-227.5 213.5t-334 75q-186 0 -336 -82.5t-234.5 -229.5t-84.5 -331t85.5 -328.5t235 -223.5t334.5 -79zM707 891q75 0 123 -43t55 -125h-369
q8 74 58.5 121t132.5 47zM252 1763h287l139 -127q16 -16 33 -16q16 0 32 16l138 127h286l-317 -442h-279z" />
    <glyph glyph-name="Gcircumflex" unicode="&#x11c;" horiz-adv-x="1861" 
d="M860 -31q-234 0 -418 105.5t-285.5 293.5t-101.5 425q0 183 65 339.5t181 268t282.5 174.5t362.5 63q367 0 598 -185t256 -499h-545q-17 115 -93 177.5t-199 62.5q-155 0 -252 -106t-97 -289q0 -185 96 -290.5t248 -105.5q225 0 304 166q31 58 41 166h464v-735h-356
q-3 38 -18 88q-15 49 -50 49q-26 0 -65 -37q-152 -131 -418 -131zM780 1722h-342l297 353h426l297 -353h-342l-133 99q-18 14 -35 14q-19 0 -35 -14z" />
    <glyph glyph-name="gcircumflex" unicode="&#x11d;" horiz-adv-x="1472" 
d="M737 -514q-271 0 -441 130t-222 343h463q44 -137 202 -137q94 0 141.5 41t47.5 131v102q0 33 -25 33q-13 0 -39 -16q-82 -56 -246 -56q-161 0 -291.5 74.5t-204 205t-73.5 290.5q0 134 46 248t122.5 190t175.5 119t205 43q92 0 167.5 -29t149.5 -94q23 -20 33 -25.5
t23 -5.5q28 0 43 41q12 50 14 80h346v-1153q0 -180 -79.5 -306t-221.5 -187.5t-336 -61.5zM727 428q92 0 144.5 54t52.5 145q0 89 -53 142.5t-144 53.5q-93 0 -146 -52.5t-53 -143.5t53 -145t146 -54zM594 1323h-287l320 442h278l318 -442h-287l-137 127q-16 16 -33 16
t-33 -16z" />
    <glyph glyph-name="Gbreve" unicode="&#x11e;" horiz-adv-x="1861" 
d="M860 -31q-234 0 -418 105.5t-285.5 293.5t-101.5 425q0 183 65 339.5t181 268t282.5 174.5t362.5 63q367 0 598 -185t256 -499h-545q-17 115 -93 177.5t-199 62.5q-155 0 -252 -106t-97 -289q0 -185 96 -290.5t248 -105.5q225 0 304 166q31 58 41 166h464v-735h-356
q-3 38 -18 88q-15 49 -50 49q-26 0 -65 -37q-152 -131 -418 -131zM946 1706q-202 0 -317 96.5t-121 270.5h283q18 -111 155 -111q138 0 156 111h282q-6 -174 -121 -270.5t-317 -96.5z" />
    <glyph glyph-name="gbreve" unicode="&#x11f;" horiz-adv-x="1472" 
d="M737 -514q-271 0 -441 130t-222 343h463q44 -137 202 -137q94 0 141.5 41t47.5 131v102q0 33 -25 33q-13 0 -39 -16q-82 -56 -246 -56q-161 0 -291.5 74.5t-204 205t-73.5 290.5q0 134 46 248t122.5 190t175.5 119t205 43q92 0 167.5 -29t149.5 -94q23 -20 33 -25.5
t23 -5.5q28 0 43 41q12 50 14 80h346v-1153q0 -180 -79.5 -306t-221.5 -187.5t-336 -61.5zM727 428q92 0 144.5 54t52.5 145q0 89 -53 142.5t-144 53.5q-93 0 -146 -52.5t-53 -143.5t53 -145t146 -54zM766 1327q-192 0 -302.5 106.5t-115.5 292.5h277q13 -131 141 -131
t141 131h277q-5 -186 -115.5 -292.5t-302.5 -106.5z" />
    <glyph glyph-name="Gdotaccent" unicode="&#x120;" horiz-adv-x="1861" 
d="M860 -31q-234 0 -418 105.5t-285.5 293.5t-101.5 425q0 183 65 339.5t181 268t282.5 174.5t362.5 63q367 0 598 -185t256 -499h-545q-17 115 -93 177.5t-199 62.5q-155 0 -252 -106t-97 -289q0 -185 96 -290.5t248 -105.5q225 0 304 166q31 58 41 166h464v-735h-356
q-3 38 -18 88q-15 49 -50 49q-26 0 -65 -37q-152 -131 -418 -131zM946 1692q-98 0 -161.5 61.5t-63.5 155.5q0 96 63 156.5t162 60.5q97 0 160 -60.5t63 -156.5q0 -94 -63 -155.5t-160 -61.5z" />
    <glyph glyph-name="gdotaccent" unicode="&#x121;" horiz-adv-x="1472" 
d="M737 -514q-271 0 -441 130t-222 343h463q44 -137 202 -137q94 0 141.5 41t47.5 131v102q0 33 -25 33q-13 0 -39 -16q-82 -56 -246 -56q-161 0 -291.5 74.5t-204 205t-73.5 290.5q0 134 46 248t122.5 190t175.5 119t205 43q92 0 167.5 -29t149.5 -94q23 -20 33 -25.5
t23 -5.5q28 0 43 41q12 50 14 80h346v-1153q0 -180 -79.5 -306t-221.5 -187.5t-336 -61.5zM727 428q92 0 144.5 54t52.5 145q0 89 -53 142.5t-144 53.5q-93 0 -146 -52.5t-53 -143.5t53 -145t146 -54zM766 1292q-94 0 -156.5 60t-62.5 153q0 92 62.5 151.5t156.5 59.5
t156.5 -59.5t62.5 -151.5q0 -93 -62.5 -153t-156.5 -60z" />
    <glyph glyph-name="uni0122" unicode="&#x122;" horiz-adv-x="1861" 
d="M860 -31q-234 0 -418 105.5t-285.5 293.5t-101.5 425q0 183 65 339.5t181 268t282.5 174.5t362.5 63q367 0 598 -185t256 -499h-545q-17 115 -93 177.5t-199 62.5q-155 0 -252 -106t-97 -289q0 -185 96 -290.5t248 -105.5q225 0 304 166q31 58 41 166h464v-735h-356
q-3 38 -18 88q-15 49 -50 49q-26 0 -65 -37q-152 -131 -418 -131zM1057 -547h-289l68 434h374z" />
    <glyph glyph-name="uni0123" unicode="&#x123;" horiz-adv-x="1472" 
d="M737 -514q-271 0 -441 130t-222 343h463q44 -137 202 -137q94 0 141.5 41t47.5 131v102q0 33 -25 33q-13 0 -39 -16q-82 -56 -246 -56q-161 0 -291.5 74.5t-204 205t-73.5 290.5q0 134 46 248t122.5 190t175.5 119t205 43q92 0 167.5 -29t149.5 -94q23 -20 33 -25.5
t23 -5.5q28 0 43 41q12 50 14 80h346v-1153q0 -180 -79.5 -306t-221.5 -187.5t-336 -61.5zM727 428q92 0 144.5 54t52.5 145q0 89 -53 142.5t-144 53.5q-93 0 -146 -52.5t-53 -143.5t53 -145t146 -54zM741 1798h281l-74 -475h-375z" />
    <glyph glyph-name="Hcircumflex" unicode="&#x124;" horiz-adv-x="1806" 
d="M655 0h-528v1597h528v-581h496v581h528v-1597h-528v602h-496v-602zM737 1722h-342l297 353h426l297 -353h-342l-133 99q-18 14 -35 14q-19 0 -35 -14z" />
    <glyph glyph-name="hcircumflex" unicode="&#x125;" horiz-adv-x="1417" 
d="M569 0h-471v1659h471v-531q0 -38 27 -38q18 0 39 24q102 119 287 119q186 0 295.5 -125t109.5 -344v-764h-473v668q0 145 -121 145q-68 0 -112 -41q-52 -46 -52 -135v-637zM168 1784h-342l297 352h426l297 -352h-342l-133 98q-18 14 -35 14q-19 0 -35 -14z" />
    <glyph glyph-name="Hbar" unicode="&#x126;" horiz-adv-x="2086" 
d="M795 0h-529v1151h-213v272h213v174h529v-174h497v174h529v-174h213v-272h-213v-1151h-529v592h-497v-592zM795 1151v-174h497v174h-497z" />
    <glyph glyph-name="hbar" unicode="&#x127;" horiz-adv-x="1417" 
d="M569 0h-471v1303h-151v231h151v125h471v-125h265v-231h-265v-175q0 -38 27 -38q18 0 39 24q102 119 287 119q186 0 295.5 -125t109.5 -344v-764h-473v668q0 145 -121 145q-68 0 -112 -41q-52 -46 -52 -135v-637z" />
    <glyph glyph-name="Itilde" unicode="&#x128;" horiz-adv-x="782" 
d="M655 0h-528v1597h528v-1597zM553 1704q-58 0 -113 18t-89.5 39.5t-70 39.5t-57.5 18q-68 0 -86 -101h-233q21 175 108 281q89 108 209 108q58 0 113.5 -17.5t89.5 -38.5t68.5 -38.5t56.5 -17.5q71 0 88 98h233q-21 -174 -110 -283q-87 -106 -207 -106z" />
    <glyph glyph-name="itilde" unicode="&#x129;" horiz-adv-x="669" 
d="M559 0h-471v1194h471v-1194zM477 1325q-53 0 -110 24.5t-101.5 49t-68.5 24.5q-53 0 -62 -90h-227q6 163 82 268t200 105q53 0 110 -25t102 -50t69 -25q52 0 61 90h228q-6 -161 -82.5 -266t-200.5 -105z" />
    <glyph glyph-name="Imacron" unicode="&#x12a;" horiz-adv-x="782" 
d="M655 0h-528v1597h528v-1597zM778 1716h-770v281h770v-281z" />
    <glyph glyph-name="imacron" unicode="&#x12b;" horiz-adv-x="669" 
d="M569 0h-471v1194h471v-1194zM649 1333h-631v281h631v-281z" />
    <glyph glyph-name="Ibreve" unicode="&#x12c;" horiz-adv-x="782" 
d="M655 0h-528v1597h528v-1597zM393 1706q-202 0 -317 96.5t-121 270.5h283q18 -111 155 -111q138 0 156 111h282q-6 -174 -121 -270.5t-317 -96.5z" />
    <glyph glyph-name="ibreve" unicode="&#x12d;" horiz-adv-x="669" 
d="M569 0h-471v1194h471v-1194zM334 1327q-182 0 -276.5 108t-86.5 289h240q3 -143 123 -143t123 143h239q8 -181 -86 -289t-276 -108z" />
    <glyph glyph-name="Iogonek" unicode="&#x12e;" horiz-adv-x="782" 
d="M655 0h-528v1597h528v-1597zM522 -580q-173 0 -271.5 80.5t-98.5 225.5q0 214 311 387l192 -113q-163 -102 -163 -193q0 -43 31 -66.5t87 -23.5q36 0 76 7v-283q-76 -21 -164 -21z" />
    <glyph glyph-name="iogonek" unicode="&#x12f;" horiz-adv-x="669" 
d="M569 0h-471v1194h471v-1194zM334 1292q-94 0 -156.5 60t-62.5 153q0 92 62.5 151.5t156.5 59.5t156.5 -59.5t62.5 -151.5q0 -93 -62.5 -153t-156.5 -60zM436 -557q-164 0 -260 77t-96 206q0 208 280 372l209 -98q-163 -102 -163 -195q0 -45 32.5 -66.5t85.5 -21.5
q17 0 37 2t39 5.5t23 3.5v-258q-77 -27 -187 -27z" />
    <glyph glyph-name="Idotaccent" unicode="&#x130;" horiz-adv-x="782" 
d="M655 0h-528v1597h528v-1597zM393 1692q-98 0 -161.5 61.5t-63.5 155.5q0 96 63 156.5t162 60.5q97 0 160 -60.5t63 -156.5q0 -94 -63 -155.5t-160 -61.5z" />
    <glyph glyph-name="dotlessi" unicode="&#x131;" horiz-adv-x="669" 
d="M569 0h-471v1194h471v-1194z" />
    <glyph glyph-name="IJ" unicode="&#x132;" horiz-adv-x="1699" 
d="M639 764h-528v833h528v-833zM872 -41q-314 0 -519.5 170.5t-254.5 474.5h547q22 -106 74.5 -161.5t154.5 -55.5q185 0 185 211v999h528v-974q0 -301 -188 -482.5t-527 -181.5z" />
    <glyph glyph-name="ij" unicode="&#x133;" horiz-adv-x="1337" 
d="M334 1300q-114 0 -186 69t-72 173q0 105 72 174.5t186 69.5t187 -69.5t73 -174.5q0 -104 -73 -173t-187 -69zM569 0h-471v1194h471v-1194zM1004 1300q-114 0 -186.5 69t-72.5 173q0 105 72.5 174.5t186.5 69.5t187 -69.5t73 -174.5q0 -104 -73 -173t-187 -69zM1239 -487
h-471v1681h471v-1681z" />
    <glyph glyph-name="Jcircumflex" unicode="&#x134;" horiz-adv-x="1595" 
d="M768 -41q-314 0 -519.5 171.5t-254.5 475.5h547q22 -106 74.5 -161.5t154.5 -55.5q184 0 184 209v999h531v-974q0 -301 -189 -482.5t-528 -181.5zM1053 1722h-342l297 353h426l297 -353h-342l-134 99q-18 14 -34 14q-19 0 -35 -14z" />
    <glyph glyph-name="jcircumflex" unicode="&#x135;" horiz-adv-x="657" 
d="M88 -487h471v1681h-471v-1681zM176 1763h295l258 -440h-264l-109 133q-20 23 -32 23q-13 0 -33 -23l-109 -133h-264z" />
    <glyph glyph-name="uni0136" unicode="&#x136;" horiz-adv-x="1730" 
d="M655 0h-528v1597h528v-757l482 757h614l-524 -761l540 -836h-657l-455 754v-754zM909 -547h-288l67 434h375z" />
    <glyph glyph-name="uni0137" unicode="&#x137;" horiz-adv-x="1433" 
d="M571 0h-473v1659h473v-1006l314 541h549l-365 -571l410 -623h-580l-328 543v-543zM762 -629h-281l74 475h375z" />
    <glyph glyph-name="Lacute" unicode="&#x139;" horiz-adv-x="1280" 
d="M127 0h1126v420h-598v1177h-528v-1597zM616 1722h-430l303 340h533z" />
    <glyph glyph-name="lacute" unicode="&#x13a;" horiz-adv-x="669" 
d="M571 0h-473v1659h473v-1659zM526 1784h-397l213 340h492z" />
    <glyph glyph-name="uni013B" unicode="&#x13b;" horiz-adv-x="1280" 
d="M1253 0h-1126v1597h528v-1177h598v-420zM733 -547h-289l68 434h375z" />
    <glyph glyph-name="uni013C" unicode="&#x13c;" horiz-adv-x="669" 
d="M571 0h-473v1659h473v-1659zM352 -629h-280l73 475h375z" />
    <glyph glyph-name="Lcaron" unicode="&#x13d;" horiz-adv-x="1280" 
d="M1253 0h-1126v1597h528v-1177h598v-420zM1118 1087h-323l32 510h400z" />
    <glyph glyph-name="lcaron" unicode="&#x13e;" horiz-adv-x="993" 
d="M571 0h-473v1659h473v-1659zM1004 1149h-324l33 510h399z" />
    <glyph glyph-name="Ldot" unicode="&#x13f;" horiz-adv-x="1296" 
d="M1253 0h-1126v1597h528v-1177h598v-420zM1026 694q-97 0 -160 61.5t-63 155.5t63 154.5t160 60.5t160 -60.5t63 -154.5t-63 -155.5t-160 -61.5z" />
    <glyph glyph-name="ldot" unicode="&#x140;" horiz-adv-x="1114" 
d="M571 0h-473v1659h473v-1659zM899 610q-97 0 -160 61.5t-63 155.5t63 154.5t160 60.5t161 -61t64 -154q0 -94 -64 -155.5t-161 -61.5z" />
    <glyph glyph-name="Lslash" unicode="&#x141;" horiz-adv-x="1402" 
d="M1376 0h-1126v455l-195 -93v369l195 92v774h528v-524l350 164v-369l-350 -163v-285h598v-420z" />
    <glyph glyph-name="lslash" unicode="&#x142;" horiz-adv-x="1050" 
d="M766 0h-471v494l-246 -117v334l246 114v834h471v-608l244 114v-331l-244 -117v-717z" />
    <glyph glyph-name="Nacute" unicode="&#x143;" horiz-adv-x="1816" 
d="M127 0h475v913l508 -913h580v1597h-476v-913l-507 913h-580v-1597zM1139 1722h-430l303 340h532z" />
    <glyph glyph-name="nacute" unicode="&#x144;" horiz-adv-x="1417" 
d="M98 0h471v637q0 87 54 135q41 41 108 41q123 0 123 -145v-668h473v766q0 220 -114 343.5t-320 123.5q-103 0 -181.5 -31t-150.5 -100q-29 -33 -53 -33q-30 0 -47 43q-18 57 -21 82h-342v-1194zM848 1323h-352l186 442h471z" />
    <glyph glyph-name="uni0145" unicode="&#x145;" horiz-adv-x="1816" 
d="M602 0h-475v1597h580l507 -913v913h476v-1597h-580l-508 913v-913zM944 -547h-289l68 434h375z" />
    <glyph glyph-name="uni0146" unicode="&#x146;" horiz-adv-x="1417" 
d="M569 0h-471v1194h342q3 -25 21 -82q17 -43 47 -43q24 0 53 33q72 69 150.5 100t181.5 31q206 0 320 -123.5t114 -343.5v-766h-473v668q0 145 -123 145q-67 0 -108 -41q-54 -48 -54 -135v-637zM727 -629h-281l74 475h375z" />
    <glyph glyph-name="Ncaron" unicode="&#x147;" horiz-adv-x="1816" 
d="M127 0h475v913l508 -913h580v1597h-476v-913l-507 913h-580v-1597zM403 2075h342l134 -99q16 -14 34 -14q17 0 35 14l133 99h342l-297 -353h-426z" />
    <glyph glyph-name="ncaron" unicode="&#x148;" horiz-adv-x="1417" 
d="M98 0h471v637q0 87 54 135q41 41 108 41q123 0 123 -145v-668h473v766q0 220 -114 343.5t-320 123.5q-103 0 -181.5 -31t-150.5 -100q-29 -33 -53 -33q-30 0 -47 43q-18 57 -21 82h-342v-1194zM254 1763h287l139 -127q16 -16 33 -16q16 0 32 16l138 127h286l-317 -442
h-279z" />
    <glyph glyph-name="Eng" unicode="&#x14a;" horiz-adv-x="1820" 
d="M1253 -512q-78 0 -180.5 18t-173.5 56v375q78 -33 178 -33q101 0 101 98v909q0 131 -55.5 201t-164.5 70q-61 0 -116.5 -23t-93.5 -61q-93 -108 -93 -312v-786h-528v1597h385q4 -42 23 -122q18 -62 59 -62q12 0 22.5 5t19 12.5t28.5 27.5q95 89 205.5 134.5t252.5 45.5
q279 0 431.5 -166.5t152.5 -472.5v-940q0 -311 -107.5 -441t-345.5 -130z" />
    <glyph glyph-name="eng" unicode="&#x14b;" horiz-adv-x="1417" 
d="M834 -514q-83 0 -164.5 19t-137.5 49v331q82 -32 162 -32q160 0 160 124v691q0 145 -121 145q-68 0 -112 -41q-52 -46 -52 -135v-637h-471v1194h342q3 -25 21 -82q17 -43 47 -43q23 0 59 39q125 125 326 125q206 0 320 -123.5t114 -343.5v-821q0 -223 -126 -341
t-367 -118z" />
    <glyph glyph-name="Omacron" unicode="&#x14c;" horiz-adv-x="1923" 
d="M963 -41q-203 0 -374 64.5t-288 176.5t-182.5 266.5t-65.5 332.5t65.5 332.5t182.5 266.5t288 176t374 64q202 0 372.5 -64t287.5 -176t182 -266.5t65 -332.5t-65 -332.5t-182 -266.5t-287.5 -176.5t-372.5 -64.5zM963 412q158 0 253 105t95 282q0 178 -94.5 283.5
t-253.5 105.5q-160 0 -254.5 -105.5t-94.5 -283.5q0 -177 94.5 -282t254.5 -105zM1348 1716h-770v281h770v-281z" />
    <glyph glyph-name="omacron" unicode="&#x14d;" horiz-adv-x="1468" 
d="M733 -39q-197 0 -354.5 81.5t-246.5 227t-89 328.5q0 182 89 327t246.5 226.5t354.5 81.5q150 0 278.5 -47.5t219 -131t141.5 -201.5t51 -255t-51 -255.5t-141.5 -202.5t-219 -131.5t-278.5 -47.5zM733 362q99 0 156 63.5t57 172.5q0 107 -57 170t-156 63
q-98 0 -154.5 -63.5t-56.5 -169.5q0 -109 56.5 -172.5t154.5 -63.5zM1118 1333h-770v281h770v-281z" />
    <glyph glyph-name="Obreve" unicode="&#x14e;" horiz-adv-x="1923" 
d="M963 -41q-203 0 -374 64.5t-288 176.5t-182.5 266.5t-65.5 332.5t65.5 332.5t182.5 266.5t288 176t374 64q202 0 372.5 -64t287.5 -176t182 -266.5t65 -332.5t-65 -332.5t-182 -266.5t-287.5 -176.5t-372.5 -64.5zM963 412q158 0 253 105t95 282q0 178 -94.5 283.5
t-253.5 105.5q-160 0 -254.5 -105.5t-94.5 -283.5q0 -177 94.5 -282t254.5 -105zM963 1706q-202 0 -317.5 96.5t-121.5 270.5h283q18 -111 156 -111q137 0 155 111h283q-6 -174 -121 -270.5t-317 -96.5z" />
    <glyph glyph-name="obreve" unicode="&#x14f;" horiz-adv-x="1468" 
d="M733 -39q-197 0 -354.5 81.5t-246.5 227t-89 328.5q0 182 89 327t246.5 226.5t354.5 81.5q150 0 278.5 -47.5t219 -131t141.5 -201.5t51 -255t-51 -255.5t-141.5 -202.5t-219 -131.5t-278.5 -47.5zM733 362q99 0 156 63.5t57 172.5q0 107 -57 170t-156 63
q-98 0 -154.5 -63.5t-56.5 -169.5q0 -109 56.5 -172.5t154.5 -63.5zM733 1327q-192 0 -302.5 106.5t-115.5 292.5h277q13 -131 141 -131t141 131h277q-5 -186 -115.5 -292.5t-302.5 -106.5z" />
    <glyph glyph-name="Ohungarumlaut" unicode="&#x150;" horiz-adv-x="1923" 
d="M963 -41q-203 0 -374 64.5t-288 176.5t-182.5 266.5t-65.5 332.5t65.5 332.5t182.5 266.5t288 176t374 64q202 0 372.5 -64t287.5 -176t182 -266.5t65 -332.5t-65 -332.5t-182 -266.5t-287.5 -176.5t-372.5 -64.5zM963 412q158 0 253 105t95 282q0 178 -94.5 283.5
t-253.5 105.5q-160 0 -254.5 -105.5t-94.5 -283.5q0 -177 94.5 -282t254.5 -105zM1499 1722h-434l328 340h508zM893 1722h-432l272 340h504z" />
    <glyph glyph-name="ohungarumlaut" unicode="&#x151;" horiz-adv-x="1468" 
d="M733 -39q-197 0 -354.5 81.5t-246.5 227t-89 328.5q0 182 89 327t246.5 226.5t354.5 81.5q150 0 278.5 -47.5t219 -131t141.5 -201.5t51 -255t-51 -255.5t-141.5 -202.5t-219 -131.5t-278.5 -47.5zM733 362q99 0 156 63.5t57 172.5q0 107 -57 170t-156 63
q-98 0 -154.5 -63.5t-56.5 -169.5q0 -109 56.5 -172.5t154.5 -63.5zM1096 1323h-328l231 442h439zM621 1323h-334l180 442h422z" />
    <glyph glyph-name="OE" unicode="&#x152;" horiz-adv-x="2617" 
d="M924 -41q-191 0 -354 64t-276 175.5t-177 266.5t-64 334t64 334.5t177 266.5t276 174.5t354 63.5q250 0 413 -94v53h1180v-419h-678v-177h580v-401h-580v-180h715v-420h-1217v53q-163 -94 -413 -94zM963 412q158 0 253 105t95 282q0 178 -94.5 283.5t-253.5 105.5
q-160 0 -254.5 -105.5t-94.5 -283.5q0 -177 94.5 -282t254.5 -105z" />
    <glyph glyph-name="oe" unicode="&#x153;" horiz-adv-x="2144" 
d="M700 -39q-140 0 -262 48t-209 132t-136.5 202.5t-49.5 254.5q0 182 84.5 327t234.5 226.5t338 81.5q251 0 394 -125q148 127 393 127q176 0 315.5 -77.5t217 -215.5t77.5 -311q0 -119 -12 -168h-787q6 -73 50 -112.5t118 -39.5q113 0 148 74h461q-51 -201 -209.5 -312.5
t-390.5 -111.5q-244 0 -388 121q-145 -121 -387 -121zM1473 889q-78 0 -126.5 -47t-50.5 -117h340q-6 80 -49 122t-114 42zM725 362q97 0 149 63t52 173q0 108 -52 170.5t-149 62.5q-93 0 -148 -63.5t-55 -169.5q0 -109 54.5 -172.5t148.5 -63.5z" />
    <glyph glyph-name="Racute" unicode="&#x154;" horiz-adv-x="1615" 
d="M127 0h516v555h193q72 0 100.5 -32t36.5 -113l31 -271q6 -52 21.5 -90t33.5 -49h528q-51 55 -71 201l-43 278q-20 131 -69.5 195t-148.5 84q125 39 199 140t74 241q0 223 -146.5 340.5t-412.5 117.5h-842v-1597zM645 903v299h209q156 0 156 -145q0 -154 -156 -154h-209z
M1020 1722h-430l303 340h532z" />
    <glyph glyph-name="racute" unicode="&#x155;" horiz-adv-x="1144" 
d="M98 0h471v727q0 40 15 64q21 34 67 34q34 0 52 -20t18 -53q0 -15 -4 -31h416q4 36 4 59q2 209 -81.5 323t-238.5 114q-83 0 -141 -23t-117 -74q-24 -19 -34 -24.5t-23 -5.5q-29 0 -43 32q-14 40 -21 72h-340v-1194zM713 1323h-353l187 442h471z" />
    <glyph glyph-name="uni0156" unicode="&#x156;" horiz-adv-x="1615" 
d="M643 0h-516v1597h842q266 0 412.5 -117.5t146.5 -340.5q0 -140 -74 -241t-199 -140q99 -20 148.5 -84t69.5 -195l43 -278q20 -146 71 -201h-528q-18 11 -33.5 49t-21.5 90l-31 271q-8 81 -36.5 113t-100.5 32h-193v-555zM645 1202v-299h209q156 0 156 154q0 145 -156 145
h-209zM891 -547h-289l68 434h374z" />
    <glyph glyph-name="uni0157" unicode="&#x157;" horiz-adv-x="1144" 
d="M569 0h-471v1194h340q7 -32 21 -72q14 -32 43 -32q13 0 23 5.5t34 24.5q59 51 117 74t141 23q155 0 238.5 -114t81.5 -323q0 -23 -4 -59h-416q4 16 4 31q0 33 -18 53t-52 20q-46 0 -67 -34q-15 -24 -15 -64v-727zM352 -629h-280l73 475h375z" />
    <glyph glyph-name="Rcaron" unicode="&#x158;" horiz-adv-x="1615" 
d="M127 0h516v555h193q72 0 100.5 -32t36.5 -113l31 -271q6 -52 21.5 -90t33.5 -49h528q-51 55 -71 201l-43 278q-20 131 -69.5 195t-148.5 84q125 39 199 140t74 241q0 223 -146.5 340.5t-412.5 117.5h-842v-1597zM645 903v299h209q156 0 156 -145q0 -154 -156 -154h-209z
M285 2075h342l133 -99q16 -14 35 -14q16 0 34 14l134 99h342l-297 -353h-426z" />
    <glyph glyph-name="rcaron" unicode="&#x159;" horiz-adv-x="1144" 
d="M98 0h471v727q0 40 15 64q21 34 67 34q34 0 52 -20t18 -53q0 -15 -4 -31h416q4 36 4 59q2 209 -81.5 323t-238.5 114q-83 0 -141 -23t-117 -74q-24 -19 -34 -24.5t-23 -5.5q-29 0 -43 32q-14 40 -21 72h-340v-1194zM119 1763h287l139 -127q16 -16 33 -16q16 0 32 16
l138 127h286l-317 -442h-279z" />
    <glyph glyph-name="Sacute" unicode="&#x15a;" horiz-adv-x="1480" 
d="M743 -41q313 0 496.5 138t183.5 386q0 201 -157.5 338t-485.5 209q-92 20 -131 50t-39 81q0 44 36.5 73.5t96.5 29.5q137 0 160 -142h498q-30 247 -198 381.5t-468 134.5q-297 0 -471 -138t-174 -374q0 -221 145.5 -352t469.5 -205q120 -26 159 -53t39 -78q0 -46 -37 -75
t-108 -29q-88 0 -144.5 47.5t-66.5 136.5h-508q10 -160 98 -286t245.5 -199.5t360.5 -73.5zM969 1722h-430l303 340h532z" />
    <glyph glyph-name="sacute" unicode="&#x15b;" horiz-adv-x="1216" 
d="M625 -43q246 0 395 113t149 299q0 174 -113 267.5t-374 131.5q-89 14 -122.5 33.5t-33.5 60.5q0 30 22.5 48t59.5 18q88 0 97 -111h446q-52 418 -553 418q-246 0 -390.5 -109t-144.5 -295q0 -180 121 -274.5t404 -140.5q64 -11 92.5 -30t28.5 -54q0 -68 -84 -68
q-111 0 -123 119h-467q29 -201 184.5 -313.5t405.5 -112.5zM743 1323h-352l187 442h471z" />
    <glyph glyph-name="Scircumflex" unicode="&#x15c;" horiz-adv-x="1480" 
d="M743 -41q-203 0 -360.5 73.5t-245.5 199.5t-98 286h508q10 -89 66.5 -136.5t144.5 -47.5q71 0 108 29t37 75q0 51 -39 78t-159 53q-324 74 -469.5 205t-145.5 352q0 236 174 374t471 138q300 0 468 -134.5t198 -381.5h-498q-23 142 -160 142q-60 0 -96.5 -29.5
t-36.5 -73.5q0 -51 39 -81t131 -50q328 -72 485.5 -209t157.5 -338q0 -248 -183.5 -386t-496.5 -138zM575 1722h-342l297 353h426l297 -353h-342l-133 99q-18 14 -35 14q-18 0 -34 -14z" />
    <glyph glyph-name="scircumflex" unicode="&#x15d;" horiz-adv-x="1216" 
d="M625 -43q-250 0 -405.5 112.5t-184.5 313.5h467q12 -119 123 -119q84 0 84 68q0 35 -28.5 54t-92.5 30q-283 46 -404 140.5t-121 274.5q0 186 144.5 295t390.5 109q501 0 553 -418h-446q-9 111 -97 111q-37 0 -59.5 -18t-22.5 -48q0 -41 33.5 -60.5t122.5 -33.5
q261 -38 374 -131.5t113 -267.5q0 -186 -149 -299t-395 -113zM436 1323h-286l319 442h279l317 -442h-287l-137 127q-16 16 -33 16t-33 -16z" />
    <glyph glyph-name="Scedilla" unicode="&#x15e;" horiz-adv-x="1480" 
d="M743 -41q-203 0 -360.5 73.5t-245.5 199.5t-98 286h508q10 -89 66.5 -136.5t144.5 -47.5q71 0 108 29t37 75q0 51 -39 78t-159 53q-324 74 -469.5 205t-145.5 352q0 236 174 374t471 138q300 0 468 -134.5t198 -381.5h-498q-23 142 -160 142q-60 0 -96.5 -29.5
t-36.5 -73.5q0 -51 39 -81t131 -50q328 -72 485.5 -209t157.5 -338q0 -248 -183.5 -386t-496.5 -138zM795 -539q-181 0 -283 89.5t-113 250.5h308q9 -86 79 -86q64 0 64 66q0 49 -53 101t-172 118l252 23q135 -50 201.5 -120.5t66.5 -168.5q0 -123 -97 -198t-253 -75z" />
    <glyph glyph-name="scedilla" unicode="&#x15f;" horiz-adv-x="1216" 
d="M625 -43q-250 0 -405.5 112.5t-184.5 313.5h467q12 -119 123 -119q84 0 84 68q0 35 -28.5 54t-92.5 30q-283 46 -404 140.5t-121 274.5q0 186 144.5 295t390.5 109q501 0 553 -418h-446q-9 111 -97 111q-37 0 -59.5 -18t-22.5 -48q0 -41 33.5 -60.5t122.5 -33.5
q261 -38 374 -131.5t113 -267.5q0 -186 -149 -299t-395 -113zM625 -535q-173 0 -269 91t-104 243h301q3 -82 74 -82q55 0 55 52q0 90 -221 231h309q191 -102 191 -252q0 -125 -89.5 -204t-246.5 -79z" />
    <glyph glyph-name="Scaron" unicode="&#x160;" horiz-adv-x="1480" 
d="M743 -41q313 0 496.5 138t183.5 386q0 201 -157.5 338t-485.5 209q-92 20 -131 50t-39 81q0 44 36.5 73.5t96.5 29.5q137 0 160 -142h498q-30 247 -198 381.5t-468 134.5q-297 0 -471 -138t-174 -374q0 -221 145.5 -352t469.5 -205q120 -26 159 -53t39 -78q0 -46 -37 -75
t-108 -29q-88 0 -144.5 47.5t-66.5 136.5h-508q10 -160 98 -286t245.5 -199.5t360.5 -73.5zM233 2075h342l134 -99q16 -14 34 -14q17 0 35 14l133 99h342l-297 -353h-426z" />
    <glyph glyph-name="scaron" unicode="&#x161;" horiz-adv-x="1216" 
d="M625 -43q246 0 395 113t149 299q0 174 -113 267.5t-374 131.5q-89 14 -122.5 33.5t-33.5 60.5q0 30 22.5 48t59.5 18q88 0 97 -111h446q-52 418 -553 418q-246 0 -390.5 -109t-144.5 -295q0 -180 121 -274.5t404 -140.5q64 -11 92.5 -30t28.5 -54q0 -68 -84 -68
q-111 0 -123 119h-467q29 -201 184.5 -313.5t405.5 -112.5zM150 1763h286l139 -127q16 -16 33 -16t33 16l137 127h287l-317 -442h-279z" />
    <glyph glyph-name="uni0162" unicode="&#x162;" horiz-adv-x="1441" 
d="M985 0h-528v1178h-432v419h1392v-419h-432v-1178zM745 -539q-181 0 -282.5 89t-112.5 251h307q9 -86 80 -86q64 0 64 66q0 49 -53.5 101t-172.5 118l252 23q136 -50 202.5 -120.5t66.5 -168.5q0 -122 -97.5 -197.5t-253.5 -75.5z" />
    <glyph glyph-name="uni0163" unicode="&#x163;" horiz-adv-x="1017" 
d="M725 -18q-258 0 -379 104.5t-121 347.5v383h-202v377h131q70 0 106.5 24.5t58.5 77.5q33 74 54 207h313v-309h270v-377h-270v-332q0 -72 38 -105.5t114 -33.5q56 0 131 19v-347q-91 -36 -244 -36zM596 -500q-173 0 -269 91t-104 243h301q3 -82 74 -82q55 0 55 51
q0 91 -221 232h309q191 -102 191 -252q0 -125 -89.5 -204t-246.5 -79z" />
    <glyph glyph-name="Tcaron" unicode="&#x164;" horiz-adv-x="1441" 
d="M457 0h528v1178h432v419h-1392v-419h432v-1178zM211 2075h342l133 -99q16 -14 35 -14q17 0 35 14l133 99h342l-297 -353h-426z" />
    <glyph glyph-name="tcaron" unicode="&#x165;" horiz-adv-x="1009" 
d="M725 -18q-258 0 -379 104.5t-121 347.5v383h-202v377h131q70 0 106.5 24.5t58.5 77.5q33 74 54 207h313v-309h270v-377h-270v-332q0 -72 38 -105.5t114 -33.5q56 0 131 19v-347q-91 -36 -244 -36zM1073 1282h-311l26 375h379z" />
    <glyph glyph-name="Tbar" unicode="&#x166;" horiz-adv-x="1458" 
d="M993 0h-526v598h-250v352h250v228h-432v419h1390v-419h-432v-228h238v-352h-238v-598z" />
    <glyph glyph-name="tbar" unicode="&#x167;" horiz-adv-x="1034" 
d="M242 481h-203v230h203v106h-203v377h131q70 0 107.5 25t58.5 77q37 105 53 207h313v-309h271v-377h-271v-106h271v-230h-271q0 -71 37.5 -103t114.5 -32q60 0 129 19v-347q-85 -36 -244 -36q-256 0 -376.5 104.5t-120.5 347.5v47z" />
    <glyph glyph-name="Utilde" unicode="&#x168;" horiz-adv-x="1730" 
d="M866 -41q-167 0 -304.5 45t-238.5 130.5t-156.5 218.5t-55.5 302v942h528v-981q0 -110 59 -169.5t168 -59.5q106 0 166 59.5t60 169.5v981h530v-942q0 -169 -56 -302t-157 -218.5t-239 -130.5t-304 -45zM1026 1704q-58 0 -113 18t-89.5 39.5t-70 39.5t-57.5 18
q-68 0 -86 -101h-233q21 175 108 281q89 108 209 108q58 0 113.5 -17.5t89.5 -38.5t68.5 -38.5t56.5 -17.5q71 0 88 98h233q-21 -174 -110 -283q-87 -106 -207 -106z" />
    <glyph glyph-name="utilde" unicode="&#x169;" horiz-adv-x="1411" 
d="M524 -39q-206 0 -320 123.5t-114 343.5v766h471v-668q0 -147 129 -147q65 0 109 35q43 46 43 127v653h471v-1194h-340q-3 27 -19 72q-12 43 -45 43q-14 0 -25 -7t-36 -30q-123 -117 -324 -117zM870 1327q-58 0 -113 18t-89.5 39.5t-69.5 39.5t-57 18q-68 0 -86 -101h-234
q21 173 109 281q89 109 209 109q58 0 113.5 -17.5t89.5 -39t68 -39t56 -17.5q71 0 88 98h234q-21 -172 -111 -282q-88 -107 -207 -107z" />
    <glyph glyph-name="Umacron" unicode="&#x16a;" horiz-adv-x="1730" 
d="M866 -41q-167 0 -304.5 45t-238.5 130.5t-156.5 218.5t-55.5 302v942h528v-981q0 -110 59 -169.5t168 -59.5q106 0 166 59.5t60 169.5v981h530v-942q0 -169 -56 -302t-157 -218.5t-239 -130.5t-304 -45zM1251 1716h-770v281h770v-281z" />
    <glyph glyph-name="umacron" unicode="&#x16b;" horiz-adv-x="1411" 
d="M524 -39q-206 0 -320 123.5t-114 343.5v766h471v-668q0 -147 129 -147q65 0 109 35q43 46 43 127v653h471v-1194h-340q-3 27 -19 72q-12 43 -45 43q-14 0 -25 -7t-36 -30q-123 -117 -324 -117zM1096 1333h-770v281h770v-281z" />
    <glyph glyph-name="Ubreve" unicode="&#x16c;" horiz-adv-x="1730" 
d="M866 -41q-167 0 -304.5 45t-238.5 130.5t-156.5 218.5t-55.5 302v942h528v-981q0 -110 59 -169.5t168 -59.5q106 0 166 59.5t60 169.5v981h530v-942q0 -169 -56 -302t-157 -218.5t-239 -130.5t-304 -45zM866 1706q-202 0 -317 96.5t-121 270.5h283q18 -111 155 -111
q138 0 156 111h283q-6 -174 -121.5 -270.5t-317.5 -96.5z" />
    <glyph glyph-name="ubreve" unicode="&#x16d;" horiz-adv-x="1411" 
d="M524 -39q-206 0 -320 123.5t-114 343.5v766h471v-668q0 -147 129 -147q65 0 109 35q43 46 43 127v653h471v-1194h-340q-3 27 -19 72q-12 43 -45 43q-14 0 -25 -7t-36 -30q-123 -117 -324 -117zM711 1327q-192 0 -302.5 106.5t-115.5 292.5h276q13 -131 142 -131
q128 0 141 131h276q-5 -187 -115.5 -293t-301.5 -106z" />
    <glyph glyph-name="Uring" unicode="&#x16e;" horiz-adv-x="1730" 
d="M866 -41q-167 0 -304.5 45t-238.5 130.5t-156.5 218.5t-55.5 302v942h528v-981q0 -110 59 -169.5t168 -59.5q106 0 166 59.5t60 169.5v981h530v-942q0 -169 -56 -302t-157 -218.5t-239 -130.5t-304 -45zM866 1696q-140 0 -229.5 81t-89.5 208q0 126 90 210q88 82 229 82
q140 0 229 -81.5t89 -210.5q0 -125 -90 -209q-89 -80 -228 -80zM866 1909q34 0 56 22t22 54q0 35 -21.5 56t-56.5 21t-56.5 -21t-21.5 -56q0 -32 22 -54t56 -22z" />
    <glyph glyph-name="uring" unicode="&#x16f;" horiz-adv-x="1411" 
d="M524 -39q-206 0 -320 123.5t-114 343.5v766h471v-668q0 -147 129 -147q65 0 109 35q43 46 43 127v653h471v-1194h-340q-3 27 -19 72q-12 43 -45 43q-14 0 -25 -7t-36 -30q-123 -117 -324 -117zM711 1300q-135 0 -221.5 79t-86.5 202q0 125 86.5 205t221.5 80t221 -80
t86 -205q0 -123 -86 -202t-221 -79zM711 1497q38 0 62 24t24 60q0 38 -24 62t-62 24q-37 0 -61.5 -24t-24.5 -62q0 -35 24.5 -59.5t61.5 -24.5z" />
    <glyph glyph-name="Uhungarumlaut" unicode="&#x170;" horiz-adv-x="1730" 
d="M866 -41q-167 0 -304.5 45t-238.5 130.5t-156.5 218.5t-55.5 302v942h528v-981q0 -110 59 -169.5t168 -59.5q106 0 166 59.5t60 169.5v981h530v-942q0 -169 -56 -302t-157 -218.5t-239 -130.5t-304 -45zM1403 1722h-434l327 340h508zM797 1722h-432l272 340h504z" />
    <glyph glyph-name="uhungarumlaut" unicode="&#x171;" horiz-adv-x="1411" 
d="M524 -39q-206 0 -320 123.5t-114 343.5v766h471v-668q0 -147 129 -147q65 0 109 35q43 46 43 127v653h471v-1194h-340q-3 27 -19 72q-12 43 -45 43q-14 0 -25 -7t-36 -30q-123 -117 -324 -117zM1073 1323h-328l232 442h438zM598 1323h-334l180 442h422z" />
    <glyph glyph-name="Uogonek" unicode="&#x172;" horiz-adv-x="1730" 
d="M866 -41q-167 0 -304.5 45t-238.5 130.5t-156.5 218.5t-55.5 302v942h528v-981q0 -110 59 -169.5t168 -59.5q106 0 166 59.5t60 169.5v981h530v-942q0 -169 -56 -302t-157 -218.5t-239 -130.5t-304 -45zM1184 -543q-164 0 -263.5 76t-99.5 209q0 123 92 216t295 175
l107 -65q-156 -94 -156 -207q0 -54 35.5 -81.5t89.5 -27.5q70 0 127 25v-273q-103 -47 -227 -47z" />
    <glyph glyph-name="uogonek" unicode="&#x173;" horiz-adv-x="1411" 
d="M524 -39q-206 0 -320 123.5t-114 343.5v766h471v-668q0 -147 129 -147q65 0 109 35q43 46 43 127v653h471v-1194h-340q-3 27 -19 72q-12 43 -45 43q-14 0 -25 -7t-36 -30q-123 -117 -324 -117zM1180 -557q-165 0 -261 77.5t-96 205.5q0 207 281 372l209 -98
q-164 -102 -164 -195q0 -45 33 -66.5t86 -21.5q17 0 37 2t38.5 5.5t22.5 3.5v-258q-76 -27 -186 -27z" />
    <glyph glyph-name="Wcircumflex" unicode="&#x174;" horiz-adv-x="2514" 
d="M1036 0h-608l-440 1597h532l240 -1038l229 1038h565l238 -1040l238 1040h495l-434 -1597h-608l-226 1014zM1092 1722h-342l297 353h426l296 -353h-342l-133 99q-18 14 -34 14q-19 0 -35 -14z" />
    <glyph glyph-name="wcircumflex" unicode="&#x175;" horiz-adv-x="2021" 
d="M858 0h-481l-389 1194h504l157 -657l166 657h430l166 -655l164 655h459l-389 -1194h-484l-147 598zM840 1323h-287l319 442h279l317 -442h-286l-138 127q-16 16 -32 16q-17 0 -33 -16z" />
    <glyph glyph-name="Ycircumflex" unicode="&#x176;" horiz-adv-x="1656" 
d="M1081 0h-503v623l-605 974h578l303 -526l301 526h524l-598 -972v-625zM659 1722h-342l297 353h426l297 -353h-342l-133 99q-18 14 -35 14q-18 0 -34 -14z" />
    <glyph glyph-name="ycircumflex" unicode="&#x177;" horiz-adv-x="1380" 
d="M737 -502h-491l196 502l-458 1194h518l205 -662l202 662h490zM535 1323h-287l319 442h279l317 -442h-286l-138 127q-16 16 -32 16q-17 0 -33 -16z" />
    <glyph glyph-name="Ydieresis" unicode="&#x178;" horiz-adv-x="1656" 
d="M1081 0h-503v623l-605 974h578l303 -526l301 526h524l-598 -972v-625zM1135 1690q-97 0 -160.5 61.5t-63.5 155.5t63.5 155.5t160.5 61.5q98 0 162.5 -61.5t64.5 -155.5t-64.5 -155.5t-162.5 -61.5zM518 1690q-98 0 -161.5 61.5t-63.5 155.5t63.5 155.5t161.5 61.5
q97 0 161 -61.5t64 -155.5t-64 -155.5t-161 -61.5z" />
    <glyph glyph-name="Zacute" unicode="&#x179;" horiz-adv-x="1425" 
d="M10 0h1342v414h-553l616 1177v6h-1339v-411h551l-617 -1180v-6zM938 1722h-430l303 340h532z" />
    <glyph glyph-name="zacute" unicode="&#x17a;" horiz-adv-x="1175" 
d="M18 0h1094v352h-403l454 836v6h-1093v-377h389l-441 -811v-6zM725 1323h-352l186 442h471z" />
    <glyph glyph-name="Zdotaccent" unicode="&#x17b;" horiz-adv-x="1425" 
d="M1352 0h-1342v6l617 1180h-551v411h1339v-6l-616 -1177h553v-414zM713 1692q-98 0 -162 61.5t-64 155.5q0 96 63.5 156.5t162.5 60.5q97 0 160 -60.5t63 -156.5q0 -94 -63 -155.5t-160 -61.5z" />
    <glyph glyph-name="zdotaccent" unicode="&#x17c;" horiz-adv-x="1175" 
d="M1112 0h-1094v6l441 811h-389v377h1093v-6l-454 -836h403v-352zM590 1292q-94 0 -156.5 60t-62.5 153q0 92 62.5 151.5t156.5 59.5t156.5 -59.5t62.5 -151.5q0 -93 -62.5 -153t-156.5 -60z" />
    <glyph glyph-name="Zcaron" unicode="&#x17d;" horiz-adv-x="1425" 
d="M10 0h1342v414h-553l616 1177v6h-1339v-411h551l-617 -1180v-6zM203 2075h342l133 -99q16 -14 35 -14q17 0 35 14l133 99h342l-297 -353h-426z" />
    <glyph glyph-name="zcaron" unicode="&#x17e;" horiz-adv-x="1175" 
d="M18 0h1094v352h-403l454 836v6h-1093v-377h389l-441 -811v-6zM131 1763h287l139 -127q16 -16 33 -16t33 16l137 127h287l-318 -442h-278z" />
    <glyph glyph-name="uni0180" unicode="&#x180;" horiz-adv-x="1521" 
d="M891 -37q-105 0 -179.5 29.5t-140.5 85.5q-42 39 -67 39q-29 0 -41 -41q-14 -53 -17 -76h-348v1303h-157v231h157v125h473v-125h258v-231h-258v-123q0 -35 23 -35q12 0 41 16q107 68 254 68q161 0 296 -82.5t213.5 -229t78.5 -325.5q0 -174 -77.5 -318.5t-212 -227.5
t-296.5 -83zM778 365q98 0 156.5 63.5t58.5 169.5q0 103 -58.5 166t-156.5 63q-101 0 -159 -62.5t-58 -166.5q0 -106 58 -169.5t159 -63.5z" />
    <glyph glyph-name="uni0181" unicode="&#x181;" horiz-adv-x="2017" 
d="M1403 0h-828v1210h-86q-92 0 -92 -104q0 -76 52 -225h-338q-47 63 -82 158t-35 186q0 185 116 278.5t322 93.5h926q257 0 397.5 -115.5t140.5 -305.5q0 -216 -206 -324q137 -49 208.5 -148t71.5 -229q0 -228 -145.5 -351.5t-421.5 -123.5zM1081 1210v-258h176
q148 0 148 131q0 127 -148 127h-176zM1081 653v-266h234q147 0 147 131q0 135 -149 135h-232z" />
    <glyph glyph-name="uni0186" unicode="&#x186;" horiz-adv-x="1849" 
d="M918 -41q-359 -3 -597 191.5t-278 517.5h543q24 -124 106.5 -194.5t214.5 -70.5q153 0 243.5 108.5t90.5 287.5t-90.5 287t-243.5 108q-133 0 -215 -69.5t-106 -194.5h-543q40 324 278 517.5t597 190.5q199 0 364.5 -64t277 -176t173 -266t61.5 -333q0 -178 -61.5 -332.5
t-173 -266.5t-277 -176.5t-364.5 -64.5z" />
    <glyph glyph-name="uni0187" unicode="&#x187;" horiz-adv-x="1835" 
d="M942 -41q-191 0 -357 64.5t-282.5 176t-183 267t-66.5 332.5q0 237 113.5 428.5t317 301t458.5 109.5q236 0 385 -79q-74 109 -74 215q0 133 106.5 213.5t280.5 80.5q182 0 297 -77v-359q-79 27 -143 27q-143 0 -143 -148q0 -43 17.5 -101t66.5 -175q67 -166 77 -305
h-542q-12 121 -98.5 192.5t-208.5 71.5q-163 0 -256 -109t-93 -286q0 -176 93.5 -286t255.5 -110q122 0 208.5 71.5t98.5 193.5h542q-37 -331 -271.5 -521.5t-598.5 -187.5z" />
    <glyph glyph-name="uni0188" unicode="&#x188;" horiz-adv-x="1423" 
d="M721 -43q-194 0 -348.5 82.5t-241 229t-86.5 329.5q0 181 86.5 326.5t241 228t348.5 82.5q99 0 194 -18q-36 62 -36 149q0 123 94.5 193.5t249.5 70.5q71 0 143 -16t121 -45v-322q-71 23 -125 23q-58 0 -92.5 -28.5t-34.5 -78.5q0 -73 63 -207q68 -150 82 -282h-467
q-11 76 -58 118t-124 42q-96 0 -151.5 -63.5t-55.5 -172.5q0 -111 55.5 -175.5t151.5 -64.5q78 0 124.5 42t57.5 120h467q-31 -262 -205 -412.5t-454 -150.5z" />
    <glyph glyph-name="uni0189" unicode="&#x189;" horiz-adv-x="1931" 
d="M1014 0h-748v625h-215v360h215v612h748q392 0 626 -215t234 -583q0 -367 -234 -583t-626 -216zM797 625v-213h172q179 0 262.5 93t83.5 294t-83.5 294t-262.5 93h-172v-201h301v-360h-301z" />
    <glyph glyph-name="uni018A" unicode="&#x18a;" horiz-adv-x="2236" 
d="M1319 0h-748v1210h-82q-92 0 -92 -104q0 -76 52 -225h-338q-47 63 -82 158t-35 186q0 185 116 278.5t322 93.5h887q258 0 452 -96t301 -277t107 -425q0 -243 -106.5 -424.5t-301 -278t-452.5 -96.5zM1102 1186v-774h172q178 0 262 93.5t84 293.5t-84 293.5t-262 93.5
h-172z" />
    <glyph glyph-name="uni018E" unicode="&#x18e;" horiz-adv-x="1417" 
d="M1290 1597v-1597h-1224v420h712v180h-577v401h577v177h-676v419h1188z" />
    <glyph glyph-name="uni018F" unicode="&#x18f;" horiz-adv-x="1798" 
d="M893 -41q-177 0 -331.5 59t-265.5 163.5t-175 254.5t-64 324q0 115 15 203h1114q-10 121 -85.5 189.5t-197.5 68.5q-180 0 -272 -136h-543q65 256 280 405.5t533 149.5q183 0 339.5 -60.5t267 -169t173 -264.5t62.5 -341q0 -244 -107 -436.5t-301.5 -301t-441.5 -108.5z
M901 375q123 0 195 70.5t90 193.5h-590q7 -123 90 -193.5t215 -70.5z" />
    <glyph glyph-name="uni0190" unicode="&#x190;" horiz-adv-x="1482" 
d="M758 -41q-111 0 -212.5 18t-192 57.5t-157 96t-105 139t-38.5 181.5q0 145 83.5 241.5t240.5 138.5q-124 39 -195 131t-71 218q0 206 172.5 332t464.5 126q196 0 342.5 -60t231.5 -183.5t87 -298.5h-496q-15 131 -137 131q-62 0 -100.5 -31.5t-38.5 -91.5q0 -61 40 -96
t109 -35h263v-332h-271q-72 0 -113.5 -35t-41.5 -98q0 -62 40 -97.5t113 -35.5q68 0 109.5 35.5t52.5 99.5h524q-31 -265 -211.5 -408t-492.5 -143z" />
    <glyph glyph-name="uni0191" unicode="&#x191;" horiz-adv-x="1302" 
d="M180 -514q-90 0 -189 22t-173 58v385q110 -46 196 -49q113 -3 113 118v1577h1122v-411h-606v-234h522v-411h-522v-521q0 -285 -108 -409.5t-355 -124.5z" />
    <glyph glyph-name="florin" unicode="&#x192;" horiz-adv-x="997" 
d="M295 -514q-164 0 -281 57v320q74 -21 115 -21q119 0 119 125v850h-205v377h205v63q0 459 497 459q157 0 244 -37v-350q-54 23 -127 23q-72 0 -112.5 -33.5t-40.5 -89.5v-35h270v-377h-270v-915q0 -202 -106.5 -309t-307.5 -107z" />
    <glyph glyph-name="uni0193" unicode="&#x193;" horiz-adv-x="1837" 
d="M860 -31q-234 0 -417.5 105.5t-284.5 293.5t-101 425q0 183 65 339.5t181 268t282.5 174.5t362.5 63q232 0 381 -79q-76 107 -76 215q0 134 109.5 214t284.5 80t290 -77v-359q-77 27 -147 27q-133 0 -133 -133q0 -57 14 -110t64 -181q56 -152 67 -281h-545
q-17 115 -93 177.5t-199 62.5q-155 0 -252 -106t-97 -289q0 -184 96.5 -290t248.5 -106q224 0 303 166q31 64 41 166h464v-735h-358q-3 38 -18 88q-15 49 -50 49q-26 0 -65 -37q-152 -131 -418 -131z" />
    <glyph glyph-name="uni0194" unicode="&#x194;" horiz-adv-x="1753" 
d="M889 -39q-228 0 -361 93t-133 257q0 108 50 198t155 179l-643 909h584l358 -518l352 518h543l-620 -905q106 -88 156 -179.5t50 -201.5q0 -164 -133 -257t-358 -93zM889 266q28 0 47.5 16.5t19.5 45.5q0 59 -67 106q-70 -49 -70 -106q0 -29 21 -45.5t49 -16.5z" />
    <glyph glyph-name="uni0196" unicode="&#x196;" horiz-adv-x="933" 
d="M664 -18q-282 0 -413.5 109t-131.5 358v1148h526v-1058q0 -51 25 -99q27 -43 118 -43q66 0 121 15v-392q-96 -38 -245 -38z" />
    <glyph glyph-name="uni0197" unicode="&#x197;" horiz-adv-x="1069" 
d="M799 0h-529v653h-219v363h219v581h529v-581h219v-363h-219v-653z" />
    <glyph glyph-name="uni0198" unicode="&#x198;" horiz-adv-x="1814" 
d="M668 0h-541v1597h541v-755l307 491q113 167 213.5 231t243.5 64q97 0 190 -33t154 -90v-430q-131 74 -228 74q-71 0 -120 -29.5t-101 -111.5l-98 -158l553 -850h-658l-456 754v-754z" />
    <glyph glyph-name="uni0199" unicode="&#x199;" horiz-adv-x="1433" 
d="M571 0h-473v1260q0 223 126 339.5t370 116.5q82 0 165 -18t134 -47v-332q-85 33 -166 33q-156 0 -156 -138v-561l314 541h549l-365 -571l410 -623h-580l-328 543v-543z" />
    <glyph glyph-name="uni019D" unicode="&#x19d;" horiz-adv-x="1816" 
d="M164 -514q-81 0 -176 20.5t-170 59.5v385q110 -49 194 -49q60 -2 87.5 25.5t27.5 90.5v1579h578l509 -913v913h476v-1597h-580l-508 911v-893q0 -284 -103 -408t-335 -124z" />
    <glyph glyph-name="uni019F" unicode="&#x19f;" horiz-adv-x="1923" 
d="M963 -41q-203 0 -374 64.5t-288 176.5t-182.5 266.5t-65.5 332.5t65.5 332.5t182.5 266.5t288 176t374 64q202 0 372.5 -64t287.5 -176t182 -266.5t65 -332.5t-65 -332.5t-182 -266.5t-287.5 -176.5t-372.5 -64.5zM963 1210q-130 0 -224.5 -64.5t-132.5 -180.5h711
q-38 116 -131.5 180.5t-222.5 64.5zM963 387q129 0 222.5 65t131.5 181h-711q38 -116 132.5 -181t224.5 -65z" />
    <glyph glyph-name="Ohorn" unicode="&#x1a0;" horiz-adv-x="1982" 
d="M963 -41q-203 0 -374 64.5t-288 176.5t-182.5 266.5t-65.5 332.5t65.5 332.5t182.5 266.5t288 176t374 64q202 0 372.5 -64t287.5 -176t182 -266.5t65 -332.5t-65 -332.5t-182 -266.5t-287.5 -176.5t-372.5 -64.5zM963 412q158 0 253 105t95 282q0 178 -94.5 283.5
t-253.5 105.5q-160 0 -254.5 -105.5t-94.5 -283.5q0 -177 94.5 -282t254.5 -105zM1698 1266q-79 0 -153.5 18.5t-117.5 46.5v205q56 -33 97 -33q83 0 80 123q0 78 -33 193h330q86 -145 86 -308q0 -113 -77.5 -179t-211.5 -66z" />
    <glyph glyph-name="ohorn" unicode="&#x1a1;" horiz-adv-x="1548" 
d="M733 -39q-197 0 -354.5 81.5t-246.5 227t-89 328.5q0 182 89 327t246.5 226.5t354.5 81.5q150 0 278.5 -47.5t219 -131t141.5 -201.5t51 -255t-51 -255.5t-141.5 -202.5t-219 -131.5t-278.5 -47.5zM733 362q99 0 156 63.5t57 172.5q0 107 -57 170t-156 63
q-98 0 -154.5 -63.5t-56.5 -169.5q0 -109 56.5 -172.5t154.5 -63.5zM1298 889q-66 0 -135 21t-108 51v200q58 -24 90 -24q45 0 61.5 34.5t16.5 92.5q0 88 -31 186h301q68 -152 68 -309q0 -118 -70.5 -185t-192.5 -67z" />
    <glyph glyph-name="uni01A4" unicode="&#x1a4;" horiz-adv-x="2033" 
d="M1130 0h-528v1210h-86q-92 0 -92 -104q0 -77 49 -225h-336q-47 63 -82 158t-35 186q0 185 116 278.5t323 93.5h868q164 0 293.5 -44t213 -122t127.5 -184t44 -231t-44.5 -231.5t-129 -185t-214.5 -123t-292 -44.5h-195v-432zM1130 1198v-373h148q98 0 151.5 48t53.5 139
q0 92 -53.5 139t-151.5 47h-148z" />
    <glyph glyph-name="uni01A5" unicode="&#x1a5;" horiz-adv-x="1521" 
d="M569 -430h-471v1690q0 223 125 339.5t369 116.5q85 0 167.5 -18t133.5 -47v-332q-85 33 -162 33q-78 0 -120 -32.5t-42 -88.5v-51q0 -35 25 -35q10 0 39 18q86 66 256 66q121 0 230 -48.5t187.5 -131.5t124.5 -200.5t46 -250.5t-46 -251t-124.5 -202t-187.5 -133
t-230 -49q-167 0 -256 68q-26 16 -39 16q-25 0 -25 -33v-444zM778 365q98 0 155.5 63.5t57.5 169.5q0 103 -57.5 166t-155.5 63q-102 0 -160.5 -62.5t-58.5 -166.5q0 -105 58.5 -169t160.5 -64z" />
    <glyph glyph-name="uni01A9" unicode="&#x1a9;" horiz-adv-x="1361" 
d="M1296 0h-1316v6l489 811l-459 774v6h1250v-419h-404l197 -361l-226 -397h469v-420z" />
    <glyph glyph-name="uni01AC" unicode="&#x1ac;" horiz-adv-x="1685" 
d="M1229 0h-529v1178h-213q-92 0 -92 -93q0 -76 51 -204h-337q-47 63 -82 158t-35 186q0 185 116 278.5t322 93.5h1231v-419h-432v-1178z" />
    <glyph glyph-name="uni01AD" unicode="&#x1ad;" horiz-adv-x="1017" 
d="M725 -18q-258 0 -379 104.5t-121 347.5v383h-202v377h202v111q0 202 105.5 306.5t308.5 104.5q180 0 279 -57v-318q-63 19 -111 19q-56 0 -88.5 -35t-32.5 -100v-31h270v-377h-270v-334q0 -61 33 -99t121 -38q54 0 129 19v-347q-91 -36 -244 -36z" />
    <glyph glyph-name="uni01AE" unicode="&#x1ae;" horiz-adv-x="1441" 
d="M985 -514q-136 0 -230 24.5t-163.5 84.5t-102 164t-32.5 259v1160h-432v419h1392v-419h-432v-1112q0 -92 35 -128.5t123 -35.5q82 3 172 28v-385q-175 -59 -330 -59z" />
    <glyph glyph-name="Uhorn" unicode="&#x1af;" horiz-adv-x="1869" 
d="M866 -41q-167 0 -304.5 45t-238.5 130.5t-156.5 218.5t-55.5 302v942h528v-981q0 -110 59 -169.5t168 -59.5q106 0 166 59.5t60 169.5v981h370q52 0 71 20.5t19 65.5q0 63 -53 172h322q96 -149 96 -299q0 -112 -75 -177t-220 -72v-652q0 -169 -56 -302t-157 -218.5
t-239 -130.5t-304 -45z" />
    <glyph glyph-name="uhorn" unicode="&#x1b0;" horiz-adv-x="1525" 
d="M524 -39q-206 0 -320 123.5t-114 343.5v766h471v-668q0 -147 129 -147q65 0 109 35q43 46 43 127v653h471v-1194h-340q-3 27 -19 72q-12 43 -45 43q-14 0 -25 -7t-36 -30q-123 -117 -324 -117zM1217 903h-248v291h135q73 0 95 21t22 69q0 68 -41 166h301q69 -140 69 -248
q0 -126 -89.5 -212.5t-243.5 -86.5z" />
    <glyph glyph-name="uni01B1" unicode="&#x1b1;" horiz-adv-x="1949" 
d="M66 1597h839v-399q-138 -48 -216.5 -158t-78.5 -264q0 -168 102.5 -271.5t262.5 -103.5t262 103t102 272q0 154 -78.5 264t-216.5 158v399h840v-419h-291q106 -68 173 -202t67 -284q0 -160 -64 -297t-177 -232.5t-272.5 -149.5t-344.5 -54t-344 54t-271.5 149.5
t-176.5 232.5t-64 297q0 151 66 284.5t171 201.5h-290v419z" />
    <glyph glyph-name="uni01B2" unicode="&#x1b2;" horiz-adv-x="1761" 
d="M885 -41q-372 0 -573 186.5t-201 526.5v925h528l2 -923q0 -139 61 -203.5t185 -64.5q133 0 201.5 127.5t68.5 373.5q0 166 -48 230.5t-171 64.5q-46 0 -111 -10v395q129 47 318 47q278 2 411.5 -159.5t133.5 -505.5q0 -229 -48 -412t-145 -318t-252 -207.5t-360 -72.5z
" />
    <glyph glyph-name="uni01B3" unicode="&#x1b3;" horiz-adv-x="1751" 
d="M1096 0h-504v623l-604 974h577l299 -524l137 256q87 160 187 232q98 67 242 67q171 0 305 -108v-426q-113 67 -209 67q-73 0 -119.5 -33.5t-101.5 -130.5l-209 -364v-633z" />
    <glyph glyph-name="uni01B4" unicode="&#x1b4;" horiz-adv-x="1363" 
d="M731 -514h-491l202 514l-458 1194h518l211 -678l219 741q61 194 167.5 281.5t280.5 87.5q155 0 234 -51v-330q-59 19 -98 19q-61 0 -97 -27.5t-59 -91.5z" />
    <glyph glyph-name="uni01B7" unicode="&#x1b7;" horiz-adv-x="1359" 
d="M668 -41q-177 0 -319 64t-229.5 187.5t-99.5 289.5h508q15 -133 140 -133q118 0 118 133q0 74 -45.5 113.5t-126.5 39.5h-428v6l303 519h-378v419h1126v-8l-348 -583q193 -33 306.5 -168t113.5 -320q0 -255 -171 -407t-470 -152z" />
    <glyph glyph-name="uni01C0" unicode="&#x1c0;" horiz-adv-x="645" 
d="M547 -551h-449v2210h449v-2210z" />
    <glyph glyph-name="uni01C1" unicode="&#x1c1;" horiz-adv-x="1181" 
d="M1081 -551h-401v2210h401v-2210zM500 -551h-402v2210h402v-2210z" />
    <glyph glyph-name="uni01C2" unicode="&#x1c2;" horiz-adv-x="1370" 
d="M461 106h-369v334h369v230h-369v334h369v655h448v-655h369v-334h-369v-230h369v-334h-369v-657h-448v657z" />
    <glyph glyph-name="uni01C3" unicode="&#x1c3;" horiz-adv-x="626" 
d="M504 575h-379l-57 1084h493zM313 -37q-116 0 -192 72.5t-76 179.5q0 109 75.5 180.5t192.5 71.5t193 -71.5t76 -180.5q0 -107 -76.5 -179.5t-192.5 -72.5z" />
    <glyph glyph-name="uni01CD" unicode="&#x1cd;" horiz-adv-x="1728" 
d="M-4 0h541l86 285h458l86 -285h582l-535 1597h-718zM696 647l154 559l160 -559h-314zM340 2075h342l133 -99q16 -14 35 -14q17 0 35 14l133 99h342l-297 -353h-426z" />
    <glyph glyph-name="uni01CE" unicode="&#x1ce;" horiz-adv-x="1325" 
d="M481 -35q108 0 183.5 30.5t132.5 96.5q23 29 43 29q12 0 18.5 -7t13.5 -30q17 -66 19 -84h346v743q0 240 -145.5 365t-417.5 125q-131 0 -238.5 -33.5t-181 -93t-119 -138t-61.5 -171.5h479q6 43 41 68.5t86 25.5q50 0 78 -26t28 -68v-37q-127 -32 -264 -35
q-234 -14 -356.5 -109t-122.5 -266q0 -179 125 -282t313 -103zM514 381q0 84 109 94q114 16 163 35v-49q0 -82 -26 -119q-45 -59 -129 -59q-55 0 -86 25.5t-31 72.5zM219 1763h287l139 -127q16 -16 33 -16t33 16l137 127h287l-318 -442h-278z" />
    <glyph glyph-name="uni01CF" unicode="&#x1cf;" horiz-adv-x="782" 
d="M127 0h528v1597h-528v-1597zM-117 2075h342l133 -99q16 -14 35 -14q17 0 35 14l133 99h342l-297 -353h-426z" />
    <glyph glyph-name="uni01D0" unicode="&#x1d0;" horiz-adv-x="669" 
d="M569 0h-471v1194h471v-1194zM481 1323h-295l-258 440h265l108 -133q19 -22 33 -22t33 22l108 133h264z" />
    <glyph glyph-name="uni01D1" unicode="&#x1d1;" horiz-adv-x="1923" 
d="M963 -41q202 0 372.5 64.5t287.5 176.5t182 266.5t65 332.5t-65 332.5t-182 266.5t-287.5 176t-372.5 64q-203 0 -374 -64t-288 -176t-182.5 -266.5t-65.5 -332.5t65.5 -332.5t182.5 -266.5t288 -176.5t374 -64.5zM963 412q-160 0 -254.5 105t-94.5 282q0 178 94.5 283.5
t254.5 105.5q159 0 253.5 -105.5t94.5 -283.5q0 -177 -95 -282t-253 -105zM453 2075h342l133 -99q16 -14 35 -14q16 0 34 14l133 99h343l-297 -353h-426z" />
    <glyph glyph-name="uni01D2" unicode="&#x1d2;" horiz-adv-x="1468" 
d="M733 -39q150 0 278.5 47.5t219 131.5t141.5 202.5t51 255.5t-51 255t-141.5 201.5t-219 131t-278.5 47.5q-197 0 -354.5 -81.5t-246.5 -226.5t-89 -327q0 -183 89 -328.5t246.5 -227t354.5 -81.5zM733 362q-98 0 -154.5 63.5t-56.5 172.5q0 106 56.5 169.5t154.5 63.5
q99 0 156 -63t57 -170q0 -109 -57 -172.5t-156 -63.5zM274 1763h287l139 -127q16 -16 33 -16t33 16l137 127h287l-318 -442h-278z" />
    <glyph glyph-name="uni01D3" unicode="&#x1d3;" horiz-adv-x="1730" 
d="M866 -41q166 0 304 45t239 130.5t157 218.5t56 302v942h-530v-981q0 -110 -60 -169.5t-166 -59.5q-109 0 -168 59.5t-59 169.5v981h-528v-942q0 -169 55.5 -302t156.5 -218.5t238.5 -130.5t304.5 -45zM356 2075h342l133 -99q16 -14 35 -14q17 0 35 14l133 99h342
l-297 -353h-426z" />
    <glyph glyph-name="uni01D4" unicode="&#x1d4;" horiz-adv-x="1411" 
d="M524 -39q201 0 324 117q25 23 36 30t25 7q33 0 45 -43q16 -45 19 -72h340v1194h-471v-653q0 -81 -43 -127q-44 -35 -109 -35q-129 0 -129 147v668h-471v-766q0 -220 114 -343.5t320 -123.5zM252 1763h287l139 -127q16 -16 33 -16q16 0 32 16l138 127h286l-317 -442h-279z
" />
    <glyph glyph-name="uni01D5" unicode="&#x1d5;" horiz-adv-x="1730" 
d="M866 -41q-167 0 -304.5 45t-238.5 130.5t-156.5 218.5t-55.5 302v942h528v-981q0 -110 59 -169.5t168 -59.5q106 0 166 59.5t60 169.5v981h530v-942q0 -169 -56 -302t-157 -218.5t-239 -130.5t-304 -45zM1124 1708q-87 0 -142.5 54.5t-55.5 140.5q0 82 56 136t142 54
t143.5 -54t57.5 -136q0 -86 -57 -140.5t-144 -54.5zM606 1708q-87 0 -142.5 54.5t-55.5 140.5q0 82 56 136t142 54t143.5 -54t57.5 -136q0 -86 -57 -140.5t-144 -54.5zM1217 2165h-701v272h701v-272z" />
    <glyph glyph-name="uni01D6" unicode="&#x1d6;" horiz-adv-x="1411" 
d="M524 -39q-206 0 -320 123.5t-114 343.5v766h471v-668q0 -147 129 -147q65 0 109 35q43 46 43 127v653h471v-1194h-340q-3 27 -19 72q-12 43 -45 43q-14 0 -25 -7t-36 -30q-123 -117 -324 -117zM958 1282q-82 0 -136 52.5t-54 131.5q0 78 54 130.5t136 52.5t137.5 -52.5
t55.5 -130.5q0 -79 -55.5 -131.5t-137.5 -52.5zM463 1282q-84 0 -137.5 52t-53.5 132q0 79 53.5 131t137.5 52q82 0 137 -52.5t55 -130.5q0 -79 -55 -131.5t-137 -52.5zM1085 1724h-745v248h745v-248z" />
    <glyph glyph-name="uni01D7" unicode="&#x1d7;" horiz-adv-x="1730" 
d="M866 -41q-167 0 -304.5 45t-238.5 130.5t-156.5 218.5t-55.5 302v942h528v-981q0 -110 59 -169.5t168 -59.5q106 0 166 59.5t60 169.5v981h530v-942q0 -169 -56 -302t-157 -218.5t-239 -130.5t-304 -45zM1124 1708q-87 0 -142.5 54.5t-55.5 140.5q0 82 56 136t142 54
t143.5 -54t57.5 -136q0 -86 -57 -140.5t-144 -54.5zM606 1708q-87 0 -142.5 54.5t-55.5 140.5q0 82 56 136t142 54t143.5 -54t57.5 -136q0 -86 -57 -140.5t-144 -54.5zM1024 2150h-342l205 322h448z" />
    <glyph glyph-name="uni01D8" unicode="&#x1d8;" horiz-adv-x="1411" 
d="M524 -39q201 0 324 117q25 23 36 30t25 7q33 0 45 -43q16 -45 19 -72h340v1194h-471v-653q0 -81 -43 -127q-44 -35 -109 -35q-129 0 -129 147v668h-471v-766q0 -220 114 -343.5t320 -123.5zM958 1282q82 0 137.5 52.5t55.5 131.5q0 78 -55.5 130.5t-137.5 52.5
t-136 -52.5t-54 -130.5q0 -79 54 -131.5t136 -52.5zM463 1282q82 0 137 52.5t55 131.5q0 78 -55 130.5t-137 52.5q-84 0 -137.5 -52t-53.5 -131q0 -80 53.5 -132t137.5 -52zM842 1702h-242l143 354h361z" />
    <glyph glyph-name="uni01D9" unicode="&#x1d9;" horiz-adv-x="1730" 
d="M866 -41q166 0 304 45t239 130.5t157 218.5t56 302v942h-530v-981q0 -110 -60 -169.5t-166 -59.5q-109 0 -168 59.5t-59 169.5v981h-528v-942q0 -169 55.5 -302t156.5 -218.5t238.5 -130.5t304.5 -45zM1124 1708q87 0 144 54.5t57 140.5q0 82 -57.5 136t-143.5 54
t-142 -54t-56 -136q0 -86 55.5 -140.5t142.5 -54.5zM606 1708q87 0 144 54.5t57 140.5q0 82 -57.5 136t-143.5 54t-142 -54t-56 -136q0 -86 55.5 -140.5t142.5 -54.5zM365 2474h354l108 -74q18 -14 39 -14t37 14l111 74h354l-283 -324h-438z" />
    <glyph glyph-name="uni01DA" unicode="&#x1da;" horiz-adv-x="1411" 
d="M524 -39q201 0 324 117q25 23 36 30t25 7q33 0 45 -43q16 -45 19 -72h340v1194h-471v-653q0 -81 -43 -127q-44 -35 -109 -35q-129 0 -129 147v668h-471v-766q0 -220 114 -343.5t320 -123.5zM958 1282q82 0 137.5 52.5t55.5 131.5q0 78 -55.5 130.5t-137.5 52.5
t-136 -52.5t-54 -130.5q0 -79 54 -131.5t136 -52.5zM463 1282q82 0 137 52.5t55 131.5q0 78 -55 130.5t-137 52.5q-84 0 -137.5 -52t-53.5 -131q0 -80 53.5 -132t137.5 -52zM279 2083h290l115 -94q17 -13 31 -13t30 13l113 94h291l-281 -381h-309z" />
    <glyph glyph-name="uni01DB" unicode="&#x1db;" horiz-adv-x="1730" 
d="M866 -41q166 0 304 45t239 130.5t157 218.5t56 302v942h-530v-981q0 -110 -60 -169.5t-166 -59.5q-109 0 -168 59.5t-59 169.5v981h-528v-942q0 -169 55.5 -302t156.5 -218.5t238.5 -130.5t304.5 -45zM1124 1708q87 0 144 54.5t57 140.5q0 82 -57.5 136t-143.5 54
t-142 -54t-56 -136q0 -86 55.5 -140.5t142.5 -54.5zM606 1708q87 0 144 54.5t57 140.5q0 82 -57.5 136t-143.5 54t-142 -54t-56 -136q0 -86 55.5 -140.5t142.5 -54.5zM1051 2150h-342l-312 322h449z" />
    <glyph glyph-name="uni01DC" unicode="&#x1dc;" horiz-adv-x="1411" 
d="M524 -39q-206 0 -320 123.5t-114 343.5v766h471v-668q0 -147 129 -147q65 0 109 35q43 46 43 127v653h471v-1194h-340q-3 27 -19 72q-12 43 -45 43q-14 0 -25 -7t-36 -30q-123 -117 -324 -117zM958 1282q-82 0 -136 52.5t-54 131.5q0 78 54 130.5t136 52.5t137.5 -52.5
t55.5 -130.5q0 -79 -55.5 -131.5t-137.5 -52.5zM463 1282q-84 0 -137.5 52t-53.5 132q0 79 53.5 131t137.5 52q82 0 137 -52.5t55 -130.5q0 -79 -55 -131.5t-137 -52.5zM825 1702h-241l-262 354h360z" />
    <glyph glyph-name="uni01DD" unicode="&#x1dd;" horiz-adv-x="1388" 
d="M686 -39q-180 0 -325.5 75t-229.5 214.5t-84 318.5q0 113 12 162h811q-6 74 -52.5 114t-119.5 40q-108 0 -166 -78h-460q48 198 213 312t413 114q186 0 332.5 -78t229.5 -221.5t83 -329.5q0 -185 -81 -331t-231.5 -229t-344.5 -83zM696 305q78 0 122 45.5t52 118.5h-362
q6 -80 56 -122t132 -42z" />
    <glyph glyph-name="uni01DE" unicode="&#x1de;" horiz-adv-x="1728" 
d="M537 0h-541l500 1597h718l535 -1597h-582l-86 285h-458zM850 1206l-154 -559h314zM1108 1708q-87 0 -143 54.5t-56 140.5q0 82 56.5 136t142.5 54t143.5 -54t57.5 -136q0 -86 -57 -140.5t-144 -54.5zM590 1708q-87 0 -143 54.5t-56 140.5q0 82 56.5 136t142.5 54
t143.5 -54t57.5 -136q0 -86 -57 -140.5t-144 -54.5zM1200 2165h-700v272h700v-272z" />
    <glyph glyph-name="uni01DF" unicode="&#x1df;" horiz-adv-x="1325" 
d="M481 -35q-188 0 -313 103t-125 282q0 171 122.5 266t356.5 109q137 3 264 35v37q0 42 -28 68t-78 26q-51 0 -86 -25.5t-41 -68.5h-479q16 93 61.5 171.5t119 138t181 93t238.5 33.5q272 0 417.5 -125t145.5 -365v-743h-346q-2 18 -19 84q-7 23 -13.5 30t-18.5 7
q-20 0 -43 -29q-57 -66 -132.5 -96.5t-183.5 -30.5zM514 381q0 -47 31 -72.5t86 -25.5q84 0 129 59q26 37 26 119v49q-49 -19 -163 -35q-109 -10 -109 -94zM926 1282q-82 0 -136.5 52.5t-54.5 131.5q0 78 54.5 130.5t136.5 52.5t137 -52.5t55 -130.5q0 -79 -55 -131.5
t-137 -52.5zM430 1282q-84 0 -137 52t-53 132q0 79 53 131t137 52q82 0 137.5 -52.5t55.5 -130.5q0 -79 -55.5 -131.5t-137.5 -52.5zM1051 1724h-746v248h746v-248z" />
    <glyph glyph-name="uni01E4" unicode="&#x1e4;" horiz-adv-x="2013" 
d="M860 -31q-234 0 -418 105.5t-285.5 293.5t-101.5 425q0 183 65 339.5t181 268t282.5 174.5t362.5 63q367 0 598 -185t256 -499h-545q-17 115 -93 177.5t-199 62.5q-155 0 -252 -106t-97 -289q0 -185 96 -290.5t248 -105.5q225 0 304 166l4 6h-222v304h926v-304h-203v-575
h-356q-3 38 -18 88q-15 49 -50 49q-26 0 -65 -37q-152 -131 -418 -131z" />
    <glyph glyph-name="uni01E5" unicode="&#x1e5;" horiz-adv-x="1703" 
d="M197 512h-156v229h154q36 220 190 353t350 133q92 0 168 -29t150 -94q24 -21 33 -26t22 -5q29 0 41 41q13 42 16 80h346v-453h154v-229h-154v-471q0 -271 -170.5 -412t-466.5 -141q-274 0 -442.5 128t-220.5 343h463q44 -137 203 -137q93 0 140.5 41t47.5 131v102
q0 33 -25 33q-17 0 -39 -16q-88 -56 -245 -56q-213 0 -367.5 127.5t-191.5 327.5zM864 852q-131 0 -188 -111h379q-27 52 -76.5 81.5t-114.5 29.5zM864 401q65 0 113.5 29.5t75.5 81.5h-377q54 -111 188 -111z" />
    <glyph glyph-name="Gcaron" unicode="&#x1e6;" horiz-adv-x="1861" 
d="M860 -31q266 0 418 131q39 37 65 37q35 0 50 -49q15 -50 18 -88h356v735h-464q-10 -108 -41 -166q-79 -166 -304 -166q-152 0 -248 105.5t-96 290.5q0 183 97 289t252 106q123 0 199 -62.5t93 -177.5h545q-25 314 -256 499t-598 185q-196 0 -362.5 -63t-282.5 -174.5
t-181 -268t-65 -339.5q0 -237 101.5 -425t285.5 -293.5t418 -105.5zM436 2075h342l133 -99q16 -14 35 -14q17 0 35 14l133 99h342l-297 -353h-426z" />
    <glyph glyph-name="gcaron" unicode="&#x1e7;" horiz-adv-x="1472" 
d="M737 -514q194 0 336 61.5t221.5 187.5t79.5 306v1153h-346q-2 -30 -14 -80q-15 -41 -43 -41q-13 0 -23 5.5t-33 25.5q-74 65 -149.5 94t-167.5 29q-106 0 -205 -43t-175.5 -119t-122.5 -190t-46 -248q0 -160 73.5 -290.5t204 -205t291.5 -74.5q164 0 246 56q26 16 39 16
q25 0 25 -33v-102q0 -90 -47.5 -131t-141.5 -41q-158 0 -202 137h-463q52 -213 222 -343t441 -130zM727 428q-93 0 -146 54t-53 145t53 143.5t146 52.5q91 0 144 -53.5t53 -142.5q0 -91 -52.5 -145t-144.5 -54zM307 1763h287l139 -127q16 -16 33 -16t33 16l137 127h287
l-318 -442h-278z" />
    <glyph glyph-name="uni01E8" unicode="&#x1e8;" horiz-adv-x="1730" 
d="M127 0h528v754l455 -754h657l-540 836l524 761h-614l-482 -757v757h-528v-1597zM338 2075h342l133 -99q16 -14 35 -14q17 0 35 14l133 99h342l-297 -353h-426z" />
    <glyph glyph-name="uni01E9" unicode="&#x1e9;" horiz-adv-x="1433" 
d="M98 0h473v543l328 -543h580l-410 623l365 571h-549l-314 -541v1006h-473v-1659zM-178 2138h342l133 -98q17 -15 35 -15q16 0 35 15l133 98h342l-297 -352h-426z" />
    <glyph glyph-name="uni01EA" unicode="&#x1ea;" horiz-adv-x="1923" 
d="M963 -41q-203 0 -374 64.5t-288 176.5t-182.5 266.5t-65.5 332.5t65.5 332.5t182.5 266.5t288 176t374 64q202 0 372.5 -64t287.5 -176t182 -266.5t65 -332.5t-65 -332.5t-182 -266.5t-287.5 -176.5t-372.5 -64.5zM963 412q158 0 253 105t95 282q0 178 -94.5 283.5
t-253.5 105.5q-160 0 -254.5 -105.5t-94.5 -283.5q0 -177 94.5 -282t254.5 -105zM1305 -543q-164 0 -263.5 76t-99.5 209q0 123 92 216t295 175l107 -65q-156 -94 -156 -207q0 -54 35.5 -81.5t89.5 -27.5q70 0 127 25v-273q-103 -47 -227 -47z" />
    <glyph glyph-name="uni01EB" unicode="&#x1eb;" horiz-adv-x="1468" 
d="M733 -39q-197 0 -354.5 81.5t-246.5 227t-89 328.5q0 182 89 327t246.5 226.5t354.5 81.5q150 0 278.5 -47.5t219 -131t141.5 -201.5t51 -255t-51 -255.5t-141.5 -202.5t-219 -131.5t-278.5 -47.5zM733 362q99 0 156 63.5t57 172.5q0 107 -57 170t-156 63
q-98 0 -154.5 -63.5t-56.5 -169.5q0 -109 56.5 -172.5t154.5 -63.5zM1006 -528q-162 0 -255.5 83t-93.5 220q0 111 77.5 203.5t234.5 175.5l168 -86q-92 -62 -125 -112.5t-33 -100.5q0 -56 36.5 -82.5t92.5 -26.5q40 0 94 14l2 -256q-71 -32 -198 -32z" />
    <glyph glyph-name="uni01EC" unicode="&#x1ec;" horiz-adv-x="1923" 
d="M963 -41q-203 0 -374 64.5t-288 176.5t-182.5 266.5t-65.5 332.5t65.5 332.5t182.5 266.5t288 176t374 64q202 0 372.5 -64t287.5 -176t182 -266.5t65 -332.5t-65 -332.5t-182 -266.5t-287.5 -176.5t-372.5 -64.5zM963 412q158 0 253 105t95 282q0 178 -94.5 283.5
t-253.5 105.5q-160 0 -254.5 -105.5t-94.5 -283.5q0 -177 94.5 -282t254.5 -105zM1348 1716h-770v281h770v-281zM1305 -543q-164 0 -263.5 76t-99.5 209q0 123 92 216t295 175l107 -65q-156 -94 -156 -207q0 -54 35.5 -81.5t89.5 -27.5q70 0 127 25v-273q-103 -47 -227 -47z
" />
    <glyph glyph-name="uni01ED" unicode="&#x1ed;" horiz-adv-x="1468" 
d="M733 -39q-197 0 -354.5 81.5t-246.5 227t-89 328.5q0 182 89 327t246.5 226.5t354.5 81.5q150 0 278.5 -47.5t219 -131t141.5 -201.5t51 -255t-51 -255.5t-141.5 -202.5t-219 -131.5t-278.5 -47.5zM733 362q99 0 156 63.5t57 172.5q0 107 -57 170t-156 63
q-98 0 -154.5 -63.5t-56.5 -169.5q0 -109 56.5 -172.5t154.5 -63.5zM1006 -528q-162 0 -255.5 83t-93.5 220q0 111 77.5 203.5t234.5 175.5l168 -86q-92 -62 -125 -112.5t-33 -100.5q0 -56 36.5 -82.5t92.5 -26.5q40 0 94 14l2 -256q-71 -32 -198 -32zM1118 1333h-770v281
h770v-281z" />
    <glyph glyph-name="uni01EE" unicode="&#x1ee;" horiz-adv-x="1359" 
d="M668 -41q299 0 470 152t171 407q0 185 -113.5 320t-306.5 168l348 583v8h-1126v-419h378l-303 -519v-6h428q81 0 126.5 -39.5t45.5 -113.5q0 -133 -118 -133q-125 0 -140 133h-508q12 -166 99.5 -289.5t229.5 -187.5t319 -64zM141 2075h342l133 -99q16 -14 35 -14
q17 0 35 14l133 99h342l-297 -353h-426z" />
    <glyph glyph-name="uni01EF" unicode="&#x1ef;" horiz-adv-x="1271" 
d="M651 -512q173 0 310 67.5t218 198.5t81 305q0 198 -122 342t-323 168l383 619v6h-1108v-377h426l-340 -563v-6h379q130 0 193 -56.5t63 -148.5q0 -86 -44 -133t-126 -47q-73 0 -122.5 42.5t-67.5 125.5h-459q14 -165 104.5 -289.5t234.5 -189t320 -64.5zM180 1763h287
l139 -127q16 -16 33 -16t33 16l137 127h287l-318 -442h-278z" />
    <glyph glyph-name="uni01F0" unicode="&#x1f0;" horiz-adv-x="669" 
d="M569 -487h-471v1681h471v-1681zM483 1323h-295l-258 440h265l108 -133q19 -22 33 -22t33 22l108 133h264z" />
    <glyph glyph-name="uni01F8" unicode="&#x1f8;" horiz-adv-x="1816" 
d="M602 0h-475v1597h580l507 -913v913h476v-1597h-580l-508 913v-913zM1118 1722h-430l-405 340h532z" />
    <glyph glyph-name="uni01F9" unicode="&#x1f9;" horiz-adv-x="1417" 
d="M569 0h-471v1194h342q3 -25 21 -82q17 -43 47 -43q24 0 53 33q72 69 150.5 100t181.5 31q206 0 320 -123.5t114 -343.5v-766h-473v668q0 145 -123 145q-67 0 -108 -41q-54 -48 -54 -135v-637zM895 1323h-352l-305 442h471z" />
    <glyph glyph-name="Aringacute" unicode="&#x1fa;" horiz-adv-x="1728" 
d="M537 0h-541l500 1597h718l535 -1597h-582l-86 285h-458zM850 1206l-154 -559h314zM850 1712q-129 0 -215 74q-84 78 -84 190q0 114 84 189q85 76 215 76t214.5 -74.5t84.5 -190.5q0 -115 -84 -189.5t-215 -74.5zM850 1907q32 0 52 19.5t20 49.5t-20 50t-52 20
q-31 0 -51.5 -20.5t-20.5 -49.5t20.5 -49t51.5 -20zM1006 2140h-342l204 322h449z" />
    <glyph glyph-name="aringacute" unicode="&#x1fb;" horiz-adv-x="1325" 
d="M481 -35q108 0 183.5 30.5t132.5 96.5q23 29 43 29q12 0 18.5 -7t13.5 -30q17 -66 19 -84h346v743q0 240 -145.5 365t-417.5 125q-131 0 -238.5 -33.5t-181 -93t-119 -138t-61.5 -171.5h479q6 43 41 68.5t86 25.5q50 0 78 -26t28 -68v-37q-127 -32 -264 -35
q-234 -14 -356.5 -109t-122.5 -266q0 -179 125 -282t313 -103zM514 381q0 84 109 94q114 16 163 35v-49q0 -82 -26 -119q-45 -59 -129 -59q-55 0 -86 25.5t-31 72.5zM678 1307q118 0 194 68t76 173q0 108 -75.5 176t-194.5 68t-193.5 -67.5t-74.5 -176.5q0 -105 75 -173
t193 -68zM678 1479q-32 0 -53 19t-21 50t21.5 51.5t52.5 20.5q32 0 54 -20.5t22 -51.5q0 -30 -21.5 -49.5t-54.5 -19.5zM807 1702h-242l144 354h360z" />
    <glyph glyph-name="AEacute" unicode="&#x1fc;" horiz-adv-x="2398" 
d="M-68 0h609l196 375l398 -2v-373h1198v420h-684v180h549v401h-549v177h649v419h-1481zM907 760l228 440v-440h-228zM1696 1722h-430l303 340h532z" />
    <glyph glyph-name="aeacute" unicode="&#x1fd;" horiz-adv-x="2103" 
d="M598 -39q132 0 244 39t178 113q64 -71 173.5 -111.5t246.5 -40.5q228 0 385 113t207 311h-461q-35 -74 -146 -74q-75 0 -120.5 40t-51.5 112h791q12 49 12 168q0 173 -76.5 311t-215.5 215.5t-316 77.5q-247 0 -393 -125q-57 57 -161.5 90t-231.5 33q-133 0 -239 -34
t-176.5 -95t-114 -137.5t-60.5 -167.5h483q18 92 125 92q113 0 113 -103v-63h-252q-243 0 -370.5 -96t-127.5 -264q0 -127 75.5 -220t199.5 -138.5t280 -45.5zM1430 889q72 0 115.5 -42.5t49.5 -121.5h-342q2 70 50.5 117t126.5 47zM645 283q-56 0 -90.5 25.5t-34.5 64.5
q0 90 119 90h154v-29q0 -73 -37.5 -112t-110.5 -39zM1186 1323h-352l186 442h471z" />
    <glyph glyph-name="Oslashacute" unicode="&#x1fe;" horiz-adv-x="1923" 
d="M59 -100h508l76 104q145 -45 320 -45q202 0 372.5 64.5t287.5 176.5t182 266.5t65 332.5q0 173 -60.5 323.5t-173.5 261.5l228 314h-508l-76 -105q-142 45 -317 45q-203 0 -374 -64t-288 -176t-182.5 -266.5t-65.5 -332.5q0 -172 60.5 -322.5t173.5 -263.5zM582 799
q0 188 104 299.5t277 111.5q50 0 86 -8l-431 -598q-36 82 -36 195zM963 387q-50 0 -86 8l430 598q36 -82 36 -194q0 -186 -104 -299t-276 -113zM1188 1722h-430l303 340h532z" />
    <glyph glyph-name="oslashacute" unicode="&#x1ff;" horiz-adv-x="1466" 
d="M39 -100h387l70 96q116 -35 237 -35q198 0 355.5 81.5t246 227t88.5 328.5q0 128 -46 240.5t-130 199.5l183 254h-390l-65 -94q-116 35 -242 35q-197 0 -354.5 -81.5t-246.5 -226.5t-89 -327q0 -132 46 -245.5t132 -196.5zM481 598q0 124 68 197t184 73q31 0 45 -2
l-278 -387q-19 55 -19 119zM733 326q-29 0 -43 2l277 385q18 -53 18 -115q0 -125 -67.5 -198.5t-184.5 -73.5zM868 1323h-352l186 442h472z" />
    <glyph glyph-name="uni0218" unicode="&#x218;" horiz-adv-x="1480" 
d="M743 -41q-203 0 -360.5 73.5t-245.5 199.5t-98 286h508q10 -89 66.5 -136.5t144.5 -47.5q71 0 108 29t37 75q0 51 -39 78t-159 53q-324 74 -469.5 205t-145.5 352q0 236 174 374t471 138q300 0 468 -134.5t198 -381.5h-498q-23 142 -160 142q-60 0 -96.5 -29.5
t-36.5 -73.5q0 -51 39 -81t131 -50q328 -72 485.5 -209t157.5 -338q0 -248 -183.5 -386t-496.5 -138zM815 -547h-289l68 434h375z" />
    <glyph glyph-name="uni0219" unicode="&#x219;" horiz-adv-x="1216" 
d="M625 -43q-250 0 -405.5 112.5t-184.5 313.5h467q12 -119 123 -119q84 0 84 68q0 35 -28.5 54t-92.5 30q-283 46 -404 140.5t-121 274.5q0 186 144.5 295t390.5 109q501 0 553 -418h-446q-9 111 -97 111q-37 0 -59.5 -18t-22.5 -48q0 -41 33.5 -60.5t122.5 -33.5
q261 -38 374 -131.5t113 -267.5q0 -186 -149 -299t-395 -113zM676 -629h-281l74 475h375z" />
    <glyph glyph-name="uni021A" unicode="&#x21a;" horiz-adv-x="1441" 
d="M985 0h-528v1178h-432v419h1392v-419h-432v-1178zM752 -547h-289l67 434h375z" />
    <glyph glyph-name="uni021B" unicode="&#x21b;" horiz-adv-x="1017" 
d="M725 -18q-258 0 -379 104.5t-121 347.5v383h-202v377h131q70 0 106.5 24.5t58.5 77.5q33 74 54 207h313v-309h270v-377h-270v-332q0 -72 38 -105.5t114 -33.5q56 0 131 19v-347q-91 -36 -244 -36zM651 -618h-280l73 475h375z" />
    <glyph glyph-name="uni021E" unicode="&#x21e;" horiz-adv-x="1806" 
d="M127 0h528v602h496v-602h528v1597h-528v-581h-496v581h-528v-1597zM393 2075h342l133 -99q16 -14 35 -14q17 0 35 14l133 99h342l-297 -353h-426z" />
    <glyph glyph-name="uni021F" unicode="&#x21f;" horiz-adv-x="1417" 
d="M98 0h471v637q0 89 52 135q44 41 112 41q121 0 121 -145v-668h473v764q0 219 -109.5 344t-295.5 125q-185 0 -287 -119q-21 -24 -39 -24q-27 0 -27 38v531h-471v-1659zM-176 2138h342l133 -98q17 -15 35 -15q16 0 35 15l133 98h342l-297 -352h-426z" />
    <glyph glyph-name="uni0226" unicode="&#x226;" horiz-adv-x="1728" 
d="M537 0h-541l500 1597h718l535 -1597h-582l-86 285h-458zM850 1206l-154 -559h314zM850 1692q-98 0 -161.5 61.5t-63.5 155.5q0 96 63 156.5t162 60.5q97 0 160 -60.5t63 -156.5q0 -94 -63 -155.5t-160 -61.5z" />
    <glyph glyph-name="uni0227" unicode="&#x227;" horiz-adv-x="1325" 
d="M481 -35q-188 0 -313 103t-125 282q0 171 122.5 266t356.5 109q137 3 264 35v37q0 42 -28 68t-78 26q-51 0 -86 -25.5t-41 -68.5h-479q16 93 61.5 171.5t119 138t181 93t238.5 33.5q272 0 417.5 -125t145.5 -365v-743h-346q-2 18 -19 84q-7 23 -13.5 30t-18.5 7
q-20 0 -43 -29q-57 -66 -132.5 -96.5t-183.5 -30.5zM514 381q0 -47 31 -72.5t86 -25.5q84 0 129 59q26 37 26 119v49q-49 -19 -163 -35q-109 -10 -109 -94zM676 1292q-94 0 -156.5 60t-62.5 153q0 92 62.5 151.5t156.5 59.5t156.5 -59.5t62.5 -151.5q0 -93 -62.5 -153
t-156.5 -60z" />
    <glyph glyph-name="uni0228" unicode="&#x228;" horiz-adv-x="1417" 
d="M1354 0h-1227v1597h1190v-419h-678v-177h580v-401h-580v-180h715v-420zM791 -539q-181 0 -283 89.5t-113 250.5h307q9 -86 80 -86q64 0 64 66q0 49 -53 101t-172 118l251 23q136 -50 202.5 -120.5t66.5 -168.5q0 -123 -97 -198t-253 -75z" />
    <glyph glyph-name="uni0229" unicode="&#x229;" horiz-adv-x="1390" 
d="M700 -41q-185 0 -334.5 79t-235 223.5t-85.5 328.5t84.5 331t234.5 229.5t336 82.5q188 0 334 -75t227.5 -213.5t81.5 -319.5q0 -109 -12 -158h-813q4 -74 55.5 -116t131.5 -42q120 0 155 78h461q-50 -200 -211 -314t-410 -114zM707 891q-82 0 -132.5 -47t-58.5 -121h369
q-7 82 -55 125t-123 43zM731 -535q-173 0 -269 91t-104 243h301q3 -82 74 -82q55 0 55 52q0 90 -221 231h310q190 -102 190 -252q0 -125 -89.5 -204t-246.5 -79z" />
    <glyph glyph-name="uni022A" unicode="&#x22a;" horiz-adv-x="1923" 
d="M963 -41q-203 0 -374 64.5t-288 176.5t-182.5 266.5t-65.5 332.5t65.5 332.5t182.5 266.5t288 176t374 64q202 0 372.5 -64t287.5 -176t182 -266.5t65 -332.5t-65 -332.5t-182 -266.5t-287.5 -176.5t-372.5 -64.5zM963 412q158 0 253 105t95 282q0 178 -94.5 283.5
t-253.5 105.5q-160 0 -254.5 -105.5t-94.5 -283.5q0 -177 94.5 -282t254.5 -105zM1221 1708q-87 0 -143 54.5t-56 140.5q0 82 56.5 136t142.5 54t143 -54t57 -136q0 -86 -56.5 -140.5t-143.5 -54.5zM702 1708q-87 0 -142.5 54.5t-55.5 140.5q0 82 56 136t142 54t143.5 -54
t57.5 -136q0 -86 -57 -140.5t-144 -54.5zM1313 2165h-701v272h701v-272z" />
    <glyph glyph-name="uni022B" unicode="&#x22b;" horiz-adv-x="1468" 
d="M733 -39q-197 0 -354.5 81.5t-246.5 227t-89 328.5q0 182 89 327t246.5 226.5t354.5 81.5q150 0 278.5 -47.5t219 -131t141.5 -201.5t51 -255t-51 -255.5t-141.5 -202.5t-219 -131.5t-278.5 -47.5zM733 362q99 0 156 63.5t57 172.5q0 107 -57 170t-156 63
q-98 0 -154.5 -63.5t-56.5 -169.5q0 -109 56.5 -172.5t154.5 -63.5zM981 1282q-82 0 -136 52.5t-54 131.5q0 78 54 130.5t136 52.5t137.5 -52.5t55.5 -130.5q0 -79 -55.5 -131.5t-137.5 -52.5zM485 1282q-84 0 -137 52t-53 132q0 79 53 131t137 52q82 0 137.5 -52.5
t55.5 -130.5q0 -79 -55.5 -131.5t-137.5 -52.5zM1108 1724h-746v248h746v-248z" />
    <glyph glyph-name="uni022C" unicode="&#x22c;" horiz-adv-x="1923" 
d="M963 -41q-203 0 -374 64.5t-288 176.5t-182.5 266.5t-65.5 332.5t65.5 332.5t182.5 266.5t288 176t374 64q202 0 372.5 -64t287.5 -176t182 -266.5t65 -332.5t-65 -332.5t-182 -266.5t-287.5 -176.5t-372.5 -64.5zM963 412q158 0 253 105t95 282q0 178 -94.5 283.5
t-253.5 105.5q-160 0 -254.5 -105.5t-94.5 -283.5q0 -177 94.5 -282t254.5 -105zM1090 1724q-54 0 -104.5 25t-90.5 49.5t-68 24.5q-59 0 -73 -88h-219q19 163 102.5 260.5t202.5 97.5q54 0 103 -24.5t87.5 -49t67.5 -24.5q58 0 76 88h219q-19 -161 -102 -260t-201 -99z
M1313 2179h-701v272h701v-272z" />
    <glyph glyph-name="uni022D" unicode="&#x22d;" horiz-adv-x="1468" 
d="M733 -39q-197 0 -354.5 81.5t-246.5 227t-89 328.5q0 182 89 327t246.5 226.5t354.5 81.5q150 0 278.5 -47.5t219 -131t141.5 -201.5t51 -255t-51 -255.5t-141.5 -202.5t-219 -131.5t-278.5 -47.5zM733 362q99 0 156 63.5t57 172.5q0 107 -57 170t-156 63
q-98 0 -154.5 -63.5t-56.5 -169.5q0 -109 56.5 -172.5t154.5 -63.5zM874 1346q-49 0 -103.5 22.5t-98.5 45t-68 22.5q-62 0 -74 -74h-219q19 154 94.5 246t186.5 92q49 0 104 -22.5t99.5 -45t66.5 -22.5q28 0 48.5 18t27.5 55h217q-17 -153 -93 -245t-188 -92zM1106 1827
h-746v248h746v-248z" />
    <glyph glyph-name="uni022E" unicode="&#x22e;" horiz-adv-x="1923" 
d="M963 -41q-203 0 -374 64.5t-288 176.5t-182.5 266.5t-65.5 332.5t65.5 332.5t182.5 266.5t288 176t374 64q202 0 372.5 -64t287.5 -176t182 -266.5t65 -332.5t-65 -332.5t-182 -266.5t-287.5 -176.5t-372.5 -64.5zM963 412q158 0 253 105t95 282q0 178 -94.5 283.5
t-253.5 105.5q-160 0 -254.5 -105.5t-94.5 -283.5q0 -177 94.5 -282t254.5 -105zM963 1692q-98 0 -162 61.5t-64 155.5q0 96 63.5 156.5t162.5 60.5q97 0 160 -60.5t63 -156.5q0 -94 -63 -155.5t-160 -61.5z" />
    <glyph glyph-name="uni022F" unicode="&#x22f;" horiz-adv-x="1468" 
d="M733 -39q-197 0 -354.5 81.5t-246.5 227t-89 328.5q0 182 89 327t246.5 226.5t354.5 81.5q150 0 278.5 -47.5t219 -131t141.5 -201.5t51 -255t-51 -255.5t-141.5 -202.5t-219 -131.5t-278.5 -47.5zM733 362q99 0 156 63.5t57 172.5q0 107 -57 170t-156 63
q-98 0 -154.5 -63.5t-56.5 -169.5q0 -109 56.5 -172.5t154.5 -63.5zM733 1292q-94 0 -156.5 60t-62.5 153q0 92 62.5 151.5t156.5 59.5t156.5 -59.5t62.5 -151.5q0 -93 -62.5 -153t-156.5 -60z" />
    <glyph glyph-name="uni0230" unicode="&#x230;" horiz-adv-x="1923" 
d="M963 -41q-203 0 -374 64.5t-288 176.5t-182.5 266.5t-65.5 332.5t65.5 332.5t182.5 266.5t288 176t374 64q202 0 372.5 -64t287.5 -176t182 -266.5t65 -332.5t-65 -332.5t-182 -266.5t-287.5 -176.5t-372.5 -64.5zM963 412q158 0 253 105t95 282q0 178 -94.5 283.5
t-253.5 105.5q-160 0 -254.5 -105.5t-94.5 -283.5q0 -177 94.5 -282t254.5 -105zM963 1708q-88 0 -146.5 56.5t-58.5 142.5q0 85 58.5 140.5t146.5 55.5q87 0 145.5 -56t58.5 -140q0 -86 -58 -142.5t-146 -56.5zM1313 2212h-701v272h701v-272z" />
    <glyph glyph-name="uni0231" unicode="&#x231;" horiz-adv-x="1468" 
d="M733 -39q-197 0 -354.5 81.5t-246.5 227t-89 328.5q0 182 89 327t246.5 226.5t354.5 81.5q150 0 278.5 -47.5t219 -131t141.5 -201.5t51 -255t-51 -255.5t-141.5 -202.5t-219 -131.5t-278.5 -47.5zM733 362q99 0 156 63.5t57 172.5q0 107 -57 170t-156 63
q-98 0 -154.5 -63.5t-56.5 -169.5q0 -109 56.5 -172.5t154.5 -63.5zM733 1282q-87 0 -145 55.5t-58 139.5q0 85 58 139.5t145 54.5t145 -54.5t58 -139.5q0 -84 -58 -139.5t-145 -55.5zM1106 1747h-746v248h746v-248z" />
    <glyph glyph-name="uni0232" unicode="&#x232;" horiz-adv-x="1656" 
d="M1081 0h-503v623l-605 974h578l303 -526l301 526h524l-598 -972v-625zM1212 1716h-770v281h770v-281z" />
    <glyph glyph-name="uni0233" unicode="&#x233;" horiz-adv-x="1380" 
d="M737 -502h-491l196 502l-458 1194h518l205 -662l202 662h490zM1092 1333h-770v281h770v-281z" />
    <glyph glyph-name="uni0237" unicode="&#x237;" horiz-adv-x="669" 
d="M569 -487h-471v1681h471v-1681z" />
    <glyph glyph-name="uni0241" unicode="&#x241;" horiz-adv-x="1329" 
d="M879 0h-531v381q0 155 61 293t220 266q74 62 102.5 100t28.5 80q0 38 -25.5 60t-68.5 22q-54 0 -83.5 -28.5t-37.5 -75.5h-549q28 242 207 388t469 146q285 0 450.5 -134t165.5 -355q0 -135 -54.5 -239t-193.5 -240q-101 -95 -131 -151.5t-30 -139.5v-373z" />
    <glyph glyph-name="uni0242" unicode="&#x242;" horiz-adv-x="1255" 
d="M780 0h-463v94q0 152 68.5 267.5t212.5 220.5q98 69 125 99t27 75q0 43 -32 70.5t-85 27.5q-70 0 -112.5 -42t-53.5 -112h-477q25 241 195.5 385t437.5 144q272 0 433 -130.5t161 -346.5q0 -128 -65 -228.5t-216 -204.5q-156 -115 -156 -241v-78z" />
    <glyph glyph-name="uni0243" unicode="&#x243;" horiz-adv-x="1681" 
d="M1067 0h-827v401h-191v261h191v935h782q258 0 398.5 -114.5t140.5 -300.5q0 -214 -207 -320q137 -49 209.5 -151.5t72.5 -235.5q0 -227 -146.5 -351t-422.5 -124zM745 1210v-233h177q147 0 147 119q0 62 -35.5 88t-111.5 26h-177zM745 430v-43h234q71 0 109 39t38 104
q0 77 -35.5 112.5t-111.5 35.5h-234v-45h248v-203h-248z" />
    <glyph glyph-name="uni0244" unicode="&#x244;" horiz-adv-x="2025" 
d="M256 809h-213v360h213v428h514v-428h483v428h514v-428h215v-360h-215v-154q0 -169 -55.5 -302t-155.5 -219t-237.5 -130.5t-304.5 -44.5t-305 45t-239.5 130.5t-157.5 218.5t-56 302v154zM770 809v-193q0 -115 63 -174t181 -59q116 0 177.5 59t61.5 174v193h-483z" />
    <glyph glyph-name="uni0245" unicode="&#x245;" horiz-adv-x="1744" 
d="M514 0h-526l555 1597h647l579 -1597h-591l-340 1059z" />
    <glyph glyph-name="uni024B" unicode="&#x24b;" horiz-adv-x="1521" 
d="M1372 -514q-205 0 -313.5 106t-108.5 308v114q0 33 -22 33q-17 0 -39 -16q-89 -68 -256 -68q-121 0 -229.5 49t-187 133.5t-125 203t-46.5 251.5q0 176 77.5 320.5t212 226.5t296.5 82q103 0 178 -29t141 -84q42 -39 66 -39q31 0 43 39q12 52 14 78h348v-1227
q0 -62 32 -93.5t89 -31.5q40 0 113 21v-318q-109 -59 -283 -59zM743 365q101 0 159.5 63.5t58.5 167.5q0 105 -58 168t-160 63q-99 0 -157 -62.5t-58 -166.5q0 -106 58 -169.5t157 -63.5z" />
    <glyph glyph-name="uni024C" unicode="&#x24c;" horiz-adv-x="1759" 
d="M784 0h-516v555h-217v348h217v694h842q267 0 413 -117.5t146 -340.5q0 -140 -72.5 -239.5t-197.5 -141.5q99 -20 148 -83t69 -196l41 -278q21 -148 74 -201h-529q-19 11 -35 48.5t-22 90.5l-29 271q-8 81 -36.5 113t-100.5 32h-193zM995 1202h-207l-2 -299h211
q154 0 154 154q0 71 -41 108t-115 37z" />
    <glyph glyph-name="uni024D" unicode="&#x24d;" horiz-adv-x="1239" 
d="M666 0h-471v371h-154v229h154v594h340q6 -37 18 -66q11 -38 43 -38q27 0 68 38q59 47 113 68t136 21q154 0 237.5 -114t82.5 -323q0 -19 -4 -59h-418q2 6 2 29q0 75 -65 75q-47 0 -66 -28q-16 -22 -16 -68v-129h297v-229h-297v-371z" />
    <glyph glyph-name="uni0251" unicode="&#x251;" horiz-adv-x="1515" 
d="M629 -33q-161 0 -295 83.5t-211.5 228.5t-77.5 319q0 172 77.5 317t212 228.5t294.5 83.5q180 0 315 -111q45 -39 68 -39q29 0 43 39q12 46 14 78h348v-1194h-348q-2 37 -14 76q-12 41 -43 41q-26 0 -68 -39q-135 -111 -315 -111zM739 365q101 0 159 63.5t58 169.5
q0 104 -58 166.5t-159 62.5q-99 0 -157 -62.5t-58 -166.5q0 -105 58 -169t157 -64z" />
    <glyph glyph-name="uni0253" unicode="&#x253;" horiz-adv-x="1521" 
d="M891 -37q-105 0 -179.5 29t-142.5 86q-42 39 -63 39q-34 0 -43 -41q-15 -43 -17 -76h-348v1260q0 223 125 339t369 117q82 0 165 -18t134 -47v-332q-82 33 -162 33q-77 0 -119.5 -32.5t-40.5 -88.5v-51q0 -35 25 -35q10 0 39 18q86 66 256 66q161 0 296 -82.5t213.5 -229
t78.5 -325.5q0 -174 -78 -318.5t-212.5 -227.5t-295.5 -83zM778 365q98 0 155.5 63.5t57.5 169.5q0 103 -57.5 166t-155.5 63q-102 0 -160.5 -62.5t-58.5 -166.5q0 -105 58.5 -169t160.5 -64z" />
    <glyph glyph-name="uni0254" unicode="&#x254;" horiz-adv-x="1417" 
d="M715 -43q-291 0 -467 150t-207 413h467q10 -77 61.5 -119.5t130.5 -42.5q95 0 145 64t50 176q0 111 -50 173.5t-145 62.5q-78 0 -130 -42.5t-62 -117.5h-467q31 263 207 412t467 149q139 0 261 -48.5t209.5 -132t138 -202.5t50.5 -254q0 -137 -50.5 -256.5t-138 -203.5
t-209.5 -132.5t-261 -48.5z" />
    <glyph glyph-name="uni0256" unicode="&#x256;" horiz-adv-x="1519" 
d="M1372 -514q-205 0 -313.5 106t-108.5 308v114q0 33 -22 33q-17 0 -39 -16q-89 -68 -256 -68q-121 0 -230 49t-187.5 133t-124.5 202t-46 251q0 176 78 321t213 227.5t297 82.5q170 0 256 -66q25 -18 39 -18q22 0 22 35v479h471v-1692q0 -62 32 -93.5t89 -31.5
q40 0 113 21v-320q-117 -57 -283 -57zM743 365q102 0 160 63.5t58 169.5q0 104 -58 166.5t-160 62.5q-99 0 -157 -62.5t-58 -166.5q0 -106 58 -169.5t157 -63.5z" />
    <glyph glyph-name="uni0257" unicode="&#x257;" horiz-adv-x="1517" 
d="M631 -37q-162 0 -296.5 83t-212 227.5t-77.5 318.5q0 179 78.5 325.5t213 229t294.5 82.5q81 0 148.5 -19.5t107.5 -48.5q22 -16 41 -16q22 0 22 35v125q0 202 108 307.5t312 105.5q170 0 281 -57v-326q-69 21 -109 21q-57 0 -89 -37t-32 -100v-1219h-348q-2 30 -14 76
q-12 41 -43 41q-24 0 -66 -39q-66 -56 -141 -85.5t-178 -29.5zM741 365q103 0 161.5 63.5t58.5 169.5q0 104 -58.5 166.5t-161.5 62.5q-98 0 -155.5 -63t-57.5 -166q0 -106 57.5 -169.5t155.5 -63.5z" />
    <glyph glyph-name="uni0259" unicode="&#x259;" horiz-adv-x="1388" 
d="M686 -39q-180 0 -325.5 75t-229.5 214.5t-84 318.5q0 113 12 162h811q-6 74 -52.5 114t-119.5 40q-108 0 -166 -78h-460q48 198 213 312t413 114q186 0 332.5 -78t229.5 -221.5t83 -329.5q0 -185 -81 -331t-231.5 -229t-344.5 -83zM696 305q78 0 122 45.5t52 118.5h-362
q6 -80 56 -122t132 -42z" />
    <glyph glyph-name="uni025B" unicode="&#x25b;" horiz-adv-x="1210" 
d="M614 -41q-114 0 -213 21.5t-181 64.5t-129.5 118t-47.5 173q0 105 67.5 178t192.5 104q-102 30 -159.5 98t-57.5 165q0 159 139 254q140 98 381 98q244 0 395 -109q153 -110 156 -317h-436q-9 82 -88 82q-90 0 -90 -76q0 -84 98 -84h207v-266h-213q-100 0 -100 -80
q0 -36 25 -57t71 -21q41 0 66.5 21t31.5 57h467q-25 -207 -174 -315.5t-408 -108.5z" />
    <glyph glyph-name="uni0260" unicode="&#x260;" horiz-adv-x="1474" 
d="M737 -514q-260 0 -434 124t-229 349h463q43 -137 202 -137q189 0 189 170v104q0 33 -25 33q-17 0 -39 -16q-82 -56 -246 -56q-243 0 -406 163t-163 407q0 167 72 304.5t199.5 216.5t283.5 79q131 0 219 -58q36 -26 58 -26t22 35v127q0 202 108.5 306.5t313.5 104.5
q178 0 283 -57v-318q-67 19 -111 19q-59 0 -91 -30.5t-32 -92.5v-1196q0 -264 -168 -409.5t-469 -145.5zM727 428q92 0 144.5 54t52.5 145q0 89 -53 142.5t-144 53.5q-93 0 -146 -52.5t-53 -143.5t53 -145t146 -54z" />
    <glyph glyph-name="uni0263" unicode="&#x263;" horiz-adv-x="1568" 
d="M788 -514q-196 0 -323 100.5t-127 270.5q0 84 47 188.5t125 208.5l-524 940h542l273 -549l266 549h514l-518 -934q174 -233 174 -403t-126 -270.5t-323 -100.5zM788 -213q54 0 54 55q0 47 -54 129q-53 -80 -53 -129q0 -55 53 -55z" />
    <glyph glyph-name="uni0265" unicode="&#x265;" horiz-adv-x="1417" 
d="M848 1194h471v-1659h-471v531q0 38 -27 38q-18 0 -39 -24q-102 -119 -286 -119q-186 0 -296 125t-110 344v764h473v-668q0 -145 121 -145q69 0 113 41q51 45 51 135v637z" />
    <glyph glyph-name="uni0266" unicode="&#x266;" horiz-adv-x="1417" 
d="M571 0h-471v1260q0 223 125 339.5t369 116.5q82 0 165 -18t134 -47v-332q-82 33 -162 33q-77 0 -119.5 -32.5t-40.5 -88.5v-103q0 -38 25 -38q18 0 39 24q105 119 287 119q187 0 296 -124.5t109 -344.5v-764h-471v668q0 145 -123 145q-66 0 -110 -41q-52 -46 -52 -135
v-637z" />
    <glyph glyph-name="uni0267" unicode="&#x267;" horiz-adv-x="1417" 
d="M834 -514q-81 0 -164 19t-135 49v331q77 -32 172 -32q73 0 111 38t38 125v652q0 145 -123 145q-66 0 -110 -41q-52 -46 -52 -135v-637h-471v1260q0 223 125 339.5t369 116.5q82 0 165 -18t134 -47v-332q-82 33 -162 33q-77 0 -119.5 -32.5t-40.5 -88.5v-103q0 -38 25 -38
q18 0 39 24q105 119 287 119q187 0 296 -124.5t109 -344.5v-819q0 -224 -125 -341.5t-368 -117.5z" />
    <glyph glyph-name="uni0268" unicode="&#x268;" horiz-adv-x="860" 
d="M430 1300q-114 0 -187 69t-73 173q0 105 73 174.5t187 69.5t187 -69.5t73 -174.5q0 -104 -73 -173t-187 -69zM666 0h-471v508h-154v229h154v457h471v-457h155v-229h-155v-508z" />
    <glyph glyph-name="uni0269" unicode="&#x269;" horiz-adv-x="841" 
d="M588 -18q-256 0 -377 105t-121 347v760h461v-709q0 -72 37.5 -105.5t113.5 -33.5q57 0 132 19v-347q-91 -36 -246 -36z" />
    <glyph glyph-name="uni0272" unicode="&#x272;" horiz-adv-x="1417" 
d="M145 -514q-75 0 -151 15.5t-127 41.5v320q69 -21 108 -21q123 0 123 138v1214h342q3 -25 21 -82q15 -43 47 -43q16 0 26.5 8t32.5 31q125 125 328 125q204 0 318 -123.5t114 -343.5v-766h-471v668q0 145 -123 145q-68 0 -112 -41q-52 -46 -52 -135v-735
q0 -203 -107.5 -309.5t-316.5 -106.5z" />
    <glyph glyph-name="uni0275" unicode="&#x275;" horiz-adv-x="1466" 
d="M733 -39q-197 0 -354.5 81.5t-246.5 227t-89 328.5q0 182 89 327t246.5 226.5t354.5 81.5q198 0 355.5 -81.5t246 -226.5t88.5 -327q0 -183 -88.5 -328.5t-246 -227t-355.5 -81.5zM733 868q-85 0 -145.5 -41t-87.5 -114h467q-27 73 -88 114t-146 41zM733 326
q85 0 145.5 40.5t90.5 114.5h-469q26 -74 86.5 -114.5t146.5 -40.5z" />
    <glyph glyph-name="uni027D" unicode="&#x27d;" horiz-adv-x="1144" 
d="M592 -514q-243 0 -368.5 117.5t-125.5 341.5v1249h340q6 -33 19 -66q14 -38 45 -38q27 0 65 38q59 46 114 67.5t136 21.5q155 0 238.5 -114t81.5 -323q0 -39 -2 -59h-418q2 6 2 29q0 75 -66 75q-45 0 -67 -28q-17 -24 -17 -68v-713q0 -88 40 -125.5t122 -37.5
q85 0 170 36v-331q-52 -31 -138 -51.5t-171 -20.5z" />
    <glyph glyph-name="uni027E" unicode="&#x27e;" horiz-adv-x="851" 
d="M588 1212q155 0 246 -36v-347q-65 19 -132 19q-76 0 -113.5 -33.5t-37.5 -105.5v-709h-461v760q0 242 121 347t377 105z" />
    <glyph glyph-name="uni0283" unicode="&#x283;" horiz-adv-x="710" 
d="M289 -512q-84 0 -166 19.5t-125 48.5v313q57 -23 127 -23q62 0 94.5 29t32.5 84q0 48 -8 84l-156 1135q-12 74 -12 141q0 197 111 297t327 100q87 0 167.5 -18t123.5 -47v-316q-55 25 -127 25q-60 0 -93.5 -30t-33.5 -85q0 -46 8 -82l156 -1134q12 -74 12 -144
q0 -196 -111 -296.5t-327 -100.5z" />
    <glyph glyph-name="uni0288" unicode="&#x288;" horiz-adv-x="989" 
d="M729 -514q-238 0 -361.5 117.5t-123.5 341.5v872h-203v377h129q72 0 109 24.5t59 77.5q37 105 53 207h314v-309h270v-377h-270v-844q0 -120 159 -120q85 0 170 36v-331q-52 -31 -137 -51.5t-168 -20.5z" />
    <glyph glyph-name="uni0289" unicode="&#x289;" horiz-adv-x="1611" 
d="M193 594h-154v229h154v371h460v-371h303v371h459v-371h156v-229h-156v-594h-340q-5 41 -16 72q-15 43 -45 43q-14 0 -26 -7t-38 -30q-123 -117 -321 -117q-202 0 -319 124t-117 343v166zM653 594v-68q0 -157 140 -157q79 0 118 45q45 39 45 127v53h-303z" />
    <glyph glyph-name="uni028A" unicode="&#x28a;" horiz-adv-x="1511" 
d="M756 -39q-190 0 -340.5 64t-235 180.5t-84.5 263.5q0 119 45.5 207t126.5 141h-213v377h645v-354q-147 -101 -147 -267q0 -102 55 -157.5t148 -55.5t147.5 55.5t54.5 157.5q0 168 -147 267v354h643v-377h-211q170 -111 170 -348q0 -223 -185 -365.5t-472 -142.5z" />
    <glyph glyph-name="uni028B" unicode="&#x28b;" horiz-adv-x="1366" 
d="M678 -45q-283 0 -437.5 139.5t-154.5 392.5v707h459l2 -705q0 -85 33 -123t106 -38q170 0 170 348q0 95 -29.5 137.5t-117.5 42.5q-13 0 -34 -1t-32 -1v332q120 35 246 35q102 0 177 -24t132.5 -79.5t87 -153.5t29.5 -239q0 -174 -36.5 -312t-111.5 -242t-199 -160
t-290 -56z" />
    <glyph glyph-name="uni028C" unicode="&#x28c;" horiz-adv-x="1439" 
d="M436 1194h563l459 -1194h-518l-233 748l-228 -748h-493z" />
    <glyph glyph-name="uni0292" unicode="&#x292;" horiz-adv-x="1271" 
d="M651 -512q-176 0 -320 64.5t-234.5 189t-104.5 289.5h459q18 -83 67.5 -125.5t122.5 -42.5q82 0 126 47t44 133q0 92 -63 148.5t-193 56.5h-379v6l340 563h-426v377h1108v-6l-383 -619q201 -24 323 -168t122 -342q0 -174 -81 -305t-218 -198.5t-310 -67.5z" />
    <glyph glyph-name="uni0294" unicode="&#x294;" horiz-adv-x="1210" 
d="M795 0h-463v432q0 175 64 310t206 274q84 78 111.5 121t27.5 94t-32 79.5t-88 28.5q-67 0 -110 -42t-54 -111h-480q28 244 201 386t453 142q263 0 419 -127.5t156 -333.5q0 -84 -16 -146.5t-70.5 -145.5t-158.5 -191q-96 -96 -131 -165.5t-35 -178.5v-426z" />
    <glyph glyph-name="uni0295" unicode="&#x295;" horiz-adv-x="1212" 
d="M879 0h-461v426q0 107 -35.5 176.5t-130.5 167.5q-150 156 -199 255.5t-49 213.5q0 217 161 346t437 129q281 0 442.5 -140.5t188.5 -387.5h-477q-24 153 -150 153q-64 0 -100.5 -29.5t-36.5 -82.5q0 -48 27.5 -90t111.5 -121q143 -139 207 -273.5t64 -310.5v-432z" />
    <glyph glyph-name="uni0298" unicode="&#x298;" horiz-adv-x="1900" 
d="M950 -41q-195 0 -363 64.5t-285 176.5t-183 267t-66 332t66 332t183 266.5t285 176t363 64.5q197 0 365.5 -64.5t284.5 -176t181.5 -266.5t65.5 -332t-65.5 -332t-181.5 -267t-284.5 -176.5t-365.5 -64.5zM950 358q183 0 291.5 120t108.5 321t-108.5 320.5t-291.5 119.5
q-179 0 -291 -121q-108 -120 -108 -319q0 -202 108 -322q110 -119 291 -119zM948 588q-94 0 -156.5 60t-62.5 153q0 92 62.5 151.5t156.5 59.5t157.5 -59.5t63.5 -151.5q0 -93 -63 -153t-158 -60z" />
    <glyph glyph-name="uni029D" unicode="&#x29d;" horiz-adv-x="839" 
d="M422 1300q-114 0 -187 69t-73 173q0 105 73 174.5t187 69.5t187 -69.5t73 -174.5q0 -104 -73 -173t-187 -69zM205 -514q-168 0 -272.5 76t-104.5 207q0 115 80.5 182t210.5 67h67v1176h471v-1176h172v-184h-186q-31 -178 -139 -263t-299 -85zM143 -307q36 0 55 23.5
t19 56.5v61h-82q-32 0 -52 -19.5t-20 -50.5q0 -71 80 -71z" />
    <glyph glyph-name="uni02BB" unicode="&#x2bb;" horiz-adv-x="772" 
d="M299 1597h352l-102 -659h-481z" />
    <glyph glyph-name="uni02BC" unicode="&#x2bc;" horiz-adv-x="655" 
d="M158 1597h432l-178 -645h-351z" />
    <glyph glyph-name="uni02BE" unicode="&#x2be;" horiz-adv-x="507" 
d="M39 895v283q64 2 101.5 37t37.5 94t-38.5 94t-100.5 37v284q199 -6 323.5 -121t124.5 -294q0 -178 -125 -294.5t-323 -119.5z" />
    <glyph glyph-name="uni02BF" unicode="&#x2bf;" horiz-adv-x="507" 
d="M469 1178v-283q-198 3 -323.5 119.5t-125.5 294.5t124.5 293.5t324.5 121.5v-284q-62 -2 -100.5 -37t-38.5 -94t37.5 -94t101.5 -37z" />
    <glyph glyph-name="uni02C0" unicode="&#x2c0;" horiz-adv-x="792" 
d="M514 950h-303v58q0 94 40.5 164t131.5 131q56 36 73 55t17 39q0 49 -57 49q-80 0 -90 -84h-314q18 151 122 239.5t282 88.5q162 0 263 -80t101 -213q0 -78 -40.5 -139.5t-133.5 -124.5q-92 -61 -92 -138v-45z" />
    <glyph glyph-name="circumflex" unicode="&#x2c6;" horiz-adv-x="1015" 
d="M336 1323h-287l320 442h278l318 -442h-287l-137 127q-16 16 -33 16t-33 -16z" />
    <glyph glyph-name="caron" unicode="&#x2c7;" horiz-adv-x="1015" 
d="M49 1763h287l139 -127q16 -16 33 -16t33 16l137 127h287l-318 -442h-278z" />
    <glyph glyph-name="uni02C9" unicode="&#x2c9;" horiz-adv-x="600" 
d="M395 1333h-770v281h770v-281z" />
    <glyph glyph-name="uni02CA" unicode="&#x2ca;" horiz-adv-x="600" 
d="M156 1323h-353l187 442h471z" />
    <glyph glyph-name="uni02CB" unicode="&#x2cb;" horiz-adv-x="600" 
d="M201 1323h-353l-305 442h471z" />
    <glyph glyph-name="uni02D7" unicode="&#x2d7;" horiz-adv-x="1189" 
d="M1034 580h-880v360h880v-360z" />
    <glyph glyph-name="breve" unicode="&#x2d8;" horiz-adv-x="933" 
d="M467 1327q-192 0 -302.5 106.5t-115.5 292.5h277q13 -131 141 -131t141 131h277q-5 -186 -115.5 -292.5t-302.5 -106.5z" />
    <glyph glyph-name="dotaccent" unicode="&#x2d9;" horiz-adv-x="538" 
d="M268 1292q-94 0 -156.5 60t-62.5 153q0 92 62.5 151.5t156.5 59.5t156.5 -59.5t62.5 -151.5q0 -93 -62.5 -153t-156.5 -60z" />
    <glyph glyph-name="ring" unicode="&#x2da;" horiz-adv-x="716" 
d="M358 1300q-135 0 -221 79t-86 202q0 125 86 205t221 80t221.5 -80t86.5 -205q0 -123 -86.5 -202t-221.5 -79zM358 1497q38 0 62 24t24 60q0 38 -24 62t-62 24q-37 0 -61.5 -24t-24.5 -62q0 -35 24.5 -59.5t61.5 -24.5z" />
    <glyph glyph-name="ogonek" unicode="&#x2db;" horiz-adv-x="643" 
d="M408 -557q-165 0 -261 77.5t-96 205.5q0 207 281 372l209 -98q-164 -102 -164 -195q0 -45 33 -66.5t86 -21.5q17 0 37 2t38.5 5.5t22.5 3.5v-258q-77 -27 -186 -27z" />
    <glyph glyph-name="tilde" unicode="&#x2dc;" horiz-adv-x="1067" 
d="M700 1327q-58 0 -113 18t-89.5 39.5t-69.5 39.5t-57 18q-68 0 -86 -101h-234q21 173 109 281q89 109 209 109q58 0 113.5 -17.5t89.5 -39t68 -39t56 -17.5q71 0 88 98h234q-21 -172 -111 -282q-88 -107 -207 -107z" />
    <glyph glyph-name="hungarumlaut" unicode="&#x2dd;" horiz-adv-x="1251" 
d="M860 1323h-328l232 442h438zM385 1323h-334l180 442h422z" />
    <glyph glyph-name="uni02EE" unicode="&#x2ee;" horiz-adv-x="1101" 
d="M678 1597h407l-200 -614h-324zM137 1597h416l-156 -614h-331z" />
    <glyph glyph-name="gravecomb" unicode="&#x300;" 
d="M182 1323h-352l-305 442h471z" />
    <glyph glyph-name="acutecomb" unicode="&#x301;" 
d="M135 1323h-352l186 442h471z" />
    <glyph glyph-name="uni0302" unicode="&#x302;" 
d="M-172 1323h-287l320 442h278l318 -442h-287l-137 127q-16 16 -33 16t-33 -16z" />
    <glyph glyph-name="tildecomb" unicode="&#x303;" 
d="M160 1327q-58 0 -113 18t-89.5 39.5t-70 39.5t-57.5 18q-68 0 -86 -101h-233q21 175 108 281q89 109 209 109q58 0 113.5 -17.5t89.5 -39t68.5 -39t56.5 -17.5q71 0 88 98h233q-21 -173 -110 -282q-88 -107 -207 -107z" />
    <glyph glyph-name="uni0304" unicode="&#x304;" 
d="M385 1333h-770v281h770v-281z" />
    <glyph glyph-name="uni0306" unicode="&#x306;" 
d="M0 1327q-192 0 -302.5 106.5t-115.5 292.5h277q13 -131 141 -131t141 131h277q-5 -186 -115.5 -292.5t-302.5 -106.5z" />
    <glyph glyph-name="uni0307" unicode="&#x307;" 
d="M0 1292q-94 0 -156.5 60t-62.5 153q0 92 62.5 151.5t156.5 59.5t156.5 -59.5t62.5 -151.5q0 -93 -62.5 -153t-156.5 -60z" />
    <glyph glyph-name="uni0308" unicode="&#x308;" 
d="M281 1292q-94 0 -157 60.5t-63 152.5t63 151.5t157 59.5q97 0 159 -59.5t62 -151.5t-62 -152.5t-159 -60.5zM-283 1292q-94 0 -156.5 60.5t-62.5 152.5t62.5 151.5t156.5 59.5q95 0 158.5 -59.5t63.5 -151.5t-64 -152.5t-158 -60.5z" />
    <glyph glyph-name="hookabovecomb" unicode="&#x309;" 
d="M-96 1309l2 178q139 9 139 86q0 67 -108 67q-97 0 -193 -47v222q45 33 117 53t149 20q150 0 235 -72t85 -202q0 -150 -112 -227.5t-314 -77.5z" />
    <glyph glyph-name="uni030A" unicode="&#x30a;" 
d="M0 1300q-135 0 -221 79t-86 202q0 125 86 205t221 80t221 -80t86 -205q0 -123 -86 -202t-221 -79zM0 1497q38 0 62 24t24 60q0 38 -24 62t-62 24q-37 0 -61.5 -24t-24.5 -62q0 -35 24.5 -59.5t61.5 -24.5z" />
    <glyph glyph-name="uni030B" unicode="&#x30b;" 
d="M362 1323h-327l231 442h439zM-113 1323h-333l180 442h422z" />
    <glyph glyph-name="uni030C" unicode="&#x30c;" 
d="M-459 1763h287l139 -127q16 -16 33 -16t33 16l137 127h287l-318 -442h-278z" />
    <glyph glyph-name="uni030D" unicode="&#x30d;" 
d="M156 1343h-342v453h342v-453z" />
    <glyph glyph-name="uni0312" unicode="&#x312;" 
d="M-25 1798h281l-74 -475h-375z" />
    <glyph glyph-name="uni031B" unicode="&#x31b;" 
d="M152 903h-248v291h135q73 0 95 21t22 69q0 68 -41 166h301q69 -140 69 -248q0 -126 -89.5 -212.5t-243.5 -86.5z" />
    <glyph glyph-name="dotbelowcomb" unicode="&#x323;" 
d="M0 -549q-94 0 -156.5 60t-62.5 153q0 92 62.5 151.5t156.5 59.5t156.5 -59.5t62.5 -151.5q0 -93 -62.5 -153t-156.5 -60z" />
    <glyph glyph-name="uni0324" unicode="&#x324;" 
d="M285 -532q-97 0 -160.5 61.5t-63.5 155.5t63.5 154.5t160.5 60.5q98 0 162.5 -60.5t64.5 -154.5t-64.5 -155.5t-162.5 -61.5zM-287 -532q-98 0 -161.5 61.5t-63.5 155.5t63.5 154.5t161.5 60.5q97 0 161.5 -61t64.5 -154q0 -94 -64.5 -155.5t-161.5 -61.5z" />
    <glyph glyph-name="uni0325" unicode="&#x325;" 
d="M0 -651q-135 0 -221 78.5t-86 201.5q0 125 86 205t221 80t221 -80t86 -205q0 -123 -86 -201.5t-221 -78.5zM0 -455q38 0 62 24t24 60q0 38 -24 62t-62 24q-37 0 -61.5 -24t-24.5 -62q0 -35 24.5 -59.5t61.5 -24.5z" />
    <glyph glyph-name="uni0326" unicode="&#x326;" 
d="M16 -629h-280l74 475h374z" />
    <glyph glyph-name="uni0327" unicode="&#x327;" 
d="M20 -535q-173 0 -268.5 91t-103.5 243h301q3 -82 74 -82q55 0 55 52q0 90 -221 231h309q190 -102 190 -252q0 -125 -89.5 -204t-246.5 -79z" />
    <glyph glyph-name="uni0328" unicode="&#x328;" 
d="M-133 -557q-164 0 -260 77t-96 206q0 208 280 372l209 -98q-164 -102 -164 -195q0 -45 33 -66.5t86 -21.5q17 0 37 2t38.5 5.5t22.5 3.5v-258q-76 -27 -186 -27z" />
    <glyph glyph-name="uni0329" unicode="&#x329;" 
d="M172 -614h-342v452h342v-452z" />
    <glyph glyph-name="uni032D" unicode="&#x32d;" 
d="M-172 -639h-287l320 442h278l318 -442h-287l-137 127q-16 16 -33 16t-33 -16z" />
    <glyph glyph-name="uni032E" unicode="&#x32e;" 
d="M0 -535q-191 0 -302 106.5t-116 293.5h277q13 -131 141 -131t141 131h277q-5 -187 -116 -293.5t-302 -106.5z" />
    <glyph glyph-name="uni032F" unicode="&#x32f;" 
d="M0 -98q191 0 302 -106.5t116 -293.5h-277q-13 131 -141 131t-141 -131h-277q5 187 116 293.5t302 106.5z" />
    <glyph glyph-name="uni0330" unicode="&#x330;" 
d="M160 -526q-58 0 -113 18t-89.5 39t-70 39t-57.5 18q-68 0 -86 -100h-233q21 177 108 283t209 106q58 0 113.5 -17.5t89.5 -39t68.5 -39t56.5 -17.5q71 0 88 99h233q-21 -172 -110 -281q-89 -108 -207 -108z" />
    <glyph glyph-name="uni0331" unicode="&#x331;" 
d="M385 -418h-770v281h770v-281z" />
    <glyph glyph-name="uni0332" unicode="&#x332;" 
d="M735 -442h-1470v286h1470v-286z" />
    <glyph glyph-name="uni0394" unicode="&#x394;" horiz-adv-x="1806" 
d="M1767 0h-1728l549 1597h633zM885 1126l-219 -735h436z" />
    <glyph glyph-name="uni03A9" unicode="&#x3a9;" horiz-adv-x="1949" 
d="M905 0h-839v420h290q-105 68 -171 201t-66 284q0 160 64 297t176.5 232.5t271.5 149.5t344 54t344.5 -54t272.5 -149.5t177 -232.5t64 -297q0 -150 -67 -283t-173 -202h291v-420h-840v399q138 48 216.5 158t78.5 264q0 169 -102 272t-262 103t-262.5 -103.5
t-102.5 -271.5q0 -154 78.5 -264t216.5 -158v-399z" />
    <glyph glyph-name="uni03BC" unicode="&#x3bc;" horiz-adv-x="1421" 
d="M469 -487h-371v1681h471v-668q0 -147 129 -147q65 0 109 35q45 45 45 127v653h471v-1194h-342q0 26 -16 72q-15 43 -45 43q-13 0 -25 -8t-37 -33q-83 -90 -199 -90q-63 0 -118 34q-29 19 -43 19q-29 0 -29 -41v-483z" />
    <glyph glyph-name="pi" unicode="&#x3c0;" horiz-adv-x="1660" 
d="M1407 -18q-229 0 -343 114t-114 346v375h-258v-817h-459v817h-184v377h1544v-377h-182v-338q0 -133 135 -133q25 0 35 2v-340q-56 -26 -174 -26z" />
    <glyph glyph-name="uni058F" unicode="&#x58f;" horiz-adv-x="1529" 
d="M823 485h-510v174h510v97h-510v174h510v149q0 146 -116 146q-48 0 -80 -29t-39 -82h-529q44 249 217 386.5t437 137.5q297 0 451.5 -143t154.5 -410v-155h137v-174h-137v-97h137v-174h-137v-485h-496v485z" />
    <glyph glyph-name="uni0E3F" unicode="&#xe3f;" horiz-adv-x="1523" 
d="M629 0h-520v1597h520v142h215v-142h14q250 0 385 -115t135 -306q0 -111 -55.5 -198t-159.5 -130q126 -44 195 -144t69 -235q0 -224 -140.5 -346.5t-407.5 -122.5h-37v-141h-213v141zM557 1225v-281h229q140 0 140 143q0 138 -140 138h-229zM557 670v-297h254
q147 0 147 151q0 70 -38 108t-111 38h-252z" />
    <glyph glyph-name="uni1D43" unicode="&#x1d43;" horiz-adv-x="1101" 
d="M416 618q-154 0 -260 80q-105 80 -105 228q0 274 398 295q178 14 235 28v19q0 51 -34 80.5t-91 29.5q-53 0 -89 -25.5t-44 -64.5h-348q27 153 152 246.5t333 93.5q213 0 329 -99.5t116 -289.5v-592h-250q0 22 -13 72q-10 29 -24 29q-6 0 -12 -3t-9 -5.5t-8.5 -8.5
t-7.5 -8q-48 -54 -111.5 -79.5t-156.5 -25.5zM399 944q0 -44 31 -67t86 -23q99 0 139 61q29 39 29 117v31q-44 -18 -172 -31q-113 -13 -113 -88z" />
    <glyph glyph-name="uni1D57" unicode="&#x1d57;" horiz-adv-x="864" 
d="M592 633q-207 0 -296 87.5t-89 266.5v338h-174v272h104q106 0 133 80q25 67 41 172h226v-252h237v-272h-237v-303q0 -59 28.5 -93t108.5 -34q42 0 102 14v-252q-62 -24 -184 -24z" />
    <glyph glyph-name="uni1DC4" unicode="&#x1dc4;" 
d="M139 1729h277l-176 -392h-600v267h387z" />
    <glyph glyph-name="uni1DC5" unicode="&#x1dc5;" 
d="M-416 1729h277l112 -125h387v-267h-600z" />
    <glyph glyph-name="uni1DC6" unicode="&#x1dc6;" 
d="M416 1343h-277l-112 125h-387v267h600z" />
    <glyph glyph-name="uni1DC7" unicode="&#x1dc7;" 
d="M-139 1343h-277l176 392h600v-267h-387z" />
    <glyph glyph-name="uni1E00" unicode="&#x1e00;" horiz-adv-x="1728" 
d="M537 0h-541l500 1597h718l535 -1597h-582l-86 285h-458zM850 1206l-154 -559h314zM856 -680q-140 0 -229.5 81t-89.5 208t90 211q88 82 229 82q140 0 229 -82t89 -211q0 -125 -91 -207q-88 -82 -227 -82zM856 -467q34 0 56 22t22 54q0 35 -21.5 56.5t-56.5 21.5
t-56.5 -21.5t-21.5 -56.5q0 -32 22 -54t56 -22z" />
    <glyph glyph-name="uni1E01" unicode="&#x1e01;" horiz-adv-x="1325" 
d="M481 -35q-188 0 -313 103t-125 282q0 171 122.5 266t356.5 109q137 3 264 35v37q0 42 -28 68t-78 26q-51 0 -86 -25.5t-41 -68.5h-479q16 93 61.5 171.5t119 138t181 93t238.5 33.5q272 0 417.5 -125t145.5 -365v-743h-346q-2 18 -19 84q-7 23 -13.5 30t-18.5 7
q-20 0 -43 -29q-57 -66 -132.5 -96.5t-183.5 -30.5zM514 381q0 -47 31 -72.5t86 -25.5q84 0 129 59q26 37 26 119v49q-49 -19 -163 -35q-109 -10 -109 -94zM674 -651q-135 0 -221 78.5t-86 201.5q0 125 86 205t221 80t221 -80t86 -205q0 -123 -86 -201.5t-221 -78.5z
M674 -455q38 0 62 24t24 60q0 38 -24 62t-62 24q-37 0 -61.5 -24t-24.5 -62q0 -35 24.5 -59.5t61.5 -24.5z" />
    <glyph glyph-name="uni1E04" unicode="&#x1e04;" horiz-adv-x="1568" 
d="M954 0h-827v1597h782q259 0 399 -115.5t140 -305.5q0 -106 -53.5 -189.5t-155.5 -134.5q138 -49 211.5 -148.5t73.5 -228.5q0 -227 -147 -351t-423 -124zM633 1210v-258h176q147 0 147 131q0 127 -147 127h-176zM633 653v-266h233q148 0 148 131q0 135 -150 135h-231z
M774 -528q-98 0 -161.5 61.5t-63.5 155.5q0 96 63 156.5t162 60.5q97 0 160 -60.5t63 -156.5q0 -94 -63 -155.5t-160 -61.5z" />
    <glyph glyph-name="uni1E05" unicode="&#x1e05;" horiz-adv-x="1521" 
d="M891 -37q-105 0 -179.5 29.5t-140.5 85.5q-42 39 -67 39q-29 0 -41 -41q-14 -53 -17 -76h-348v1659h473v-479q0 -35 23 -35q12 0 41 16q107 68 254 68q161 0 296 -82.5t213.5 -229t78.5 -325.5q0 -174 -77.5 -318.5t-212 -227.5t-296.5 -83zM778 365q98 0 156.5 63.5
t58.5 169.5q0 103 -58.5 166t-156.5 63q-101 0 -159 -62.5t-58 -166.5q0 -106 58 -169.5t159 -63.5zM764 -549q-94 0 -156.5 60t-62.5 153q0 92 62.5 151.5t156.5 59.5t156.5 -59.5t62.5 -151.5q0 -93 -62.5 -153t-156.5 -60z" />
    <glyph glyph-name="uni1E06" unicode="&#x1e06;" horiz-adv-x="1568" 
d="M954 0h-827v1597h782q259 0 399 -115.5t140 -305.5q0 -106 -53.5 -189.5t-155.5 -134.5q138 -49 211.5 -148.5t73.5 -228.5q0 -227 -147 -351t-423 -124zM633 1210v-258h176q147 0 147 131q0 127 -147 127h-176zM633 653v-266h233q148 0 148 131q0 135 -150 135h-231z
M1159 -403h-770v280h770v-280z" />
    <glyph glyph-name="uni1E07" unicode="&#x1e07;" horiz-adv-x="1521" 
d="M891 -37q-105 0 -179.5 29.5t-140.5 85.5q-42 39 -67 39q-29 0 -41 -41q-14 -53 -17 -76h-348v1659h473v-479q0 -35 23 -35q12 0 41 16q107 68 254 68q161 0 296 -82.5t213.5 -229t78.5 -325.5q0 -174 -77.5 -318.5t-212 -227.5t-296.5 -83zM778 365q98 0 156.5 63.5
t58.5 169.5q0 103 -58.5 166t-156.5 63q-101 0 -159 -62.5t-58 -166.5q0 -106 58 -169.5t159 -63.5zM1149 -418h-770v281h770v-281z" />
    <glyph glyph-name="uni1E0C" unicode="&#x1e0c;" horiz-adv-x="1792" 
d="M874 0h-747v1597h747q258 0 452.5 -96t301.5 -277t107 -425q0 -243 -107 -424.5t-301.5 -278t-452.5 -96.5zM655 1186v-774h174q178 0 262.5 93.5t84.5 293.5t-84.5 293.5t-262.5 93.5h-174zM840 -528q-98 0 -162 61.5t-64 155.5q0 96 63.5 156.5t162.5 60.5
q97 0 160 -60.5t63 -156.5q0 -94 -63 -155.5t-160 -61.5z" />
    <glyph glyph-name="uni1E0D" unicode="&#x1e0d;" horiz-adv-x="1519" 
d="M631 -37q-162 0 -296.5 83t-212 227.5t-77.5 318.5q0 179 78.5 325.5t213.5 229t296 82.5q155 0 254 -68q29 -16 41 -16q22 0 22 35v479h471v-1659h-348q-2 30 -14 76q-15 41 -41 41t-68 -39q-66 -56 -141 -85.5t-178 -29.5zM743 365q102 0 160 63.5t58 169.5
q0 104 -58 166.5t-160 62.5q-99 0 -157 -62.5t-58 -166.5q0 -106 58 -169.5t157 -63.5zM772 -528q-94 0 -156.5 60t-62.5 153q0 92 62.5 151.5t156.5 59.5t156.5 -59.5t62.5 -151.5q0 -93 -62.5 -153t-156.5 -60z" />
    <glyph glyph-name="uni1E0E" unicode="&#x1e0e;" horiz-adv-x="1792" 
d="M874 0h-747v1597h747q258 0 452.5 -96t301.5 -277t107 -425q0 -243 -107 -424.5t-301.5 -278t-452.5 -96.5zM655 1186v-774h174q178 0 262.5 93.5t84.5 293.5t-84.5 293.5t-262.5 93.5h-174zM1225 -403h-770v280h770v-280z" />
    <glyph glyph-name="uni1E0F" unicode="&#x1e0f;" horiz-adv-x="1519" 
d="M631 -37q-162 0 -296.5 83t-212 227.5t-77.5 318.5q0 179 78.5 325.5t213.5 229t296 82.5q155 0 254 -68q29 -16 41 -16q22 0 22 35v479h471v-1659h-348q-2 30 -14 76q-15 41 -41 41t-68 -39q-66 -56 -141 -85.5t-178 -29.5zM743 365q102 0 160 63.5t58 169.5
q0 104 -58 166.5t-160 62.5q-99 0 -157 -62.5t-58 -166.5q0 -106 58 -169.5t157 -63.5zM1157 -397h-770v280h770v-280z" />
    <glyph glyph-name="uni1E10" unicode="&#x1e10;" horiz-adv-x="1792" 
d="M874 0h-747v1597h747q258 0 452.5 -96t301.5 -277t107 -425q0 -243 -107 -424.5t-301.5 -278t-452.5 -96.5zM655 1186v-774h174q178 0 262.5 93.5t84.5 293.5t-84.5 293.5t-262.5 93.5h-174zM870 -547h-288l67 434h375z" />
    <glyph glyph-name="uni1E11" unicode="&#x1e11;" horiz-adv-x="1519" 
d="M631 -37q-162 0 -296.5 83t-212 227.5t-77.5 318.5q0 179 78.5 325.5t213.5 229t296 82.5q155 0 254 -68q29 -16 41 -16q22 0 22 35v479h471v-1659h-348q-2 30 -14 76q-15 41 -41 41t-68 -39q-66 -56 -141 -85.5t-178 -29.5zM743 365q102 0 160 63.5t58 169.5
q0 104 -58 166.5t-160 62.5q-99 0 -157 -62.5t-58 -166.5q0 -106 58 -169.5t157 -63.5zM788 -608h-280l74 475h374z" />
    <glyph glyph-name="uni1E12" unicode="&#x1e12;" horiz-adv-x="1792" 
d="M874 0h-747v1597h747q258 0 452.5 -96t301.5 -277t107 -425q0 -243 -107 -424.5t-301.5 -278t-452.5 -96.5zM655 1186v-774h174q178 0 262.5 93.5t84.5 293.5t-84.5 293.5t-262.5 93.5h-174zM672 7127h-342l297 352h426l297 -352h-342l-134 98q-19 15 -34 15
q-18 0 -35 -15z" />
    <glyph glyph-name="uni1E13" unicode="&#x1e13;" horiz-adv-x="1519" 
d="M631 -37q-162 0 -296.5 83t-212 227.5t-77.5 318.5q0 179 78.5 325.5t213.5 229t296 82.5q155 0 254 -68q29 -16 41 -16q22 0 22 35v479h471v-1659h-348q-2 30 -14 76q-15 41 -41 41t-68 -39q-66 -56 -141 -85.5t-178 -29.5zM743 365q102 0 160 63.5t58 169.5
q0 104 -58 166.5t-160 62.5q-99 0 -157 -62.5t-58 -166.5q0 -106 58 -169.5t157 -63.5zM602 -621h-287l320 443h278l318 -443h-287l-137 127q-17 17 -33 17t-33 -17z" />
    <glyph glyph-name="uni1E1A" unicode="&#x1e1a;" horiz-adv-x="1417" 
d="M1354 0h-1227v1597h1190v-419h-678v-177h580v-401h-580v-180h715v-420zM924 -535q-58 0 -113 18t-89.5 39.5t-70 39.5t-57.5 18q-68 0 -86 -100h-234q21 174 109 282q88 107 209 107q58 0 113.5 -17.5t89.5 -39t68.5 -39t56.5 -17.5q71 0 88 99h233q-20 -170 -111 -281
q-89 -109 -206 -109z" />
    <glyph glyph-name="uni1E1B" unicode="&#x1e1b;" horiz-adv-x="1390" 
d="M700 -41q-185 0 -334.5 79t-235 223.5t-85.5 328.5t84.5 331t234.5 229.5t336 82.5q188 0 334 -75t227.5 -213.5t81.5 -319.5q0 -109 -12 -158h-813q4 -74 55.5 -116t131.5 -42q120 0 155 78h461q-50 -200 -211 -314t-410 -114zM707 891q-82 0 -132.5 -47t-58.5 -121h369
q-7 82 -55 125t-123 43zM881 -526q-58 0 -113 18t-89.5 39t-70 39t-57.5 18q-68 0 -86 -100h-234q21 176 109 283q87 106 209 106q58 0 113.5 -17.5t89.5 -39t68.5 -39t56.5 -17.5q71 0 88 99h233q-20 -170 -111 -281q-89 -108 -206 -108z" />
    <glyph glyph-name="uni1E20" unicode="&#x1e20;" horiz-adv-x="1861" 
d="M860 -31q-234 0 -418 105.5t-285.5 293.5t-101.5 425q0 183 65 339.5t181 268t282.5 174.5t362.5 63q367 0 598 -185t256 -499h-545q-17 115 -93 177.5t-199 62.5q-155 0 -252 -106t-97 -289q0 -185 96 -290.5t248 -105.5q225 0 304 166q31 58 41 166h464v-735h-356
q-3 38 -18 88q-15 49 -50 49q-26 0 -65 -37q-152 -131 -418 -131zM1331 1716h-770v281h770v-281z" />
    <glyph glyph-name="uni1E21" unicode="&#x1e21;" horiz-adv-x="1472" 
d="M737 -514q-271 0 -441 130t-222 343h463q44 -137 202 -137q94 0 141.5 41t47.5 131v102q0 33 -25 33q-13 0 -39 -16q-82 -56 -246 -56q-161 0 -291.5 74.5t-204 205t-73.5 290.5q0 134 46 248t122.5 190t175.5 119t205 43q92 0 167.5 -29t149.5 -94q23 -20 33 -25.5
t23 -5.5q28 0 43 41q12 50 14 80h346v-1153q0 -180 -79.5 -306t-221.5 -187.5t-336 -61.5zM727 428q92 0 144.5 54t52.5 145q0 89 -53 142.5t-144 53.5q-93 0 -146 -52.5t-53 -143.5t53 -145t146 -54zM1151 1333h-770v281h770v-281z" />
    <glyph glyph-name="uni1E22" unicode="&#x1e22;" horiz-adv-x="1806" 
d="M655 0h-528v1597h528v-581h496v581h528v-1597h-528v602h-496v-602zM903 1692q-98 0 -161.5 61.5t-63.5 155.5q0 96 63 156.5t162 60.5q97 0 160 -60.5t63 -156.5q0 -94 -63 -155.5t-160 -61.5z" />
    <glyph glyph-name="uni1E23" unicode="&#x1e23;" horiz-adv-x="1417" 
d="M569 0h-471v1659h471v-531q0 -38 27 -38q18 0 39 24q102 119 287 119q186 0 295.5 -125t109.5 -344v-764h-473v668q0 145 -121 145q-68 0 -112 -41q-52 -46 -52 -135v-637zM334 1753q-98 0 -161.5 61.5t-63.5 155.5q0 96 63 156.5t162 60.5q97 0 160 -60.5t63 -156.5
q0 -94 -63 -155.5t-160 -61.5z" />
    <glyph glyph-name="uni1E24" unicode="&#x1e24;" horiz-adv-x="1806" 
d="M655 0h-528v1597h528v-581h496v581h528v-1597h-528v602h-496v-602zM903 -528q-98 0 -161.5 61.5t-63.5 155.5q0 96 63 156.5t162 60.5q97 0 160 -60.5t63 -156.5q0 -94 -63 -155.5t-160 -61.5z" />
    <glyph glyph-name="uni1E25" unicode="&#x1e25;" horiz-adv-x="1417" 
d="M569 0h-471v1659h471v-531q0 -38 27 -38q18 0 39 24q102 119 287 119q186 0 295.5 -125t109.5 -344v-764h-473v668q0 145 -121 145q-68 0 -112 -41q-52 -46 -52 -135v-637zM715 -549q-94 0 -156.5 60t-62.5 153q0 92 62.5 151.5t156.5 59.5t156.5 -59.5t62.5 -151.5
q0 -93 -62.5 -153t-156.5 -60z" />
    <glyph glyph-name="uni1E26" unicode="&#x1e26;" horiz-adv-x="1806" 
d="M655 0h-528v1597h528v-581h496v581h528v-1597h-528v602h-496v-602zM1210 1690q-97 0 -160 61.5t-63 155.5t63 155.5t160 61.5q98 0 163 -61.5t65 -155.5t-65 -155.5t-163 -61.5zM594 1690q-98 0 -161.5 61.5t-63.5 155.5t63.5 155.5t161.5 61.5q97 0 161 -61.5t64 -155.5
t-64 -155.5t-161 -61.5z" />
    <glyph glyph-name="uni1E27" unicode="&#x1e27;" horiz-adv-x="1417" 
d="M569 0h-471v1659h471v-531q0 -38 27 -38q18 0 39 24q102 119 287 119q186 0 295.5 -125t109.5 -344v-764h-473v668q0 145 -121 145q-68 0 -112 -41q-52 -46 -52 -135v-637zM641 1751q-97 0 -160 61.5t-63 155.5t63 155.5t160 61.5q98 0 162.5 -61.5t64.5 -155.5
t-64.5 -155.5t-162.5 -61.5zM25 1751q-98 0 -162 61.5t-64 155.5t64 155.5t162 61.5q97 0 161 -61.5t64 -155.5t-64 -155.5t-161 -61.5z" />
    <glyph glyph-name="uni1E28" unicode="&#x1e28;" horiz-adv-x="1806" 
d="M655 0h-528v1597h528v-581h496v581h528v-1597h-528v602h-496v-602zM406 -539q-181 0 -283 89.5t-113 250.5h307q9 -86 80 -86q64 0 64 66q0 49 -53 101t-172 118l251 23q136 -50 202.5 -120.5t66.5 -168.5q0 -123 -97 -198t-253 -75z" />
    <glyph glyph-name="uni1E29" unicode="&#x1e29;" horiz-adv-x="1417" 
d="M569 0h-471v1659h471v-531q0 -38 27 -38q18 0 39 24q102 119 287 119q186 0 295.5 -125t109.5 -344v-764h-473v668q0 145 -121 145q-68 0 -112 -41q-52 -46 -52 -135v-637zM354 -535q-173 0 -268.5 91t-103.5 243h301q3 -82 73 -82q56 0 56 52q0 90 -222 231h310
q190 -102 190 -252q0 -125 -89.5 -204t-246.5 -79z" />
    <glyph glyph-name="uni1E2A" unicode="&#x1e2a;" horiz-adv-x="1806" 
d="M655 0h-528v1597h528v-581h496v581h528v-1597h-528v602h-496v-602zM903 -485q-202 0 -317 96.5t-121 269.5h283q17 -110 155 -110q71 0 109.5 30t46.5 80h282q-6 -173 -121 -269.5t-317 -96.5z" />
    <glyph glyph-name="uni1E2B" unicode="&#x1e2b;" horiz-adv-x="1417" 
d="M569 0h-471v1659h471v-531q0 -38 27 -38q18 0 39 24q102 119 287 119q186 0 295.5 -125t109.5 -344v-764h-473v668q0 145 -121 145q-68 0 -112 -41q-52 -46 -52 -135v-637zM715 -535q-191 0 -302 106.5t-116 293.5h276q13 -131 142 -131q128 0 141 131h277
q-5 -187 -116 -293.5t-302 -106.5z" />
    <glyph glyph-name="uni1E2C" unicode="&#x1e2c;" horiz-adv-x="782" 
d="M655 0h-528v1597h528v-1597zM553 -535q-58 0 -113 18t-89.5 39.5t-70 39.5t-57.5 18q-68 0 -86 -100h-233q21 176 108 282q88 107 209 107q58 0 113.5 -17.5t89.5 -39t68.5 -39t56.5 -17.5q71 0 88 99h233q-21 -172 -110 -281t-207 -109z" />
    <glyph glyph-name="uni1E2D" unicode="&#x1e2d;" horiz-adv-x="657" 
d="M324 1300q-114 0 -186 69t-72 173q0 105 72 174.5t186 69.5t187 -69.5t73 -174.5q0 -104 -73 -173t-187 -69zM559 0h-471v1194h471v-1194zM469 -512q-53 0 -110 24.5t-102 49t-69 24.5q-52 0 -61 -90h-227q6 163 82 268t200 105q53 0 110 -25t102 -50t69 -25q52 0 61 90
h228q-6 -161 -82.5 -266t-200.5 -105z" />
    <glyph glyph-name="uni1E2E" unicode="&#x1e2e;" horiz-adv-x="782" 
d="M655 0h-528v1597h528v-1597zM651 1708q-87 0 -142.5 54.5t-55.5 140.5q0 82 56 136t142 54t143.5 -54t57.5 -136q0 -86 -57 -140.5t-144 -54.5zM133 1708q-87 0 -143 54.5t-56 140.5q0 82 56.5 136t142.5 54t143.5 -54t57.5 -136q0 -86 -57 -140.5t-144 -54.5zM551 2150
h-342l205 322h448z" />
    <glyph glyph-name="uni1E2F" unicode="&#x1e2f;" horiz-adv-x="669" 
d="M98 0h471v1194h-471v-1194zM582 1282q82 0 137 52.5t55 131.5q0 78 -55 130.5t-137 52.5t-136.5 -52.5t-54.5 -130.5q0 -79 54.5 -131.5t136.5 -52.5zM86 1282q82 0 137.5 52.5t55.5 131.5q0 78 -55.5 130.5t-137.5 52.5q-84 0 -137 -52t-53 -131q0 -80 53 -132t137 -52z
M465 1702h-242l144 354h360z" />
    <glyph glyph-name="uni1E32" unicode="&#x1e32;" horiz-adv-x="1730" 
d="M655 0h-528v1597h528v-757l482 757h614l-524 -761l540 -836h-657l-455 754v-754zM879 -528q-98 0 -162 61.5t-64 155.5q0 96 63.5 156.5t162.5 60.5q97 0 160 -60.5t63 -156.5q0 -94 -63 -155.5t-160 -61.5z" />
    <glyph glyph-name="uni1E33" unicode="&#x1e33;" horiz-adv-x="1433" 
d="M571 0h-473v1659h473v-1006l314 541h549l-365 -571l410 -623h-580l-328 543v-543zM745 -549q-94 0 -156.5 60t-62.5 153q0 92 62.5 151.5t156.5 59.5t157 -59.5t63 -151.5q0 -93 -63 -153t-157 -60z" />
    <glyph glyph-name="uni1E34" unicode="&#x1e34;" horiz-adv-x="1730" 
d="M655 0h-528v1597h528v-757l482 757h614l-524 -761l540 -836h-657l-455 754v-754zM1264 -403h-770v280h770v-280z" />
    <glyph glyph-name="uni1E35" unicode="&#x1e35;" horiz-adv-x="1433" 
d="M571 0h-473v1659h473v-1006l314 541h549l-365 -571l410 -623h-580l-328 543v-543zM1130 -418h-770v281h770v-281z" />
    <glyph glyph-name="uni1E36" unicode="&#x1e36;" horiz-adv-x="1280" 
d="M1253 0h-1126v1597h528v-1177h598v-420zM702 -528q-98 0 -161.5 61.5t-63.5 155.5q0 96 63 156.5t162 60.5q97 0 160.5 -60.5t63.5 -156.5q0 -94 -63.5 -155.5t-160.5 -61.5z" />
    <glyph glyph-name="uni1E37" unicode="&#x1e37;" horiz-adv-x="669" 
d="M571 0h-473v1659h473v-1659zM336 -549q-94 0 -156.5 60t-62.5 153q0 92 62.5 151.5t156.5 59.5t156.5 -59.5t62.5 -151.5q0 -93 -62.5 -153t-156.5 -60z" />
    <glyph glyph-name="uni1E3A" unicode="&#x1e3a;" horiz-adv-x="1280" 
d="M1253 0h-1126v1597h528v-1177h598v-420zM1087 -403h-770v280h770v-280z" />
    <glyph glyph-name="uni1E3B" unicode="&#x1e3b;" horiz-adv-x="669" 
d="M571 0h-473v1659h473v-1659zM651 -438h-631v280h631v-280z" />
    <glyph glyph-name="uni1E3C" unicode="&#x1e3c;" horiz-adv-x="1280" 
d="M1253 0h-1126v1597h528v-1177h598v-420zM535 7127h-342l296 352h426l297 -352h-342l-133 98q-19 15 -35 15q-17 0 -34 -15z" />
    <glyph glyph-name="uni1E3D" unicode="&#x1e3d;" horiz-adv-x="669" 
d="M571 0h-473v1659h473v-1659zM180 7117h-342l297 352h426l297 -352h-342l-133 98q-18 14 -35 14q-19 0 -35 -14z" />
    <glyph glyph-name="uni1E3E" unicode="&#x1e3e;" horiz-adv-x="2199" 
d="M127 0h457v1034l276 -1034h449l274 1032v-1032h490v1597h-707l-256 -929l-264 929h-719v-1597zM1325 1722h-430l303 340h533z" />
    <glyph glyph-name="uni1E3F" unicode="&#x1e3f;" horiz-adv-x="2095" 
d="M98 0h471v649q0 74 29 113q40 55 111 55q108 0 108 -133v-684h471v649q0 74 29 113q40 55 110 55q109 0 109 -133v-684h469v764q0 221 -104 345t-287 124q-103 0 -176 -30t-144 -107q-41 -41 -59 -41q-15 0 -26 7t-27 30q-53 72 -124.5 106.5t-180.5 34.5
q-180 0 -316 -133q-31 -31 -53 -31q-34 0 -49 47q-17 52 -19 78h-342v-1194zM1192 1323h-352l186 442h471z" />
    <glyph glyph-name="uni1E40" unicode="&#x1e40;" horiz-adv-x="2199" 
d="M584 0h-457v1597h719l264 -929l256 929h707v-1597h-490v1032l-274 -1032h-449l-276 1034v-1034zM1100 1692q-98 0 -162 61.5t-64 155.5q0 96 63.5 156.5t162.5 60.5q97 0 160 -60.5t63 -156.5q0 -94 -63 -155.5t-160 -61.5z" />
    <glyph glyph-name="uni1E41" unicode="&#x1e41;" horiz-adv-x="2095" 
d="M569 0h-471v1194h342q2 -26 19 -78q15 -47 49 -47q22 0 53 31q136 133 316 133q109 0 180.5 -34.5t124.5 -106.5q16 -23 27 -30t26 -7q18 0 59 41q71 77 144 107t176 30q183 0 287 -124t104 -345v-764h-469v684q0 133 -109 133q-70 0 -110 -55q-29 -39 -29 -113v-649
h-471v684q0 133 -108 133q-71 0 -111 -55q-29 -39 -29 -113v-649zM1055 1292q-94 0 -156.5 60t-62.5 153q0 92 62.5 151.5t156.5 59.5t156.5 -59.5t62.5 -151.5q0 -93 -62.5 -153t-156.5 -60z" />
    <glyph glyph-name="uni1E42" unicode="&#x1e42;" horiz-adv-x="2199" 
d="M584 0h-457v1597h719l264 -929l256 929h707v-1597h-490v1032l-274 -1032h-449l-276 1034v-1034zM1100 -528q-98 0 -162 61.5t-64 155.5q0 96 63.5 156.5t162.5 60.5q97 0 160 -60.5t63 -156.5q0 -94 -63 -155.5t-160 -61.5z" />
    <glyph glyph-name="uni1E43" unicode="&#x1e43;" horiz-adv-x="2095" 
d="M569 0h-471v1194h342q2 -26 19 -78q15 -47 49 -47q22 0 53 31q136 133 316 133q109 0 180.5 -34.5t124.5 -106.5q16 -23 27 -30t26 -7q18 0 59 41q71 77 144 107t176 30q183 0 287 -124t104 -345v-764h-469v684q0 133 -109 133q-70 0 -110 -55q-29 -39 -29 -113v-649
h-471v684q0 133 -108 133q-71 0 -111 -55q-29 -39 -29 -113v-649zM1051 -549q-94 0 -157 60t-63 153q0 92 63 151.5t157 59.5t156.5 -59.5t62.5 -151.5q0 -93 -62.5 -153t-156.5 -60z" />
    <glyph glyph-name="uni1E44" unicode="&#x1e44;" horiz-adv-x="1816" 
d="M602 0h-475v1597h580l507 -913v913h476v-1597h-580l-508 913v-913zM913 1692q-98 0 -161.5 61.5t-63.5 155.5q0 96 63 156.5t162 60.5q97 0 160.5 -60.5t63.5 -156.5q0 -94 -63.5 -155.5t-160.5 -61.5z" />
    <glyph glyph-name="uni1E45" unicode="&#x1e45;" horiz-adv-x="1417" 
d="M569 0h-471v1194h342q3 -25 21 -82q17 -43 47 -43q24 0 53 33q72 69 150.5 100t181.5 31q206 0 320 -123.5t114 -343.5v-766h-473v668q0 145 -123 145q-67 0 -108 -41q-54 -48 -54 -135v-637zM713 1292q-94 0 -156.5 60t-62.5 153q0 92 62.5 151.5t156.5 59.5
t156.5 -59.5t62.5 -151.5q0 -93 -62.5 -153t-156.5 -60z" />
    <glyph glyph-name="uni1E46" unicode="&#x1e46;" horiz-adv-x="1816" 
d="M602 0h-475v1597h580l507 -913v913h476v-1597h-580l-508 913v-913zM913 -528q-98 0 -161.5 61.5t-63.5 155.5q0 96 63 156.5t162 60.5q97 0 160.5 -60.5t63.5 -156.5q0 -94 -63.5 -155.5t-160.5 -61.5z" />
    <glyph glyph-name="uni1E47" unicode="&#x1e47;" horiz-adv-x="1417" 
d="M569 0h-471v1194h342q3 -25 21 -82q17 -43 47 -43q24 0 53 33q72 69 150.5 100t181.5 31q206 0 320 -123.5t114 -343.5v-766h-473v668q0 145 -123 145q-67 0 -108 -41q-54 -48 -54 -135v-637zM711 -549q-94 0 -156.5 60t-62.5 153q0 92 62.5 151.5t156.5 59.5
t156.5 -59.5t62.5 -151.5q0 -93 -62.5 -153t-156.5 -60z" />
    <glyph glyph-name="uni1E48" unicode="&#x1e48;" horiz-adv-x="1816" 
d="M602 0h-475v1597h580l507 -913v913h476v-1597h-580l-508 913v-913zM1298 -403h-770v280h770v-280z" />
    <glyph glyph-name="uni1E49" unicode="&#x1e49;" horiz-adv-x="1417" 
d="M569 0h-471v1194h342q3 -25 21 -82q17 -43 47 -43q24 0 53 33q72 69 150.5 100t181.5 31q206 0 320 -123.5t114 -343.5v-766h-473v668q0 145 -123 145q-67 0 -108 -41q-54 -48 -54 -135v-637zM1096 -418h-770v281h770v-281z" />
    <glyph glyph-name="uni1E4A" unicode="&#x1e4a;" horiz-adv-x="1816" 
d="M602 0h-475v1597h580l507 -913v913h476v-1597h-580l-508 913v-913zM745 7127h-342l297 352h426l297 -352h-342l-133 98q-19 15 -35 15q-17 0 -34 -15z" />
    <glyph glyph-name="uni1E4B" unicode="&#x1e4b;" horiz-adv-x="1417" 
d="M569 0h-471v1194h342q3 -25 21 -82q17 -43 47 -43q24 0 53 33q72 69 150.5 100t181.5 31q206 0 320 -123.5t114 -343.5v-766h-473v668q0 145 -123 145q-67 0 -108 -41q-54 -48 -54 -135v-637zM539 -639h-287l319 442h279l317 -442h-286l-138 127q-16 16 -32 16
q-17 0 -33 -16z" />
    <glyph glyph-name="uni1E4C" unicode="&#x1e4c;" horiz-adv-x="1923" 
d="M963 -41q-203 0 -374 64.5t-288 176.5t-182.5 266.5t-65.5 332.5t65.5 332.5t182.5 266.5t288 176t374 64q202 0 372.5 -64t287.5 -176t182 -266.5t65 -332.5t-65 -332.5t-182 -266.5t-287.5 -176.5t-372.5 -64.5zM963 412q158 0 253 105t95 282q0 178 -94.5 283.5
t-253.5 105.5q-160 0 -254.5 -105.5t-94.5 -283.5q0 -177 94.5 -282t254.5 -105zM1090 1724q-54 0 -104.5 25t-90.5 49.5t-68 24.5q-59 0 -73 -88h-219q19 163 102.5 260.5t202.5 97.5q54 0 103 -24.5t87.5 -49t67.5 -24.5q58 0 76 88h219q-19 -161 -102 -260t-201 -99z
M1120 2165h-342l205 321h449z" />
    <glyph glyph-name="uni1E4D" unicode="&#x1e4d;" horiz-adv-x="1468" 
d="M733 -39q150 0 278.5 47.5t219 131.5t141.5 202.5t51 255.5t-51 255t-141.5 201.5t-219 131t-278.5 47.5q-197 0 -354.5 -81.5t-246.5 -226.5t-89 -327q0 -183 89 -328.5t246.5 -227t354.5 -81.5zM733 362q-98 0 -154.5 63.5t-56.5 172.5q0 106 56.5 169.5t154.5 63.5
q99 0 156 -63t57 -170q0 -109 -57 -172.5t-156 -63.5zM874 1346q112 0 188 92t93 245h-217q-7 -37 -27.5 -55t-48.5 -18q-22 0 -66.5 22.5t-99.5 45t-104 22.5q-111 0 -186.5 -92t-94.5 -246h219q12 74 74 74q24 0 68 -22.5t98.5 -45t103.5 -22.5zM862 1804h-241l143 355
h360z" />
    <glyph glyph-name="uni1E4E" unicode="&#x1e4e;" horiz-adv-x="1923" 
d="M963 -41q-203 0 -374 64.5t-288 176.5t-182.5 266.5t-65.5 332.5t65.5 332.5t182.5 266.5t288 176t374 64q202 0 372.5 -64t287.5 -176t182 -266.5t65 -332.5t-65 -332.5t-182 -266.5t-287.5 -176.5t-372.5 -64.5zM963 412q158 0 253 105t95 282q0 178 -94.5 283.5
t-253.5 105.5q-160 0 -254.5 -105.5t-94.5 -283.5q0 -177 94.5 -282t254.5 -105zM1090 1724q-54 0 -104.5 25t-90.5 49.5t-68 24.5q-59 0 -73 -88h-219q19 163 102.5 260.5t202.5 97.5q54 0 103 -24.5t87.5 -49t67.5 -24.5q58 0 76 88h219q-19 -161 -102 -260t-201 -99z
M1221 2150q-87 0 -143 54.5t-56 140.5q0 82 56.5 136t142.5 54t143 -54t57 -136q0 -86 -56.5 -140.5t-143.5 -54.5zM702 2150q-87 0 -142.5 54.5t-55.5 140.5q0 82 56 136t142 54t143.5 -54t57.5 -136q0 -86 -57 -140.5t-144 -54.5z" />
    <glyph glyph-name="uni1E4F" unicode="&#x1e4f;" horiz-adv-x="1468" 
d="M733 -39q-197 0 -354.5 81.5t-246.5 227t-89 328.5q0 182 89 327t246.5 226.5t354.5 81.5q150 0 278.5 -47.5t219 -131t141.5 -201.5t51 -255t-51 -255.5t-141.5 -202.5t-219 -131.5t-278.5 -47.5zM733 362q99 0 156 63.5t57 172.5q0 107 -57 170t-156 63
q-98 0 -154.5 -63.5t-56.5 -169.5q0 -109 56.5 -172.5t154.5 -63.5zM874 1346q-49 0 -103.5 22.5t-98.5 45t-68 22.5q-62 0 -74 -74h-219q19 154 94.5 246t186.5 92q49 0 104 -22.5t99.5 -45t66.5 -22.5q28 0 48.5 18t27.5 55h217q-17 -153 -93 -245t-188 -92zM981 1763
q-82 0 -136 52.5t-54 132.5q0 78 54 130t136 52t137.5 -52t55.5 -130q0 -79 -55.5 -132t-137.5 -53zM485 1763q-84 0 -137 52.5t-53 132.5q0 79 53 130.5t137 51.5q82 0 137.5 -52t55.5 -130q0 -79 -55.5 -132t-137.5 -53z" />
    <glyph glyph-name="uni1E50" unicode="&#x1e50;" horiz-adv-x="1923" 
d="M963 -41q202 0 372.5 64.5t287.5 176.5t182 266.5t65 332.5t-65 332.5t-182 266.5t-287.5 176t-372.5 64q-203 0 -374 -64t-288 -176t-182.5 -266.5t-65.5 -332.5t65.5 -332.5t182.5 -266.5t288 -176.5t374 -64.5zM963 412q-160 0 -254.5 105t-94.5 282q0 178 94.5 283.5
t254.5 105.5q159 0 253.5 -105.5t94.5 -283.5q0 -177 -95 -282t-253 -105zM612 1737h701v272h-701v-272zM1147 2095h-342l-311 322h448z" />
    <glyph glyph-name="uni1E51" unicode="&#x1e51;" horiz-adv-x="1468" 
d="M733 -39q-197 0 -354.5 81.5t-246.5 227t-89 328.5q0 182 89 327t246.5 226.5t354.5 81.5q150 0 278.5 -47.5t219 -131t141.5 -201.5t51 -255t-51 -255.5t-141.5 -202.5t-219 -131.5t-278.5 -47.5zM733 362q99 0 156 63.5t57 172.5q0 107 -57 170t-156 63
q-98 0 -154.5 -63.5t-56.5 -169.5q0 -109 56.5 -172.5t154.5 -63.5zM1106 1346h-746v247h746v-247zM846 1698h-242l-262 354h360z" />
    <glyph glyph-name="uni1E52" unicode="&#x1e52;" horiz-adv-x="1923" 
d="M963 -41q-203 0 -374 64.5t-288 176.5t-182.5 266.5t-65.5 332.5t65.5 332.5t182.5 266.5t288 176t374 64q202 0 372.5 -64t287.5 -176t182 -266.5t65 -332.5t-65 -332.5t-182 -266.5t-287.5 -176.5t-372.5 -64.5zM963 412q158 0 253 105t95 282q0 178 -94.5 283.5
t-253.5 105.5q-160 0 -254.5 -105.5t-94.5 -283.5q0 -177 94.5 -282t254.5 -105zM1313 1737h-701v272h701v-272zM1120 2095h-342l205 322h449z" />
    <glyph glyph-name="uni1E53" unicode="&#x1e53;" horiz-adv-x="1468" 
d="M733 -39q150 0 278.5 47.5t219 131.5t141.5 202.5t51 255.5t-51 255t-141.5 201.5t-219 131t-278.5 47.5q-197 0 -354.5 -81.5t-246.5 -226.5t-89 -327q0 -183 89 -328.5t246.5 -227t354.5 -81.5zM733 362q-98 0 -154.5 63.5t-56.5 172.5q0 106 56.5 169.5t154.5 63.5
q99 0 156 -63t57 -170q0 -109 -57 -172.5t-156 -63.5zM360 1346h746v247h-746v-247zM862 1698h-241l143 354h360z" />
    <glyph glyph-name="uni1E58" unicode="&#x1e58;" horiz-adv-x="1615" 
d="M643 0h-516v1597h842q266 0 412.5 -117.5t146.5 -340.5q0 -140 -74 -241t-199 -140q99 -20 148.5 -84t69.5 -195l43 -278q20 -146 71 -201h-528q-18 11 -33.5 49t-21.5 90l-31 271q-8 81 -36.5 113t-100.5 32h-193v-555zM645 1202v-299h209q156 0 156 154q0 145 -156 145
h-209zM795 1692q-98 0 -162 61.5t-64 155.5q0 96 63.5 156.5t162.5 60.5q97 0 160 -60.5t63 -156.5q0 -94 -63 -155.5t-160 -61.5z" />
    <glyph glyph-name="uni1E59" unicode="&#x1e59;" horiz-adv-x="1144" 
d="M569 0h-471v1194h340q7 -32 21 -72q14 -32 43 -32q13 0 23 5.5t34 24.5q59 51 117 74t141 23q155 0 238.5 -114t81.5 -323q0 -23 -4 -59h-416q4 16 4 31q0 33 -18 53t-52 20q-46 0 -67 -34q-15 -24 -15 -64v-727zM578 1292q-94 0 -157 60t-63 153q0 92 63 151.5t157 59.5
t156.5 -59.5t62.5 -151.5q0 -93 -62.5 -153t-156.5 -60z" />
    <glyph glyph-name="uni1E5A" unicode="&#x1e5a;" horiz-adv-x="1615" 
d="M643 0h-516v1597h842q266 0 412.5 -117.5t146.5 -340.5q0 -140 -74 -241t-199 -140q99 -20 148.5 -84t69.5 -195l43 -278q20 -146 71 -201h-528q-18 11 -33.5 49t-21.5 90l-31 271q-8 81 -36.5 113t-100.5 32h-193v-555zM645 1202v-299h209q156 0 156 154q0 145 -156 145
h-209zM860 -528q-98 0 -161.5 61.5t-63.5 155.5q0 96 63 156.5t162 60.5q97 0 160 -60.5t63 -156.5q0 -94 -63 -155.5t-160 -61.5z" />
    <glyph glyph-name="uni1E5B" unicode="&#x1e5b;" horiz-adv-x="1144" 
d="M569 0h-471v1194h340q7 -32 21 -72q14 -32 43 -32q13 0 23 5.5t34 24.5q59 51 117 74t141 23q155 0 238.5 -114t81.5 -323q0 -23 -4 -59h-416q4 16 4 31q0 33 -18 53t-52 20q-46 0 -67 -34q-15 -24 -15 -64v-727zM336 -549q-94 0 -156.5 60t-62.5 153q0 92 62.5 151.5
t156.5 59.5t156.5 -59.5t62.5 -151.5q0 -93 -62.5 -153t-156.5 -60z" />
    <glyph glyph-name="uni1E5E" unicode="&#x1e5e;" horiz-adv-x="1615" 
d="M643 0h-516v1597h842q266 0 412.5 -117.5t146.5 -340.5q0 -140 -74 -241t-199 -140q99 -20 148.5 -84t69.5 -195l43 -278q20 -146 71 -201h-528q-18 11 -33.5 49t-21.5 90l-31 271q-8 81 -36.5 113t-100.5 32h-193v-555zM645 1202v-299h209q156 0 156 154q0 145 -156 145
h-209zM1245 -403h-770v280h770v-280z" />
    <glyph glyph-name="uni1E5F" unicode="&#x1e5f;" horiz-adv-x="1144" 
d="M569 0h-471v1194h340q7 -32 21 -72q14 -32 43 -32q13 0 23 5.5t34 24.5q59 51 117 74t141 23q155 0 238.5 -114t81.5 -323q0 -23 -4 -59h-416q4 16 4 31q0 33 -18 53t-52 20q-46 0 -67 -34q-15 -24 -15 -64v-727zM651 -438h-631v280h631v-280z" />
    <glyph glyph-name="uni1E60" unicode="&#x1e60;" horiz-adv-x="1480" 
d="M743 -41q-203 0 -360.5 73.5t-245.5 199.5t-98 286h508q10 -89 66.5 -136.5t144.5 -47.5q71 0 108 29t37 75q0 51 -39 78t-159 53q-324 74 -469.5 205t-145.5 352q0 236 174 374t471 138q300 0 468 -134.5t198 -381.5h-498q-23 142 -160 142q-60 0 -96.5 -29.5
t-36.5 -73.5q0 -51 39 -81t131 -50q328 -72 485.5 -209t157.5 -338q0 -248 -183.5 -386t-496.5 -138zM743 1692q-98 0 -161.5 61.5t-63.5 155.5q0 96 63 156.5t162 60.5q97 0 160.5 -60.5t63.5 -156.5q0 -94 -63.5 -155.5t-160.5 -61.5z" />
    <glyph glyph-name="uni1E61" unicode="&#x1e61;" horiz-adv-x="1216" 
d="M625 -43q-250 0 -405.5 112.5t-184.5 313.5h467q12 -119 123 -119q84 0 84 68q0 35 -28.5 54t-92.5 30q-283 46 -404 140.5t-121 274.5q0 186 144.5 295t390.5 109q501 0 553 -418h-446q-9 111 -97 111q-37 0 -59.5 -18t-22.5 -48q0 -41 33.5 -60.5t122.5 -33.5
q261 -38 374 -131.5t113 -267.5q0 -186 -149 -299t-395 -113zM606 1292q-94 0 -156.5 60t-62.5 153q0 92 62.5 151.5t156.5 59.5t156.5 -59.5t62.5 -151.5q0 -93 -62.5 -153t-156.5 -60z" />
    <glyph glyph-name="uni1E62" unicode="&#x1e62;" horiz-adv-x="1480" 
d="M743 -41q-203 0 -360.5 73.5t-245.5 199.5t-98 286h508q10 -89 66.5 -136.5t144.5 -47.5q71 0 108 29t37 75q0 51 -39 78t-159 53q-324 74 -469.5 205t-145.5 352q0 236 174 374t471 138q300 0 468 -134.5t198 -381.5h-498q-23 142 -160 142q-60 0 -96.5 -29.5
t-36.5 -73.5q0 -51 39 -81t131 -50q328 -72 485.5 -209t157.5 -338q0 -248 -183.5 -386t-496.5 -138zM784 -528q-98 0 -161.5 61.5t-63.5 155.5q0 96 63 156.5t162 60.5q97 0 160.5 -60.5t63.5 -156.5q0 -94 -63.5 -155.5t-160.5 -61.5z" />
    <glyph glyph-name="uni1E63" unicode="&#x1e63;" horiz-adv-x="1216" 
d="M625 -43q-250 0 -405.5 112.5t-184.5 313.5h467q12 -119 123 -119q84 0 84 68q0 35 -28.5 54t-92.5 30q-283 46 -404 140.5t-121 274.5q0 186 144.5 295t390.5 109q501 0 553 -418h-446q-9 111 -97 111q-37 0 -59.5 -18t-22.5 -48q0 -41 33.5 -60.5t122.5 -33.5
q261 -38 374 -131.5t113 -267.5q0 -186 -149 -299t-395 -113zM659 -549q-94 0 -156.5 60t-62.5 153q0 92 62.5 151.5t156.5 59.5t157 -59.5t63 -151.5q0 -93 -63 -153t-157 -60z" />
    <glyph glyph-name="uni1E6C" unicode="&#x1e6c;" horiz-adv-x="1441" 
d="M985 0h-528v1178h-432v419h1392v-419h-432v-1178zM721 -528q-98 0 -161.5 61.5t-63.5 155.5q0 96 63 156.5t162 60.5q97 0 160 -60.5t63 -156.5q0 -94 -63 -155.5t-160 -61.5z" />
    <glyph glyph-name="uni1E6D" unicode="&#x1e6d;" horiz-adv-x="1017" 
d="M725 -18q-258 0 -379 104.5t-121 347.5v383h-202v377h131q70 0 106.5 24.5t58.5 77.5q33 74 54 207h313v-309h270v-377h-270v-332q0 -72 38 -105.5t114 -33.5q56 0 131 19v-347q-91 -36 -244 -36zM635 -539q-94 0 -156.5 60t-62.5 153q0 92 62.5 151.5t156.5 59.5
t156.5 -59.5t62.5 -151.5q0 -93 -62.5 -153t-156.5 -60z" />
    <glyph glyph-name="uni1E6E" unicode="&#x1e6e;" horiz-adv-x="1441" 
d="M985 0h-528v1178h-432v419h1392v-419h-432v-1178zM1106 -403h-770v280h770v-280z" />
    <glyph glyph-name="uni1E6F" unicode="&#x1e6f;" horiz-adv-x="1017" 
d="M725 -18q-258 0 -379 104.5t-121 347.5v383h-202v377h131q70 0 106.5 24.5t58.5 77.5q33 74 54 207h313v-309h270v-377h-270v-332q0 -72 38 -105.5t114 -33.5q56 0 131 19v-347q-91 -36 -244 -36zM1020 -408h-770v281h770v-281z" />
    <glyph glyph-name="uni1E70" unicode="&#x1e70;" horiz-adv-x="1441" 
d="M985 0h-528v1178h-432v419h1392v-419h-432v-1178zM553 7127h-342l297 352h426l297 -352h-342l-133 98q-19 15 -35 15q-18 0 -35 -15z" />
    <glyph glyph-name="uni1E71" unicode="&#x1e71;" horiz-adv-x="1017" 
d="M725 -18q-258 0 -379 104.5t-121 347.5v383h-202v377h131q70 0 106.5 24.5t58.5 77.5q33 74 54 207h313v-309h270v-377h-270v-332q0 -72 38 -105.5t114 -33.5q56 0 131 19v-347q-91 -36 -244 -36zM463 -631h-287l320 443h278l318 -443h-287l-137 127q-17 17 -33 17
t-33 -17z" />
    <glyph glyph-name="uni1E72" unicode="&#x1e72;" horiz-adv-x="1730" 
d="M866 -41q-167 0 -304.5 45t-238.5 130.5t-156.5 218.5t-55.5 302v942h528v-981q0 -110 59 -169.5t168 -59.5q106 0 166 59.5t60 169.5v981h530v-942q0 -169 -56 -302t-157 -218.5t-239 -130.5t-304 -45zM1151 -532q-97 0 -160 61.5t-63 155.5t63 154.5t160 60.5
q98 0 162.5 -60.5t64.5 -154.5t-64.5 -155.5t-162.5 -61.5zM580 -532q-98 0 -162 61.5t-64 155.5t64 154.5t162 60.5q97 0 161 -61t64 -154q0 -94 -64 -155.5t-161 -61.5z" />
    <glyph glyph-name="uni1E73" unicode="&#x1e73;" horiz-adv-x="1411" 
d="M524 -39q-206 0 -320 123.5t-114 343.5v766h471v-668q0 -147 129 -147q65 0 109 35q43 46 43 127v653h471v-1194h-340q-3 27 -19 72q-12 43 -45 43q-14 0 -25 -7t-36 -30q-123 -117 -324 -117zM1012 -532q-97 0 -160.5 61.5t-63.5 155.5t63.5 154.5t160.5 60.5
q98 0 162.5 -60.5t64.5 -154.5t-64.5 -155.5t-162.5 -61.5zM440 -532q-98 0 -161.5 61.5t-63.5 155.5t63.5 154.5t161.5 60.5q97 0 161.5 -61t64.5 -154q0 -94 -64.5 -155.5t-161.5 -61.5z" />
    <glyph glyph-name="uni1E74" unicode="&#x1e74;" horiz-adv-x="1730" 
d="M866 -41q-167 0 -304.5 45t-238.5 130.5t-156.5 218.5t-55.5 302v942h528v-981q0 -110 59 -169.5t168 -59.5q106 0 166 59.5t60 169.5v981h530v-942q0 -169 -56 -302t-157 -218.5t-239 -130.5t-304 -45zM1026 -535q-58 0 -113 18t-89.5 39.5t-70 39.5t-57.5 18
q-68 0 -86 -100h-233q21 176 108 282q88 107 209 107q58 0 113.5 -17.5t89.5 -39t68.5 -39t56.5 -17.5q71 0 88 99h233q-21 -172 -110 -281t-207 -109z" />
    <glyph glyph-name="uni1E75" unicode="&#x1e75;" horiz-adv-x="1411" 
d="M524 -39q-206 0 -320 123.5t-114 343.5v766h471v-668q0 -147 129 -147q65 0 109 35q43 46 43 127v653h471v-1194h-340q-3 27 -19 72q-12 43 -45 43q-14 0 -25 -7t-36 -30q-123 -117 -324 -117zM887 -526q-58 0 -113 18t-89.5 39t-70 39t-57.5 18q-68 0 -86 -100h-233
q21 177 108 283t209 106q58 0 113.5 -17.5t89.5 -39t68.5 -39t56.5 -17.5q71 0 88 99h233q-21 -172 -110 -281q-88 -108 -207 -108z" />
    <glyph glyph-name="uni1E78" unicode="&#x1e78;" horiz-adv-x="1730" 
d="M866 -41q-167 0 -304.5 45t-238.5 130.5t-156.5 218.5t-55.5 302v942h528v-981q0 -110 59 -169.5t168 -59.5q106 0 166 59.5t60 169.5v981h530v-942q0 -169 -56 -302t-157 -218.5t-239 -130.5t-304 -45zM993 1724q-54 0 -104.5 25t-90 49.5t-67.5 24.5q-60 0 -74 -88
h-219q19 163 102.5 260.5t202.5 97.5q54 0 103 -24.5t87.5 -49t67.5 -24.5q58 0 76 88h219q-19 -161 -102 -260t-201 -99zM1024 2165h-342l205 321h448z" />
    <glyph glyph-name="uni1E79" unicode="&#x1e79;" horiz-adv-x="1411" 
d="M524 -39q201 0 324 117q25 23 36 30t25 7q33 0 45 -43q16 -45 19 -72h340v1194h-471v-653q0 -81 -43 -127q-44 -35 -109 -35q-129 0 -129 147v668h-471v-766q0 -220 114 -343.5t320 -123.5zM852 1346q112 0 188 92t93 245h-218q-14 -73 -75 -73q-22 0 -66.5 22.5t-100 45
t-104.5 22.5q-111 0 -186 -92t-94 -246h219q12 74 74 74q24 0 68 -22.5t98.5 -45t103.5 -22.5zM840 1804h-242l143 355h361z" />
    <glyph glyph-name="uni1E7C" unicode="&#x1e7c;" horiz-adv-x="1742" 
d="M1200 0h-645l-582 1597h592l340 -1058l324 1058h526zM1051 1704q-58 0 -113 18t-89.5 39.5t-70 39.5t-57.5 18q-68 0 -86 -101h-234q21 173 109 281q89 108 209 108q58 0 113.5 -17.5t89.5 -38.5t68.5 -38.5t56.5 -17.5q71 0 88 98h233q-21 -173 -111 -283
q-87 -106 -206 -106z" />
    <glyph glyph-name="uni1E7D" unicode="&#x1e7d;" horiz-adv-x="1439" 
d="M1004 0h-564l-458 1194h518l233 -748l228 748h493zM889 1327q-58 0 -113 18t-89.5 39.5t-70 39.5t-57.5 18q-68 0 -86 -101h-233q21 175 108 281q89 109 209 109q58 0 113.5 -17.5t89.5 -39t68.5 -39t56.5 -17.5q71 0 88 98h233q-21 -173 -110 -282q-88 -107 -207 -107z
" />
    <glyph glyph-name="uni1E7E" unicode="&#x1e7e;" horiz-adv-x="1742" 
d="M1200 0h-645l-582 1597h592l340 -1058l324 1058h526zM889 -528q-98 0 -161.5 61.5t-63.5 155.5q0 96 63 156.5t162 60.5q97 0 160 -60.5t63 -156.5q0 -94 -63 -155.5t-160 -61.5z" />
    <glyph glyph-name="uni1E7F" unicode="&#x1e7f;" horiz-adv-x="1439" 
d="M1004 0h-564l-458 1194h518l233 -748l228 748h493zM719 -549q-94 0 -156.5 60t-62.5 153q0 92 62.5 151.5t156.5 59.5t156.5 -59.5t62.5 -151.5q0 -93 -62.5 -153t-156.5 -60z" />
    <glyph glyph-name="Wgrave" unicode="&#x1e80;" horiz-adv-x="2514" 
d="M1036 0h-608l-440 1597h532l240 -1038l229 1038h565l238 -1040l238 1040h495l-434 -1597h-608l-226 1014zM1462 1722h-430l-405 340h532z" />
    <glyph glyph-name="wgrave" unicode="&#x1e81;" horiz-adv-x="2021" 
d="M858 0h-481l-389 1194h504l157 -657l166 657h430l166 -655l164 655h459l-389 -1194h-484l-147 598zM1194 1323h-352l-305 442h471z" />
    <glyph glyph-name="Wacute" unicode="&#x1e82;" horiz-adv-x="2514" 
d="M428 0h608l221 1014l226 -1014h608l434 1597h-495l-238 -1040l-238 1040h-565l-229 -1038l-240 1038h-532zM1483 1722h-430l303 340h532z" />
    <glyph glyph-name="wacute" unicode="&#x1e83;" horiz-adv-x="2021" 
d="M377 0h481l156 598l147 -598h484l389 1194h-459l-164 -655l-166 655h-430l-166 -657l-157 657h-504zM1147 1323h-352l186 442h471z" />
    <glyph glyph-name="Wdieresis" unicode="&#x1e84;" horiz-adv-x="2514" 
d="M1036 0h-608l-440 1597h532l240 -1038l229 1038h565l238 -1040l238 1040h495l-434 -1597h-608l-226 1014zM1565 1690q-97 0 -160.5 61.5t-63.5 155.5t63.5 155.5t160.5 61.5q98 0 162.5 -61.5t64.5 -155.5t-64.5 -155.5t-162.5 -61.5zM948 1690q-98 0 -161.5 61.5
t-63.5 155.5t63.5 155.5t161.5 61.5q97 0 161.5 -61.5t64.5 -155.5t-64.5 -155.5t-161.5 -61.5z" />
    <glyph glyph-name="wdieresis" unicode="&#x1e85;" horiz-adv-x="2021" 
d="M858 0h-481l-389 1194h504l157 -657l166 657h430l166 -655l164 655h459l-389 -1194h-484l-147 598zM1292 1292q-94 0 -156.5 60.5t-62.5 152.5t62.5 151.5t156.5 59.5q97 0 159 -59.5t62 -151.5t-62 -152.5t-159 -60.5zM729 1292q-94 0 -156.5 60.5t-62.5 152.5
t62.5 151.5t156.5 59.5t157.5 -59.5t63.5 -151.5t-63.5 -152.5t-157.5 -60.5z" />
    <glyph glyph-name="uni1E8C" unicode="&#x1e8c;" horiz-adv-x="1685" 
d="M557 0h-584l529 809l-520 788h622l254 -434l258 434h578l-504 -772l528 -825h-620l-264 459zM1163 1690q-97 0 -160 61.5t-63 155.5t63 155.5t160 61.5q98 0 163 -61.5t65 -155.5t-65 -155.5t-163 -61.5zM547 1690q-98 0 -161.5 61.5t-63.5 155.5t63.5 155.5t161.5 61.5
q97 0 161 -61.5t64 -155.5t-64 -155.5t-161 -61.5z" />
    <glyph glyph-name="uni1E8D" unicode="&#x1e8d;" horiz-adv-x="1337" 
d="M479 0h-499l385 602l-390 592h555l154 -274l156 274h497l-364 -571l401 -623h-557l-170 295zM956 1292q-94 0 -156.5 60.5t-62.5 152.5t62.5 151.5t156.5 59.5q97 0 159.5 -59.5t62.5 -151.5t-62.5 -152.5t-159.5 -60.5zM393 1292q-94 0 -156.5 60.5t-62.5 152.5
t62.5 151.5t156.5 59.5t157.5 -59.5t63.5 -151.5t-63.5 -152.5t-157.5 -60.5z" />
    <glyph glyph-name="uni1E8E" unicode="&#x1e8e;" horiz-adv-x="1656" 
d="M1081 0h-503v623l-605 974h578l303 -526l301 526h524l-598 -972v-625zM827 1692q-98 0 -161.5 61.5t-63.5 155.5q0 96 63 156.5t162 60.5q97 0 160.5 -60.5t63.5 -156.5q0 -94 -63.5 -155.5t-160.5 -61.5z" />
    <glyph glyph-name="uni1E8F" unicode="&#x1e8f;" horiz-adv-x="1380" 
d="M737 -502h-491l196 502l-458 1194h518l205 -662l202 662h490zM705 1292q-94 0 -157 60t-63 153q0 92 63 151.5t157 59.5t156.5 -59.5t62.5 -151.5q0 -93 -62.5 -153t-156.5 -60z" />
    <glyph glyph-name="uni1E90" unicode="&#x1e90;" horiz-adv-x="1425" 
d="M1352 0h-1342v6l617 1180h-551v411h1339v-6l-616 -1177h553v-414zM547 1722h-342l297 353h426l297 -353h-342l-133 99q-18 14 -35 14q-19 0 -35 -14z" />
    <glyph glyph-name="uni1E91" unicode="&#x1e91;" horiz-adv-x="1175" 
d="M1112 0h-1094v6l441 811h-389v377h1093v-6l-454 -836h403v-352zM418 1323h-287l320 442h278l318 -442h-287l-137 127q-16 16 -33 16t-33 -16z" />
    <glyph glyph-name="uni1E92" unicode="&#x1e92;" horiz-adv-x="1425" 
d="M1352 0h-1342v6l617 1180h-551v411h1339v-6l-616 -1177h553v-414zM713 -528q-98 0 -162 61.5t-64 155.5q0 96 63.5 156.5t162.5 60.5q97 0 160 -60.5t63 -156.5q0 -94 -63 -155.5t-160 -61.5z" />
    <glyph glyph-name="uni1E93" unicode="&#x1e93;" horiz-adv-x="1175" 
d="M1112 0h-1094v6l441 811h-389v377h1093v-6l-454 -836h403v-352zM590 -549q-94 0 -156.5 60t-62.5 153q0 92 62.5 151.5t156.5 59.5t156.5 -59.5t62.5 -151.5q0 -93 -62.5 -153t-156.5 -60z" />
    <glyph glyph-name="uni1E94" unicode="&#x1e94;" horiz-adv-x="1425" 
d="M1352 0h-1342v6l617 1180h-551v411h1339v-6l-616 -1177h553v-414zM1098 -403h-770v280h770v-280z" />
    <glyph glyph-name="uni1E95" unicode="&#x1e95;" horiz-adv-x="1175" 
d="M1112 0h-1094v6l441 811h-389v377h1093v-6l-454 -836h403v-352zM975 -418h-770v281h770v-281z" />
    <glyph glyph-name="uni1E96" unicode="&#x1e96;" horiz-adv-x="1417" 
d="M569 0h-471v1659h471v-531q0 -38 27 -38q18 0 39 24q102 119 287 119q186 0 295.5 -125t109.5 -344v-764h-473v668q0 145 -121 145q-68 0 -112 -41q-52 -46 -52 -135v-637zM1100 -418h-770v281h770v-281z" />
    <glyph glyph-name="uni1E97" unicode="&#x1e97;" horiz-adv-x="1017" 
d="M725 -18q-258 0 -379 104.5t-121 347.5v383h-202v377h131q70 0 106.5 24.5t58.5 77.5q33 74 54 207h313v-309h270v-377h-270v-332q0 -72 38 -105.5t114 -33.5q56 0 131 19v-347q-91 -36 -244 -36zM791 1565q-94 0 -157 60.5t-63 152.5t63 151.5t157 59.5q97 0 159 -59.5
t62 -151.5t-62 -152.5t-159 -60.5zM227 1565q-94 0 -156.5 60.5t-62.5 152.5t62.5 151.5t156.5 59.5q95 0 158.5 -59.5t63.5 -151.5t-64 -152.5t-158 -60.5z" />
    </font>
</defs>
</svg>
