<?xml version="1.0" standalone="no"?>
<!DOCTYPE svg PUBLIC "-//W3C//DTD SVG 1.1//EN" "http://www.w3.org/Graphics/SVG/1.1/DTD/svg11.dtd" >
<svg xmlns="http://www.w3.org/2000/svg" xmlns:xlink="http://www.w3.org/1999/xlink" version="1.1">
<metadata>
Created by FontForge 20170731 at Mon Jul 27 18:48:07 2020
 By Aleksey,,,
Copyright (c) 2018 Kilotype GmbH. All rights reserved. |DCNT
</metadata>
<defs>
<font id="OldschoolGrotesk-Regular" horiz-adv-x="0" >
  <font-face 
    font-family="Oldschool Grotesk"
    font-weight="400"
    font-stretch="normal"
    units-per-em="2048"
    panose-1="2 11 5 4 3 2 4 2 8 4"
    ascent="1659"
    descent="-389"
    x-height="1165"
    cap-height="1597"
    bbox="-678 -629 2968 7457"
    underline-thickness="49"
    underline-position="-173"
    unicode-range="U+000D-1F310"
  />
<missing-glyph horiz-adv-x="1187" 
 />
    <glyph glyph-name="f_f" unicode="ff" horiz-adv-x="1536" 
d="M485 0h-223v979h-229v186h229v123q0 400 385 400q85 0 164 -27v-174q-59 16 -119 16q-107 0 -157 -55.5t-50 -167.5v-115h484v123q0 203 96 301.5t289 98.5q100 0 188 -31v-176q-68 22 -141 22q-109 0 -159 -55.5t-50 -167.5v-115h328v-186h-328v-979h-223v979h-484v-979
z" />
    <glyph glyph-name="fi" unicode="fi" horiz-adv-x="1355" 
d="M485 0h-223v979h-229v186h229v123q0 400 385 400q94 0 158 -25v-176q-59 16 -113 16q-107 0 -157 -55.5t-50 -167.5v-115h328v-186h-328v-979zM1083 1366q-66 0 -107.5 40.5t-41.5 102.5t41.5 102t107.5 40t109 -40t43 -102t-43 -102.5t-109 -40.5zM1196 0h-225v1165h225
v-1165z" />
    <glyph glyph-name="fl" unicode="fl" horiz-adv-x="1355" 
d="M485 0h-223v979h-229v186h229v123q0 400 385 400q94 0 158 -25v-176q-59 16 -113 16q-107 0 -157 -55.5t-50 -167.5v-115h328v-186h-328v-979zM1194 0h-225v1659h225v-1659z" />
    <glyph glyph-name="f_f_i" unicode="ffi" horiz-adv-x="2062" 
d="M485 0h-223v979h-229v186h229v123q0 400 385 400q85 0 164 -27v-174q-59 16 -119 16q-107 0 -157 -55.5t-50 -167.5v-115h484v123q0 203 96 301.5t289 98.5q93 0 157 -25v-176q-62 16 -112 16q-107 0 -157 -55.5t-50 -167.5v-115h328v-186h-328v-979h-223v979h-484v-979z
M1790 1366q-66 0 -109 40.5t-43 102.5t43 102t109 40t107.5 -40t41.5 -102t-41.5 -102.5t-107.5 -40.5zM1903 0h-228v1165h228v-1165z" />
    <glyph glyph-name="f_f_l" unicode="ffl" horiz-adv-x="2060" 
d="M485 0h-223v979h-229v186h229v123q0 400 385 400q85 0 164 -27v-174q-59 16 -119 16q-107 0 -157 -55.5t-50 -167.5v-115h484v123q0 203 96 301.5t289 98.5q93 0 157 -25v-176q-62 16 -112 16q-107 0 -157 -55.5t-50 -167.5v-115h328v-186h-328v-979h-223v979h-484v-979z
M1901 0h-226v1659h226v-1659z" />
    <glyph glyph-name=".notdef" horiz-adv-x="1187" 
 />
    <glyph glyph-name=".null" 
 />
    <glyph glyph-name="nonmarkingreturn" horiz-adv-x="682" 
 />
    <glyph glyph-name="NULL" 
 />
    <glyph glyph-name="CR" unicode="&#xd;" horiz-adv-x="507" 
 />
    <glyph glyph-name="space" unicode=" " horiz-adv-x="507" 
 />
    <glyph glyph-name="exclam" unicode="!" horiz-adv-x="583" 
d="M385 496h-186l-27 1101h240zM293 -16q-74 0 -121 44t-47 113t47.5 113.5t120.5 44.5q72 0 119 -44.5t47 -113.5t-47 -113t-119 -44z" />
    <glyph glyph-name="quotedbl" unicode="&#x22;" horiz-adv-x="788" 
d="M303 1071h-180l-27 526h232zM629 1071h-180l-27 526h231z" />
    <glyph glyph-name="numbersign" unicode="#" horiz-adv-x="1607" 
d="M436 0h-188l92 430h-272v156h305l92 426h-289v153h322l92 432h188l-92 -432h391l92 432h191l-92 -432h270v-153h-303l-92 -426h289v-156h-322l-92 -430h-189l93 430h-394zM653 1012l-92 -426h393l90 426h-391z" />
    <glyph glyph-name="dollar" unicode="$" horiz-adv-x="1273" 
d="M748 -141h-199v147q-203 31 -327.5 157.5t-143.5 319.5h231q18 -114 78.5 -189t161.5 -101v542q-221 68 -319.5 173.5t-98.5 277.5q0 164 113.5 273t304.5 132v148h199v-150q180 -25 288 -136t131 -294h-227q-27 205 -192 252v-504q234 -75 339 -186.5t105 -284.5
q0 -178 -123 -295q-122 -116 -321 -137v-145zM358 1200q0 -83 44 -136.5t147 -94.5v444q-90 -19 -140.5 -76t-50.5 -137zM963 418q0 94 -50 155t-165 105v-494q99 19 157 81t58 153z" />
    <glyph glyph-name="percent" unicode="%" horiz-adv-x="1992" 
d="M467 764q-179 0 -289 119t-110 317q0 196 110 316t289 120q176 0 286.5 -120.5t110.5 -315.5q0 -198 -110.5 -317t-286.5 -119zM530 0h-215l1145 1597h215zM467 924q98 0 151.5 71t53.5 205t-53.5 205.5t-151.5 71.5q-99 0 -153 -71.5t-54 -205.5t54 -205t153 -71z
M1526 -39q-178 0 -289 121t-111 317t111 316.5t289 120.5q179 0 289 -120.5t110 -316.5t-110 -317t-289 -121zM1526 123q99 0 153 70.5t54 205.5q0 134 -54 205.5t-153 71.5q-98 0 -151.5 -71.5t-53.5 -205.5q0 -135 53.5 -205.5t151.5 -70.5z" />
    <glyph glyph-name="ampersand" unicode="&#x26;" horiz-adv-x="1615" 
d="M635 -41q-252 0 -402.5 126.5t-150.5 320.5q0 169 94 280.5t297 190.5q-104 111 -148 199.5t-44 187.5q0 161 124 266.5t326 105.5q205 0 325 -101t120 -267q0 -282 -390 -443l363 -358q47 72 81 173.5t46 207.5h219q-15 -133 -74 -279q-53 -137 -133 -241l330 -328h-275
l-178 178q-112 -112 -241 -165.5t-289 -53.5zM496 1249q0 -75 38 -143t132 -162q156 59 228.5 135t72.5 176q0 92 -64 147.5t-170 55.5q-108 0 -172.5 -58t-64.5 -151zM311 430q0 -129 94.5 -207t249.5 -78q229 0 375 168l-434 437q-151 -59 -218 -135.5t-67 -184.5z" />
    <glyph glyph-name="quotesingle" unicode="'" horiz-adv-x="462" 
d="M322 1071h-181l-26 526h231z" />
    <glyph glyph-name="parenleft" unicode="(" horiz-adv-x="724" 
d="M733 -410h-196q-198 189 -325.5 487.5t-127.5 610.5q0 311 127.5 610t325.5 488h196q-190 -205 -298.5 -495.5t-108.5 -602.5q0 -313 108.5 -603t298.5 -495z" />
    <glyph glyph-name="parenright" unicode=")" horiz-adv-x="724" 
d="M188 -410h-196q190 205 298.5 495t108.5 603q0 312 -108.5 602.5t-298.5 495.5h196q198 -189 325.5 -488t127.5 -610q0 -312 -127.5 -610.5t-325.5 -487.5z" />
    <glyph glyph-name="asterisk" unicode="*" horiz-adv-x="882" 
d="M512 879h-141l14 266l-221 -146l-72 117l234 121l-234 121l72 119l221 -148l-14 268h141l-14 -266l221 146l72 -119l-238 -121l238 -121l-72 -117l-221 144z" />
    <glyph glyph-name="plus" unicode="+" horiz-adv-x="1384" 
d="M801 203h-211v461h-432v190h432v461h211v-461h424v-190h-424v-461z" />
    <glyph glyph-name="comma" unicode="," horiz-adv-x="505" 
d="M205 -360h-168l119 649h237z" />
    <glyph glyph-name="hyphen" unicode="-" horiz-adv-x="1058" 
d="M928 643h-797v207h797v-207z" />
    <glyph glyph-name="period" unicode="." horiz-adv-x="534" 
d="M266 -16q-72 0 -119 44t-47 113t47 113.5t119 44.5q73 0 120.5 -44.5t47.5 -113.5t-47 -113t-121 -44z" />
    <glyph glyph-name="slash" unicode="/" horiz-adv-x="1030" 
d="M256 -297h-205l721 2044h205z" />
    <glyph glyph-name="zero" unicode="0" horiz-adv-x="1460" 
d="M729 -39q-283 0 -454 228t-171 610q0 253 77.5 443t219 292t328.5 102q285 0 456 -227t171 -610q0 -252 -77.5 -442.5t-219.5 -293t-330 -102.5zM729 162q181 0 283 168t102 469q0 304 -102 470.5t-283 166.5q-179 0 -281 -167t-102 -470q0 -300 102.5 -468.5
t280.5 -168.5z" />
    <glyph glyph-name="one" unicode="1" horiz-adv-x="858" 
d="M666 0h-232v1194q-62 -67 -167.5 -123t-219.5 -80v221q171 41 288.5 142.5t158.5 242.5h172v-1597z" />
    <glyph glyph-name="two" unicode="2" horiz-adv-x="1275" 
d="M1174 0h-1082q12 305 134 496t421 358q167 91 230 167t63 183t-75 173.5t-199 66.5q-148 0 -234 -88t-100 -250h-230q22 246 172.5 389.5t395.5 140.5q221 0 357 -121t136 -315q0 -165 -89 -280t-316 -248q-195 -108 -281.5 -217t-105.5 -260h803v-195z" />
    <glyph glyph-name="three" unicode="3" horiz-adv-x="1316" 
d="M676 -39q-258 0 -419 136t-189 368h235q20 -146 118.5 -227.5t248.5 -81.5q149 0 235 80t86 217q0 135 -92 212.5t-250 77.5h-205v187h197q135 0 212 68.5t77 191.5q0 116 -71.5 185t-192.5 69q-127 0 -210 -73.5t-100 -201.5h-231q32 212 172.5 339.5t374.5 127.5
q213 0 347 -118.5t134 -307.5q0 -126 -66 -220t-186 -142q147 -42 231.5 -153t84.5 -255q0 -213 -149.5 -346t-391.5 -133z" />
    <glyph glyph-name="four" unicode="4" horiz-adv-x="1323" 
d="M1049 0h-224v399h-780v209l762 989h242v-1003h192v-195h-192v-399zM825 1337l-563 -743h563v743z" />
    <glyph glyph-name="five" unicode="5" horiz-adv-x="1347" 
d="M694 -41q-260 0 -423 138t-201 368h235q27 -141 129 -225t254 -84q159 0 254.5 102t95.5 268q0 159 -97.5 258t-256.5 99q-99 0 -180 -43t-131 -121h-240l127 878h883v-194h-692l-74 -506q59 79 156.5 121.5t211.5 42.5q230 0 376.5 -146.5t146.5 -375.5
q0 -253 -160 -416.5t-414 -163.5z" />
    <glyph glyph-name="six" unicode="6" horiz-adv-x="1388" 
d="M723 -39q-289 0 -451.5 198.5t-162.5 557.5q0 447 161.5 683t477.5 236q214 0 350.5 -121.5t167.5 -340.5h-232q-20 129 -97 199.5t-196 70.5q-104 0 -181 -46t-124 -134t-71 -208t-27 -278q56 119 170 187.5t260 68.5q224 0 370 -147.5t146 -374.5q0 -240 -158 -395.5
t-403 -155.5zM715 152q153 0 247.5 97t94.5 255q0 156 -96 255t-244 99q-150 0 -248 -99t-98 -255q0 -155 96.5 -253.5t247.5 -98.5z" />
    <glyph glyph-name="seven" unicode="7" horiz-adv-x="1185" 
d="M481 0h-245q88 368 247 752.5t330 650.5h-772v194h1130v-6q-472 -715 -690 -1591z" />
    <glyph glyph-name="eight" unicode="8" horiz-adv-x="1353" 
d="M678 -39q-260 0 -421 129.5t-161 343.5q0 148 90 260.5t240 157.5q-119 44 -184.5 138.5t-65.5 223.5q0 188 138 305t364 117q224 0 362 -117t138 -305q0 -128 -66 -222.5t-184 -139.5q149 -45 239 -157.5t90 -260.5q0 -214 -160.5 -343.5t-418.5 -129.5zM678 928
q129 0 207.5 72.5t77.5 193.5q0 118 -78.5 189t-206.5 71t-207.5 -71t-79.5 -189q-1 -120 78.5 -193t208.5 -73zM678 147q164 0 258 83t94 225q0 136 -97 219.5t-255 83.5q-160 0 -257 -83t-97 -220q0 -141 95 -224.5t259 -83.5z" />
    <glyph glyph-name="nine" unicode="9" horiz-adv-x="1386" 
d="M684 -37q-231 0 -379 123.5t-180 339.5h229q25 -127 111.5 -197.5t214.5 -70.5q369 0 369 667q-55 -116 -166 -180.5t-254 -64.5q-229 0 -377 145t-148 373q0 238 159.5 389t406.5 151q286 0 447 -199.5t161 -551.5q0 -458 -150 -691t-444 -233zM676 756q148 0 244 97.5
t96 250.5q0 155 -94 250.5t-244 95.5q-153 0 -248.5 -95.5t-95.5 -252.5q0 -153 96.5 -249.5t245.5 -96.5z" />
    <glyph glyph-name="colon" unicode=":" horiz-adv-x="583" 
d="M291 -16q-72 0 -119 44t-47 113t47 113.5t119 44.5q73 0 120.5 -44.5t47.5 -113.5t-47 -113t-121 -44zM291 850q-72 0 -119 44.5t-47 113.5t47 113t119 44q74 0 121 -44t47 -113t-47.5 -113.5t-120.5 -44.5z" />
    <glyph glyph-name="semicolon" unicode=";" horiz-adv-x="638" 
d="M242 -360h-168l119 649h237zM358 850q-72 0 -118.5 44.5t-46.5 113.5t46.5 113t118.5 44q74 0 121 -44t47 -113t-47.5 -113.5t-120.5 -44.5z" />
    <glyph glyph-name="less" unicode="&#x3c;" horiz-adv-x="1384" 
d="M1130 373v-221l-925 602l925 602v-219l-595 -383z" />
    <glyph glyph-name="equal" unicode="=" horiz-adv-x="1384" 
d="M1196 905h-1010v189h1010v-189zM1196 426h-1010v188h1010v-188z" />
    <glyph glyph-name="greater" unicode="&#x3e;" horiz-adv-x="1384" 
d="M262 152v221l596 381l-596 383v219l926 -602z" />
    <glyph glyph-name="question" unicode="?" horiz-adv-x="1138" 
d="M631 514h-207v78q0 125 50.5 212t182.5 177q107 74 146 128t39 128q0 100 -66 159.5t-178 59.5q-131 0 -210.5 -71.5t-104.5 -204.5h-224q35 213 179 333q144 123 360 123q201 0 329 -109.5t128 -281.5q0 -122 -57 -209.5t-210 -191.5q-95 -67 -126 -121t-31 -141v-68z
M537 -16q-72 0 -120 44t-48 113t48 113.5t120 44.5t118.5 -44.5t46.5 -113.5t-46.5 -113t-118.5 -44z" />
    <glyph glyph-name="at" unicode="@" horiz-adv-x="2131" 
d="M1075 -385q-213 0 -397.5 72t-315.5 198.5t-205.5 307t-74.5 389.5q0 206 77 386.5t211 308t320.5 200.5t399.5 73q206 0 383 -67.5t301.5 -186t195 -284.5t70.5 -357q0 -253 -105 -415t-268 -162q-88 0 -135.5 33t-79.5 90q-21 41 -41 41q-14 0 -41 -29
q-65 -71 -147.5 -106t-196.5 -35q-200 0 -336.5 143t-136.5 356q0 217 136 358.5t337 141.5q202 0 324 -131q28 -25 41 -25q18 0 24 35q10 42 10 92h148v-686q0 -149 115 -149q102 0 162.5 122.5t60.5 327.5q0 166 -60.5 310.5t-167.5 247t-259 161t-328 58.5
q-254 0 -454 -110t-310.5 -304t-110.5 -438q0 -184 64 -342.5t176 -270t271 -174.5t343 -63q157 0 304.5 43t248.5 121v-123q-102 -74 -250 -116t-303 -42zM1069 236q141 0 228 93.5t87 241.5q0 149 -87 241.5t-228 92.5q-140 0 -229 -92q-88 -91 -88 -242q0 -147 88 -241
t229 -94z" />
    <glyph glyph-name="A" unicode="A" horiz-adv-x="1538" 
d="M272 0h-262l590 1597h338l590 -1597h-273l-147 410h-686zM764 1409l-287 -811h574z" />
    <glyph glyph-name="B" unicode="B" horiz-adv-x="1480" 
d="M852 0h-682v1597h641q241 0 369.5 -109.5t128.5 -303.5q0 -122 -62 -209.5t-180 -128.5q148 -42 225.5 -144t77.5 -251q0 -217 -133 -334t-385 -117zM416 1403v-483h358q143 0 218 61.5t75 179.5q0 117 -73.5 179.5t-217.5 62.5h-360zM414 727v-532h405q149 0 227 69
t78 197q0 129 -79.5 197.5t-227.5 68.5h-403z" />
    <glyph glyph-name="C" unicode="C" horiz-adv-x="1806" 
d="M932 -41q-183 0 -341 64t-268.5 175.5t-173.5 267t-63 333.5q0 179 63 334.5t173.5 266.5t268.5 174.5t341 63.5q326 0 541.5 -177t265.5 -476h-260q-37 205 -181 322.5t-360 117.5q-264 0 -427 -173t-163 -453q0 -279 163.5 -453t426.5 -174q216 0 360 118t181 322h260
q-50 -298 -266 -475.5t-541 -177.5z" />
    <glyph glyph-name="D" unicode="D" horiz-adv-x="1720" 
d="M801 0h-615v1597h615q247 0 435.5 -99t292 -280.5t103.5 -418.5q0 -236 -103.5 -417.5t-292.5 -281.5t-435 -100zM436 1395v-1192h350q273 0 428.5 158.5t155.5 437.5q0 276 -155.5 436t-428.5 160h-350z" />
    <glyph glyph-name="E" unicode="E" horiz-adv-x="1341" 
d="M1272 0h-1086v1597h1045v-204h-799v-484h694v-198h-694v-506h840v-205z" />
    <glyph glyph-name="F" unicode="F" horiz-adv-x="1241" 
d="M432 0h-246v1597h1002v-202h-756v-514h678v-203h-678v-678z" />
    <glyph glyph-name="G" unicode="G" horiz-adv-x="1835" 
d="M895 -37q-172 0 -320.5 60.5t-256 168t-169 264t-61.5 341.5q0 244 109 436t302.5 297.5t438.5 105.5q312 0 526.5 -159.5t266.5 -436.5h-265q-44 183 -181 283t-341 100q-261 0 -427.5 -169.5t-166.5 -450.5q0 -282 161 -456.5t425 -174.5q323 0 465 266q67 129 84 324
h229v-762h-174q-2 20 -5.5 69.5t-6 80.5t-6.5 49q-9 51 -35 51q-22 0 -49 -37q-90 -118 -229 -184t-314 -66z" />
    <glyph glyph-name="H" unicode="H" horiz-adv-x="1683" 
d="M436 0h-250v1597h250v-688h813v688h248v-1597h-248v707h-813v-707z" />
    <glyph glyph-name="I" unicode="I" horiz-adv-x="622" 
d="M436 0h-250v1597h250v-1597z" />
    <glyph glyph-name="J" unicode="J" horiz-adv-x="1439" 
d="M678 -41q-263 0 -436.5 151t-214.5 420h256q31 -178 132 -271t265 -93q342 0 342 397v1034h248v-1030q0 -287 -153.5 -447.5t-438.5 -160.5z" />
    <glyph glyph-name="K" unicode="K" horiz-adv-x="1460" 
d="M436 0h-250v1597h250v-774l723 774h297l-733 -778l764 -819h-328l-723 786v-786z" />
    <glyph glyph-name="L" unicode="L" horiz-adv-x="1222" 
d="M1194 0h-1008v1597h250v-1392h758v-205z" />
    <glyph glyph-name="M" unicode="M" horiz-adv-x="2058" 
d="M414 0h-228v1597h349l499 -1298l496 1298h342v-1597h-238v1325l-501 -1325h-218l-501 1325v-1325z" />
    <glyph glyph-name="N" unicode="N" horiz-adv-x="1716" 
d="M422 0h-236v1597h281l829 -1267v1267h236v-1597h-281l-829 1268v-1268z" />
    <glyph glyph-name="O" unicode="O" horiz-adv-x="1878" 
d="M940 -39q-247 0 -442.5 108.5t-303.5 299.5t-108 430q0 180 63.5 335t175 265.5t271 173.5t344.5 63q186 0 345 -63t270.5 -173.5t174 -265.5t62.5 -335q0 -239 -107 -430t-302 -299.5t-443 -108.5zM940 174q264 0 428 173.5t164 451.5t-164 451t-428 173
q-263 0 -427.5 -173t-164.5 -451t164.5 -451.5t427.5 -173.5z" />
    <glyph glyph-name="P" unicode="P" horiz-adv-x="1406" 
d="M434 0h-248v1597h617q261 0 405 -135.5t144 -369.5q0 -236 -144 -371t-407 -135h-367v-586zM434 1399v-619h346q157 0 240.5 80.5t83.5 229.5q0 150 -83 229.5t-241 79.5h-346z" />
    <glyph glyph-name="Q" unicode="Q" horiz-adv-x="1888" 
d="M940 -39q-247 0 -442.5 108.5t-303.5 299.5t-108 430q0 180 63.5 335t175 265.5t271 173.5t344.5 63q186 0 345 -63t270.5 -173.5t174 -265.5t62.5 -335q0 -182 -62 -336.5t-178 -265.5l181 -236h-269l-82 109q-195 -109 -442 -109zM940 170q169 0 307 78l-346 454h268
l238 -315q129 163 129 412q0 281 -166 453.5t-430 172.5q-265 0 -430.5 -172.5t-165.5 -453.5q0 -282 165.5 -455.5t430.5 -173.5z" />
    <glyph glyph-name="R" unicode="R" horiz-adv-x="1521" 
d="M432 0h-246v1597h680q251 0 385.5 -112.5t134.5 -323.5q0 -142 -73.5 -244t-210.5 -143q109 -17 160.5 -80.5t70.5 -201.5l43 -330q7 -57 23 -102t31 -60h-254q-34 24 -46 127l-36 330q-14 123 -67 169t-185 46h-410v-672zM432 1401v-545h397q310 0 310 270
q0 275 -301 275h-406z" />
    <glyph glyph-name="S" unicode="S" horiz-adv-x="1343" 
d="M694 -41q-266 0 -438.5 143.5t-194.5 378.5h244q23 -155 128 -241t269 -86q140 0 226 69.5t86 179.5q0 127 -81.5 194.5t-283.5 113.5q-271 66 -389.5 178t-118.5 303q0 200 145.5 322t387.5 122q237 0 380 -121.5t169 -338.5h-240q-19 129 -97.5 199.5t-211.5 70.5
q-130 0 -208.5 -65t-78.5 -175q0 -104 67 -165.5t232 -102.5q304 -73 439 -191.5t135 -324.5q0 -207 -157.5 -335t-408.5 -128z" />
    <glyph glyph-name="T" unicode="T" horiz-adv-x="1337" 
d="M795 0h-250v1393h-518v204h1284v-204h-516v-1393z" />
    <glyph glyph-name="U" unicode="U" horiz-adv-x="1654" 
d="M827 -41q-303 0 -481 166.5t-178 482.5v989h250v-999q0 -212 105.5 -321t303.5 -109t304 109t106 321v999h250v-989q0 -212 -83 -359.5t-229.5 -218.5t-347.5 -71z" />
    <glyph glyph-name="V" unicode="V" horiz-adv-x="1533" 
d="M928 0h-310l-616 1597h277l505 -1355l484 1355h250z" />
    <glyph glyph-name="W" unicode="W" horiz-adv-x="2267" 
d="M782 0h-288l-474 1597h254l373 -1329l357 1329h274l358 -1331l375 1331h240l-479 -1597h-285l-352 1329z" />
    <glyph glyph-name="X" unicode="X" horiz-adv-x="1423" 
d="M287 0h-281l549 801l-549 796h297l416 -628l414 628h274l-539 -788l555 -809h-297l-417 639z" />
    <glyph glyph-name="Y" unicode="Y" horiz-adv-x="1437" 
d="M842 0h-244v645l-592 952h281l444 -735l430 735h260l-579 -952v-645z" />
    <glyph glyph-name="Z" unicode="Z" horiz-adv-x="1294" 
d="M1223 0h-1205v4l873 1391h-815v202h1204v-6l-872 -1388h815v-203z" />
    <glyph glyph-name="bracketleft" unicode="[" horiz-adv-x="753" 
d="M715 -410h-533v2196h533v-164h-330v-1870h330v-162z" />
    <glyph glyph-name="backslash" unicode="\" horiz-adv-x="1030" 
d="M979 -297h-205l-721 2044h205z" />
    <glyph glyph-name="bracketright" unicode="]" horiz-adv-x="753" 
d="M571 -410h-532v162h330v1870h-330v164h532v-2196z" />
    <glyph glyph-name="asciicircum" unicode="^" horiz-adv-x="1384" 
d="M348 809h-207l453 788h194l455 -788h-213l-342 625z" />
    <glyph glyph-name="underscore" unicode="_" horiz-adv-x="1228" 
d="M1229 -367h-1229v183h1229v-183z" />
    <glyph glyph-name="grave" unicode="`" horiz-adv-x="591" 
d="M543 1313h-189l-303 434h260z" />
    <glyph glyph-name="a" unicode="a" horiz-adv-x="1271" 
d="M524 -37q-202 0 -323 100q-121 103 -121 269q0 165 114.5 253t350.5 107q249 17 366 45v4q0 135 -70 209t-200 74q-117 0 -193.5 -53.5t-101.5 -147.5h-233q34 169 174 275q138 106 352 106q237 0 365.5 -123.5t128.5 -351.5v-729h-170q-4 91 -15 127q-6 35 -24 35
q-15 0 -37 -31q-120 -168 -363 -168zM309 336q0 -91 68 -144t184 -53q218 0 295 168q55 113 55 258v8q-87 -25 -340 -49q-140 -12 -201 -56t-61 -132z" />
    <glyph glyph-name="b" unicode="b" horiz-adv-x="1488" 
d="M821 -37q-256 0 -407 178q-26 33 -47 33q-23 0 -29 -45q-7 -48 -12 -129h-168v1659h225v-596q0 -35 20 -35q12 0 25 16q65 74 164 116t223 42q170 0 306.5 -79.5t214 -221.5t77.5 -319q0 -175 -78 -317t-213.5 -222t-300.5 -80zM776 160q179 0 291.5 117.5t112.5 306.5
q0 186 -113 305t-291 119q-177 0 -289 -119t-112 -305q0 -189 112 -306.5t289 -117.5z" />
    <glyph glyph-name="c" unicode="c" horiz-adv-x="1355" 
d="M700 -39q-273 0 -448.5 175.5t-175.5 447.5q0 273 175 446.5t449 173.5q247 0 402 -131q158 -133 192 -350h-229q-26 132 -122 209.5t-236 77.5q-178 0 -289 -118.5t-111 -307.5q0 -188 111 -307t289 -119q141 0 236.5 76t121.5 210h229q-34 -220 -194 -351.5
t-400 -131.5z" />
    <glyph glyph-name="d" unicode="d" horiz-adv-x="1488" 
d="M668 -37q-164 0 -299.5 80t-214 222t-78.5 317q0 177 77.5 319t214 221.5t306.5 79.5q124 0 223 -42t164 -116q13 -16 24 -16q21 0 21 35v596h225v-1659h-168q0 70 -12 129q-6 45 -29 45q-21 0 -47 -33q-151 -178 -407 -178zM713 160q177 0 289 117.5t112 306.5
q0 186 -112 305t-289 119q-178 0 -291 -119t-113 -305q0 -189 112.5 -306.5t291.5 -117.5z" />
    <glyph glyph-name="e" unicode="e" horiz-adv-x="1349" 
d="M690 -37q-274 0 -443 171.5t-169 449.5q0 178 80 320t217.5 221t306.5 79q137 0 249 -45t186.5 -124.5t114.5 -186.5t40 -232q0 -41 -6 -110h-957q12 -165 114.5 -263t266.5 -98q124 0 214.5 57t119.5 154h229q-42 -177 -194 -286q-149 -107 -369 -107zM688 1024
q-155 0 -257.5 -93t-119.5 -251h740q-6 154 -107 249t-256 95z" />
    <glyph glyph-name="f" unicode="f" horiz-adv-x="829" 
d="M485 0h-223v979h-229v186h229v123q0 200 97.5 300t287.5 100q105 0 189 -31v-176q-71 22 -142 22q-108 0 -158.5 -56t-50.5 -167v-115h328v-186h-328v-979z" />
    <glyph glyph-name="g" unicode="g" horiz-adv-x="1449" 
d="M719 -514q-237 0 -394 118t-208 312h231q32 -118 132.5 -186t238.5 -68q172 0 265 91.5t93 258.5v142q0 32 -20 32q-10 0 -31 -18q-63 -69 -159 -107t-208 -38q-166 0 -298.5 75.5t-206.5 209t-74 300.5q0 129 44.5 240.5t120.5 188.5t180.5 121t221.5 44q240 0 393 -170
q28 -31 47 -31q23 0 29 46q5 25 12 118h168v-1145q0 -248 -156 -391t-421 -143zM696 211q171 0 278 110t107 287q0 176 -107 288t-278 112q-169 0 -277 -112.5t-108 -287.5t108 -286t277 -111z" />
    <glyph glyph-name="h" unicode="h" horiz-adv-x="1380" 
d="M383 0h-225v1659h225v-625q0 -33 20 -33q16 0 37 29q131 174 365 174q205 0 319.5 -128.5t114.5 -362.5v-713h-225v686q0 154 -68 236t-196 82q-178 0 -273 -136q-94 -131 -94 -379v-489z" />
    <glyph glyph-name="i" unicode="i" horiz-adv-x="544" 
d="M272 1366q-66 0 -107.5 40.5t-41.5 102.5t41.5 102t107.5 40t109 -40t43 -102t-43 -102.5t-109 -40.5zM385 0h-225v1165h225v-1165z" />
    <glyph glyph-name="j" unicode="j" horiz-adv-x="544" 
d="M272 1366q-66 0 -107.5 40.5t-41.5 102.5t41.5 102t107.5 40t109 -40t43 -102t-43 -102.5t-109 -40.5zM385 -487h-225v1652h225v-1652z" />
    <glyph glyph-name="k" unicode="k" horiz-adv-x="1200" 
d="M383 0h-225v1659h225v-1059l526 565h285l-543 -569l574 -596h-305l-537 567v-567z" />
    <glyph glyph-name="l" unicode="l" horiz-adv-x="544" 
d="M385 0h-225v1659h225v-1659z" />
    <glyph glyph-name="m" unicode="m" horiz-adv-x="2136" 
d="M383 0h-225v1165h166q5 -92 12 -129q6 -31 13.5 -43t21.5 -12q11 0 18.5 5.5t20.5 23.5q140 194 358 194q128 0 212.5 -49.5t135.5 -153.5q23 -45 45 -45q11 0 19 7t28 30q73 109 163 160t208 51q196 0 306 -126.5t110 -352.5v-725h-226v690q0 152 -64 234t-181 82
q-155 0 -246 -142q-88 -128 -88 -370v-494h-227v690q0 152 -63.5 234t-180.5 82q-157 0 -248 -142q-88 -128 -88 -370v-494z" />
    <glyph glyph-name="n" unicode="n" horiz-adv-x="1380" 
d="M383 0h-225v1165h166q5 -95 12 -131q9 -53 35 -53q19 0 39 31q137 192 387 192q211 0 326.5 -128t115.5 -361v-715h-225v686q0 154 -68 236t-196 82q-178 0 -273 -136q-94 -131 -94 -379v-489z" />
    <glyph glyph-name="o" unicode="o" horiz-adv-x="1425" 
d="M713 -39q-136 0 -254.5 47.5t-202.5 129.5t-132 198t-48 248q0 178 82 319.5t227.5 221t327.5 79.5t328 -79.5t228.5 -221t82.5 -319.5q0 -132 -48.5 -248t-132.5 -198t-203 -129.5t-255 -47.5zM713 158q181 0 293 119t112 307t-112 307t-293 119q-180 0 -293 -119
t-113 -307t113 -307t293 -119z" />
    <glyph glyph-name="p" unicode="p" horiz-adv-x="1488" 
d="M821 1202q124 0 233.5 -46.5t188 -127.5t124.5 -196.5t46 -247.5t-45.5 -247t-124.5 -197t-190 -129.5t-238 -47.5q-124 0 -223 42t-164 118q-11 14 -25 14q-20 0 -20 -33v-602h-225v1663h168q5 -80 12 -129q6 -45 29 -45q20 0 47 35q150 176 407 176zM776 1008
q-177 0 -289 -119t-112 -305q0 -189 112 -306.5t289 -117.5q179 0 291.5 117.5t112.5 306.5q0 186 -113 305t-291 119z" />
    <glyph glyph-name="q" unicode="q" horiz-adv-x="1488" 
d="M668 1202q257 0 407 -176q27 -35 47 -35q23 0 29 45q12 61 12 129h168v-1663h-225v602q0 33 -21 33q-13 0 -24 -14q-65 -76 -164 -118t-223 -42q-127 0 -238 47.5t-190 129.5t-124.5 197t-45.5 247q0 176 78.5 318t214 221t299.5 79zM713 1008q-178 0 -291 -119
t-113 -305q0 -189 112.5 -306.5t291.5 -117.5q177 0 289 117.5t112 306.5q0 186 -112 305t-289 119z" />
    <glyph glyph-name="r" unicode="r" horiz-adv-x="1021" 
d="M383 0h-225v1165h164q4 -52 14 -106q6 -45 31 -45q19 0 41 30q48 71 120 110.5t158 39.5q148 0 230.5 -98.5t80.5 -272.5q0 -25 -2 -41h-204q0 4 1 15t1 16q0 88 -41 139.5t-117 51.5q-137 0 -205 -150q-47 -103 -47 -285v-569z" />
    <glyph glyph-name="s" unicode="s" horiz-adv-x="1130" 
d="M588 -39q-221 0 -359.5 101.5t-167.5 281.5h232q18 -99 93.5 -154t203.5 -55q110 0 178 46.5t68 121.5q0 80 -60 122t-223 69q-235 43 -334.5 127t-99.5 239q0 153 122 248.5t318 95.5q209 0 330 -94.5t141 -271.5h-221q-19 99 -78 145.5t-168 46.5q-103 0 -164 -42.5
t-61 -115.5q0 -74 56.5 -113.5t197.5 -64.5q261 -46 362 -128t101 -249q0 -156 -131 -256t-336 -100z" />
    <glyph glyph-name="t" unicode="t" horiz-adv-x="868" 
d="M637 -14q-195 0 -288 96.5t-93 308.5v588h-231v186h131q64 0 95.5 23t43.5 74q23 149 29 247h155v-344h326v-186h-326v-567q0 -130 46.5 -186t158.5 -56q82 0 143 20v-176q-72 -28 -190 -28z" />
    <glyph glyph-name="u" unicode="u" horiz-adv-x="1374" 
d="M592 -39q-216 0 -333.5 128.5t-117.5 363.5v712h226v-684q0 -154 70 -236.5t200 -82.5q175 0 264 127q92 128 92 358v518h226v-1165h-168q0 62 -11 123q-9 51 -34 51q-10 0 -16.5 -5t-24.5 -26q-133 -182 -373 -182z" />
    <glyph glyph-name="v" unicode="v" horiz-adv-x="1259" 
d="M760 0h-254l-498 1165h254l377 -936l367 936h239z" />
    <glyph glyph-name="w" unicode="w" horiz-adv-x="1816" 
d="M653 0h-239l-396 1165h246l283 -899l258 899h227l258 -899l285 899h223l-393 -1165h-238l-256 889z" />
    <glyph glyph-name="x" unicode="x" horiz-adv-x="1159" 
d="M260 0h-250l424 584l-424 581h275l303 -434l305 434h248l-416 -573l428 -592h-272l-310 440z" />
    <glyph glyph-name="y" unicode="y" horiz-adv-x="1239" 
d="M528 -498h-233l211 498l-496 1165h254l369 -913l360 913h236z" />
    <glyph glyph-name="z" unicode="z" horiz-adv-x="1101" 
d="M1036 0h-1001v4l670 975h-637v186h1003v-4l-674 -981h639v-180z" />
    <glyph glyph-name="braceleft" unicode="{" horiz-adv-x="729" 
d="M672 -266v-154q-229 11 -352 102.5t-123 260.5q0 86 43 267.5t43 235.5q0 115 -90 150q-52 18 -136 18v152q89 3 136 20q90 35 90 150q0 52 -43 235t-43 269q0 170 123 261t352 99v-151q-273 -20 -273 -224q0 -73 42 -254.5t42 -238.5q0 -190 -180 -242q180 -49 180 -239
q0 -56 -42 -240t-42 -254q0 -203 273 -223z" />
    <glyph glyph-name="bar" unicode="|" horiz-adv-x="569" 
d="M387 -369h-205v2116h205v-2116z" />
    <glyph glyph-name="braceright" unicode="}" horiz-adv-x="729" 
d="M57 -420v154q273 20 273 223q0 70 -42 254t-42 240q0 190 180 239q-180 52 -180 242q0 57 42 238.5t42 254.5q0 204 -273 224v151q229 -8 352 -99t123 -261q0 -86 -43 -269t-43 -235q0 -115 91 -150q47 -17 135 -20v-152q-82 0 -135 -18q-91 -35 -91 -150
q0 -54 43 -235.5t43 -267.5q0 -169 -123 -260.5t-352 -102.5z" />
    <glyph glyph-name="asciitilde" unicode="~" horiz-adv-x="1384" 
d="M920 629q-63 0 -131.5 26.5t-118 58.5t-106.5 58.5t-99 26.5q-113 0 -143 -150h-156q19 151 99.5 242.5t205.5 91.5q65 0 134 -26.5t117.5 -58.5t105 -58.5t100.5 -26.5q111 0 141 150h158q-21 -152 -101.5 -243t-205.5 -91z" />
    <glyph glyph-name="uni00A0" unicode="&#xa0;" horiz-adv-x="507" 
 />
    <glyph glyph-name="exclamdown" unicode="&#xa1;" horiz-adv-x="557" 
d="M186 694h187l26 -1102h-239zM281 1206q72 0 118.5 -44t46.5 -113t-46.5 -113.5t-118.5 -44.5q-73 0 -120.5 44.5t-47.5 113.5t47 113t121 44z" />
    <glyph glyph-name="cent" unicode="&#xa2;" horiz-adv-x="1380" 
d="M788 0h-172v182q-239 31 -385.5 200t-146.5 417t146.5 416.5t385.5 199.5v182h172v-182q209 -20 345 -147.5t167 -329.5h-219q-23 118 -100 194t-193 95v-856q116 19 193 95.5t100 195.5h219q-31 -201 -167 -329t-345 -151v-182zM303 799q0 -165 85 -279t228 -145v848
q-143 -29 -228 -144t-85 -280z" />
    <glyph glyph-name="sterling" unicode="&#xa3;" horiz-adv-x="1323" 
d="M1217 0h-1137v4q124 138 176.5 262.5t52.5 259.5q0 102 -20 183h-193v141h160q-2 6 -5 19q-44 169 -49 262l-1 38q0 210 143 338.5t371 128.5q233 0 372 -129t156 -354h-233q-12 140 -85.5 215.5t-201.5 75.5q-130 0 -207.5 -76t-77.5 -201q0 -29 3 -58.5t10 -66
t12.5 -59t17 -69t15.5 -64.5h526v-141h-498q15 -96 15 -160q0 -195 -142 -352h820v-197z" />
    <glyph glyph-name="currency" unicode="&#xa4;" horiz-adv-x="1449" 
d="M418 369l-185 -187l-124 119l178 182q-115 143 -115 342q0 202 115 342l-178 185l124 118l185 -188q128 84 307 84q181 0 309 -84l183 188l126 -118l-180 -183q117 -145 117 -344q0 -197 -117 -342l180 -182l-126 -119l-183 187q-141 -82 -309 -82q-172 0 -307 82z
M725 477q148 0 241 98t93 250q0 154 -92.5 251.5t-241.5 97.5q-147 0 -239.5 -97.5t-92.5 -251.5q0 -152 92.5 -250t239.5 -98z" />
    <glyph glyph-name="yen" unicode="&#xa5;" horiz-adv-x="1454" 
d="M616 348h-401v131h401v150h-401v131h338l-498 837h264l422 -743l410 743h246l-486 -837h338v-131h-399v-150h399v-131h-399v-348h-234v348z" />
    <glyph glyph-name="brokenbar" unicode="&#xa6;" horiz-adv-x="569" 
d="M387 877h-205v870h205v-870zM387 -369h-205v871h205v-871z" />
    <glyph glyph-name="section" unicode="&#xa7;" horiz-adv-x="1214" 
d="M618 -256q-218 0 -352 106t-164 293h232q18 -106 91.5 -167.5t197.5 -61.5q103 0 165 48t62 128q0 86 -55 127t-222 78q-263 59 -370 146t-107 247q0 105 63 189t173 129q-90 49 -129 116.5t-39 171.5q0 158 119 254.5t313 96.5q200 0 317 -96.5t142 -276.5h-226
q-18 102 -73.5 152.5t-159.5 50.5q-97 0 -153 -45.5t-56 -124.5q0 -88 55 -130.5t211 -76.5q260 -55 367.5 -143.5t107.5 -243.5q0 -105 -62.5 -187.5t-174.5 -130.5q99 -47 140.5 -114.5t41.5 -174.5q0 -157 -128 -258.5t-327 -101.5zM612 481l72 -16q105 20 162 76.5
t57 140.5q0 91 -67 142t-230 87l-84 23q-97 -23 -148.5 -79t-51.5 -138q0 -93 65 -146t225 -90z" />
    <glyph glyph-name="dieresis" unicode="&#xa8;" horiz-adv-x="878" 
d="M690 1335q-62 0 -100.5 38t-38.5 95q0 58 38.5 96t100.5 38q61 0 100 -38t39 -96q0 -56 -39 -94.5t-100 -38.5zM188 1335q-60 0 -98.5 38.5t-38.5 94.5q0 58 38 96t99 38q65 0 103.5 -38t38.5 -96q0 -57 -39 -95t-103 -38z" />
    <glyph glyph-name="copyright" unicode="&#xa9;" horiz-adv-x="1871" 
d="M936 -35q-177 0 -334 64t-269 174.5t-177.5 266t-65.5 331.5q0 234 111 425t305 299.5t430 108.5t430 -108.5t305 -299.5t111 -425q0 -176 -65.5 -331.5t-177.5 -266t-269 -174.5t-334 -64zM936 88q147 0 277.5 54.5t224 149t148 227t54.5 282.5q0 198 -92.5 361
t-254 256t-357.5 93t-357.5 -93t-254.5 -256t-93 -361q0 -200 93 -363.5t254.5 -256.5t357.5 -93zM948 319q-210 0 -348.5 135.5t-138.5 346.5q0 208 138.5 343.5t348.5 135.5q191 0 315 -102.5t150 -280.5h-207q-17 95 -84.5 151t-169.5 56q-127 0 -203.5 -84t-76.5 -219
q0 -136 76.5 -220.5t203.5 -84.5q102 0 169.5 54.5t84.5 149.5h207q-27 -174 -150 -277.5t-315 -103.5z" />
    <glyph glyph-name="ordfeminine" unicode="&#xaa;" horiz-adv-x="1118" 
d="M467 633q-161 0 -259.5 80.5t-98.5 214.5q0 262 378 286q222 14 295 35v8q0 103 -56 159.5t-159 56.5q-89 0 -149 -42.5t-78 -113.5h-205q30 139 146 224t286 85q195 0 300.5 -98t105.5 -281v-585h-148q0 64 -10 106q-6 27 -20 27q-7 0 -12 -3.5t-7.5 -7.5t-9.5 -14
q-101 -137 -299 -137zM311 936q0 -72 55 -114t144 -42q164 0 229 129q43 81 43 199v12q-66 -22 -268 -37q-106 -11 -154.5 -45.5t-48.5 -101.5zM973 365h-813v149h813v-149z" />
    <glyph glyph-name="guillemotleft" unicode="&#xab;" horiz-adv-x="1206" 
d="M952 141l-387 465l387 465h211l-354 -465l354 -465h-211zM506 141l-387 465l387 465h211l-355 -465l355 -465h-211z" />
    <glyph glyph-name="logicalnot" unicode="&#xac;" horiz-adv-x="1384" 
d="M143 905v189h1067v-602h-194v413h-873z" />
    <glyph glyph-name="uni00AD" unicode="&#xad;" horiz-adv-x="1058" 
d="M928 643h-797v207h797v-207z" />
    <glyph glyph-name="registered" unicode="&#xae;" horiz-adv-x="1150" 
d="M575 666q-211 0 -350 138.5t-139 346.5q0 211 138.5 349t350.5 138q211 0 350.5 -138.5t139.5 -348.5q0 -207 -140 -346t-350 -139zM575 756q166 0 276 112.5t110 282.5q0 171 -110 284t-276 113t-276.5 -113t-110.5 -284q0 -170 110.5 -282.5t276.5 -112.5zM510 905
h-131v496h250q82 0 127 -36t45 -103q0 -44 -25 -76.5t-71 -42.5q35 -6 53 -27t24 -65l15 -82q6 -46 20 -64h-135q-15 12 -18 49l-11 72q-4 36 -17 47.5t-46 11.5h-80v-180zM510 1298v-116h86q70 0 70 57q0 59 -70 59h-86z" />
    <glyph glyph-name="macron" unicode="&#xaf;" horiz-adv-x="778" 
d="M733 1370h-688v162h688v-162z" />
    <glyph glyph-name="degree" unicode="&#xb0;" horiz-adv-x="847" 
d="M424 975q-150 0 -247 93t-97 237q0 143 97.5 236t246.5 93q150 0 247 -93t97 -236q0 -145 -96.5 -237.5t-247.5 -92.5zM424 1120q79 0 130.5 52.5t51.5 132.5t-51.5 132t-130.5 52t-130.5 -52t-51.5 -132t51.5 -132.5t130.5 -52.5z" />
    <glyph glyph-name="plusminus" unicode="&#xb1;" horiz-adv-x="1384" 
d="M801 240h-211v442h-432v190h432v463h211v-463h424v-190h-424v-442zM1227 0h-1069v188h1069v-188z" />
    <glyph glyph-name="twosuperior" unicode="&#xb2;" horiz-adv-x="811" 
d="M719 1014h-633q3 162 69 266t246 201q82 45 114 78t32 75q0 47 -34.5 75t-90.5 28q-146 0 -158 -154h-178q13 139 102.5 219t229.5 80t219.5 -69.5t79.5 -180.5q0 -86 -51 -148.5t-179 -131.5q-94 -53 -134 -96t-48 -95h414v-147z" />
    <glyph glyph-name="threesuperior" unicode="&#xb3;" horiz-adv-x="831" 
d="M428 993q-152 0 -246.5 73.5t-107.5 203.5h178q10 -65 55.5 -99t118.5 -34q69 0 109 32t40 88q0 57 -43 90t-118 33h-117v138h111q67 0 104 29.5t37 84.5q0 47 -34 76t-91 29q-65 0 -102.5 -33.5t-45.5 -89.5h-178q21 127 104.5 197.5t223.5 70.5q130 0 210.5 -64
t80.5 -167q0 -139 -144 -195q82 -19 128.5 -74t46.5 -133q0 -113 -89 -184.5t-231 -71.5z" />
    <glyph glyph-name="acute" unicode="&#xb4;" horiz-adv-x="591" 
d="M238 1313h-189l232 434h260z" />
    <glyph glyph-name="mu" unicode="&#xb5;" horiz-adv-x="1390" 
d="M352 -487h-194v1652h225v-684q0 -154 69.5 -236.5t198.5 -82.5q178 0 267 127q90 128 90 358v518h227v-1165h-168q0 68 -10 123q-9 51 -35 51q-20 0 -41 -31q-122 -176 -338 -176q-148 0 -227 82q-29 29 -43 29q-21 0 -21 -35v-530z" />
    <glyph glyph-name="paragraph" unicode="&#xb6;" horiz-adv-x="1509" 
d="M911 -299h-176v965h-170q-234 0 -369 124t-135 340q0 219 134.5 343t369.5 124h346v-1896zM1305 -299h-179v1896h179v-1896z" />
    <glyph glyph-name="periodcentered" unicode="&#xb7;" horiz-adv-x="571" 
d="M285 424q-72 0 -119 44.5t-47 113.5t47 113t119 44q74 0 121 -44t47 -113t-47.5 -113.5t-120.5 -44.5z" />
    <glyph glyph-name="cedilla" unicode="&#xb8;" horiz-adv-x="714" 
d="M377 -530q-149 0 -234.5 83.5t-93.5 223.5h168q8 -76 50 -120t110 -44q61 0 95 31.5t34 87.5q0 64 -66.5 135t-189.5 133h184q106 -44 168 -120t62 -161q0 -111 -77 -180t-210 -69z" />
    <glyph glyph-name="onesuperior" unicode="&#xb9;" horiz-adv-x="591" 
d="M461 1014h-187v565q-75 -67 -211 -82v170q211 27 261 193h137v-846z" />
    <glyph glyph-name="ordmasculine" unicode="&#xba;" horiz-adv-x="1239" 
d="M621 633q-227 0 -375 140t-148 357q0 216 147.5 356t375.5 140q226 0 373 -140t147 -356q0 -217 -147 -357t-373 -140zM621 803q141 0 229 90.5t88 236.5q0 143 -88.5 234.5t-228.5 91.5q-142 0 -231 -90t-89 -236t89 -236.5t231 -90.5zM1059 365h-877v149h877v-149z" />
    <glyph glyph-name="guillemotright" unicode="&#xbb;" horiz-adv-x="1206" 
d="M641 606l-387 -465h-211l354 465l-354 465h211zM1087 606l-387 -465h-211l355 465l-355 465h211z" />
    <glyph glyph-name="onequarter" unicode="&#xbc;" horiz-adv-x="1654" 
d="M461 754h-187v565q-75 -67 -211 -82v170q211 27 261 192h137v-845zM436 0h-198l911 1597h199zM1483 0h-170v195h-432v155l422 496h180v-506h102v-145h-102v-195zM1313 655l-269 -315h269v315z" />
    <glyph glyph-name="onehalf" unicode="&#xbd;" horiz-adv-x="1677" 
d="M461 754h-187v565q-75 -67 -211 -82v170q211 27 261 192h137v-845zM375 0h-199l911 1597h199zM1585 0h-633q3 161 69.5 265.5t246.5 201.5q82 44 113.5 77.5t31.5 76.5q0 47 -34.5 74.5t-90.5 27.5q-146 0 -158 -154h-178q13 139 102.5 219t229.5 80t219.5 -69.5
t79.5 -180.5q0 -86 -51 -148.5t-178 -131.5q-95 -53 -135 -96t-48 -95h414v-147z" />
    <glyph glyph-name="threequarters" unicode="&#xbe;" horiz-adv-x="1888" 
d="M428 733q-152 0 -246.5 73.5t-107.5 203.5h178q10 -65 55.5 -99t118.5 -34q69 0 109 32t40 88q0 57 -43 90t-118 33h-117v137h111q67 0 104 30t37 85q0 47 -34 76t-91 29q-65 0 -102.5 -33.5t-45.5 -89.5h-178q21 127 104.5 197.5t223.5 70.5q130 0 210.5 -64t80.5 -167
q0 -139 -144 -195q82 -19 128.5 -74t46.5 -133q0 -113 -89 -184.5t-231 -71.5zM625 0h-199l911 1597h199zM1720 0h-170v195h-432v155l422 496h180v-506h103v-145h-103v-195zM1550 655l-268 -315h268v315z" />
    <glyph glyph-name="questiondown" unicode="&#xbf;" horiz-adv-x="1122" 
d="M498 676h207v-78q0 -124 -51 -211.5t-183 -177.5q-106 -74 -145 -127.5t-39 -128.5q0 -100 65.5 -159.5t177.5 -59.5q131 0 211 71.5t105 204.5h223q-35 -213 -180 -334q-143 -122 -359 -122q-201 0 -328.5 109.5t-127.5 281.5q0 122 56.5 209.5t209.5 191.5
q95 68 126.5 121.5t31.5 140.5v68zM592 1206q72 0 120 -44t48 -113t-48 -113.5t-120 -44.5t-119 44.5t-47 113.5t47 113t119 44z" />
    <glyph glyph-name="Agrave" unicode="&#xc0;" horiz-adv-x="1538" 
d="M272 0h-262l590 1597h338l590 -1597h-273l-147 410h-686zM764 1409l-287 -811h574zM879 1718h-238l-422 340h303z" />
    <glyph glyph-name="Aacute" unicode="&#xc1;" horiz-adv-x="1538" 
d="M10 0h262l150 410h686l147 -410h273l-590 1597h-338zM477 598l287 811l287 -811h-574zM887 1718h-238l357 340h303z" />
    <glyph glyph-name="Acircumflex" unicode="&#xc2;" horiz-adv-x="1538" 
d="M272 0h-262l590 1597h338l590 -1597h-273l-147 410h-686zM764 1409l-287 -811h574zM547 1718h-189l293 353h226l294 -353h-188l-192 187q-15 12 -27 12q-10 0 -25 -12z" />
    <glyph glyph-name="Atilde" unicode="&#xc3;" horiz-adv-x="1538" 
d="M272 0h-262l590 1597h338l590 -1597h-273l-147 410h-686zM764 1409l-287 -811h574zM932 1735q-55 0 -108 23t-87 50.5t-73 50.5t-70 23q-80 0 -107 -123h-141q19 131 83.5 207t164.5 76q55 0 107.5 -23t86.5 -50t74 -50t72 -23q81 0 104 121h142q-19 -131 -83 -206.5
t-165 -75.5z" />
    <glyph glyph-name="Adieresis" unicode="&#xc4;" horiz-adv-x="1538" 
d="M272 0h-262l590 1597h338l590 -1597h-273l-147 410h-686zM764 1409l-287 -811h574zM1022 1765q-62 0 -100.5 38t-38.5 95q0 58 38.5 97t100.5 39t101.5 -39t39.5 -97q0 -56 -39.5 -94.5t-101.5 -38.5zM506 1765q-62 0 -101.5 38.5t-39.5 94.5q0 58 39.5 97t101.5 39
q61 0 100 -39t39 -97q0 -56 -39 -94.5t-100 -38.5z" />
    <glyph glyph-name="Aring" unicode="&#xc5;" horiz-adv-x="1538" 
d="M272 0h-262l590 1597h338l590 -1597h-273l-147 410h-686zM764 1409l-287 -811h574zM764 1694q-115 0 -188.5 69.5t-73.5 178.5q0 106 73.5 175.5t188.5 69.5q116 0 189 -69t73 -176q0 -109 -73.5 -178.5t-188.5 -69.5zM764 1825q50 0 82.5 33t32.5 84q0 49 -32.5 81.5
t-82.5 32.5t-82.5 -32.5t-32.5 -81.5q0 -51 32.5 -84t82.5 -33z" />
    <glyph glyph-name="AE" unicode="&#xc6;" horiz-adv-x="2187" 
d="M233 0h-290l979 1597h1155v-204h-760v-484h655v-198h-655v-506h801v-205h-1047v516h-522zM1071 1403l-416 -690h416v690z" />
    <glyph glyph-name="Ccedilla" unicode="&#xc7;" horiz-adv-x="1806" 
d="M932 -41q-183 0 -341 64t-268.5 175.5t-173.5 267t-63 333.5q0 179 63 334.5t173.5 266.5t268.5 174.5t341 63.5q326 0 541.5 -177t265.5 -476h-260q-37 205 -181 322.5t-360 117.5q-264 0 -427 -173t-163 -453q0 -279 163.5 -453t426.5 -174q216 0 360 118t181 322h260
q-50 -298 -266 -475.5t-541 -177.5zM936 -532q-152 0 -240 83t-96 226h180q6 -75 46 -116.5t106 -41.5q60 0 92.5 30.5t32.5 86.5q0 64 -64.5 133t-187.5 131l174 18q117 -48 184.5 -127.5t67.5 -175.5q0 -110 -80.5 -178.5t-214.5 -68.5z" />
    <glyph glyph-name="Egrave" unicode="&#xc8;" horiz-adv-x="1341" 
d="M1272 0h-1086v1597h1045v-204h-799v-484h694v-198h-694v-506h840v-205zM831 1718h-237l-422 340h303z" />
    <glyph glyph-name="Eacute" unicode="&#xc9;" horiz-adv-x="1341" 
d="M186 0h1086v205h-840v506h694v198h-694v484h799v204h-1045v-1597zM840 1718h-238l356 340h304z" />
    <glyph glyph-name="Ecircumflex" unicode="&#xca;" horiz-adv-x="1341" 
d="M1272 0h-1086v1597h1045v-204h-799v-484h694v-198h-694v-506h840v-205zM500 1718h-189l293 353h225l295 -353h-188l-193 187q-15 12 -26 12q-10 0 -25 -12z" />
    <glyph glyph-name="Edieresis" unicode="&#xcb;" horiz-adv-x="1341" 
d="M1272 0h-1086v1597h1045v-204h-799v-484h694v-198h-694v-506h840v-205zM975 1765q-62 0 -100.5 38t-38.5 95q0 58 38.5 97t100.5 39t101.5 -39t39.5 -97q0 -56 -39.5 -94.5t-101.5 -38.5zM459 1765q-62 0 -102 38.5t-40 94.5q0 58 40 97t102 39q61 0 100 -39t39 -97
q0 -56 -39 -94.5t-100 -38.5z" />
    <glyph glyph-name="Igrave" unicode="&#xcc;" horiz-adv-x="622" 
d="M436 0h-250v1597h250v-1597zM426 1718h-238l-421 340h303z" />
    <glyph glyph-name="Iacute" unicode="&#xcd;" horiz-adv-x="622" 
d="M186 0h250v1597h-250v-1597zM434 1718h-237l356 340h303z" />
    <glyph glyph-name="Icircumflex" unicode="&#xce;" horiz-adv-x="622" 
d="M436 0h-250v1597h250v-1597zM94 1718h-188l293 353h225l295 -353h-189l-192 187q-15 12 -27 12q-9 0 -24 -12z" />
    <glyph glyph-name="Idieresis" unicode="&#xcf;" horiz-adv-x="622" 
d="M436 0h-250v1597h250v-1597zM569 1765q-62 0 -100.5 38t-38.5 95q0 58 38.5 97t100.5 39t102 -39t40 -97q0 -56 -40 -94.5t-102 -38.5zM53 1765q-62 0 -101.5 38.5t-39.5 94.5q0 58 39.5 97t101.5 39q61 0 100.5 -39t39.5 -97q0 -56 -39.5 -94.5t-100.5 -38.5z" />
    <glyph glyph-name="Eth" unicode="&#xd0;" horiz-adv-x="1810" 
d="M891 0h-615v709h-256v186h256v702h615q246 0 434.5 -99t292.5 -280.5t104 -418.5q0 -236 -104 -418t-293 -281.5t-434 -99.5zM524 709v-506h350q274 0 430 159t156 437q0 276 -156.5 436t-429.5 160h-350v-500h463v-186h-463z" />
    <glyph glyph-name="Ntilde" unicode="&#xd1;" horiz-adv-x="1716" 
d="M422 0h-236v1597h281l829 -1267v1267h236v-1597h-281l-829 1268v-1268zM1028 1735q-55 0 -108 23t-87 50.5t-73 50.5t-70 23q-79 0 -106 -123h-142q19 131 83.5 207t164.5 76q55 0 107.5 -23t86.5 -50t74 -50t72 -23q40 0 67 32t38 89h141q-19 -131 -83 -206.5
t-165 -75.5z" />
    <glyph glyph-name="Ograve" unicode="&#xd2;" horiz-adv-x="1878" 
d="M940 -39q-247 0 -442.5 108.5t-303.5 299.5t-108 430q0 180 63.5 335t175 265.5t271 173.5t344.5 63q186 0 345 -63t270.5 -173.5t174 -265.5t62.5 -335q0 -239 -107 -430t-302 -299.5t-443 -108.5zM940 174q264 0 428 173.5t164 451.5t-164 451t-428 173
q-263 0 -427.5 -173t-164.5 -451t164.5 -451.5t427.5 -173.5zM1055 1718h-238l-422 340h303z" />
    <glyph glyph-name="Oacute" unicode="&#xd3;" horiz-adv-x="1878" 
d="M940 -39q248 0 443 108.5t302 299.5t107 430q0 180 -62.5 335t-174 265.5t-270.5 173.5t-345 63q-185 0 -344.5 -63t-271 -173.5t-175 -265.5t-63.5 -335q0 -239 108 -430t303.5 -299.5t442.5 -108.5zM940 174q-263 0 -427.5 173.5t-164.5 451.5t164.5 451t427.5 173
q264 0 428 -173t164 -451t-164 -451.5t-428 -173.5zM1063 1718h-238l357 340h303z" />
    <glyph glyph-name="Ocircumflex" unicode="&#xd4;" horiz-adv-x="1878" 
d="M940 -39q-247 0 -442.5 108.5t-303.5 299.5t-108 430q0 180 63.5 335t175 265.5t271 173.5t344.5 63q186 0 345 -63t270.5 -173.5t174 -265.5t62.5 -335q0 -239 -107 -430t-302 -299.5t-443 -108.5zM940 174q264 0 428 173.5t164 451.5t-164 451t-428 173
q-263 0 -427.5 -173t-164.5 -451t164.5 -451.5t427.5 -173.5zM723 1718h-188l292 353h226l295 -353h-189l-192 187q-15 12 -27 12q-10 0 -25 -12z" />
    <glyph glyph-name="Otilde" unicode="&#xd5;" horiz-adv-x="1878" 
d="M940 -39q-247 0 -442.5 108.5t-303.5 299.5t-108 430q0 180 63.5 335t175 265.5t271 173.5t344.5 63q186 0 345 -63t270.5 -173.5t174 -265.5t62.5 -335q0 -239 -107 -430t-302 -299.5t-443 -108.5zM940 174q264 0 428 173.5t164 451.5t-164 451t-428 173
q-263 0 -427.5 -173t-164.5 -451t164.5 -451.5t427.5 -173.5zM1108 1735q-55 0 -108 23t-87 50.5t-73 50.5t-70 23q-79 0 -106 -123h-142q19 131 83.5 207t164.5 76q55 0 107.5 -23t86.5 -50t74 -50t72 -23q81 0 104 121h142q-19 -131 -83 -206.5t-165 -75.5z" />
    <glyph glyph-name="Odieresis" unicode="&#xd6;" horiz-adv-x="1878" 
d="M940 -39q-247 0 -442.5 108.5t-303.5 299.5t-108 430q0 180 63.5 335t175 265.5t271 173.5t344.5 63q186 0 345 -63t270.5 -173.5t174 -265.5t62.5 -335q0 -239 -107 -430t-302 -299.5t-443 -108.5zM940 174q264 0 428 173.5t164 451.5t-164 451t-428 173
q-263 0 -427.5 -173t-164.5 -451t164.5 -451.5t427.5 -173.5zM1198 1765q-62 0 -100.5 38t-38.5 95q0 58 38.5 97t100.5 39t101.5 -39t39.5 -97q0 -56 -39.5 -94.5t-101.5 -38.5zM682 1765q-62 0 -101.5 38.5t-39.5 94.5q0 58 39.5 97t101.5 39q61 0 100 -39t39 -97
q0 -56 -39 -94.5t-100 -38.5z" />
    <glyph glyph-name="multiply" unicode="&#xd7;" horiz-adv-x="1384" 
d="M692 670l-389 -402l-131 125l393 408l-393 403l131 127l389 -401l389 401l129 -127l-393 -403l393 -408l-129 -125z" />
    <glyph glyph-name="Oslash" unicode="&#xd8;" horiz-adv-x="1878" 
d="M389 -100h-258l211 280q-123 117 -189.5 275t-66.5 344q0 180 63.5 335t175 265.5t271 173.5t344.5 63q243 0 426 -100l123 162h262l-213 -283q123 -114 188.5 -271.5t65.5 -344.5q0 -239 -107 -430t-302 -299.5t-443 -108.5q-242 0 -428 100zM338 799q0 -272 151 -443
l758 1000q-134 76 -307 76q-268 0 -435 -175t-167 -458zM940 168q268 0 435 174.5t167 456.5q0 264 -151 442l-758 -999q136 -74 307 -74z" />
    <glyph glyph-name="Ugrave" unicode="&#xd9;" horiz-adv-x="1654" 
d="M827 -41q-303 0 -481 166.5t-178 482.5v989h250v-999q0 -212 105.5 -321t303.5 -109t304 109t106 321v999h250v-989q0 -212 -83 -359.5t-229.5 -218.5t-347.5 -71zM942 1718h-237l-422 340h303z" />
    <glyph glyph-name="Uacute" unicode="&#xda;" horiz-adv-x="1654" 
d="M827 -41q201 0 347.5 71t229.5 218.5t83 359.5v989h-250v-999q0 -212 -106 -321t-304 -109t-303.5 109t-105.5 321v999h-250v-989q0 -316 178 -482.5t481 -166.5zM950 1718h-237l356 340h303z" />
    <glyph glyph-name="Ucircumflex" unicode="&#xdb;" horiz-adv-x="1654" 
d="M827 -41q-303 0 -481 166.5t-178 482.5v989h250v-999q0 -212 105.5 -321t303.5 -109t304 109t106 321v999h250v-989q0 -212 -83 -359.5t-229.5 -218.5t-347.5 -71zM610 1718h-188l293 353h225l295 -353h-188l-193 187q-15 12 -27 12q-9 0 -24 -12z" />
    <glyph glyph-name="Udieresis" unicode="&#xdc;" horiz-adv-x="1654" 
d="M827 -41q-303 0 -481 166.5t-178 482.5v989h250v-999q0 -212 105.5 -321t303.5 -109t304 109t106 321v999h250v-989q0 -212 -83 -359.5t-229.5 -218.5t-347.5 -71zM1085 1765q-62 0 -100.5 38t-38.5 95q0 58 38.5 97t100.5 39t102 -39t40 -97q0 -56 -40 -94.5t-102 -38.5
zM569 1765q-62 0 -101.5 38.5t-39.5 94.5q0 58 39.5 97t101.5 39q61 0 100.5 -39t39.5 -97q0 -56 -39.5 -94.5t-100.5 -38.5z" />
    <glyph glyph-name="Yacute" unicode="&#xdd;" horiz-adv-x="1437" 
d="M598 0h244v645l579 952h-260l-430 -735l-444 735h-281l592 -952v-645zM840 1718h-238l356 340h304z" />
    <glyph glyph-name="Thorn" unicode="&#xde;" horiz-adv-x="1429" 
d="M434 0h-248v1597h248v-292h369q261 0 405 -135.5t144 -370.5t-144.5 -370.5t-406.5 -135.5h-367v-293zM434 1108v-619h346q158 0 241 80t83 230q0 149 -83.5 229t-240.5 80h-346z" />
    <glyph glyph-name="germandbls" unicode="&#xdf;" horiz-adv-x="1347" 
d="M821 -29q-85 0 -170 21.5t-139 56.5v180q132 -69 262 -69q122 0 196 72t74 210q0 160 -114 246t-334 90v168q143 18 230 96.5t87 200.5q0 121 -67.5 191.5t-183.5 70.5q-133 0 -207 -81.5t-74 -229.5v-1194h-225l2 1176q0 247 134 382.5t374 135.5q205 0 334.5 -117
t129.5 -305q0 -129 -71.5 -226.5t-200.5 -144.5q198 -38 308 -164.5t110 -312.5q0 -206 -130.5 -329.5t-324.5 -123.5z" />
    <glyph glyph-name="agrave" unicode="&#xe0;" horiz-adv-x="1271" 
d="M524 -37q-202 0 -323 100q-121 103 -121 269q0 165 114.5 253t350.5 107q249 17 366 45v4q0 135 -70 209t-200 74q-117 0 -193.5 -53.5t-101.5 -147.5h-233q34 169 174 275q138 106 352 106q237 0 365.5 -123.5t128.5 -351.5v-729h-170q-4 91 -15 127q-6 35 -24 35
q-15 0 -37 -31q-120 -168 -363 -168zM309 336q0 -91 68 -144t184 -53q218 0 295 168q55 113 55 258v8q-87 -25 -340 -49q-140 -12 -201 -56t-61 -132zM723 1311h-188l-304 434h261z" />
    <glyph glyph-name="aacute" unicode="&#xe1;" horiz-adv-x="1271" 
d="M524 -37q243 0 363 168q22 31 37 31q18 0 24 -35q11 -36 15 -127h170v729q0 228 -128.5 351.5t-365.5 123.5q-214 0 -352 -106q-140 -106 -174 -275h233q25 94 101.5 147.5t193.5 53.5q130 0 200 -74t70 -209v-4q-117 -28 -366 -45q-236 -19 -350.5 -107t-114.5 -253
q0 -166 121 -269q121 -100 323 -100zM309 336q0 88 61 132t201 56q253 24 340 49v-8q0 -145 -55 -258q-77 -168 -295 -168q-116 0 -184 53t-68 144zM723 1311h-188l231 434h260z" />
    <glyph glyph-name="acircumflex" unicode="&#xe2;" horiz-adv-x="1271" 
d="M524 -37q-202 0 -323 100q-121 103 -121 269q0 165 114.5 253t350.5 107q249 17 366 45v4q0 135 -70 209t-200 74q-117 0 -193.5 -53.5t-101.5 -147.5h-233q34 169 174 275q138 106 352 106q237 0 365.5 -123.5t128.5 -351.5v-729h-170q-4 91 -15 127q-6 35 -24 35
q-15 0 -37 -31q-120 -168 -363 -168zM309 336q0 -91 68 -144t184 -53q218 0 295 168q55 113 55 258v8q-87 -25 -340 -49q-140 -12 -201 -56t-61 -132zM408 1311h-164l297 434h176l297 -434h-164l-178 209q-23 26 -43 26t-43 -26z" />
    <glyph glyph-name="atilde" unicode="&#xe3;" horiz-adv-x="1271" 
d="M524 -37q-202 0 -323 100q-121 103 -121 269q0 165 114.5 253t350.5 107q249 17 366 45v4q0 135 -70 209t-200 74q-117 0 -193.5 -53.5t-101.5 -147.5h-233q34 169 174 275q138 106 352 106q237 0 365.5 -123.5t128.5 -351.5v-729h-170q-4 91 -15 127q-6 35 -24 35
q-15 0 -37 -31q-120 -168 -363 -168zM309 336q0 -91 68 -144t184 -53q218 0 295 168q55 113 55 258v8q-87 -25 -340 -49q-140 -12 -201 -56t-61 -132zM793 1325q-45 0 -87.5 15t-75 37t-62 44t-58.5 37t-55 15q-80 0 -107 -123h-141q19 131 83 206.5t165 75.5
q55 0 107.5 -22.5t86.5 -50t74 -50t72 -22.5q81 0 104 121h141q-19 -131 -83 -207t-164 -76z" />
    <glyph glyph-name="adieresis" unicode="&#xe4;" horiz-adv-x="1271" 
d="M524 -37q-202 0 -323 100q-121 103 -121 269q0 165 114.5 253t350.5 107q249 17 366 45v4q0 135 -70 209t-200 74q-117 0 -193.5 -53.5t-101.5 -147.5h-233q34 169 174 275q138 106 352 106q237 0 365.5 -123.5t128.5 -351.5v-729h-170q-4 91 -15 127q-6 35 -24 35
q-15 0 -37 -31q-120 -168 -363 -168zM309 336q0 -91 68 -144t184 -53q218 0 295 168q55 113 55 258v8q-87 -25 -340 -49q-140 -12 -201 -56t-61 -132zM879 1333q-62 0 -101 38t-39 95q0 58 39 95.5t101 37.5q61 0 100 -38t39 -95q0 -56 -39 -94.5t-100 -38.5zM377 1333
q-61 0 -99 38.5t-38 94.5q0 58 38 95.5t99 37.5q65 0 103 -37.5t38 -95.5q0 -57 -38.5 -95t-102.5 -38z" />
    <glyph glyph-name="aring" unicode="&#xe5;" horiz-adv-x="1271" 
d="M524 -37q-202 0 -323 100q-121 103 -121 269q0 165 114.5 253t350.5 107q249 17 366 45v4q0 135 -70 209t-200 74q-117 0 -193.5 -53.5t-101.5 -147.5h-233q34 169 174 275q138 106 352 106q237 0 365.5 -123.5t128.5 -351.5v-729h-170q-4 91 -15 127q-6 35 -24 35
q-15 0 -37 -31q-120 -168 -363 -168zM309 336q0 -91 68 -144t184 -53q218 0 295 168q55 113 55 258v8q-87 -25 -340 -49q-140 -12 -201 -56t-61 -132zM629 1300q-112 0 -185 68.5t-73 173.5q0 106 73 175t185 69t185 -69t73 -175q0 -105 -73 -173.5t-185 -68.5zM629 1423
q53 0 86 33.5t33 85.5q0 54 -32.5 87.5t-86.5 33.5q-51 0 -85 -33.5t-34 -87.5q0 -51 34 -85t85 -34z" />
    <glyph glyph-name="ae" unicode="&#xe6;" horiz-adv-x="2154" 
d="M569 -37q-223 0 -357 101t-134 276q0 157 114.5 246.5t321.5 89.5h393v12q0 336 -276 336q-106 0 -181 -54.5t-100 -150.5h-233q34 168 170 277t342 106q150 0 259.5 -62t158.5 -177q72 115 192.5 178t269.5 63q253 0 410.5 -163t157.5 -420q0 -76 -9 -103h-925
q6 -169 103 -271t261 -102q121 0 207 57t115 154h227q-43 -183 -189 -288t-356 -105q-170 0 -297.5 74t-189.5 205q-47 -130 -170 -205.5t-285 -73.5zM1505 1024q-154 0 -251 -94.5t-111 -253.5l710 -2q-4 158 -100 254t-248 96zM580 135q159 0 237 91.5t88 291.5h-346
q-252 0 -252 -180q0 -92 74.5 -147.5t198.5 -55.5z" />
    <glyph glyph-name="ccedilla" unicode="&#xe7;" horiz-adv-x="1355" 
d="M700 -39q-273 0 -448.5 175.5t-175.5 447.5q0 273 175 446.5t449 173.5q247 0 402 -131q158 -133 192 -350h-229q-26 132 -122 209.5t-236 77.5q-178 0 -289 -118.5t-111 -307.5q0 -188 111 -307t289 -119q141 0 236.5 76t121.5 210h229q-34 -220 -194 -351.5
t-400 -131.5zM709 -530q-149 0 -234.5 83.5t-93.5 223.5h168q8 -76 50 -120t110 -44q61 0 95 31.5t34 87.5q0 64 -66.5 135t-189.5 133h184q106 -44 167.5 -120t61.5 -161q0 -111 -76.5 -180t-209.5 -69z" />
    <glyph glyph-name="egrave" unicode="&#xe8;" horiz-adv-x="1349" 
d="M690 -37q-274 0 -443 171.5t-169 449.5q0 178 80 320t217.5 221t306.5 79q137 0 249 -45t186.5 -124.5t114.5 -186.5t40 -232q0 -41 -6 -110h-957q12 -165 114.5 -263t266.5 -98q124 0 214.5 57t119.5 154h229q-42 -177 -194 -286q-149 -107 -369 -107zM688 1024
q-155 0 -257.5 -93t-119.5 -251h740q-6 154 -107 249t-256 95zM770 1313h-188l-303 434h260z" />
    <glyph glyph-name="eacute" unicode="&#xe9;" horiz-adv-x="1349" 
d="M690 -37q220 0 369 107q152 109 194 286h-229q-29 -97 -119.5 -154t-214.5 -57q-164 0 -266.5 98t-114.5 263h957q6 69 6 110q0 125 -40 232t-114.5 186.5t-186.5 124.5t-249 45q-169 0 -306.5 -79t-217.5 -221t-80 -320q0 -278 169 -449.5t443 -171.5zM688 1024
q155 0 256 -95t107 -249h-740q17 158 119.5 251t257.5 93zM770 1313h-188l231 434h260z" />
    <glyph glyph-name="ecircumflex" unicode="&#xea;" horiz-adv-x="1349" 
d="M690 -37q-274 0 -443 171.5t-169 449.5q0 178 80 320t217.5 221t306.5 79q137 0 249 -45t186.5 -124.5t114.5 -186.5t40 -232q0 -41 -6 -110h-957q12 -165 114.5 -263t266.5 -98q124 0 214.5 57t119.5 154h229q-42 -177 -194 -286q-149 -107 -369 -107zM688 1024
q-155 0 -257.5 -93t-119.5 -251h740q-6 154 -107 249t-256 95zM455 1313h-164l297 434h176l297 -434h-164l-178 209q-23 26 -43 26t-43 -26z" />
    <glyph glyph-name="edieresis" unicode="&#xeb;" horiz-adv-x="1349" 
d="M690 -37q-274 0 -443 171.5t-169 449.5q0 178 80 320t217.5 221t306.5 79q137 0 249 -45t186.5 -124.5t114.5 -186.5t40 -232q0 -41 -6 -110h-957q12 -165 114.5 -263t266.5 -98q124 0 214.5 57t119.5 154h229q-42 -177 -194 -286q-149 -107 -369 -107zM688 1024
q-155 0 -257.5 -93t-119.5 -251h740q-6 154 -107 249t-256 95zM926 1335q-62 0 -101 38t-39 95q0 58 39 96t101 38q61 0 100 -38t39 -96q0 -56 -39 -94.5t-100 -38.5zM424 1335q-60 0 -98.5 38.5t-38.5 94.5q0 58 38 96t99 38q65 0 103 -38t38 -96q0 -57 -38.5 -95
t-102.5 -38z" />
    <glyph glyph-name="igrave" unicode="&#xec;" horiz-adv-x="565" 
d="M406 0h-226v1165h226v-1165zM375 1313h-170l-223 434h235z" />
    <glyph glyph-name="iacute" unicode="&#xed;" horiz-adv-x="544" 
d="M160 0h225v1165h-225v-1165zM360 1313h-170l158 434h236z" />
    <glyph glyph-name="icircumflex" unicode="&#xee;" horiz-adv-x="563" 
d="M178 0h225v1165h-225v-1165zM205 1747h172l250 -434h-150l-145 207q-19 32 -41 32t-41 -32l-146 -207h-149z" />
    <glyph glyph-name="idieresis" unicode="&#xef;" horiz-adv-x="544" 
d="M385 0h-225v1165h225v-1165zM467 1333q-62 0 -101.5 39t-39.5 96t39.5 96.5t101.5 39.5t101.5 -39.5t39.5 -96.5t-39.5 -96t-101.5 -39zM78 1333q-62 0 -101.5 39t-39.5 96t39.5 96.5t101.5 39.5t101.5 -39.5t39.5 -96.5t-39.5 -96t-101.5 -39z" />
    <glyph glyph-name="eth" unicode="&#xf0;" horiz-adv-x="1378" 
d="M676 -39q-259 0 -429.5 163.5t-170.5 412.5q0 246 160 407.5t399 161.5q91 0 174 -27.5t137 -74.5q30 -23 39 -23q19 0 19 27q0 65 -56 159q-54 105 -141 189l-358 -150v137l247 105q-126 88 -266 127l166 104q161 -54 289 -153l297 123v-138l-195 -79
q139 -145 216.5 -346.5t78.5 -438.5q6 -316 -161.5 -501t-444.5 -185zM676 154q164 0 267.5 109t103.5 280q0 160 -104 266t-265 106q-165 0 -269 -107t-104 -273t104.5 -273.5t266.5 -107.5z" />
    <glyph glyph-name="ntilde" unicode="&#xf1;" horiz-adv-x="1380" 
d="M383 0h-225v1165h166q5 -95 12 -131q9 -53 35 -53q19 0 39 31q137 192 387 192q211 0 326.5 -128t115.5 -361v-715h-225v686q0 154 -68 236t-196 82q-178 0 -273 -136q-94 -131 -94 -379v-489zM862 1327q-45 0 -87.5 15t-75 37t-62 44t-58.5 37t-55 15q-79 0 -106 -123
h-142q19 131 83 206.5t165 75.5q55 0 107.5 -22.5t86.5 -50t74 -50t72 -22.5q40 0 67 32t38 89h141q-19 -131 -83.5 -207t-164.5 -76z" />
    <glyph glyph-name="ograve" unicode="&#xf2;" horiz-adv-x="1425" 
d="M713 -39q-136 0 -254.5 47.5t-202.5 129.5t-132 198t-48 248q0 178 82 319.5t227.5 221t327.5 79.5t328 -79.5t228.5 -221t82.5 -319.5q0 -132 -48.5 -248t-132.5 -198t-203 -129.5t-255 -47.5zM713 158q181 0 293 119t112 307t-112 307t-293 119q-180 0 -293 -119
t-113 -307t113 -307t293 -119zM807 1313h-189l-303 434h260z" />
    <glyph glyph-name="oacute" unicode="&#xf3;" horiz-adv-x="1425" 
d="M713 -39q136 0 255 47.5t203 129.5t132.5 198t48.5 248q0 178 -82.5 319.5t-228.5 221t-328 79.5t-327.5 -79.5t-227.5 -221t-82 -319.5q0 -132 48 -248t132 -198t202.5 -129.5t254.5 -47.5zM713 158q-180 0 -293 119t-113 307t113 307t293 119q181 0 293 -119t112 -307
t-112 -307t-293 -119zM807 1313h-189l232 434h260z" />
    <glyph glyph-name="ocircumflex" unicode="&#xf4;" horiz-adv-x="1425" 
d="M713 -39q-136 0 -254.5 47.5t-202.5 129.5t-132 198t-48 248q0 178 82 319.5t227.5 221t327.5 79.5t328 -79.5t228.5 -221t82.5 -319.5q0 -132 -48.5 -248t-132.5 -198t-203 -129.5t-255 -47.5zM713 158q181 0 293 119t112 307t-112 307t-293 119q-180 0 -293 -119
t-113 -307t113 -307t293 -119zM492 1313h-164l297 434h176l297 -434h-164l-178 209q-23 26 -43 26t-43 -26z" />
    <glyph glyph-name="otilde" unicode="&#xf5;" horiz-adv-x="1425" 
d="M713 -39q-136 0 -254.5 47.5t-202.5 129.5t-132 198t-48 248q0 178 82 319.5t227.5 221t327.5 79.5t328 -79.5t228.5 -221t82.5 -319.5q0 -132 -48.5 -248t-132.5 -198t-203 -129.5t-255 -47.5zM713 158q181 0 293 119t112 307t-112 307t-293 119q-180 0 -293 -119
t-113 -307t113 -307t293 -119zM877 1327q-45 0 -87.5 15t-75 37t-62 44t-58.5 37t-55 15q-80 0 -107 -123h-141q19 131 83 206.5t165 75.5q55 0 107.5 -22.5t86.5 -50t74 -50t72 -22.5q81 0 104 121h141q-19 -131 -83 -207t-164 -76z" />
    <glyph glyph-name="odieresis" unicode="&#xf6;" horiz-adv-x="1425" 
d="M713 -39q-136 0 -254.5 47.5t-202.5 129.5t-132 198t-48 248q0 178 82 319.5t227.5 221t327.5 79.5t328 -79.5t228.5 -221t82.5 -319.5q0 -132 -48.5 -248t-132.5 -198t-203 -129.5t-255 -47.5zM713 158q181 0 293 119t112 307t-112 307t-293 119q-180 0 -293 -119
t-113 -307t113 -307t293 -119zM963 1335q-62 0 -101 38t-39 95q0 58 39 96t101 38q61 0 100 -38t39 -96q0 -56 -39 -94.5t-100 -38.5zM461 1335q-61 0 -99 38.5t-38 94.5q0 58 38 96t99 38q65 0 103 -38t38 -96q0 -57 -38.5 -95t-102.5 -38z" />
    <glyph glyph-name="divide" unicode="&#xf7;" horiz-adv-x="1384" 
d="M692 1053q-56 0 -92.5 35.5t-36.5 87.5q0 50 36.5 84t92.5 34t91.5 -34t35.5 -84q0 -53 -34.5 -88t-92.5 -35zM1208 664h-1034v190h1034v-190zM692 221q-56 0 -92.5 35.5t-36.5 85.5t36.5 85.5t92.5 35.5q58 0 92.5 -35t34.5 -86t-35.5 -86t-91.5 -35z" />
    <glyph glyph-name="oslash" unicode="&#xf8;" horiz-adv-x="1425" 
d="M332 -100h-221l159 223q-93 86 -143.5 204t-50.5 257q0 178 82 319.5t227.5 221t327.5 79.5q159 0 293 -61l90 125h219l-162 -224q95 -87 147 -204.5t52 -255.5q0 -132 -48.5 -248t-132.5 -198t-203 -129.5t-255 -47.5q-159 0 -293 64zM295 584q0 -183 104 -303l502 698
q-84 41 -188 41q-185 0 -301.5 -121.5t-116.5 -314.5zM713 147q186 0 301.5 121.5t115.5 315.5q0 185 -106 303l-502 -699q87 -41 191 -41z" />
    <glyph glyph-name="ugrave" unicode="&#xf9;" horiz-adv-x="1374" 
d="M592 -39q-216 0 -333.5 128.5t-117.5 363.5v712h226v-684q0 -154 70 -236.5t200 -82.5q175 0 264 127q92 128 92 358v518h226v-1165h-168q0 62 -11 123q-9 51 -34 51q-10 0 -16.5 -5t-24.5 -26q-133 -182 -373 -182zM774 1313h-188l-303 434h260z" />
    <glyph glyph-name="uacute" unicode="&#xfa;" horiz-adv-x="1374" 
d="M592 -39q240 0 373 182q18 21 24.5 26t16.5 5q25 0 34 -51q11 -61 11 -123h168v1165h-226v-518q0 -230 -92 -358q-89 -127 -264 -127q-130 0 -200 82.5t-70 236.5v684h-226v-712q0 -235 117.5 -363.5t333.5 -128.5zM774 1313h-188l231 434h260z" />
    <glyph glyph-name="ucircumflex" unicode="&#xfb;" horiz-adv-x="1374" 
d="M592 -39q-216 0 -333.5 128.5t-117.5 363.5v712h226v-684q0 -154 70 -236.5t200 -82.5q175 0 264 127q92 128 92 358v518h226v-1165h-168q0 62 -11 123q-9 51 -34 51q-10 0 -16.5 -5t-24.5 -26q-133 -182 -373 -182zM459 1313h-164l297 434h176l297 -434h-164l-178 209
q-23 26 -43 26t-43 -26z" />
    <glyph glyph-name="udieresis" unicode="&#xfc;" horiz-adv-x="1374" 
d="M592 -39q-216 0 -333.5 128.5t-117.5 363.5v712h226v-684q0 -154 70 -236.5t200 -82.5q175 0 264 127q92 128 92 358v518h226v-1165h-168q0 62 -11 123q-9 51 -34 51q-10 0 -16.5 -5t-24.5 -26q-133 -182 -373 -182zM930 1335q-62 0 -100.5 38t-38.5 95q0 58 38.5 96
t100.5 38q61 0 100 -38t39 -96q0 -56 -39 -94.5t-100 -38.5zM428 1335q-60 0 -98.5 38.5t-38.5 94.5q0 58 38 96t99 38q65 0 103 -38t38 -96q0 -57 -38.5 -95t-102.5 -38z" />
    <glyph glyph-name="yacute" unicode="&#xfd;" horiz-adv-x="1239" 
d="M295 -498h233l701 1663h-236l-360 -913l-369 913h-254l496 -1165zM723 1313h-188l231 434h260z" />
    <glyph glyph-name="thorn" unicode="&#xfe;" horiz-adv-x="1488" 
d="M383 -498h-225v2157h225v-569q0 -50 27 -50q13 0 43 27q140 137 366 137q167 0 303 -79.5t213.5 -221.5t77.5 -319q0 -176 -77.5 -318.5t-213.5 -222.5t-303 -80q-225 0 -366 135q-32 29 -43 29q-27 0 -27 -49v-576zM776 160q179 0 291.5 117.5t112.5 306.5
q0 188 -113 307t-291 119q-180 0 -290.5 -118t-110.5 -308q0 -189 110.5 -306.5t290.5 -117.5z" />
    <glyph glyph-name="ydieresis" unicode="&#xff;" horiz-adv-x="1239" 
d="M528 -498h-233l211 498l-496 1165h254l369 -913l360 913h236zM879 1335q-62 0 -101 38t-39 95q0 58 39 96t101 38q61 0 100 -38t39 -96q0 -56 -39 -94.5t-100 -38.5zM377 1335q-61 0 -99 38.5t-38 94.5q0 58 38 96t99 38q65 0 103 -38t38 -96q0 -57 -38.5 -95t-102.5 -38
z" />
    <glyph glyph-name="Amacron" unicode="&#x100;" horiz-adv-x="1538" 
d="M272 0h-262l590 1597h338l590 -1597h-273l-147 410h-686zM764 1409l-287 -811h574zM1108 1763h-688v162h688v-162z" />
    <glyph glyph-name="amacron" unicode="&#x101;" horiz-adv-x="1271" 
d="M524 -37q-202 0 -323 100q-121 103 -121 269q0 165 114.5 253t350.5 107q249 17 366 45v4q0 135 -70 209t-200 74q-117 0 -193.5 -53.5t-101.5 -147.5h-233q34 169 174 275q138 106 352 106q237 0 365.5 -123.5t128.5 -351.5v-729h-170q-4 91 -15 127q-6 35 -24 35
q-15 0 -37 -31q-120 -168 -363 -168zM309 336q0 -91 68 -144t184 -53q218 0 295 168q55 113 55 258v8q-87 -25 -340 -49q-140 -12 -201 -56t-61 -132zM973 1368h-688v162h688v-162z" />
    <glyph glyph-name="Abreve" unicode="&#x102;" horiz-adv-x="1538" 
d="M272 0h-262l590 1597h338l590 -1597h-273l-147 410h-686zM764 1409l-287 -811h574zM764 1718q-164 0 -263.5 85t-111.5 235h156q40 -168 219 -168t219 168h156q-12 -150 -111.5 -235t-263.5 -85z" />
    <glyph glyph-name="abreve" unicode="&#x103;" horiz-adv-x="1271" 
d="M524 -37q-202 0 -323 100q-121 103 -121 269q0 165 114.5 253t350.5 107q249 17 366 45v4q0 135 -70 209t-200 74q-117 0 -193.5 -53.5t-101.5 -147.5h-233q34 169 174 275q138 106 352 106q237 0 365.5 -123.5t128.5 -351.5v-729h-170q-4 91 -15 127q-6 35 -24 35
q-15 0 -37 -31q-120 -168 -363 -168zM309 336q0 -91 68 -144t184 -53q218 0 295 168q55 113 55 258v8q-87 -25 -340 -49q-140 -12 -201 -56t-61 -132zM629 1325q-164 0 -264.5 91t-112.5 247h151q19 -87 77.5 -135.5t148.5 -48.5q91 0 148.5 48t76.5 136h152
q-12 -156 -112.5 -247t-264.5 -91z" />
    <glyph glyph-name="Aogonek" unicode="&#x104;" horiz-adv-x="1538" 
d="M272 0h-262l590 1597h338l590 -1597h-273l-147 410h-686zM764 1409l-287 -811h574zM1440 -514q-129 0 -206 61t-77 166q0 192 277 353l92 -66q-95 -80 -135.5 -137.5t-40.5 -112.5q0 -47 33 -73.5t90 -26.5q59 0 112 18v-157q-67 -25 -145 -25z" />
    <glyph glyph-name="aogonek" unicode="&#x105;" horiz-adv-x="1271" 
d="M524 -37q-202 0 -323 100q-121 103 -121 269q0 165 114.5 253t350.5 107q249 17 366 45v4q0 135 -70 209t-200 74q-117 0 -193.5 -53.5t-101.5 -147.5h-233q34 169 174 275q138 106 352 106q237 0 365.5 -123.5t128.5 -351.5v-729h-170q-4 91 -15 127q-6 35 -24 35
q-15 0 -37 -31q-120 -168 -363 -168zM309 336q0 -91 68 -144t184 -53q218 0 295 168q55 113 55 258v8q-87 -25 -340 -49q-140 -12 -201 -56t-61 -132zM1047 -504q-123 0 -196 60t-73 163q0 85 56.5 165.5t181.5 174.5l117 -59q-97 -82 -139 -139t-42 -111q0 -49 34.5 -75.5
t92.5 -26.5q66 0 133 28v-143q-70 -37 -165 -37z" />
    <glyph glyph-name="Cacute" unicode="&#x106;" horiz-adv-x="1806" 
d="M932 -41q325 0 541 177.5t266 475.5h-260q-37 -204 -181 -322t-360 -118q-263 0 -426.5 174t-163.5 453q0 280 163 453t427 173q216 0 360 -117.5t181 -322.5h260q-50 299 -265.5 476t-541.5 177q-183 0 -341 -63.5t-268.5 -174.5t-173.5 -266.5t-63 -334.5
q0 -178 63 -333.5t173.5 -267t268.5 -175.5t341 -64zM1040 1718h-237l356 340h303z" />
    <glyph glyph-name="cacute" unicode="&#x107;" horiz-adv-x="1355" 
d="M700 -39q240 0 400 131.5t194 351.5h-229q-26 -134 -121.5 -210t-236.5 -76q-178 0 -289 119t-111 307q0 189 111 307.5t289 118.5q140 0 236 -77.5t122 -209.5h229q-34 217 -192 350q-155 131 -402 131q-274 0 -449 -173.5t-175 -446.5q0 -272 175.5 -447.5
t448.5 -175.5zM788 1313h-188l231 434h261z" />
    <glyph glyph-name="Ccircumflex" unicode="&#x108;" horiz-adv-x="1806" 
d="M932 -41q-183 0 -341 64t-268.5 175.5t-173.5 267t-63 333.5q0 179 63 334.5t173.5 266.5t268.5 174.5t341 63.5q326 0 541.5 -177t265.5 -476h-260q-37 205 -181 322.5t-360 117.5q-264 0 -427 -173t-163 -453q0 -279 163.5 -453t426.5 -174q216 0 360 118t181 322h260
q-50 -298 -266 -475.5t-541 -177.5zM700 1718h-188l293 353h225l295 -353h-188l-193 187q-15 12 -26 12q-10 0 -25 -12z" />
    <glyph glyph-name="ccircumflex" unicode="&#x109;" horiz-adv-x="1355" 
d="M700 -39q-273 0 -448.5 175.5t-175.5 447.5q0 273 175 446.5t449 173.5q247 0 402 -131q158 -133 192 -350h-229q-26 132 -122 209.5t-236 77.5q-178 0 -289 -118.5t-111 -307.5q0 -188 111 -307t289 -119q141 0 236.5 76t121.5 210h229q-34 -220 -194 -351.5
t-400 -131.5zM473 1313h-164l297 434h176l297 -434h-164l-178 209q-23 26 -43 26t-43 -26z" />
    <glyph glyph-name="Cdotaccent" unicode="&#x10a;" horiz-adv-x="1806" 
d="M932 -41q-183 0 -341 64t-268.5 175.5t-173.5 267t-63 333.5q0 179 63 334.5t173.5 266.5t268.5 174.5t341 63.5q326 0 541.5 -177t265.5 -476h-260q-37 205 -181 322.5t-360 117.5q-264 0 -427 -173t-163 -453q0 -279 163.5 -453t426.5 -174q216 0 360 118t181 322h260
q-50 -298 -266 -475.5t-541 -177.5zM918 1747q-62 0 -102 38.5t-40 94.5q0 58 40 96.5t102 38.5t100.5 -38.5t38.5 -96.5q0 -57 -38.5 -95t-100.5 -38z" />
    <glyph glyph-name="cdotaccent" unicode="&#x10b;" horiz-adv-x="1355" 
d="M700 -39q-273 0 -448.5 175.5t-175.5 447.5q0 273 175 446.5t449 173.5q247 0 402 -131q158 -133 192 -350h-229q-26 132 -122 209.5t-236 77.5q-178 0 -289 -118.5t-111 -307.5q0 -188 111 -307t289 -119q141 0 236.5 76t121.5 210h229q-34 -220 -194 -351.5
t-400 -131.5zM694 1339q-62 0 -101.5 39t-39.5 97t39.5 96.5t101.5 38.5t102 -38.5t40 -96.5t-40 -97t-102 -39z" />
    <glyph glyph-name="Ccaron" unicode="&#x10c;" horiz-adv-x="1806" 
d="M932 -41q325 0 541 177.5t266 475.5h-260q-37 -204 -181 -322t-360 -118q-263 0 -426.5 174t-163.5 453q0 280 163 453t427 173q216 0 360 -117.5t181 -322.5h260q-50 299 -265.5 476t-541.5 177q-183 0 -341 -63.5t-268.5 -174.5t-173.5 -266.5t-63 -334.5
q0 -178 63 -333.5t173.5 -267t268.5 -175.5t341 -64zM512 2071h188l193 -187q15 -12 25 -12q11 0 26 12l193 187h188l-295 -353h-225z" />
    <glyph glyph-name="ccaron" unicode="&#x10d;" horiz-adv-x="1355" 
d="M700 -39q240 0 400 131.5t194 351.5h-229q-26 -134 -121.5 -210t-236.5 -76q-178 0 -289 119t-111 307q0 189 111 307.5t289 118.5q140 0 236 -77.5t122 -209.5h229q-34 217 -192 350q-155 131 -402 131q-274 0 -449 -173.5t-175 -446.5q0 -272 175.5 -447.5
t448.5 -175.5zM309 1747h164l178 -209q24 -27 43 -27t43 27l178 209h164l-297 -434h-176z" />
    <glyph glyph-name="Dcaron" unicode="&#x10e;" horiz-adv-x="1720" 
d="M186 0h615q246 0 435 100t292.5 281.5t103.5 417.5q0 237 -103.5 418.5t-292 280.5t-435.5 99h-615v-1597zM436 203v1192h350q273 0 428.5 -160t155.5 -436q0 -279 -155.5 -437.5t-428.5 -158.5h-350zM403 2071h189l192 -187q15 -12 25 -12q12 0 27 12l192 187h189
l-295 -353h-226z" />
    <glyph glyph-name="dcaron" unicode="&#x10f;" horiz-adv-x="1613" 
d="M668 -37q-164 0 -299.5 80t-214 222t-78.5 317q0 177 77.5 319t214 221.5t306.5 79.5q124 0 223 -42t164 -116q13 -16 24 -16q21 0 21 35v596h225v-1659h-168q0 70 -12 129q-6 45 -29 45q-21 0 -47 -33q-151 -178 -407 -178zM713 160q177 0 289 117.5t112 306.5
q0 186 -112 305t-289 119q-178 0 -291 -119t-113 -305q0 -189 112.5 -306.5t291.5 -117.5zM1616 1130h-166l41 529h217z" />
    <glyph glyph-name="Dcroat" unicode="&#x110;" horiz-adv-x="1810" 
d="M891 0h-615v709h-256v186h256v702h615q246 0 434.5 -99t292.5 -280.5t104 -418.5q0 -236 -104 -418t-293 -281.5t-434 -99.5zM524 709v-506h350q274 0 430 159t156 437q0 276 -156.5 436t-429.5 160h-350v-500h463v-186h-463z" />
    <glyph glyph-name="dcroat" unicode="&#x111;" horiz-adv-x="1488" 
d="M668 -37q-164 0 -299.5 80t-214 222t-78.5 317q0 177 77.5 319t214 221.5t306.5 79.5q124 0 223 -42t164 -116q13 -16 24 -16q21 0 21 35v272h-389v150h389v174h225v-174h164v-150h-164v-1335h-168q0 70 -12 129q-6 45 -29 45q-21 0 -47 -33q-151 -178 -407 -178z
M713 160q177 0 289 117.5t112 306.5q0 186 -112 305t-289 119q-178 0 -291 -119t-113 -305q0 -189 112.5 -306.5t291.5 -117.5z" />
    <glyph glyph-name="Emacron" unicode="&#x112;" horiz-adv-x="1341" 
d="M1272 0h-1086v1597h1045v-204h-799v-484h694v-198h-694v-506h840v-205zM1061 1763h-688v162h688v-162z" />
    <glyph glyph-name="emacron" unicode="&#x113;" horiz-adv-x="1349" 
d="M690 -37q-274 0 -443 171.5t-169 449.5q0 178 80 320t217.5 221t306.5 79q137 0 249 -45t186.5 -124.5t114.5 -186.5t40 -232q0 -41 -6 -110h-957q12 -165 114.5 -263t266.5 -98q124 0 214.5 57t119.5 154h229q-42 -177 -194 -286q-149 -107 -369 -107zM688 1024
q-155 0 -257.5 -93t-119.5 -251h740q-6 154 -107 249t-256 95zM1020 1370h-688v162h688v-162z" />
    <glyph glyph-name="Ebreve" unicode="&#x114;" horiz-adv-x="1341" 
d="M1272 0h-1086v1597h1045v-204h-799v-484h694v-198h-694v-506h840v-205zM717 1718q-164 0 -263.5 85t-111.5 235h156q40 -168 219 -168t219 168h156q-12 -150 -111.5 -235t-263.5 -85z" />
    <glyph glyph-name="ebreve" unicode="&#x115;" horiz-adv-x="1349" 
d="M690 -37q-274 0 -443 171.5t-169 449.5q0 178 80 320t217.5 221t306.5 79q137 0 249 -45t186.5 -124.5t114.5 -186.5t40 -232q0 -41 -6 -110h-957q12 -165 114.5 -263t266.5 -98q124 0 214.5 57t119.5 154h229q-42 -177 -194 -286q-149 -107 -369 -107zM688 1024
q-155 0 -257.5 -93t-119.5 -251h740q-6 154 -107 249t-256 95zM676 1327q-164 0 -264.5 91t-112.5 247h152q19 -87 77 -135.5t148 -48.5q91 0 148.5 48t76.5 136h152q-12 -156 -112.5 -247t-264.5 -91z" />
    <glyph glyph-name="Edotaccent" unicode="&#x116;" horiz-adv-x="1341" 
d="M1272 0h-1086v1597h1045v-204h-799v-484h694v-198h-694v-506h840v-205zM717 1747q-62 0 -102 38.5t-40 94.5q0 58 40 96.5t102 38.5t100.5 -38.5t38.5 -96.5q0 -57 -38.5 -95t-100.5 -38z" />
    <glyph glyph-name="edotaccent" unicode="&#x117;" horiz-adv-x="1349" 
d="M690 -37q-274 0 -443 171.5t-169 449.5q0 178 80 320t217.5 221t306.5 79q137 0 249 -45t186.5 -124.5t114.5 -186.5t40 -232q0 -41 -6 -110h-957q12 -165 114.5 -263t266.5 -98q124 0 214.5 57t119.5 154h229q-42 -177 -194 -286q-149 -107 -369 -107zM688 1024
q-155 0 -257.5 -93t-119.5 -251h740q-6 154 -107 249t-256 95zM676 1339q-62 0 -101.5 39t-39.5 97t39.5 96.5t101.5 38.5t101.5 -38.5t39.5 -96.5t-39.5 -97t-101.5 -39z" />
    <glyph glyph-name="Eogonek" unicode="&#x118;" horiz-adv-x="1341" 
d="M1272 0h-1086v1597h1045v-204h-799v-484h694v-198h-694v-506h840v-205zM1186 -514q-129 0 -206 61t-77 166q0 192 277 353l92 -66q-95 -80 -135.5 -137.5t-40.5 -112.5q0 -47 33 -73.5t90 -26.5q59 0 112 18v-157q-67 -25 -145 -25z" />
    <glyph glyph-name="eogonek" unicode="&#x119;" horiz-adv-x="1349" 
d="M690 -37q-274 0 -443 171.5t-169 449.5q0 178 80 320t217.5 221t306.5 79q137 0 249 -45t186.5 -124.5t114.5 -186.5t40 -232q0 -41 -6 -110h-957q12 -165 114.5 -263t266.5 -98q124 0 214.5 57t119.5 154h229q-42 -177 -194 -286q-149 -107 -369 -107zM688 1024
q-155 0 -257.5 -93t-119.5 -251h740q-6 154 -107 249t-256 95zM950 -485q-120 0 -193 59.5t-73 163.5q0 103 72 192t237 185l72 -52q-207 -145 -207 -282q0 -56 34 -84.5t95 -28.5q64 0 131 25v-144q-75 -34 -168 -34z" />
    <glyph glyph-name="Ecaron" unicode="&#x11a;" horiz-adv-x="1341" 
d="M186 0h1086v205h-840v506h694v198h-694v484h799v204h-1045v-1597zM311 2071h189l192 -187q15 -12 25 -12q11 0 26 12l193 187h188l-295 -353h-225z" />
    <glyph glyph-name="ecaron" unicode="&#x11b;" horiz-adv-x="1349" 
d="M690 -37q220 0 369 107q152 109 194 286h-229q-29 -97 -119.5 -154t-214.5 -57q-164 0 -266.5 98t-114.5 263h957q6 69 6 110q0 125 -40 232t-114.5 186.5t-186.5 124.5t-249 45q-169 0 -306.5 -79t-217.5 -221t-80 -320q0 -278 169 -449.5t443 -171.5zM688 1024
q155 0 256 -95t107 -249h-740q17 158 119.5 251t257.5 93zM291 1747h164l178 -209q24 -27 43 -27t43 27l178 209h164l-297 -434h-176z" />
    <glyph glyph-name="Gcircumflex" unicode="&#x11c;" horiz-adv-x="1835" 
d="M895 -37q-172 0 -320.5 60.5t-256 168t-169 264t-61.5 341.5q0 244 109 436t302.5 297.5t438.5 105.5q312 0 526.5 -159.5t266.5 -436.5h-265q-44 183 -181 283t-341 100q-261 0 -427.5 -169.5t-166.5 -450.5q0 -282 161 -456.5t425 -174.5q323 0 465 266q67 129 84 324
h229v-762h-174q-2 20 -5.5 69.5t-6 80.5t-6.5 49q-9 51 -35 51q-22 0 -49 -37q-90 -118 -229 -184t-314 -66zM709 1718h-189l293 353h225l295 -353h-188l-193 187q-15 12 -26 12q-10 0 -25 -12z" />
    <glyph glyph-name="gcircumflex" unicode="&#x11d;" horiz-adv-x="1449" 
d="M719 -514q-237 0 -394 118t-208 312h231q32 -118 132.5 -186t238.5 -68q172 0 265 91.5t93 258.5v142q0 32 -20 32q-10 0 -31 -18q-63 -69 -159 -107t-208 -38q-166 0 -298.5 75.5t-206.5 209t-74 300.5q0 129 44.5 240.5t120.5 188.5t180.5 121t221.5 44q240 0 393 -170
q28 -31 47 -31q23 0 29 46q5 25 12 118h168v-1145q0 -248 -156 -391t-421 -143zM696 211q171 0 278 110t107 287q0 176 -107 288t-278 112q-169 0 -277 -112.5t-108 -287.5t108 -286t277 -111zM510 1313h-164l297 434h176l297 -434h-164l-178 209q-23 26 -43 26t-43 -26z
" />
    <glyph glyph-name="Gbreve" unicode="&#x11e;" horiz-adv-x="1835" 
d="M895 -37q-172 0 -320.5 60.5t-256 168t-169 264t-61.5 341.5q0 244 109 436t302.5 297.5t438.5 105.5q312 0 526.5 -159.5t266.5 -436.5h-265q-44 183 -181 283t-341 100q-261 0 -427.5 -169.5t-166.5 -450.5q0 -282 161 -456.5t425 -174.5q323 0 465 266q67 129 84 324
h229v-762h-174q-2 20 -5.5 69.5t-6 80.5t-6.5 49q-9 51 -35 51q-22 0 -49 -37q-90 -118 -229 -184t-314 -66zM926 1718q-164 0 -263.5 85t-111.5 235h156q40 -168 219 -168t219 168h155q-12 -150 -111 -235t-263 -85z" />
    <glyph glyph-name="gbreve" unicode="&#x11f;" horiz-adv-x="1449" 
d="M719 -514q-237 0 -394 118t-208 312h231q32 -118 132.5 -186t238.5 -68q172 0 265 91.5t93 258.5v142q0 32 -20 32q-10 0 -31 -18q-63 -69 -159 -107t-208 -38q-166 0 -298.5 75.5t-206.5 209t-74 300.5q0 129 44.5 240.5t120.5 188.5t180.5 121t221.5 44q240 0 393 -170
q28 -31 47 -31q23 0 29 46q5 25 12 118h168v-1145q0 -248 -156 -391t-421 -143zM696 211q171 0 278 110t107 287q0 176 -107 288t-278 112q-169 0 -277 -112.5t-108 -287.5t108 -286t277 -111zM731 1327q-164 0 -264.5 91t-112.5 247h152q19 -87 77 -135.5t148 -48.5
q91 0 148.5 48t76.5 136h152q-12 -156 -112.5 -247t-264.5 -91z" />
    <glyph glyph-name="Gdotaccent" unicode="&#x120;" horiz-adv-x="1835" 
d="M895 -37q-172 0 -320.5 60.5t-256 168t-169 264t-61.5 341.5q0 244 109 436t302.5 297.5t438.5 105.5q312 0 526.5 -159.5t266.5 -436.5h-265q-44 183 -181 283t-341 100q-261 0 -427.5 -169.5t-166.5 -450.5q0 -282 161 -456.5t425 -174.5q323 0 465 266q67 129 84 324
h229v-762h-174q-2 20 -5.5 69.5t-6 80.5t-6.5 49q-9 51 -35 51q-22 0 -49 -37q-90 -118 -229 -184t-314 -66zM926 1747q-62 0 -102 38.5t-40 94.5q0 58 40 96.5t102 38.5t100.5 -38.5t38.5 -96.5q0 -57 -38.5 -95t-100.5 -38z" />
    <glyph glyph-name="gdotaccent" unicode="&#x121;" horiz-adv-x="1449" 
d="M719 -514q-237 0 -394 118t-208 312h231q32 -118 132.5 -186t238.5 -68q172 0 265 91.5t93 258.5v142q0 32 -20 32q-10 0 -31 -18q-63 -69 -159 -107t-208 -38q-166 0 -298.5 75.5t-206.5 209t-74 300.5q0 129 44.5 240.5t120.5 188.5t180.5 121t221.5 44q240 0 393 -170
q28 -31 47 -31q23 0 29 46q5 25 12 118h168v-1145q0 -248 -156 -391t-421 -143zM696 211q171 0 278 110t107 287q0 176 -107 288t-278 112q-169 0 -277 -112.5t-108 -287.5t108 -286t277 -111zM729 1339q-62 0 -101.5 39t-39.5 97t39.5 96.5t101.5 38.5t101.5 -38.5
t39.5 -96.5t-39.5 -97t-101.5 -39z" />
    <glyph glyph-name="uni0122" unicode="&#x122;" horiz-adv-x="1835" 
d="M895 -37q-172 0 -320.5 60.5t-256 168t-169 264t-61.5 341.5q0 244 109 436t302.5 297.5t438.5 105.5q312 0 526.5 -159.5t266.5 -436.5h-265q-44 183 -181 283t-341 100q-261 0 -427.5 -169.5t-166.5 -450.5q0 -282 161 -456.5t425 -174.5q323 0 465 266q67 129 84 324
h229v-762h-174q-2 20 -5.5 69.5t-6 80.5t-6.5 49q-9 51 -35 51q-22 0 -49 -37q-90 -118 -229 -184t-314 -66zM991 -539h-160l87 418h210z" />
    <glyph glyph-name="uni0123" unicode="&#x123;" horiz-adv-x="1449" 
d="M719 -514q-237 0 -394 118t-208 312h231q32 -118 132.5 -186t238.5 -68q172 0 265 91.5t93 258.5v142q0 32 -20 32q-10 0 -31 -18q-63 -69 -159 -107t-208 -38q-166 0 -298.5 75.5t-206.5 209t-74 300.5q0 129 44.5 240.5t120.5 188.5t180.5 121t221.5 44q240 0 393 -170
q28 -31 47 -31q23 0 29 46q5 25 12 118h168v-1145q0 -248 -156 -391t-421 -143zM696 211q171 0 278 110t107 287q0 176 -107 288t-278 112q-169 0 -277 -112.5t-108 -287.5t108 -286t277 -111zM772 1769h156l-94 -456h-211z" />
    <glyph glyph-name="Hcircumflex" unicode="&#x124;" horiz-adv-x="1683" 
d="M436 0h-250v1597h250v-688h813v688h248v-1597h-248v707h-813v-707zM627 1718h-189l293 353h225l295 -353h-188l-193 187q-15 12 -26 12q-10 0 -25 -12z" />
    <glyph glyph-name="hcircumflex" unicode="&#x125;" horiz-adv-x="1380" 
d="M383 0h-225v1659h225v-625q0 -33 20 -33q16 0 37 29q131 174 365 174q205 0 319.5 -128.5t114.5 -362.5v-713h-225v686q0 154 -68 236t-196 82q-178 0 -273 -136q-94 -131 -94 -379v-489zM53 1780h-188l293 352h225l295 -352h-189l-192 186q-15 12 -27 12q-9 0 -24 -12z
" />
    <glyph glyph-name="Hbar" unicode="&#x126;" horiz-adv-x="1832" 
d="M510 0h-250v1167h-231v162h231v268h250v-268h813v268h250v-268h231v-162h-231v-1167h-250v705h-813v-705zM510 1167v-268h813v268h-813z" />
    <glyph glyph-name="hbar" unicode="&#x127;" horiz-adv-x="1380" 
d="M383 0h-225v1335h-191v150h191v174h225v-174h365v-150h-365v-301q0 -33 20 -33q16 0 37 29q131 174 365 174q205 0 319.5 -128.5t114.5 -362.5v-713h-225v686q0 154 -68 236t-196 82q-178 0 -273 -136q-94 -131 -94 -379v-489z" />
    <glyph glyph-name="Itilde" unicode="&#x128;" horiz-adv-x="622" 
d="M436 0h-250v1597h250v-1597zM481 1735q-55 0 -108 23t-87 50.5t-73 50.5t-70 23q-79 0 -106 -123h-141q19 131 83 207t164 76q55 0 107.5 -23t86.5 -50t74 -50t72 -23q40 0 67 32t38 89h141q-19 -131 -83 -206.5t-165 -75.5z" />
    <glyph glyph-name="itilde" unicode="&#x129;" horiz-adv-x="563" 
d="M403 0h-225v1165h225v-1165zM432 1350q-45 0 -89 20.5t-72.5 45t-61 45t-57.5 20.5q-65 0 -80 -111h-138q8 116 66.5 191t149.5 75q45 0 89 -20.5t72.5 -45t61 -45t57.5 -20.5q65 0 80 111h137q-8 -117 -64.5 -191.5t-150.5 -74.5z" />
    <glyph glyph-name="Imacron" unicode="&#x12a;" horiz-adv-x="622" 
d="M436 0h-250v1597h250v-1597zM655 1763h-688v162h688v-162z" />
    <glyph glyph-name="imacron" unicode="&#x12b;" horiz-adv-x="544" 
d="M385 0h-225v1165h225v-1165zM524 1370h-504v162h504v-162z" />
    <glyph glyph-name="Ibreve" unicode="&#x12c;" horiz-adv-x="622" 
d="M436 0h-250v1597h250v-1597zM311 1718q-164 0 -263 85t-111 235h155q40 -168 219 -168t219 168h156q-12 -150 -111.5 -235t-263.5 -85z" />
    <glyph glyph-name="ibreve" unicode="&#x12d;" horiz-adv-x="565" 
d="M406 0h-226v1165h226v-1165zM293 1327q-150 0 -230.5 93t-78.5 245h135q13 -190 174 -190t174 190h135q2 -152 -78.5 -245t-230.5 -93z" />
    <glyph glyph-name="Iogonek" unicode="&#x12e;" horiz-adv-x="622" 
d="M436 0h-250v1597h250v-1597zM350 -514q-128 0 -205 61t-77 166q0 193 276 353l92 -66q-95 -80 -135.5 -137.5t-40.5 -112.5q0 -47 33 -73.5t90 -26.5q61 0 113 18v-157q-67 -25 -146 -25z" />
    <glyph glyph-name="iogonek" unicode="&#x12f;" horiz-adv-x="544" 
d="M385 0h-225v1165h225v-1165zM270 1339q-62 0 -101.5 39t-39.5 97t39.5 96.5t101.5 38.5t102 -38.5t40 -96.5t-40 -97t-102 -39zM299 -504q-122 0 -195 60t-73 163q0 85 56.5 165.5t180.5 174.5l117 -59q-96 -82 -138 -139t-42 -111q0 -49 34.5 -75.5t92.5 -26.5
q66 0 133 28v-143q-70 -37 -166 -37z" />
    <glyph glyph-name="Idotaccent" unicode="&#x130;" horiz-adv-x="622" 
d="M436 0h-250v1597h250v-1597zM311 1747q-62 0 -101.5 38.5t-39.5 94.5q0 58 39.5 96.5t101.5 38.5t101 -38.5t39 -96.5q0 -57 -39 -95t-101 -38z" />
    <glyph glyph-name="dotlessi" unicode="&#x131;" horiz-adv-x="544" 
d="M385 0h-225v1165h225v-1165z" />
    <glyph glyph-name="IJ" unicode="&#x132;" horiz-adv-x="1576" 
d="M418 707h-250v890h250v-890zM815 -41q-261 0 -436 150q-172 147 -213 421h254q31 -177 132.5 -270.5t262.5 -93.5q342 0 342 397v1034h250v-1030q0 -287 -153.5 -447.5t-438.5 -160.5z" />
    <glyph glyph-name="ij" unicode="&#x133;" horiz-adv-x="1089" 
d="M272 1366q-66 0 -107.5 40.5t-41.5 102.5t41.5 102t107.5 40t109 -40t43 -102t-43 -102.5t-109 -40.5zM385 0h-225v1165h225v-1165zM817 1366q-66 0 -107.5 40.5t-41.5 102.5t41.5 102t107.5 40t109 -40t43 -102t-43 -102.5t-109 -40.5zM930 -487h-225v1652h225v-1652z
" />
    <glyph glyph-name="Jcircumflex" unicode="&#x134;" horiz-adv-x="1439" 
d="M678 -41q-263 0 -436.5 151t-214.5 420h256q31 -178 132 -271t265 -93q342 0 342 397v1034h248v-1030q0 -287 -153.5 -447.5t-438.5 -160.5zM928 1718h-189l293 353h225l295 -353h-188l-193 187q-15 12 -26 12q-10 0 -25 -12z" />
    <glyph glyph-name="jcircumflex" unicode="&#x135;" horiz-adv-x="565" 
d="M180 -487h226v1652h-226v-1652zM207 1747h172l250 -434h-150l-145 207q-19 32 -41 32t-41 -32l-146 -207h-149z" />
    <glyph glyph-name="uni0136" unicode="&#x136;" horiz-adv-x="1460" 
d="M436 0h-250v1597h250v-774l723 774h297l-733 -778l764 -819h-328l-723 786v-786zM741 -539h-159l86 418h211z" />
    <glyph glyph-name="uni0137" unicode="&#x137;" horiz-adv-x="1200" 
d="M383 0h-225v1659h225v-1059l526 565h285l-543 -569l574 -596h-305l-537 567v-567zM600 -610h-156l95 456h211z" />
    <glyph glyph-name="Lacute" unicode="&#x139;" horiz-adv-x="1222" 
d="M186 0h1008v205h-758v1392h-250v-1597zM434 1718h-237l356 340h303z" />
    <glyph glyph-name="lacute" unicode="&#x13a;" horiz-adv-x="544" 
d="M385 0h-225v1659h225v-1659zM379 1780h-211l244 340h262z" />
    <glyph glyph-name="uni013B" unicode="&#x13b;" horiz-adv-x="1222" 
d="M1194 0h-1008v1597h250v-1392h758v-205zM688 -539h-160l86 418h211z" />
    <glyph glyph-name="uni013C" unicode="&#x13c;" horiz-adv-x="544" 
d="M385 0h-225v1659h225v-1659zM229 -610h-155l94 456h211z" />
    <glyph glyph-name="Lcaron" unicode="&#x13d;" horiz-adv-x="1222" 
d="M1194 0h-1008v1597h250v-1392h758v-205zM860 1069h-166l41 528h217z" />
    <glyph glyph-name="lcaron" unicode="&#x13e;" horiz-adv-x="651" 
d="M385 0h-225v1659h225v-1659zM670 1130h-166l41 529h217z" />
    <glyph glyph-name="Ldot" unicode="&#x13f;" horiz-adv-x="1228" 
d="M1194 0h-1008v1597h250v-1392h758v-205zM885 717q-66 0 -107 40t-41 99q0 61 41 101t107 40q65 0 106 -40t41 -101q0 -58 -41 -98.5t-106 -40.5z" />
    <glyph glyph-name="ldot" unicode="&#x140;" horiz-adv-x="794" 
d="M385 0h-225v1659h225v-1659zM666 688q-66 0 -107 40t-41 101t41 101.5t107 40.5q65 0 106 -40.5t41 -101.5t-41 -101t-106 -40z" />
    <glyph glyph-name="Lslash" unicode="&#x141;" horiz-adv-x="1329" 
d="M1300 0h-1007v504l-227 -121v203l227 123v888h250v-755l458 243v-204l-458 -244v-432h757v-205z" />
    <glyph glyph-name="lslash" unicode="&#x142;" horiz-adv-x="870" 
d="M565 0h-225v670l-281 -154v189l281 151v803h225v-678l281 154v-189l-281 -153v-793z" />
    <glyph glyph-name="Nacute" unicode="&#x143;" horiz-adv-x="1716" 
d="M186 0h236v1268l829 -1268h281v1597h-236v-1267l-829 1267h-281v-1597zM983 1718h-238l357 340h303z" />
    <glyph glyph-name="nacute" unicode="&#x144;" horiz-adv-x="1380" 
d="M158 0h225v489q0 248 94 379q95 136 273 136q128 0 196 -82t68 -236v-686h225v715q0 233 -115.5 361t-326.5 128q-250 0 -387 -192q-20 -31 -39 -31q-26 0 -35 53q-7 36 -12 131h-166v-1165zM793 1313h-189l232 434h260z" />
    <glyph glyph-name="uni0145" unicode="&#x145;" horiz-adv-x="1716" 
d="M422 0h-236v1597h281l829 -1267v1267h236v-1597h-281l-829 1268v-1268zM825 -539h-159l86 418h211z" />
    <glyph glyph-name="uni0146" unicode="&#x146;" horiz-adv-x="1380" 
d="M383 0h-225v1165h166q5 -95 12 -131q9 -53 35 -53q19 0 39 31q137 192 387 192q211 0 326.5 -128t115.5 -361v-715h-225v686q0 154 -68 236t-196 82q-178 0 -273 -136q-94 -131 -94 -379v-489zM659 -610h-155l94 456h211z" />
    <glyph glyph-name="Ncaron" unicode="&#x147;" horiz-adv-x="1716" 
d="M186 0h236v1268l829 -1268h281v1597h-236v-1267l-829 1267h-281v-1597zM453 2071h188l193 -187q15 -12 24 -12q12 0 27 12l192 187h189l-295 -353h-226z" />
    <glyph glyph-name="ncaron" unicode="&#x148;" horiz-adv-x="1380" 
d="M158 0h225v489q0 248 94 379q95 136 273 136q128 0 196 -82t68 -236v-686h225v715q0 233 -115.5 361t-326.5 128q-250 0 -387 -192q-20 -31 -39 -31q-26 0 -35 53q-7 36 -12 131h-166v-1165zM313 1747h164l178 -209q24 -27 43 -27t43 27l179 209h163l-297 -434h-176z" />
    <glyph glyph-name="Eng" unicode="&#x14a;" horiz-adv-x="1736" 
d="M1169 -514q-73 0 -162.5 19t-162.5 51v192q133 -55 272 -55q107 0 156 63t49 195v1001q0 222 -97.5 346.5t-271.5 124.5q-245 0 -379 -200q-139 -202 -139 -549v-674h-248v1597h187q0 -94 12 -211q9 -73 45 -73q14 0 23.5 8t29.5 37q187 278 516 278q269 0 419.5 -171.5
t150.5 -479.5v-1010q0 -256 -95.5 -372.5t-304.5 -116.5z" />
    <glyph glyph-name="eng" unicode="&#x14b;" horiz-adv-x="1380" 
d="M838 -514q-68 0 -139 16t-121 43v170q105 -45 208 -45q228 0 228 234v782q0 154 -68 236t-196 82q-178 0 -273 -136q-94 -131 -94 -379v-489h-225v1165h166q5 -95 12 -131q9 -53 35 -53q19 0 39 31q137 192 387 192q211 0 326.5 -128t115.5 -361v-824q0 -199 -100.5 -302
t-300.5 -103z" />
    <glyph glyph-name="Omacron" unicode="&#x14c;" horiz-adv-x="1878" 
d="M940 -39q-247 0 -442.5 108.5t-303.5 299.5t-108 430q0 180 63.5 335t175 265.5t271 173.5t344.5 63q186 0 345 -63t270.5 -173.5t174 -265.5t62.5 -335q0 -239 -107 -430t-302 -299.5t-443 -108.5zM940 174q264 0 428 173.5t164 451.5t-164 451t-428 173
q-263 0 -427.5 -173t-164.5 -451t164.5 -451.5t427.5 -173.5zM1284 1763h-688v162h688v-162z" />
    <glyph glyph-name="omacron" unicode="&#x14d;" horiz-adv-x="1425" 
d="M713 -39q-136 0 -254.5 47.5t-202.5 129.5t-132 198t-48 248q0 178 82 319.5t227.5 221t327.5 79.5t328 -79.5t228.5 -221t82.5 -319.5q0 -132 -48.5 -248t-132.5 -198t-203 -129.5t-255 -47.5zM713 158q181 0 293 119t112 307t-112 307t-293 119q-180 0 -293 -119
t-113 -307t113 -307t293 -119zM1057 1370h-688v162h688v-162z" />
    <glyph glyph-name="Obreve" unicode="&#x14e;" horiz-adv-x="1878" 
d="M940 -39q-247 0 -442.5 108.5t-303.5 299.5t-108 430q0 180 63.5 335t175 265.5t271 173.5t344.5 63q186 0 345 -63t270.5 -173.5t174 -265.5t62.5 -335q0 -239 -107 -430t-302 -299.5t-443 -108.5zM940 174q264 0 428 173.5t164 451.5t-164 451t-428 173
q-263 0 -427.5 -173t-164.5 -451t164.5 -451.5t427.5 -173.5zM940 1718q-164 0 -263.5 85t-111.5 235h156q40 -168 219 -168t219 168h156q-12 -150 -111.5 -235t-263.5 -85z" />
    <glyph glyph-name="obreve" unicode="&#x14f;" horiz-adv-x="1425" 
d="M713 -39q-136 0 -254.5 47.5t-202.5 129.5t-132 198t-48 248q0 178 82 319.5t227.5 221t327.5 79.5t328 -79.5t228.5 -221t82.5 -319.5q0 -132 -48.5 -248t-132.5 -198t-203 -129.5t-255 -47.5zM713 158q181 0 293 119t112 307t-112 307t-293 119q-180 0 -293 -119
t-113 -307t113 -307t293 -119zM713 1327q-164 0 -264.5 91t-112.5 247h151q19 -87 77.5 -135.5t148.5 -48.5q91 0 148.5 48t76.5 136h152q-12 -156 -112.5 -247t-264.5 -91z" />
    <glyph glyph-name="Ohungarumlaut" unicode="&#x150;" horiz-adv-x="1878" 
d="M940 -39q-247 0 -442.5 108.5t-303.5 299.5t-108 430q0 180 63.5 335t175 265.5t271 173.5t344.5 63q186 0 345 -63t270.5 -173.5t174 -265.5t62.5 -335q0 -239 -107 -430t-302 -299.5t-443 -108.5zM940 174q264 0 428 173.5t164 451.5t-164 451t-428 173
q-263 0 -427.5 -173t-164.5 -451t164.5 -451.5t427.5 -173.5zM1292 1718h-237l360 340h297zM801 1718h-238l348 340h295z" />
    <glyph glyph-name="ohungarumlaut" unicode="&#x151;" horiz-adv-x="1425" 
d="M713 -39q-136 0 -254.5 47.5t-202.5 129.5t-132 198t-48 248q0 178 82 319.5t227.5 221t327.5 79.5t328 -79.5t228.5 -221t82.5 -319.5q0 -132 -48.5 -248t-132.5 -198t-203 -129.5t-255 -47.5zM713 158q181 0 293 119t112 307t-112 307t-293 119q-180 0 -293 -119
t-113 -307t113 -307t293 -119zM971 1313h-180l260 434h241zM580 1313h-185l234 434h235z" />
    <glyph glyph-name="OE" unicode="&#x152;" horiz-adv-x="2691" 
d="M930 -39q-182 0 -339 63t-268 173.5t-174 266.5t-63 335q0 180 63 335.5t174 266t268 173t339 62.5q192 0 349 -68t261 -196v225h1040v-204h-798v-484h694v-198h-694v-506h839v-205h-1081v225q-104 -128 -261 -196t-349 -68zM940 174q264 0 428 173.5t164 451.5t-164 451
t-428 173q-263 0 -427.5 -173t-164.5 -451t164.5 -451.5t427.5 -173.5z" />
    <glyph glyph-name="oe" unicode="&#x153;" horiz-adv-x="2330" 
d="M698 -39q-178 0 -320.5 80.5t-222 223t-79.5 319.5t79.5 318.5t222 221.5t320.5 80q168 0 298.5 -70t199.5 -190q69 122 197 191t286 69q257 0 415.5 -162.5t158.5 -420.5q0 -51 -6 -105h-942q8 -169 108 -270t264 -101q123 0 211 57t117 154h229q-43 -181 -192 -288
q-150 -105 -361 -105q-168 0 -294 66.5t-193 185.5q-70 -117 -200.5 -185.5t-295.5 -68.5zM1675 1024q-155 0 -254.5 -94.5t-113.5 -253.5l723 -2q-3 159 -103 254q-96 96 -252 96zM707 158q179 0 289 118.5t110 307.5t-110 307.5t-289 118.5q-177 0 -288.5 -119
t-111.5 -307t111.5 -307t288.5 -119z" />
    <glyph glyph-name="Racute" unicode="&#x154;" horiz-adv-x="1521" 
d="M186 0h246v672h410q132 0 185 -46t67 -169l36 -330q12 -103 46 -127h254q-15 15 -31 60t-23 102l-43 330q-19 138 -70.5 201.5t-160.5 80.5q137 41 210.5 143t73.5 244q0 211 -134.5 323.5t-385.5 112.5h-680v-1597zM432 856v545h406q301 0 301 -275q0 -270 -310 -270
h-397zM874 1718h-237l356 340h303z" />
    <glyph glyph-name="racute" unicode="&#x155;" horiz-adv-x="1021" 
d="M158 0h225v569q0 182 47 285q68 150 205 150q76 0 117 -51.5t41 -139.5q0 -5 -1 -16t-1 -15h204q2 16 2 41q2 174 -80.5 272.5t-230.5 98.5q-86 0 -158 -39.5t-120 -110.5q-22 -30 -41 -30q-25 0 -31 45q-10 54 -14 106h-164v-1165zM625 1313h-189l232 434h260z" />
    <glyph glyph-name="uni0156" unicode="&#x156;" horiz-adv-x="1521" 
d="M432 0h-246v1597h680q251 0 385.5 -112.5t134.5 -323.5q0 -142 -73.5 -244t-210.5 -143q109 -17 160.5 -80.5t70.5 -201.5l43 -330q7 -57 23 -102t31 -60h-254q-34 24 -46 127l-36 330q-14 123 -67 169t-185 46h-410v-672zM432 1401v-545h397q310 0 310 270
q0 275 -301 275h-406zM795 -539h-160l86 418h211z" />
    <glyph glyph-name="uni0157" unicode="&#x157;" horiz-adv-x="1021" 
d="M383 0h-225v1165h164q4 -52 14 -106q6 -45 31 -45q19 0 41 30q48 71 120 110.5t158 39.5q148 0 230.5 -98.5t80.5 -272.5q0 -25 -2 -41h-204q0 4 1 15t1 16q0 88 -41 139.5t-117 51.5q-137 0 -205 -150q-47 -103 -47 -285v-569zM231 -610h-155l94 456h211z" />
    <glyph glyph-name="Rcaron" unicode="&#x158;" horiz-adv-x="1521" 
d="M186 0h246v672h410q132 0 185 -46t67 -169l36 -330q12 -103 46 -127h254q-15 15 -31 60t-23 102l-43 330q-19 138 -70.5 201.5t-160.5 80.5q137 41 210.5 143t73.5 244q0 211 -134.5 323.5t-385.5 112.5h-680v-1597zM432 856v545h406q301 0 301 -275q0 -270 -310 -270
h-397zM346 2071h189l192 -187q15 -12 25 -12q11 0 26 12l193 187h188l-295 -353h-225z" />
    <glyph glyph-name="rcaron" unicode="&#x159;" horiz-adv-x="1021" 
d="M158 0h225v569q0 182 47 285q68 150 205 150q76 0 117 -51.5t41 -139.5q0 -5 -1 -16t-1 -15h204q2 16 2 41q2 174 -80.5 272.5t-230.5 98.5q-86 0 -158 -39.5t-120 -110.5q-22 -30 -41 -30q-25 0 -31 45q-10 54 -14 106h-164v-1165zM145 1747h164l178 -209q24 -27 43 -27
t43 27l179 209h163l-297 -434h-176z" />
    <glyph glyph-name="Sacute" unicode="&#x15a;" horiz-adv-x="1343" 
d="M694 -41q251 0 408.5 128t157.5 335q0 206 -135 324.5t-439 191.5q-165 41 -232 102.5t-67 165.5q0 110 78.5 175t208.5 65q133 0 211.5 -70.5t97.5 -199.5h240q-26 217 -169 338.5t-380 121.5q-242 0 -387.5 -122t-145.5 -322q0 -191 118.5 -303t389.5 -178
q202 -46 283.5 -113.5t81.5 -194.5q0 -110 -86 -179.5t-226 -69.5q-164 0 -269 86t-128 241h-244q22 -235 194.5 -378.5t438.5 -143.5zM791 1718h-238l356 340h303z" />
    <glyph glyph-name="sacute" unicode="&#x15b;" horiz-adv-x="1130" 
d="M588 -39q205 0 336 100t131 256q0 167 -101 249t-362 128q-141 25 -197.5 64.5t-56.5 113.5q0 73 61 115.5t164 42.5q109 0 168 -46.5t78 -145.5h221q-20 177 -141 271.5t-330 94.5q-196 0 -318 -95.5t-122 -248.5q0 -155 99.5 -239t334.5 -127q163 -27 223 -69t60 -122
q0 -75 -68 -121.5t-178 -46.5q-128 0 -203.5 55t-93.5 154h-232q29 -180 167.5 -281.5t359.5 -101.5zM664 1313h-189l232 434h260z" />
    <glyph glyph-name="Scircumflex" unicode="&#x15c;" horiz-adv-x="1343" 
d="M694 -41q-266 0 -438.5 143.5t-194.5 378.5h244q23 -155 128 -241t269 -86q140 0 226 69.5t86 179.5q0 127 -81.5 194.5t-283.5 113.5q-271 66 -389.5 178t-118.5 303q0 200 145.5 322t387.5 122q237 0 380 -121.5t169 -338.5h-240q-19 129 -97.5 199.5t-211.5 70.5
q-130 0 -208.5 -65t-78.5 -175q0 -104 67 -165.5t232 -102.5q304 -73 439 -191.5t135 -324.5q0 -207 -157.5 -335t-408.5 -128zM451 1718h-189l293 353h225l295 -353h-188l-193 187q-15 12 -26 12q-10 0 -25 -12z" />
    <glyph glyph-name="scircumflex" unicode="&#x15d;" horiz-adv-x="1130" 
d="M588 -39q-221 0 -359.5 101.5t-167.5 281.5h232q18 -99 93.5 -154t203.5 -55q110 0 178 46.5t68 121.5q0 80 -60 122t-223 69q-235 43 -334.5 127t-99.5 239q0 153 122 248.5t318 95.5q209 0 330 -94.5t141 -271.5h-221q-19 99 -78 145.5t-168 46.5q-103 0 -164 -42.5
t-61 -115.5q0 -74 56.5 -113.5t197.5 -64.5q261 -46 362 -128t101 -249q0 -156 -131 -256t-336 -100zM348 1313h-164l297 434h176l297 -434h-163l-179 209q-23 26 -43 26t-43 -26z" />
    <glyph glyph-name="Scedilla" unicode="&#x15e;" horiz-adv-x="1343" 
d="M694 -41q-266 0 -438.5 143.5t-194.5 378.5h244q23 -155 128 -241t269 -86q140 0 226 69.5t86 179.5q0 127 -81.5 194.5t-283.5 113.5q-271 66 -389.5 178t-118.5 303q0 200 145.5 322t387.5 122q237 0 380 -121.5t169 -338.5h-240q-19 129 -97.5 199.5t-211.5 70.5
q-130 0 -208.5 -65t-78.5 -175q0 -104 67 -165.5t232 -102.5q304 -73 439 -191.5t135 -324.5q0 -207 -157.5 -335t-408.5 -128zM729 -532q-152 0 -240 83t-96 226h180q6 -75 46 -116.5t106 -41.5q60 0 92.5 30.5t32.5 86.5q0 64 -64.5 133t-187.5 131l174 18
q117 -48 184.5 -127.5t67.5 -175.5q0 -110 -80.5 -178.5t-214.5 -68.5z" />
    <glyph glyph-name="scedilla" unicode="&#x15f;" horiz-adv-x="1130" 
d="M588 -39q-221 0 -359.5 101.5t-167.5 281.5h232q18 -99 93.5 -154t203.5 -55q110 0 178 46.5t68 121.5q0 80 -60 122t-223 69q-235 43 -334.5 127t-99.5 239q0 153 122 248.5t318 95.5q209 0 330 -94.5t141 -271.5h-221q-19 99 -78 145.5t-168 46.5q-103 0 -164 -42.5
t-61 -115.5q0 -74 56.5 -113.5t197.5 -64.5q261 -46 362 -128t101 -249q0 -156 -131 -256t-336 -100zM582 -530q-149 0 -234.5 83.5t-93.5 223.5h168q8 -76 50 -120t110 -44q61 0 95 31.5t34 87.5q0 64 -66.5 135t-189.5 133h184q106 -44 167.5 -120t61.5 -161
q0 -111 -76.5 -180t-209.5 -69z" />
    <glyph glyph-name="Scaron" unicode="&#x160;" horiz-adv-x="1343" 
d="M694 -41q251 0 408.5 128t157.5 335q0 206 -135 324.5t-439 191.5q-165 41 -232 102.5t-67 165.5q0 110 78.5 175t208.5 65q133 0 211.5 -70.5t97.5 -199.5h240q-26 217 -169 338.5t-380 121.5q-242 0 -387.5 -122t-145.5 -322q0 -191 118.5 -303t389.5 -178
q202 -46 283.5 -113.5t81.5 -194.5q0 -110 -86 -179.5t-226 -69.5q-164 0 -269 86t-128 241h-244q22 -235 194.5 -378.5t438.5 -143.5zM262 2071h189l192 -187q15 -12 25 -12q11 0 26 12l193 187h188l-295 -353h-225z" />
    <glyph glyph-name="scaron" unicode="&#x161;" horiz-adv-x="1130" 
d="M588 -39q205 0 336 100t131 256q0 167 -101 249t-362 128q-141 25 -197.5 64.5t-56.5 113.5q0 73 61 115.5t164 42.5q109 0 168 -46.5t78 -145.5h221q-20 177 -141 271.5t-330 94.5q-196 0 -318 -95.5t-122 -248.5q0 -155 99.5 -239t334.5 -127q163 -27 223 -69t60 -122
q0 -75 -68 -121.5t-178 -46.5q-128 0 -203.5 55t-93.5 154h-232q29 -180 167.5 -281.5t359.5 -101.5zM184 1747h164l178 -209q24 -27 43 -27t43 27l179 209h163l-297 -434h-176z" />
    <glyph glyph-name="uni0162" unicode="&#x162;" horiz-adv-x="1337" 
d="M795 0h-250v1393h-518v204h1284v-204h-516v-1393zM707 -532q-152 0 -240 83t-96 226h180q6 -75 45.5 -116.5t105.5 -41.5q60 0 92.5 30.5t32.5 86.5q0 64 -64.5 133t-187.5 131l175 18q117 -48 184 -127.5t67 -175.5q0 -110 -80 -178.5t-214 -68.5z" />
    <glyph glyph-name="uni0163" unicode="&#x163;" horiz-adv-x="868" 
d="M637 -14q-195 0 -288 96.5t-93 308.5v588h-231v186h131q64 0 95.5 23t43.5 74q23 149 29 247h155v-344h326v-186h-326v-567q0 -130 46.5 -186t158.5 -56q82 0 143 20v-176q-72 -28 -190 -28zM545 -498q-149 0 -234.5 84t-93.5 224h168q8 -76 50 -120t110 -44q61 0 95 31
t34 87q0 64 -67 135.5t-189 133.5h184q106 -44 167.5 -120t61.5 -161q0 -111 -76.5 -180.5t-209.5 -69.5z" />
    <glyph glyph-name="Tcaron" unicode="&#x164;" horiz-adv-x="1337" 
d="M545 0h250v1393h516v204h-1284v-204h518v-1393zM264 2071h189l192 -187q15 -12 25 -12q11 0 26 12l193 187h188l-295 -353h-225z" />
    <glyph glyph-name="tcaron" unicode="&#x165;" horiz-adv-x="868" 
d="M637 -14q-195 0 -288 96.5t-93 308.5v588h-231v186h131q64 0 95.5 23t43.5 74q23 149 29 247h155v-344h326v-186h-326v-567q0 -130 46.5 -186t158.5 -56q82 0 143 20v-176q-72 -28 -190 -28zM760 1288h-160l39 385h205z" />
    <glyph glyph-name="Tbar" unicode="&#x166;" horiz-adv-x="1359" 
d="M805 0h-250v760h-281v180h281v453h-518v204h1286v-204h-518v-453h278v-180h-278v-760z" />
    <glyph glyph-name="tbar" unicode="&#x167;" horiz-adv-x="901" 
d="M283 565h-234v150h234v264h-234v186h133q64 0 95 23t42 74q22 95 31 247h154v-344h327v-186h-327v-264h327v-150h-327v-153q0 -130 47.5 -186t159.5 -56q79 0 143 20v-176q-75 -28 -192 -28q-194 0 -286.5 96t-92.5 309v174z" />
    <glyph glyph-name="Utilde" unicode="&#x168;" horiz-adv-x="1654" 
d="M827 -41q-303 0 -481 166.5t-178 482.5v989h250v-999q0 -212 105.5 -321t303.5 -109t304 109t106 321v999h250v-989q0 -212 -83 -359.5t-229.5 -218.5t-347.5 -71zM997 1735q-55 0 -108 23t-87 50.5t-73 50.5t-70 23q-79 0 -106 -123h-141q19 131 83 207t164 76
q55 0 107.5 -23t86.5 -50t74 -50t72 -23q40 0 67 32t38 89h141q-19 -131 -83 -206.5t-165 -75.5z" />
    <glyph glyph-name="utilde" unicode="&#x169;" horiz-adv-x="1374" 
d="M592 -39q-216 0 -333.5 128.5t-117.5 363.5v712h226v-684q0 -154 70 -236.5t200 -82.5q175 0 264 127q92 128 92 358v518h226v-1165h-168q0 62 -11 123q-9 51 -34 51q-10 0 -16.5 -5t-24.5 -26q-133 -182 -373 -182zM844 1327q-45 0 -87.5 15t-75 37t-62 44t-58.5 37
t-55 15q-80 0 -107 -123h-141q19 131 83 206.5t165 75.5q55 0 107.5 -22.5t86.5 -50t74 -50t72 -22.5q81 0 104 121h142q-19 -131 -83.5 -207t-164.5 -76z" />
    <glyph glyph-name="Umacron" unicode="&#x16a;" horiz-adv-x="1654" 
d="M827 -41q-303 0 -481 166.5t-178 482.5v989h250v-999q0 -212 105.5 -321t303.5 -109t304 109t106 321v999h250v-989q0 -212 -83 -359.5t-229.5 -218.5t-347.5 -71zM1171 1763h-688v162h688v-162z" />
    <glyph glyph-name="umacron" unicode="&#x16b;" horiz-adv-x="1374" 
d="M592 -39q-216 0 -333.5 128.5t-117.5 363.5v712h226v-684q0 -154 70 -236.5t200 -82.5q175 0 264 127q92 128 92 358v518h226v-1165h-168q0 62 -11 123q-9 51 -34 51q-10 0 -16.5 -5t-24.5 -26q-133 -182 -373 -182zM1024 1370h-688v162h688v-162z" />
    <glyph glyph-name="Ubreve" unicode="&#x16c;" horiz-adv-x="1654" 
d="M827 -41q-303 0 -481 166.5t-178 482.5v989h250v-999q0 -212 105.5 -321t303.5 -109t304 109t106 321v999h250v-989q0 -212 -83 -359.5t-229.5 -218.5t-347.5 -71zM827 1718q-164 0 -263 85t-111 235h155q40 -168 219 -168q180 0 220 168h155q-12 -150 -111.5 -235
t-263.5 -85z" />
    <glyph glyph-name="ubreve" unicode="&#x16d;" horiz-adv-x="1374" 
d="M592 -39q-216 0 -333.5 128.5t-117.5 363.5v712h226v-684q0 -154 70 -236.5t200 -82.5q175 0 264 127q92 128 92 358v518h226v-1165h-168q0 62 -11 123q-9 51 -34 51q-10 0 -16.5 -5t-24.5 -26q-133 -182 -373 -182zM680 1327q-164 0 -264.5 91t-112.5 247h152
q19 -87 77 -135.5t148 -48.5q91 0 148.5 48t76.5 136h152q-12 -156 -112.5 -247t-264.5 -91z" />
    <glyph glyph-name="Uring" unicode="&#x16e;" horiz-adv-x="1654" 
d="M827 -41q-303 0 -481 166.5t-178 482.5v989h250v-999q0 -212 105.5 -321t303.5 -109t304 109t106 321v999h250v-989q0 -212 -83 -359.5t-229.5 -218.5t-347.5 -71zM827 1694q-115 0 -188.5 69.5t-73.5 178.5q0 106 73.5 175.5t188.5 69.5q116 0 189.5 -69t73.5 -176
q0 -109 -74 -178.5t-189 -69.5zM827 1825q50 0 82.5 33t32.5 84q0 49 -32.5 81.5t-82.5 32.5q-49 0 -81.5 -32t-32.5 -82q0 -51 32 -84t82 -33z" />
    <glyph glyph-name="uring" unicode="&#x16f;" horiz-adv-x="1374" 
d="M592 -39q-216 0 -333.5 128.5t-117.5 363.5v712h226v-684q0 -154 70 -236.5t200 -82.5q175 0 264 127q92 128 92 358v518h226v-1165h-168q0 62 -11 123q-9 51 -34 51q-10 0 -16.5 -5t-24.5 -26q-133 -182 -373 -182zM680 1303q-112 0 -185 68.5t-73 172.5q0 106 73 175
t185 69t185 -69t73 -175q0 -104 -73 -172.5t-185 -68.5zM680 1425q53 0 86 33.5t33 85.5q0 54 -32.5 87.5t-86.5 33.5q-52 0 -85.5 -33.5t-33.5 -87.5q0 -51 34 -85t85 -34z" />
    <glyph glyph-name="Uhungarumlaut" unicode="&#x170;" horiz-adv-x="1654" 
d="M827 -41q-303 0 -481 166.5t-178 482.5v989h250v-999q0 -212 105.5 -321t303.5 -109t304 109t106 321v999h250v-989q0 -212 -83 -359.5t-229.5 -218.5t-347.5 -71zM1180 1718h-238l361 340h296zM688 1718h-237l348 340h295z" />
    <glyph glyph-name="uhungarumlaut" unicode="&#x171;" horiz-adv-x="1374" 
d="M592 -39q-216 0 -333.5 128.5t-117.5 363.5v712h226v-684q0 -154 70 -236.5t200 -82.5q175 0 264 127q92 128 92 358v518h226v-1165h-168q0 62 -11 123q-9 51 -34 51q-10 0 -16.5 -5t-24.5 -26q-133 -182 -373 -182zM938 1313h-180l260 434h242zM547 1313h-185l234 434
h235z" />
    <glyph glyph-name="Uogonek" unicode="&#x172;" horiz-adv-x="1654" 
d="M827 -41q-303 0 -481 166.5t-178 482.5v989h250v-999q0 -212 105.5 -321t303.5 -109t304 109t106 321v999h250v-989q0 -212 -83 -359.5t-229.5 -218.5t-347.5 -71zM1118 -494q-125 0 -200.5 60.5t-75.5 167.5q0 104 74.5 193t240.5 186l72 -50q-196 -135 -199 -276
q0 -58 32.5 -86.5t90.5 -28.5q84 0 158 31v-154q-88 -43 -193 -43z" />
    <glyph glyph-name="uogonek" unicode="&#x173;" horiz-adv-x="1374" 
d="M592 -39q-216 0 -333.5 128.5t-117.5 363.5v712h226v-684q0 -154 70 -236.5t200 -82.5q175 0 264 127q92 128 92 358v518h226v-1165h-168q0 62 -11 123q-9 51 -34 51q-10 0 -16.5 -5t-24.5 -26q-133 -182 -373 -182zM1133 -504q-123 0 -196 60t-73 163q0 85 56.5 165.5
t181.5 174.5l117 -59q-97 -82 -139 -139t-42 -111q0 -49 34.5 -75.5t92.5 -26.5q66 0 133 28v-143q-70 -37 -165 -37z" />
    <glyph glyph-name="Wcircumflex" unicode="&#x174;" horiz-adv-x="2267" 
d="M782 0h-288l-474 1597h254l373 -1329l357 1329h274l358 -1331l375 1331h240l-479 -1597h-285l-352 1329zM918 1718h-189l293 353h225l295 -353h-188l-193 187q-15 12 -26 12q-10 0 -25 -12z" />
    <glyph glyph-name="wcircumflex" unicode="&#x175;" horiz-adv-x="1816" 
d="M653 0h-239l-396 1165h246l283 -899l258 899h227l258 -899l285 899h223l-393 -1165h-238l-256 889zM688 1313h-164l297 434h176l297 -434h-164l-178 209q-23 26 -43 26t-43 -26z" />
    <glyph glyph-name="Ycircumflex" unicode="&#x176;" horiz-adv-x="1437" 
d="M842 0h-244v645l-592 952h281l444 -735l430 735h260l-579 -952v-645zM500 1718h-189l293 353h225l295 -353h-188l-193 187q-15 12 -26 12q-10 0 -25 -12z" />
    <glyph glyph-name="ycircumflex" unicode="&#x177;" horiz-adv-x="1239" 
d="M528 -498h-233l211 498l-496 1165h254l369 -913l360 913h236zM408 1313h-164l297 434h176l297 -434h-164l-178 209q-23 26 -43 26t-43 -26z" />
    <glyph glyph-name="Ydieresis" unicode="&#x178;" horiz-adv-x="1437" 
d="M842 0h-244v645l-592 952h281l444 -735l430 735h260l-579 -952v-645zM975 1765q-62 0 -100.5 38t-38.5 95q0 58 38.5 97t100.5 39t101.5 -39t39.5 -97q0 -56 -39.5 -94.5t-101.5 -38.5zM459 1765q-62 0 -102 38.5t-40 94.5q0 58 40 97t102 39q61 0 100 -39t39 -97
q0 -56 -39 -94.5t-100 -38.5z" />
    <glyph glyph-name="Zacute" unicode="&#x179;" horiz-adv-x="1294" 
d="M18 0h1205v203h-815l872 1388v6h-1204v-202h815l-873 -1391v-4zM772 1718h-237l356 340h303z" />
    <glyph glyph-name="zacute" unicode="&#x17a;" horiz-adv-x="1101" 
d="M35 0h1001v180h-639l674 981v4h-1003v-186h637l-670 -975v-4zM647 1313h-188l231 434h260z" />
    <glyph glyph-name="Zdotaccent" unicode="&#x17b;" horiz-adv-x="1294" 
d="M1223 0h-1205v4l873 1391h-815v202h1204v-6l-872 -1388h815v-203zM649 1747q-62 0 -101.5 38.5t-39.5 94.5q0 58 39.5 96.5t101.5 38.5t100.5 -38.5t38.5 -96.5q0 -57 -38.5 -95t-100.5 -38z" />
    <glyph glyph-name="zdotaccent" unicode="&#x17c;" horiz-adv-x="1101" 
d="M1036 0h-1001v4l670 975h-637v186h1003v-4l-674 -981h639v-180zM553 1339q-62 0 -101.5 39t-39.5 97t39.5 96.5t101.5 38.5t101.5 -38.5t39.5 -96.5t-39.5 -97t-101.5 -39z" />
    <glyph glyph-name="Zcaron" unicode="&#x17d;" horiz-adv-x="1294" 
d="M18 0h1205v203h-815l872 1388v6h-1204v-202h815l-873 -1391v-4zM244 2071h188l193 -187q15 -12 24 -12q12 0 27 12l192 187h189l-295 -353h-225z" />
    <glyph glyph-name="zcaron" unicode="&#x17e;" horiz-adv-x="1101" 
d="M35 0h1001v180h-639l674 981v4h-1003v-186h637l-670 -975v-4zM168 1747h164l178 -209q24 -27 43 -27t43 27l178 209h164l-297 -434h-176z" />
    <glyph glyph-name="uni0180" unicode="&#x180;" horiz-adv-x="1488" 
d="M821 -37q-256 0 -407 178q-26 33 -47 33q-23 0 -29 -45q-7 -48 -12 -129h-168v1335h-164v150h164v174h225v-174h389v-150h-389v-272q0 -35 20 -35q12 0 25 16q65 74 164 116t223 42q170 0 306.5 -79.5t214 -221.5t77.5 -319q0 -175 -78 -317t-213.5 -222t-300.5 -80z
M776 160q179 0 291.5 117.5t112.5 306.5q0 186 -113 305t-291 119q-177 0 -289 -119t-112 -305q0 -189 112 -306.5t289 -117.5z" />
    <glyph glyph-name="uni0181" unicode="&#x181;" horiz-adv-x="1814" 
d="M1204 0h-680v1403h-98q-186 0 -186 -174q0 -112 65 -268h-184q-42 67 -67 150.5t-25 160.5q0 159 100.5 242t286.5 83h751q236 0 364 -110t128 -303q0 -254 -240 -340q147 -41 223 -142.5t76 -250.5q0 -217 -132 -334t-382 -117zM768 1403v-494h360q143 0 219 63.5
t76 184.5q0 118 -74.5 182t-215.5 64h-365zM768 737v-542h406q148 0 226.5 70t78.5 200t-80 201t-228 71h-403z" />
    <glyph glyph-name="uni0186" unicode="&#x186;" horiz-adv-x="1804" 
d="M887 -41q-331 0 -550 178t-269 475h260q42 -206 185 -323t366 -117q257 0 418 174t161 453q0 280 -161 453t-418 173q-223 0 -366 -117t-185 -323h-260q50 298 268 475.5t551 177.5q240 0 430 -108.5t295.5 -300t105.5 -430.5q0 -178 -62 -333.5t-170.5 -267
t-263.5 -175.5t-335 -64z" />
    <glyph glyph-name="uni0187" unicode="&#x187;" horiz-adv-x="1781" 
d="M932 -41q-182 0 -339.5 64t-268.5 175t-174.5 267t-63.5 334q0 179 63.5 334.5t174.5 266.5t268.5 174.5t339.5 63.5q242 0 420 -102q-62 109 -62 213q0 126 94 205.5t250 79.5q139 0 240 -64v-182q-84 47 -191 47q-87 0 -138.5 -47.5t-51.5 -136.5q0 -67 29 -146
q25 -68 104 -198q89 -154 115 -322h-262q-37 205 -181 322.5t-360 117.5q-264 0 -427 -173t-163 -453q0 -279 163.5 -453t426.5 -174q216 0 360 118t181 322h262q-50 -298 -266 -475.5t-543 -177.5z" />
    <glyph glyph-name="uni0188" unicode="&#x188;" horiz-adv-x="1366" 
d="M702 -39q-273 0 -448.5 175.5t-175.5 447.5q0 273 175 446.5t449 173.5q140 0 259 -49q-46 82 -46 182q0 126 81.5 197.5t217.5 71.5q49 0 101 -11.5t82 -29.5v-164q-56 20 -123 20q-80 0 -124 -41t-44 -114q0 -133 102 -303q71 -139 88 -240h-231q-25 132 -121 209.5
t-237 77.5q-177 0 -287.5 -118.5t-110.5 -307.5q0 -188 110.5 -307t287.5 -119q142 0 237.5 76t120.5 210h231q-34 -220 -194 -351.5t-400 -131.5z" />
    <glyph glyph-name="uni0189" unicode="&#x189;" horiz-adv-x="1810" 
d="M891 0h-615v709h-256v186h256v702h615q246 0 434.5 -99t292.5 -280.5t104 -418.5q0 -236 -104 -418t-293 -281.5t-434 -99.5zM524 709v-506h350q274 0 430 159t156 437q0 276 -156.5 436t-429.5 160h-350v-500h463v-186h-463z" />
    <glyph glyph-name="uni018A" unicode="&#x18a;" horiz-adv-x="2058" 
d="M1139 0h-617v1403h-96q-186 0 -186 -174q0 -112 65 -268h-184q-42 67 -67 150.5t-25 160.5q0 159 100.5 242t286.5 83h723q246 0 434.5 -99t292.5 -280.5t104 -418.5q0 -236 -104 -418t-293 -281.5t-434 -99.5zM772 1395v-1192h350q274 0 430 159t156 437
q0 276 -156.5 436t-429.5 160h-350z" />
    <glyph glyph-name="uni018E" unicode="&#x18e;" horiz-adv-x="1341" 
d="M1155 1597v-1597h-1085v205h839v506h-694v198h694v484h-798v204h1044z" />
    <glyph glyph-name="uni018F" unicode="&#x18f;" horiz-adv-x="1773" 
d="M889 -39q-234 0 -416.5 100t-283.5 280t-101 411q0 91 6 114h1331q-6 256 -152.5 411t-385.5 155q-191 0 -326 -88.5t-190 -239.5h-258q65 245 271.5 388.5t500.5 143.5q237 0 419 -103.5t282 -294t100 -439.5q0 -182 -60.5 -338t-165.5 -266t-253 -172t-318 -62z
M891 164q223 0 366.5 144.5t165.5 381.5h-1083q3 -234 155 -380t396 -146z" />
    <glyph glyph-name="uni0190" unicode="&#x190;" horiz-adv-x="1361" 
d="M696 -41q-268 0 -439 131t-171 350q0 158 91.5 266t256.5 146q-127 37 -201.5 134t-74.5 226q0 190 143.5 307t384.5 117q242 0 390 -120t167 -338h-235q-19 126 -98 193t-214 67q-134 0 -213.5 -67.5t-79.5 -182.5q0 -117 83.5 -188.5t218.5 -71.5h256v-178h-261
q-166 0 -262 -76t-96 -207q0 -144 98 -224.5t265 -80.5q159 0 249 80t107 231h246q-23 -242 -184.5 -378t-426.5 -136z" />
    <glyph glyph-name="uni0191" unicode="&#x191;" horiz-adv-x="1241" 
d="M88 -514q-63 0 -136 16t-120 41v193q107 -43 199 -43q85 0 120 48t35 163v1693h1002v-202h-756v-514h678v-203h-678v-772q0 -222 -80.5 -321t-263.5 -99z" />
    <glyph glyph-name="florin" unicode="&#x192;" horiz-adv-x="815" 
d="M166 -514q-47 0 -101 10.5t-88 28.5v164q58 -21 121 -21q83 0 120.5 47.5t37.5 147.5v1116h-231v186h231v121q0 205 95.5 303.5t289.5 98.5q100 0 188 -31v-178q-68 22 -143 22q-107 0 -157 -55t-50 -166v-115h326v-186h-326v-1139q0 -173 -78 -263.5t-235 -90.5z" />
    <glyph glyph-name="uni0193" unicode="&#x193;" horiz-adv-x="1802" 
d="M895 -37q-171 0 -319.5 60.5t-256 168t-169.5 264t-62 341.5q0 244 109 436t302.5 297.5t438.5 105.5q248 0 420 -100q-62 109 -62 213q0 128 93.5 206.5t246.5 78.5q139 0 242 -68v-182q-88 49 -192 49q-84 0 -136.5 -48t-52.5 -134q0 -72 27 -141.5t104 -202.5
q78 -142 103 -267h-263q-47 183 -183.5 283t-338.5 100q-172 0 -307 -75t-212 -217t-77 -328q0 -282 161 -456.5t425 -174.5q326 0 465 266q70 134 86 324h227v-762h-174q-3 124 -18 199q-9 51 -35 51q-22 0 -49 -37q-90 -119 -228.5 -184.5t-314.5 -65.5z" />
    <glyph glyph-name="uni0194" unicode="&#x194;" horiz-adv-x="1441" 
d="M725 -41q-158 0 -256 82q-96 84 -96 207q0 92 45 180.5t168 239.5l-592 929h278l459 -727l453 727h264l-586 -925q125 -152 171 -241.5t46 -182.5q0 -126 -98 -207.5t-256 -81.5zM725 127q60 0 98.5 35.5t38.5 89.5q0 59 -31.5 120.5t-105.5 149.5q-72 -90 -103.5 -151
t-31.5 -119q0 -54 37.5 -89.5t97.5 -35.5z" />
    <glyph glyph-name="uni0196" unicode="&#x196;" horiz-adv-x="811" 
d="M555 -18q-194 0 -287.5 95.5t-93.5 305.5v1214h250v-1191q0 -111 43 -164.5t135 -53.5q93 0 193 35v-194q-96 -47 -240 -47z" />
    <glyph glyph-name="uni0197" unicode="&#x197;" horiz-adv-x="776" 
d="M512 0h-248v723h-233v186h233v688h248v-688h236v-186h-236v-723z" />
    <glyph glyph-name="uni0198" unicode="&#x198;" horiz-adv-x="1589" 
d="M438 0h-252v1597h252v-774l584 637q82 94 150 132t155 38q137 0 252 -98v-211q-124 88 -213 88q-51 0 -91.5 -24t-103.5 -93l-448 -469l766 -823h-328l-723 786v-786z" />
    <glyph glyph-name="uni0199" unicode="&#x199;" horiz-adv-x="1200" 
d="M383 0h-225v1280q0 201 100.5 304.5t298.5 103.5q155 0 260 -62v-168q-94 43 -209 43q-225 0 -225 -235v-666l526 565h285l-543 -569l572 -596h-303l-537 567v-567z" />
    <glyph glyph-name="uni019D" unicode="&#x19d;" horiz-adv-x="1716" 
d="M84 -514q-61 0 -132.5 16t-121.5 41v193q107 -43 199 -43q85 0 121 48t36 163v1693h281l829 -1267v1267h236v-1597h-281l-829 1268v-1362q0 -221 -80 -320.5t-258 -99.5z" />
    <glyph glyph-name="uni019F" unicode="&#x19f;" horiz-adv-x="1878" 
d="M940 -39q-247 0 -442.5 108.5t-303.5 299.5t-108 430q0 180 63.5 335t175 265.5t271 173.5t344.5 63q186 0 345 -63t270.5 -173.5t174 -265.5t62.5 -335q0 -239 -107 -430t-302 -299.5t-443 -108.5zM940 1432q-246 0 -408 -147.5t-190 -393.5h1194q-25 244 -188 392.5
t-408 148.5zM940 168q245 0 408 147.5t188 393.5h-1194q28 -247 189.5 -394t408.5 -147z" />
    <glyph glyph-name="Ohorn" unicode="&#x1a0;" horiz-adv-x="1912" 
d="M940 -39q-247 0 -442.5 108.5t-303.5 299.5t-108 430q0 180 63.5 335t175 265.5t271 173.5t344.5 63q186 0 345 -63t270.5 -173.5t174 -265.5t62.5 -335q0 -239 -107 -430t-302 -299.5t-443 -108.5zM940 174q264 0 428 173.5t164 451.5t-164 451t-428 173
q-263 0 -427.5 -173t-164.5 -451t164.5 -451.5t427.5 -173.5zM1622 1341q-118 0 -213 68v104q57 -32 123 -32q115 0 115 133q0 92 -52 205h177q73 -130 73 -250q0 -105 -59.5 -166.5t-163.5 -61.5z" />
    <glyph glyph-name="ohorn" unicode="&#x1a1;" horiz-adv-x="1476" 
d="M713 -39q-136 0 -254.5 47.5t-202.5 129.5t-132 198t-48 248q0 178 82 319.5t227.5 221t327.5 79.5t328 -79.5t228.5 -221t82.5 -319.5q0 -132 -48.5 -248t-132.5 -198t-203 -129.5t-255 -47.5zM713 158q181 0 293 119t112 307t-112 307t-293 119q-180 0 -293 -119
t-113 -307t113 -307t293 -119zM1208 967q-104 0 -198 61v113q64 -31 120 -31q62 0 89.5 33t27.5 100q0 100 -57 217h162q73 -130 73 -264q0 -104 -58.5 -166.5t-158.5 -62.5z" />
    <glyph glyph-name="uni01A4" unicode="&#x1a4;" horiz-adv-x="1763" 
d="M791 0h-248v1403h-101q-186 0 -186 -174q0 -105 68 -268h-187q-40 70 -66 153t-26 158q0 159 100.5 242t286.5 83h725q262 0 405.5 -135t143.5 -370q0 -236 -144 -371t-405 -135h-366v-586zM791 1399v-619h346q157 0 239 80.5t82 229.5q0 150 -82 229.5t-239 79.5h-346z
" />
    <glyph glyph-name="uni01A5" unicode="&#x1a5;" horiz-adv-x="1488" 
d="M383 -492h-225v1772q0 201 100.5 304.5t298.5 103.5q73 0 143 -16.5t117 -45.5v-168q-98 45 -207 45q-227 0 -227 -233v-207q0 -33 20 -33q14 0 25 14q65 75 164 117.5t223 42.5q258 0 428 -176t170 -444q0 -132 -45.5 -247t-124.5 -197t-190 -129.5t-238 -47.5
q-124 0 -223 42t-164 118q-11 14 -25 14q-20 0 -20 -33v-596zM776 160q178 0 291 119.5t113 304.5q0 187 -113 306.5t-291 119.5q-177 0 -289 -119t-112 -307q0 -189 112 -306.5t289 -117.5z" />
    <glyph glyph-name="uni01A9" unicode="&#x1a9;" horiz-adv-x="1169" 
d="M1102 0h-1092v4l592 809l-582 778v6h1072v-204h-650l441 -582l-453 -606h672v-205z" />
    <glyph glyph-name="uni01AC" unicode="&#x1ac;" horiz-adv-x="1511" 
d="M969 0h-250v1393l-295 2q-186 0 -186 -172q0 -113 67 -262h-186q-40 70 -66 153t-26 158q0 159 100.5 242t286.5 83h1071v-204h-516v-1393z" />
    <glyph glyph-name="uni01AD" unicode="&#x1ad;" horiz-adv-x="868" 
d="M637 -14q-195 0 -288 96.5t-93 308.5v588h-231v186h231v168q0 172 81 263.5t241 91.5q104 0 184 -39v-164q-56 20 -117 20q-166 0 -166 -196v-144h326v-186h-326v-567q0 -127 45.5 -184.5t159.5 -57.5q82 0 143 20v-176q-72 -28 -190 -28z" />
    <glyph glyph-name="uni01AE" unicode="&#x1ae;" horiz-adv-x="1337" 
d="M922 -514q-191 0 -284 98.5t-93 321.5v1487h-518v204h1284v-204h-516l-2 -1477q0 -120 45 -171.5t141 -51.5q97 0 203 39v-195q-109 -51 -260 -51z" />
    <glyph glyph-name="Uhorn" unicode="&#x1af;" horiz-adv-x="1716" 
d="M827 -41q-303 0 -481 166.5t-178 482.5v989h250v-999q0 -212 105.5 -321t303.5 -109t304 109t106 321v999h219q62 0 86.5 21.5t24.5 69.5q0 64 -56 167h175q71 -110 71 -227q0 -196 -268 -196h-2v-824q0 -212 -83 -359.5t-229.5 -218.5t-347.5 -71z" />
    <glyph glyph-name="uhorn" unicode="&#x1b0;" horiz-adv-x="1411" 
d="M592 -39q-216 0 -333.5 128.5t-117.5 363.5v712h226v-684q0 -154 70 -236.5t200 -82.5q175 0 264 127q92 128 92 358v518h226v-1165h-168q0 62 -11 123q-9 51 -34 51q-10 0 -16.5 -5t-24.5 -26q-133 -182 -373 -182zM1202 1010h-164v157h113q70 0 99.5 26.5t29.5 78.5
q0 82 -51 184h162q65 -123 65 -225q0 -97 -67.5 -159t-186.5 -62z" />
    <glyph glyph-name="uni01B1" unicode="&#x1b1;" horiz-adv-x="1900" 
d="M96 1597h760v-188q-103 -31 -192 -89.5t-157 -139.5t-106.5 -189t-38.5 -229q0 -258 163.5 -425t424.5 -167t423.5 167t162.5 425q0 121 -38 229t-105.5 189t-156 139.5t-192.5 89.5v188h758v-206h-395q166 -93 270.5 -269t104.5 -393q0 -164 -61.5 -306t-169.5 -244
t-263.5 -160t-337.5 -58q-242 0 -432 99.5t-294.5 274.5t-104.5 394q0 216 104 392.5t269 269.5h-396v206z" />
    <glyph glyph-name="uni01B2" unicode="&#x1b2;" horiz-adv-x="1697" 
d="M858 -39q-328 0 -510 188t-182 541v907h248l2 -905q0 -258 115.5 -388t328.5 -130q235 0 356 190.5t121 559.5q0 261 -76 380t-247 119q-104 0 -197 -34v192q128 54 275 51q257 0 377 -173t120 -511q0 -478 -183.5 -732.5t-547.5 -254.5z" />
    <glyph glyph-name="uni01B3" unicode="&#x1b3;" horiz-adv-x="1572" 
d="M852 0h-244v645l-594 952h283l442 -735l342 588q57 96 121.5 137t157.5 41q121 0 219 -84v-205q-100 68 -178 68q-56 0 -92.5 -26t-77.5 -97l-379 -637v-647z" />
    <glyph glyph-name="uni01B4" unicode="&#x1b4;" horiz-adv-x="1234" 
d="M524 -504h-231l213 504l-496 1165h254l369 -915l403 1026q56 141 126 201.5t179 60.5q104 0 166 -45v-166q-63 29 -108 29q-54 0 -85.5 -25.5t-60.5 -93.5z" />
    <glyph glyph-name="uni01B7" unicode="&#x1b7;" horiz-adv-x="1259" 
d="M623 -41q-237 0 -401.5 134.5t-188.5 357.5h246q20 -134 111 -211.5t233 -77.5q141 0 226 85t85 222q0 146 -96 231.5t-256 85.5h-277v5l420 602h-590v204h975v-4l-432 -620q230 -12 366 -149.5t136 -350.5q0 -226 -152.5 -370t-404.5 -144z" />
    <glyph glyph-name="uni01C0" unicode="&#x1c0;" horiz-adv-x="534" 
d="M377 -551h-219v2210h219v-2210z" />
    <glyph glyph-name="uni01C1" unicode="&#x1c1;" horiz-adv-x="917" 
d="M760 -551h-207v2210h207v-2210zM365 -551h-207v2210h207v-2210z" />
    <glyph glyph-name="uni01C2" unicode="&#x1c2;" horiz-adv-x="1146" 
d="M463 217h-369v176h369v324h-369v176h369v766h219v-766h369v-176h-369v-324h369v-176h-369v-768h-219v768z" />
    <glyph glyph-name="uni01C3" unicode="&#x1c3;" horiz-adv-x="475" 
d="M332 496h-187l-26 1163h237zM238 -16q-72 0 -119 44t-47 113t47 113.5t119 44.5q73 0 120.5 -44.5t47.5 -113.5t-47 -113t-121 -44z" />
    <glyph glyph-name="uni01CD" unicode="&#x1cd;" horiz-adv-x="1538" 
d="M10 0h262l150 410h686l147 -410h273l-590 1597h-338zM477 598l287 811l287 -811h-574zM358 2071h189l192 -187q15 -12 25 -12q12 0 27 12l192 187h188l-294 -353h-226z" />
    <glyph glyph-name="uni01CE" unicode="&#x1ce;" horiz-adv-x="1271" 
d="M524 -37q243 0 363 168q22 31 37 31q18 0 24 -35q11 -36 15 -127h170v729q0 228 -128.5 351.5t-365.5 123.5q-214 0 -352 -106q-140 -106 -174 -275h233q25 94 101.5 147.5t193.5 53.5q130 0 200 -74t70 -209v-4q-117 -28 -366 -45q-236 -19 -350.5 -107t-114.5 -253
q0 -166 121 -269q121 -100 323 -100zM309 336q0 88 61 132t201 56q253 24 340 49v-8q0 -145 -55 -258q-77 -168 -295 -168q-116 0 -184 53t-68 144zM244 1743h164l178 -209q24 -27 43 -27t43 27l178 209h164l-297 -434h-176z" />
    <glyph glyph-name="uni01CF" unicode="&#x1cf;" horiz-adv-x="622" 
d="M186 0h250v1597h-250v-1597zM-94 2071h188l193 -187q15 -12 24 -12q12 0 27 12l192 187h189l-295 -353h-225z" />
    <glyph glyph-name="uni01D0" unicode="&#x1d0;" horiz-adv-x="544" 
d="M385 0h-225v1165h225v-1165zM358 1313h-172l-249 434h149l145 -207q20 -33 41 -33t41 33l146 207h149z" />
    <glyph glyph-name="uni01D1" unicode="&#x1d1;" horiz-adv-x="1878" 
d="M940 -39q248 0 443 108.5t302 299.5t107 430q0 180 -62.5 335t-174 265.5t-270.5 173.5t-345 63q-185 0 -344.5 -63t-271 -173.5t-175 -265.5t-63.5 -335q0 -239 108 -430t303.5 -299.5t442.5 -108.5zM940 174q-263 0 -427.5 173.5t-164.5 451.5t164.5 451t427.5 173
q264 0 428 -173t164 -451t-164 -451.5t-428 -173.5zM532 2071h189l192 -187q15 -12 25 -12q12 0 27 12l192 187h189l-295 -353h-226z" />
    <glyph glyph-name="uni01D2" unicode="&#x1d2;" horiz-adv-x="1425" 
d="M713 -39q136 0 255 47.5t203 129.5t132.5 198t48.5 248q0 178 -82.5 319.5t-228.5 221t-328 79.5t-327.5 -79.5t-227.5 -221t-82 -319.5q0 -132 48 -248t132 -198t202.5 -129.5t254.5 -47.5zM713 158q-180 0 -293 119t-113 307t113 307t293 119q181 0 293 -119t112 -307
t-112 -307t-293 -119zM328 1747h164l178 -209q24 -27 43 -27t43 27l178 209h164l-297 -434h-176z" />
    <glyph glyph-name="uni01D3" unicode="&#x1d3;" horiz-adv-x="1654" 
d="M827 -41q201 0 347.5 71t229.5 218.5t83 359.5v989h-250v-999q0 -212 -106 -321t-304 -109t-303.5 109t-105.5 321v999h-250v-989q0 -316 178 -482.5t481 -166.5zM422 2071h188l193 -187q15 -12 24 -12q12 0 27 12l193 187h188l-295 -353h-225z" />
    <glyph glyph-name="uni01D4" unicode="&#x1d4;" horiz-adv-x="1374" 
d="M592 -39q240 0 373 182q18 21 24.5 26t16.5 5q25 0 34 -51q11 -61 11 -123h168v1165h-226v-518q0 -230 -92 -358q-89 -127 -264 -127q-130 0 -200 82.5t-70 236.5v684h-226v-712q0 -235 117.5 -363.5t333.5 -128.5zM295 1747h164l178 -209q24 -27 43 -27t43 27l178 209
h164l-297 -434h-176z" />
    <glyph glyph-name="uni01D5" unicode="&#x1d5;" horiz-adv-x="1654" 
d="M827 -41q-303 0 -481 166.5t-178 482.5v989h250v-999q0 -212 105.5 -321t303.5 -109t304 109t106 321v999h250v-989q0 -212 -83 -359.5t-229.5 -218.5t-347.5 -71zM1057 1751q-58 0 -93.5 36t-35.5 89t35.5 89t93.5 36q56 0 92.5 -36.5t36.5 -88.5q0 -53 -35.5 -89
t-93.5 -36zM598 1751q-58 0 -93.5 36t-35.5 89t35.5 89t93.5 36q56 0 92.5 -36.5t36.5 -88.5q0 -53 -35.5 -89t-93.5 -36zM1149 2136h-643v156h643v-156z" />
    <glyph glyph-name="uni01D6" unicode="&#x1d6;" horiz-adv-x="1374" 
d="M592 -39q-216 0 -333.5 128.5t-117.5 363.5v712h226v-684q0 -154 70 -236.5t200 -82.5q175 0 264 127q92 128 92 358v518h226v-1165h-168q0 62 -11 123q-9 51 -34 51q-10 0 -16.5 -5t-24.5 -26q-133 -182 -373 -182zM901 1309q-55 0 -90 34t-35 84q0 51 35 85t90 34
q56 0 91.5 -33.5t35.5 -85.5q0 -50 -35.5 -84t-91.5 -34zM459 1309q-56 0 -90.5 33.5t-34.5 84.5q0 52 34.5 85.5t90.5 33.5q55 0 91 -34t36 -85q0 -50 -36 -84t-91 -34zM995 1665h-630v147h630v-147z" />
    <glyph glyph-name="uni01D7" unicode="&#x1d7;" horiz-adv-x="1654" 
d="M827 -41q-303 0 -481 166.5t-178 482.5v989h250v-999q0 -212 105.5 -321t303.5 -109t304 109t106 321v999h250v-989q0 -212 -83 -359.5t-229.5 -218.5t-347.5 -71zM1057 1751q-58 0 -93.5 36t-35.5 89t35.5 89t93.5 36q56 0 92.5 -36.5t36.5 -88.5q0 -53 -35.5 -89
t-93.5 -36zM598 1751q-58 0 -93.5 36t-35.5 89t35.5 89t93.5 36q56 0 92.5 -36.5t36.5 -88.5q0 -53 -35.5 -89t-93.5 -36zM907 2085h-184l242 321h245z" />
    <glyph glyph-name="uni01D8" unicode="&#x1d8;" horiz-adv-x="1374" 
d="M592 -39q240 0 373 182q18 21 24.5 26t16.5 5q25 0 34 -51q11 -61 11 -123h168v1165h-226v-518q0 -230 -92 -358q-89 -127 -264 -127q-130 0 -200 82.5t-70 236.5v684h-226v-712q0 -235 117.5 -363.5t333.5 -128.5zM901 1309q56 0 91.5 34t35.5 84q0 52 -35.5 85.5
t-91.5 33.5q-55 0 -90 -34t-35 -85q0 -50 35 -84t90 -34zM459 1309q55 0 91 34t36 84q0 51 -36 85t-91 34q-56 0 -90.5 -33.5t-34.5 -85.5q0 -51 34.5 -84.5t90.5 -33.5zM748 1630h-148l178 342h211z" />
    <glyph glyph-name="uni01D9" unicode="&#x1d9;" horiz-adv-x="1654" 
d="M827 -41q201 0 347.5 71t229.5 218.5t83 359.5v989h-250v-999q0 -212 -106 -321t-304 -109t-303.5 109t-105.5 321v999h-250v-989q0 -316 178 -482.5t481 -166.5zM1057 1751q58 0 93.5 36t35.5 89q0 52 -36.5 88.5t-92.5 36.5q-58 0 -93.5 -36t-35.5 -89t35.5 -89
t93.5 -36zM598 1751q58 0 93.5 36t35.5 89q0 52 -36.5 88.5t-92.5 36.5q-58 0 -93.5 -36t-35.5 -89t35.5 -89t93.5 -36zM444 2398h191l168 -160q10 -10 24 -10q12 0 25 10l168 160h190l-270 -317h-225z" />
    <glyph glyph-name="uni01DA" unicode="&#x1da;" horiz-adv-x="1374" 
d="M592 -39q240 0 373 182q18 21 24.5 26t16.5 5q25 0 34 -51q11 -61 11 -123h168v1165h-226v-518q0 -230 -92 -358q-89 -127 -264 -127q-130 0 -200 82.5t-70 236.5v684h-226v-712q0 -235 117.5 -363.5t333.5 -128.5zM901 1309q56 0 91.5 34t35.5 84q0 52 -35.5 85.5
t-91.5 33.5q-55 0 -90 -34t-35 -85q0 -50 35 -84t90 -34zM459 1309q55 0 91 34t36 84q0 51 -36 85t-91 34q-56 0 -90.5 -33.5t-34.5 -85.5q0 -51 34.5 -84.5t90.5 -33.5zM332 2005h160l151 -172q21 -21 37 -21t37 21l151 172h160l-264 -375h-168z" />
    <glyph glyph-name="uni01DB" unicode="&#x1db;" horiz-adv-x="1654" 
d="M827 -41q201 0 347.5 71t229.5 218.5t83 359.5v989h-250v-999q0 -212 -106 -321t-304 -109t-303.5 109t-105.5 321v999h-250v-989q0 -316 178 -482.5t481 -166.5zM1057 1751q58 0 93.5 36t35.5 89q0 52 -36.5 88.5t-92.5 36.5q-58 0 -93.5 -36t-35.5 -89t35.5 -89
t93.5 -36zM598 1751q58 0 93.5 36t35.5 89q0 52 -36.5 88.5t-92.5 36.5q-58 0 -93.5 -36t-35.5 -89t35.5 -89t93.5 -36zM915 2085h-184l-303 321h246z" />
    <glyph glyph-name="uni01DC" unicode="&#x1dc;" horiz-adv-x="1374" 
d="M592 -39q-216 0 -333.5 128.5t-117.5 363.5v712h226v-684q0 -154 70 -236.5t200 -82.5q175 0 264 127q92 128 92 358v518h226v-1165h-168q0 62 -11 123q-9 51 -34 51q-10 0 -16.5 -5t-24.5 -26q-133 -182 -373 -182zM901 1309q-55 0 -90 34t-35 84q0 51 35 85t90 34
q56 0 91.5 -33.5t35.5 -85.5q0 -50 -35.5 -84t-91.5 -34zM459 1309q-56 0 -90.5 33.5t-34.5 84.5q0 52 34.5 85.5t90.5 33.5q55 0 91 -34t36 -85q0 -50 -36 -84t-91 -34zM760 1630h-148l-241 342h211z" />
    <glyph glyph-name="uni01DD" unicode="&#x1dd;" horiz-adv-x="1347" 
d="M676 -39q-264 0 -431 165t-167 423q0 52 6 100h956q-8 168 -107 270.5t-259 102.5q-126 0 -217.5 -57.5t-130.5 -153.5h-230q50 180 203.5 285.5t374.5 105.5q266 0 432 -170.5t166 -447.5q0 -271 -169 -447t-427 -176zM676 141q151 0 249.5 97t112.5 256h-739
q3 -156 109 -256q108 -97 268 -97z" />
    <glyph glyph-name="uni01DE" unicode="&#x1de;" horiz-adv-x="1538" 
d="M272 0h-262l590 1597h338l590 -1597h-273l-147 410h-686zM764 1409l-287 -811h574zM993 1751q-58 0 -93.5 36t-35.5 89t35.5 89t93.5 36q56 0 92.5 -36.5t36.5 -88.5q0 -53 -35.5 -89t-93.5 -36zM535 1751q-58 0 -93.5 36t-35.5 89t35.5 89t93.5 36q56 0 92.5 -36.5
t36.5 -88.5q0 -53 -35.5 -89t-93.5 -36zM1085 2136h-643v156h643v-156z" />
    <glyph glyph-name="uni01DF" unicode="&#x1df;" horiz-adv-x="1271" 
d="M524 -37q-202 0 -323 100q-121 103 -121 269q0 165 114.5 253t350.5 107q249 17 366 45v4q0 135 -70 209t-200 74q-117 0 -193.5 -53.5t-101.5 -147.5h-233q34 169 174 275q138 106 352 106q237 0 365.5 -123.5t128.5 -351.5v-729h-170q-4 91 -15 127q-6 35 -24 35
q-15 0 -37 -31q-120 -168 -363 -168zM309 336q0 -91 68 -144t184 -53q218 0 295 168q55 113 55 258v8q-87 -25 -340 -49q-140 -12 -201 -56t-61 -132zM850 1307q-55 0 -90 34t-35 84q0 51 35 85t90 34q56 0 91.5 -33.5t35.5 -85.5q0 -50 -35.5 -84t-91.5 -34zM408 1307
q-56 0 -90.5 33.5t-34.5 84.5q0 52 34.5 85.5t90.5 33.5q55 0 91 -34t36 -85q0 -50 -36 -84t-91 -34zM944 1663h-631v147h631v-147z" />
    <glyph glyph-name="uni01E4" unicode="&#x1e4;" horiz-adv-x="1998" 
d="M895 -37q-172 0 -320.5 60.5t-256 168t-169 264t-61.5 341.5q0 244 109 436t302.5 297.5t438.5 105.5q312 0 526.5 -159.5t266.5 -436.5h-265q-44 183 -181 283t-341 100q-261 0 -427.5 -169.5t-166.5 -450.5q0 -282 161 -456.5t425 -174.5q323 0 465 266l18 41h-366v170
h415q9 43 15 90h231v-90h250v-170h-250v-479h-174q-2 20 -5.5 69.5t-6 80.5t-6.5 49q-9 51 -35 51q-22 0 -49 -37q-90 -118 -229 -184t-314 -66z" />
    <glyph glyph-name="uni01E5" unicode="&#x1e5;" horiz-adv-x="1654" 
d="M231 532h-176v150h176q25 230 184 375t380 145q239 0 395 -170q28 -31 45 -31q22 0 31 46q10 65 10 118h168v-483h180v-150h-180v-514q0 -248 -156.5 -391t-421.5 -143q-237 0 -394 118t-208 312h232q32 -118 132.5 -186t237.5 -68q172 0 265.5 91.5t93.5 258.5v144
q0 32 -21 32q-9 0 -30 -18q-63 -69 -159 -107t-208 -38q-231 0 -391 142.5t-185 366.5zM846 1010q-154 0 -258 -89.5t-127 -238.5h768q-23 150 -126.5 239t-256.5 89zM846 207q153 0 256.5 88.5t126.5 236.5h-768q23 -147 127.5 -236t257.5 -89z" />
    <glyph glyph-name="Gcaron" unicode="&#x1e6;" horiz-adv-x="1835" 
d="M895 -37q175 0 314 66t229 184q27 37 49 37q26 0 35 -51q4 -18 6.5 -49t6 -80.5t5.5 -69.5h174v762h-229q-17 -195 -84 -324q-142 -266 -465 -266q-264 0 -425 174.5t-161 456.5q0 281 166.5 450.5t427.5 169.5q204 0 341 -100t181 -283h265q-52 277 -266.5 436.5
t-526.5 159.5q-245 0 -438.5 -105.5t-302.5 -297.5t-109 -436q0 -185 61.5 -341.5t169 -264t256 -168t320.5 -60.5zM518 2071h189l192 -187q15 -12 25 -12q11 0 26 12l193 187h188l-295 -353h-225z" />
    <glyph glyph-name="gcaron" unicode="&#x1e7;" horiz-adv-x="1449" 
d="M719 -514q265 0 421 143t156 391v1145h-168q-7 -93 -12 -118q-6 -46 -29 -46q-19 0 -47 31q-153 170 -393 170q-117 0 -221.5 -44t-180.5 -121t-120.5 -188.5t-44.5 -240.5q0 -167 74 -300.5t206.5 -209t298.5 -75.5q112 0 208 38t159 107q21 18 31 18q20 0 20 -32v-142
q0 -167 -93 -258.5t-265 -91.5q-138 0 -238.5 68t-132.5 186h-231q51 -194 208 -312t394 -118zM696 211q-169 0 -277 111t-108 286t108 287.5t277 112.5q171 0 278 -112t107 -288q0 -177 -107 -287t-278 -110zM346 1747h164l178 -209q24 -27 43 -27t43 27l178 209h164
l-297 -434h-176z" />
    <glyph glyph-name="uni01E8" unicode="&#x1e8;" horiz-adv-x="1460" 
d="M186 0h250v786l723 -786h328l-764 819l733 778h-297l-723 -774v774h-250v-1597zM344 2071h188l193 -187q15 -12 25 -12q11 0 26 12l193 187h188l-295 -353h-225z" />
    <glyph glyph-name="uni01E9" unicode="&#x1e9;" horiz-adv-x="1200" 
d="M158 0h225v567l537 -567h305l-574 596l543 569h-285l-526 -565v1059h-225v-1659zM-139 2132h188l193 -186q16 -13 24 -13q11 0 27 13l192 186h189l-295 -352h-225z" />
    <glyph glyph-name="uni01EA" unicode="&#x1ea;" horiz-adv-x="1878" 
d="M940 -39q-247 0 -442.5 108.5t-303.5 299.5t-108 430q0 180 63.5 335t175 265.5t271 173.5t344.5 63q186 0 345 -63t270.5 -173.5t174 -265.5t62.5 -335q0 -239 -107 -430t-302 -299.5t-443 -108.5zM940 174q264 0 428 173.5t164 451.5t-164 451t-428 173
q-263 0 -427.5 -173t-164.5 -451t164.5 -451.5t427.5 -173.5zM1260 -494q-125 0 -201 60.5t-76 167.5q0 104 74.5 193t240.5 186l72 -50q-196 -135 -199 -276q0 -58 32.5 -86.5t90.5 -28.5q84 0 158 31v-154q-88 -43 -192 -43z" />
    <glyph glyph-name="uni01EB" unicode="&#x1eb;" horiz-adv-x="1425" 
d="M713 -39q-136 0 -254.5 47.5t-202.5 129.5t-132 198t-48 248q0 178 82 319.5t227.5 221t327.5 79.5t328 -79.5t228.5 -221t82.5 -319.5q0 -132 -48.5 -248t-132.5 -198t-203 -129.5t-255 -47.5zM713 158q181 0 293 119t112 307t-112 307t-293 119q-180 0 -293 -119
t-113 -307t113 -307t293 -119zM961 -485q-120 0 -193.5 59.5t-73.5 163.5q0 103 72.5 192t237.5 185l71 -52q-207 -145 -207 -282q0 -56 34 -84.5t95 -28.5q64 0 131 25v-144q-75 -34 -167 -34z" />
    <glyph glyph-name="uni01EC" unicode="&#x1ec;" horiz-adv-x="1878" 
d="M940 -39q-247 0 -442.5 108.5t-303.5 299.5t-108 430q0 180 63.5 335t175 265.5t271 173.5t344.5 63q186 0 345 -63t270.5 -173.5t174 -265.5t62.5 -335q0 -239 -107 -430t-302 -299.5t-443 -108.5zM940 174q264 0 428 173.5t164 451.5t-164 451t-428 173
q-263 0 -427.5 -173t-164.5 -451t164.5 -451.5t427.5 -173.5zM1284 1763h-688v162h688v-162zM1260 -494q-125 0 -201 60.5t-76 167.5q0 104 74.5 193t240.5 186l72 -50q-196 -135 -199 -276q0 -58 32.5 -86.5t90.5 -28.5q84 0 158 31v-154q-88 -43 -192 -43z" />
    <glyph glyph-name="uni01ED" unicode="&#x1ed;" horiz-adv-x="1425" 
d="M713 -39q-136 0 -254.5 47.5t-202.5 129.5t-132 198t-48 248q0 178 82 319.5t227.5 221t327.5 79.5t328 -79.5t228.5 -221t82.5 -319.5q0 -132 -48.5 -248t-132.5 -198t-203 -129.5t-255 -47.5zM713 158q181 0 293 119t112 307t-112 307t-293 119q-180 0 -293 -119
t-113 -307t113 -307t293 -119zM961 -485q-120 0 -193.5 59.5t-73.5 163.5q0 103 72.5 192t237.5 185l71 -52q-207 -145 -207 -282q0 -56 34 -84.5t95 -28.5q64 0 131 25v-144q-75 -34 -167 -34zM1057 1370h-688v162h688v-162z" />
    <glyph glyph-name="uni01EE" unicode="&#x1ee;" horiz-adv-x="1259" 
d="M623 -41q252 0 404.5 144t152.5 370q0 213 -136 350.5t-366 149.5l432 620v4h-975v-204h590l-420 -602v-5h277q160 0 256 -85.5t96 -231.5q0 -137 -85 -222t-226 -85q-142 0 -233 77.5t-111 211.5h-246q24 -223 188.5 -357.5t401.5 -134.5zM205 2071h188l193 -187
q15 -12 24 -12q12 0 27 12l192 187h189l-295 -353h-225z" />
    <glyph glyph-name="uni01EF" unicode="&#x1ef;" horiz-adv-x="1173" 
d="M592 -516q238 0 392.5 147t154.5 381q0 221 -141.5 361.5t-374.5 146.5l454 641v4h-975v-186h623l-446 -625v-4h264q173 0 271.5 -91.5t98.5 -250.5q0 -152 -90 -244t-237 -92q-141 0 -235.5 73t-119.5 200h-227q28 -211 188 -336t400 -125zM184 1747h164l178 -209
q24 -27 43 -27t43 27l179 209h163l-297 -434h-176z" />
    <glyph glyph-name="uni01F0" unicode="&#x1f0;" horiz-adv-x="544" 
d="M385 -487h-225v1652h225v-1652zM358 1313h-172l-249 434h149l145 -207q20 -33 41 -33t41 33l146 207h149z" />
    <glyph glyph-name="uni01F8" unicode="&#x1f8;" horiz-adv-x="1716" 
d="M422 0h-236v1597h281l829 -1267v1267h236v-1597h-281l-829 1268v-1268zM975 1718h-238l-422 340h303z" />
    <glyph glyph-name="uni01F9" unicode="&#x1f9;" horiz-adv-x="1380" 
d="M383 0h-225v1165h166q5 -95 12 -131q9 -53 35 -53q19 0 39 31q137 192 387 192q211 0 326.5 -128t115.5 -361v-715h-225v686q0 154 -68 236t-196 82q-178 0 -273 -136q-94 -131 -94 -379v-489zM793 1313h-189l-303 434h260z" />
    <glyph glyph-name="Aringacute" unicode="&#x1fa;" horiz-adv-x="1538" 
d="M272 0h-262l590 1597h338l590 -1597h-273l-147 410h-686zM764 1409l-287 -811h574zM764 1708q-106 0 -174 63t-68 160q0 98 68 162t174 64q104 0 173 -64t69 -162q0 -97 -68 -160t-174 -63zM764 1831q43 0 72.5 28.5t29.5 71.5q0 44 -29.5 73.5t-72.5 29.5
q-44 0 -73 -29.5t-29 -73.5q0 -43 29 -71.5t73 -28.5zM844 2081h-185l242 321h246z" />
    <glyph glyph-name="aringacute" unicode="&#x1fb;" horiz-adv-x="1271" 
d="M524 -37q243 0 363 168q22 31 37 31q18 0 24 -35q11 -36 15 -127h170v729q0 228 -128.5 351.5t-365.5 123.5q-214 0 -352 -106q-140 -106 -174 -275h233q25 94 101.5 147.5t193.5 53.5q130 0 200 -74t70 -209v-4q-117 -28 -366 -45q-236 -19 -350.5 -107t-114.5 -253
q0 -166 121 -269q121 -100 323 -100zM309 336q0 88 61 132t201 56q253 24 340 49v-8q0 -145 -55 -258q-77 -168 -295 -168q-116 0 -184 53t-68 144zM629 1292q100 0 164.5 59.5t64.5 151.5t-64.5 151.5t-164.5 59.5t-165 -59.5t-65 -151.5t65 -151.5t165 -59.5zM629 1403
q-44 0 -73.5 28.5t-29.5 71.5t29.5 72t73.5 29t74 -29t30 -72t-30 -71.5t-74 -28.5zM696 1634h-147l178 342h211z" />
    <glyph glyph-name="AEacute" unicode="&#x1fc;" horiz-adv-x="2187" 
d="M-57 0h290l316 516h522v-516h1047v205h-801v506h655v198h-655v484h760v204h-1155zM655 713l416 690v-690h-416zM1534 1718h-238l357 340h303z" />
    <glyph glyph-name="aeacute" unicode="&#x1fd;" horiz-adv-x="2154" 
d="M569 -37q162 -2 285 73.5t170 205.5q62 -131 189.5 -205t297.5 -74q210 0 356 105t189 288h-227q-29 -97 -115 -154t-207 -57q-164 0 -261 102t-103 271h925q9 27 9 103q0 257 -157.5 420t-410.5 163q-149 0 -269.5 -63t-192.5 -178q-49 115 -158.5 177t-259.5 62
q-206 3 -342 -106t-170 -277h233q25 96 100 150.5t181 54.5q276 0 276 -336v-12h-393q-207 0 -321.5 -89.5t-114.5 -246.5q0 -175 134 -276t357 -101zM1505 1024q152 0 248 -96t100 -254l-710 2q14 159 111 253.5t251 94.5zM580 135q-124 0 -198.5 55.5t-74.5 147.5
q0 180 252 180h346q-10 -200 -88 -291.5t-237 -91.5zM1155 1315h-188l231 434h260z" />
    <glyph glyph-name="Oslashacute" unicode="&#x1fe;" horiz-adv-x="1878" 
d="M131 -100h258l123 161q186 -100 428 -100q248 0 443 108.5t302 299.5t107 430q0 187 -65.5 344.5t-188.5 271.5l213 283h-262l-123 -162q-183 100 -426 100q-185 0 -344.5 -63t-271 -173.5t-175 -265.5t-63.5 -335q0 -186 66.5 -344t189.5 -275zM338 799q0 283 167 458
t435 175q173 0 307 -76l-758 -1000q-151 171 -151 443zM940 168q-171 0 -307 74l758 999q151 -178 151 -442q0 -282 -167 -456.5t-435 -174.5zM1063 1718h-238l357 340h303z" />
    <glyph glyph-name="oslashacute" unicode="&#x1ff;" horiz-adv-x="1425" 
d="M111 -100h221l88 125q134 -64 293 -64q136 0 255 47.5t203 129.5t132.5 198t48.5 248q0 138 -52 255.5t-147 204.5l162 224h-219l-90 -125q-134 61 -293 61q-182 0 -327.5 -79.5t-227.5 -221t-82 -319.5q0 -139 50.5 -257t143.5 -204zM295 584q0 193 116.5 314.5
t301.5 121.5q104 0 188 -41l-502 -698q-104 120 -104 303zM713 147q-104 0 -191 41l502 699q106 -118 106 -303q0 -194 -115.5 -315.5t-301.5 -121.5zM807 1313h-189l232 434h260z" />
    <glyph glyph-name="uni0218" unicode="&#x218;" horiz-adv-x="1343" 
d="M694 -41q-266 0 -438.5 143.5t-194.5 378.5h244q23 -155 128 -241t269 -86q140 0 226 69.5t86 179.5q0 127 -81.5 194.5t-283.5 113.5q-271 66 -389.5 178t-118.5 303q0 200 145.5 322t387.5 122q237 0 380 -121.5t169 -338.5h-240q-19 129 -97.5 199.5t-211.5 70.5
q-130 0 -208.5 -65t-78.5 -175q0 -104 67 -165.5t232 -102.5q304 -73 439 -191.5t135 -324.5q0 -207 -157.5 -335t-408.5 -128zM688 -539h-160l86 418h211z" />
    <glyph glyph-name="uni0219" unicode="&#x219;" horiz-adv-x="1130" 
d="M588 -39q-221 0 -359.5 101.5t-167.5 281.5h232q18 -99 93.5 -154t203.5 -55q110 0 178 46.5t68 121.5q0 80 -60 122t-223 69q-235 43 -334.5 127t-99.5 239q0 153 122 248.5t318 95.5q209 0 330 -94.5t141 -271.5h-221q-19 99 -78 145.5t-168 46.5q-103 0 -164 -42.5
t-61 -115.5q0 -74 56.5 -113.5t197.5 -64.5q261 -46 362 -128t101 -249q0 -156 -131 -256t-336 -100zM578 -610h-156l94 456h211z" />
    <glyph glyph-name="uni021A" unicode="&#x21a;" horiz-adv-x="1337" 
d="M795 0h-250v1393h-518v204h1284v-204h-516v-1393zM635 -539h-160l86 418h211z" />
    <glyph glyph-name="uni021B" unicode="&#x21b;" horiz-adv-x="868" 
d="M637 -14q-195 0 -288 96.5t-93 308.5v588h-231v186h131q64 0 95.5 23t43.5 74q23 149 29 247h155v-344h326v-186h-326v-567q0 -130 46.5 -186t158.5 -56q82 0 143 20v-176q-72 -28 -190 -28zM516 -608h-156l95 456h211z" />
    <glyph glyph-name="uni021E" unicode="&#x21e;" horiz-adv-x="1683" 
d="M186 0h250v707h813v-707h248v1597h-248v-688h-813v688h-250v-1597zM436 2071h189l192 -187q15 -12 25 -12q11 0 26 12l193 187h188l-295 -353h-225z" />
    <glyph glyph-name="uni021F" unicode="&#x21f;" horiz-adv-x="1380" 
d="M158 0h225v489q0 248 94 379q95 136 273 136q128 0 196 -82t68 -236v-686h225v713q0 234 -114.5 362.5t-319.5 128.5q-234 0 -365 -174q-21 -29 -37 -29q-20 0 -20 33v625h-225v-1659zM-137 2132h188l193 -186q16 -13 24 -13q11 0 27 13l192 186h189l-295 -352h-225z" />
    <glyph glyph-name="uni0226" unicode="&#x226;" horiz-adv-x="1538" 
d="M272 0h-262l590 1597h338l590 -1597h-273l-147 410h-686zM764 1409l-287 -811h574zM764 1747q-62 0 -101.5 38.5t-39.5 94.5q0 58 39.5 96.5t101.5 38.5t100.5 -38.5t38.5 -96.5q0 -57 -38.5 -95t-100.5 -38z" />
    <glyph glyph-name="uni0227" unicode="&#x227;" horiz-adv-x="1271" 
d="M524 -37q-202 0 -323 100q-121 103 -121 269q0 165 114.5 253t350.5 107q249 17 366 45v4q0 135 -70 209t-200 74q-117 0 -193.5 -53.5t-101.5 -147.5h-233q34 169 174 275q138 106 352 106q237 0 365.5 -123.5t128.5 -351.5v-729h-170q-4 91 -15 127q-6 35 -24 35
q-15 0 -37 -31q-120 -168 -363 -168zM309 336q0 -91 68 -144t184 -53q218 0 295 168q55 113 55 258v8q-87 -25 -340 -49q-140 -12 -201 -56t-61 -132zM627 1337q-62 0 -102 39t-40 97t40 96.5t102 38.5t101.5 -38.5t39.5 -96.5t-39.5 -97t-101.5 -39z" />
    <glyph glyph-name="uni0228" unicode="&#x228;" horiz-adv-x="1341" 
d="M1272 0h-1086v1597h1045v-204h-799v-484h694v-198h-694v-506h840v-205zM793 -532q-152 0 -240 83t-96 226h180q6 -75 45.5 -116.5t105.5 -41.5q60 0 92.5 30.5t32.5 86.5q0 64 -64.5 133t-186.5 131l174 18q117 -48 184 -127.5t67 -175.5q0 -110 -80 -178.5t-214 -68.5z
" />
    <glyph glyph-name="uni0229" unicode="&#x229;" horiz-adv-x="1349" 
d="M690 -37q-274 0 -443 171.5t-169 449.5q0 178 80 320t217.5 221t306.5 79q137 0 249 -45t186.5 -124.5t114.5 -186.5t40 -232q0 -41 -6 -110h-957q12 -165 114.5 -263t266.5 -98q124 0 214.5 57t119.5 154h229q-42 -177 -194 -286q-149 -107 -369 -107zM688 1024
q-155 0 -257.5 -93t-119.5 -251h740q-6 154 -107 249t-256 95zM711 -530q-149 0 -234.5 83.5t-93.5 223.5h168q8 -76 50 -120t110 -44q61 0 95 31.5t34 87.5q0 64 -66.5 135t-189.5 133h184q106 -44 167.5 -120t61.5 -161q0 -111 -76.5 -180t-209.5 -69z" />
    <glyph glyph-name="uni022A" unicode="&#x22a;" horiz-adv-x="1878" 
d="M940 -39q-247 0 -442.5 108.5t-303.5 299.5t-108 430q0 180 63.5 335t175 265.5t271 173.5t344.5 63q186 0 345 -63t270.5 -173.5t174 -265.5t62.5 -335q0 -239 -107 -430t-302 -299.5t-443 -108.5zM940 174q264 0 428 173.5t164 451.5t-164 451t-428 173
q-263 0 -427.5 -173t-164.5 -451t164.5 -451.5t427.5 -173.5zM1169 1751q-58 0 -93.5 36t-35.5 89t35.5 89t93.5 36q56 0 92.5 -36.5t36.5 -88.5q0 -53 -35.5 -89t-93.5 -36zM711 1751q-58 0 -93.5 36t-35.5 89t35.5 89t93.5 36q56 0 92.5 -36.5t36.5 -88.5q0 -53 -35.5 -89
t-93.5 -36zM1262 2136h-644v156h644v-156z" />
    <glyph glyph-name="uni022B" unicode="&#x22b;" horiz-adv-x="1425" 
d="M713 -39q-136 0 -254.5 47.5t-202.5 129.5t-132 198t-48 248q0 178 82 319.5t227.5 221t327.5 79.5t328 -79.5t228.5 -221t82.5 -319.5q0 -132 -48.5 -248t-132.5 -198t-203 -129.5t-255 -47.5zM713 158q181 0 293 119t112 307t-112 307t-293 119q-180 0 -293 -119
t-113 -307t113 -307t293 -119zM934 1309q-55 0 -90 34t-35 84q0 51 35 85t90 34q56 0 91.5 -33.5t35.5 -85.5q0 -50 -35.5 -84t-91.5 -34zM492 1309q-56 0 -90.5 33.5t-34.5 84.5q0 52 34.5 85.5t90.5 33.5q55 0 90.5 -34t35.5 -85q0 -50 -35.5 -84t-90.5 -34zM1028 1665
h-631v147h631v-147z" />
    <glyph glyph-name="uni022C" unicode="&#x22c;" horiz-adv-x="1878" 
d="M940 -39q-247 0 -442.5 108.5t-303.5 299.5t-108 430q0 180 63.5 335t175 265.5t271 173.5t344.5 63q186 0 345 -63t270.5 -173.5t174 -265.5t62.5 -335q0 -239 -107 -430t-302 -299.5t-443 -108.5zM940 174q264 0 428 173.5t164 451.5t-164 451t-428 173
q-263 0 -427.5 -173t-164.5 -451t164.5 -451.5t427.5 -173.5zM1085 1733q-46 0 -91.5 20t-75.5 44.5t-65 44.5t-62 20q-72 0 -95 -109h-129q14 118 75.5 188t154.5 70q46 0 90.5 -20t74.5 -44.5t65 -44.5t63 -20q70 0 94 111h131q-18 -121 -77 -190.5t-153 -69.5zM1262 2150
h-644v156h644v-156z" />
    <glyph glyph-name="uni022D" unicode="&#x22d;" horiz-adv-x="1425" 
d="M713 -39q-136 0 -254.5 47.5t-202.5 129.5t-132 198t-48 248q0 178 82 319.5t227.5 221t327.5 79.5t328 -79.5t228.5 -221t82.5 -319.5q0 -132 -48.5 -248t-132.5 -198t-203 -129.5t-255 -47.5zM713 158q181 0 293 119t112 307t-112 307t-293 119q-180 0 -293 -119
t-113 -307t113 -307t293 -119zM840 1329q-39 0 -77.5 17t-63.5 37.5t-55 37.5t-56 17q-68 0 -86 -95h-133q14 110 72 177t145 67q41 0 79.5 -17t63.5 -37t54.5 -37t54.5 -17q70 0 88 94h133q-18 -112 -75.5 -178t-143.5 -66zM1028 1726h-631v148h631v-148z" />
    <glyph glyph-name="uni022E" unicode="&#x22e;" horiz-adv-x="1878" 
d="M940 -39q-247 0 -442.5 108.5t-303.5 299.5t-108 430q0 180 63.5 335t175 265.5t271 173.5t344.5 63q186 0 345 -63t270.5 -173.5t174 -265.5t62.5 -335q0 -239 -107 -430t-302 -299.5t-443 -108.5zM940 174q264 0 428 173.5t164 451.5t-164 451t-428 173
q-263 0 -427.5 -173t-164.5 -451t164.5 -451.5t427.5 -173.5zM940 1747q-62 0 -101.5 38.5t-39.5 94.5q0 58 39.5 96.5t101.5 38.5t100.5 -38.5t38.5 -96.5q0 -57 -38.5 -95t-100.5 -38z" />
    <glyph glyph-name="uni022F" unicode="&#x22f;" horiz-adv-x="1425" 
d="M713 -39q-136 0 -254.5 47.5t-202.5 129.5t-132 198t-48 248q0 178 82 319.5t227.5 221t327.5 79.5t328 -79.5t228.5 -221t82.5 -319.5q0 -132 -48.5 -248t-132.5 -198t-203 -129.5t-255 -47.5zM713 158q181 0 293 119t112 307t-112 307t-293 119q-180 0 -293 -119
t-113 -307t113 -307t293 -119zM713 1339q-62 0 -102 39t-40 97t40 96.5t102 38.5t101.5 -38.5t39.5 -96.5t-39.5 -97t-101.5 -39z" />
    <glyph glyph-name="uni0230" unicode="&#x230;" horiz-adv-x="1878" 
d="M940 -39q-247 0 -442.5 108.5t-303.5 299.5t-108 430q0 180 63.5 335t175 265.5t271 173.5t344.5 63q186 0 345 -63t270.5 -173.5t174 -265.5t62.5 -335q0 -239 -107 -430t-302 -299.5t-443 -108.5zM940 174q264 0 428 173.5t164 451.5t-164 451t-428 173
q-263 0 -427.5 -173t-164.5 -451t164.5 -451.5t427.5 -173.5zM940 1751q-56 0 -93.5 37.5t-37.5 89.5q0 54 37 90.5t94 36.5q59 0 96 -36t37 -91q0 -52 -37.5 -89.5t-95.5 -37.5zM1262 2136h-644v156h644v-156z" />
    <glyph glyph-name="uni0231" unicode="&#x231;" horiz-adv-x="1425" 
d="M713 -39q-136 0 -254.5 47.5t-202.5 129.5t-132 198t-48 248q0 178 82 319.5t227.5 221t327.5 79.5t328 -79.5t228.5 -221t82.5 -319.5q0 -132 -48.5 -248t-132.5 -198t-203 -129.5t-255 -47.5zM713 158q181 0 293 119t112 307t-112 307t-293 119q-180 0 -293 -119
t-113 -307t113 -307t293 -119zM713 1309q-57 0 -94 35.5t-37 89.5t37 89.5t94 35.5q59 0 95 -35t36 -90t-36 -90t-95 -35zM1028 1671h-631v148h631v-148z" />
    <glyph glyph-name="uni0232" unicode="&#x232;" horiz-adv-x="1437" 
d="M842 0h-244v645l-592 952h281l444 -735l430 735h260l-579 -952v-645zM1061 1763h-688v162h688v-162z" />
    <glyph glyph-name="uni0233" unicode="&#x233;" horiz-adv-x="1239" 
d="M528 -498h-233l211 498l-496 1165h254l369 -913l360 913h236zM973 1370h-688v162h688v-162z" />
    <glyph glyph-name="uni0237" unicode="&#x237;" horiz-adv-x="544" 
d="M385 -487h-225v1652h225v-1652z" />
    <glyph glyph-name="uni0241" unicode="&#x241;" horiz-adv-x="1105" 
d="M635 0h-250v371q0 115 17.5 196t72 167.5t154.5 174.5q100 91 140 161t40 144q0 102 -66 159t-180 57q-109 0 -184.5 -58t-97.5 -172h-250q30 207 174.5 320.5t359.5 113.5q225 0 359.5 -114.5t134.5 -300.5q0 -113 -53 -211.5t-195 -233.5q-112 -109 -144 -187t-32 -220
v-367z" />
    <glyph glyph-name="uni0242" unicode="&#x242;" horiz-adv-x="1067" 
d="M582 0h-222v82q0 145 56 248q55 104 192 211q107 85 145 141t38 127q0 92 -69 150.5t-179 58.5q-119 0 -199.5 -65t-99.5 -181h-234q29 202 172 317t361 115q211 0 342 -110t131 -283q0 -114 -57.5 -203t-196.5 -200q-99 -79 -139.5 -154t-40.5 -180v-74z" />
    <glyph glyph-name="uni0243" unicode="&#x243;" horiz-adv-x="1554" 
d="M946 0h-682v389h-225v160h225v1048h643q238 0 366 -109.5t128 -301.5q0 -124 -61 -210.5t-179 -129.5q146 -41 222.5 -143.5t76.5 -251.5q0 -216 -132.5 -333.5t-381.5 -117.5zM510 1403v-488h360q142 0 217.5 63.5t75.5 180.5q0 119 -74.5 181.5t-216.5 62.5h-362z
M510 397v-202h403q151 0 228.5 71t77.5 203q0 133 -80 203.5t-228 70.5h-401v-202h461v-144h-461z" />
    <glyph glyph-name="uni0244" unicode="&#x244;" horiz-adv-x="1845" 
d="M262 809h-254v184h254v604h246v-604h827v604h246v-604h256v-184h-256v-201q0 -159 -47 -283t-133.5 -204t-207 -121t-269.5 -41t-270 41t-209 121t-135.5 204t-47.5 283v201zM508 809v-211q0 -213 107 -322.5t309 -109.5q199 0 305 110t106 322v211h-827z" />
    <glyph glyph-name="uni0245" unicode="&#x245;" horiz-adv-x="1536" 
d="M268 0h-252l592 1597h307l619 -1597h-277l-505 1356z" />
    <glyph glyph-name="uni024B" unicode="&#x24b;" horiz-adv-x="1488" 
d="M1430 -514q-160 0 -242 91t-82 263v264q0 33 -21 33q-13 0 -24 -14q-65 -76 -164 -118t-223 -42q-127 0 -238 47.5t-190 129.5t-124.5 197t-45.5 247q0 176 78.5 318t214 221t299.5 79q257 0 407 -176q27 -35 47 -35q23 0 29 45q12 61 12 129h168v-1302q0 -195 166 -195
q61 0 119 21v-164q-76 -39 -186 -39zM713 160q177 0 289 117.5t112 306.5q0 186 -112 305t-289 119q-178 0 -291 -119t-113 -305q0 -189 112.5 -306.5t291.5 -117.5z" />
    <glyph glyph-name="uni024C" unicode="&#x24c;" horiz-adv-x="1599" 
d="M510 0h-246v672h-233v184h233v741h682q249 0 382.5 -113t133.5 -327q0 -144 -73 -245.5t-211 -139.5q110 -17 162 -80.5t71 -199.5l43 -330q15 -127 53 -162h-254q-33 23 -45 127l-37 330q-14 123 -66.5 169t-184.5 46h-410v-672zM913 1399h-401v-543h395q314 0 314 270
q0 273 -308 273z" />
    <glyph glyph-name="uni024D" unicode="&#x24d;" horiz-adv-x="1079" 
d="M438 0h-225v442h-180v152h180v571h166q6 -71 12 -106q9 -45 33 -45q19 0 41 30q48 71 120 110.5t158 39.5q147 0 229.5 -98.5t82.5 -272.5q0 -25 -2 -41h-205q0 4 1 15t1 16q0 88 -41.5 139.5t-118.5 51.5q-136 0 -203 -150q-46 -101 -49 -260h297v-152h-297v-442z" />
    <glyph glyph-name="uni0251" unicode="&#x251;" horiz-adv-x="1488" 
d="M666 -37q-166 0 -300.5 80.5t-211 223t-76.5 317.5q0 132 45 247t123 196.5t187 128t233 46.5q264 0 407 -176q35 -35 49 -35q23 0 29 47q6 31 12 129h168v-1167h-168q-6 98 -12 129q-6 45 -29 45q-16 0 -49 -33q-145 -178 -407 -178zM713 160q181 0 291 117t110 307
t-110 308t-291 118q-179 0 -291.5 -118.5t-112.5 -307.5q0 -190 112.5 -307t291.5 -117z" />
    <glyph glyph-name="uni0253" unicode="&#x253;" horiz-adv-x="1488" 
d="M821 -37q-256 0 -407 178q-26 33 -47 33q-23 0 -29 -45q-7 -48 -12 -129h-168v1280q0 405 399 408q70 0 140.5 -16.5t119.5 -45.5v-168q-98 45 -207 45q-227 0 -227 -233v-207q0 -35 20 -35q12 0 25 16q65 74 164 116t223 42q170 0 306.5 -79.5t214 -221.5t77.5 -319
q0 -175 -78 -317t-213.5 -222t-300.5 -80zM776 160q179 0 291.5 117.5t112.5 306.5q0 186 -113 305t-291 119q-177 0 -289 -119t-112 -305q0 -189 112 -306.5t289 -117.5z" />
    <glyph glyph-name="uni0254" unicode="&#x254;" horiz-adv-x="1357" 
d="M668 -39q-246 0 -408 131t-199 352h232q25 -134 123 -210t250 -76q170 0 276.5 119t106.5 307q0 189 -106.5 307.5t-276.5 118.5q-150 0 -249 -77.5t-124 -209.5h-232q37 221 198 351t409 130q176 0 315.5 -78.5t218 -220t78.5 -321.5q0 -179 -78.5 -321t-218 -222
t-315.5 -80z" />
    <glyph glyph-name="uni0256" unicode="&#x256;" horiz-adv-x="1488" 
d="M1430 -514q-160 0 -242 91t-82 263v264q0 33 -21 33q-13 0 -24 -14q-65 -75 -164 -117.5t-223 -42.5q-127 0 -238 47.5t-190 129.5t-124.5 197t-45.5 247q0 268 170 443t428 175q124 0 223 -42t164 -116q13 -16 24 -16q21 0 21 35v596h225v-1796q0 -195 166 -195
q61 0 119 21v-164q-76 -39 -186 -39zM713 160q177 0 289 117.5t112 306.5q0 186 -112 305t-289 119q-178 0 -291 -119t-113 -305q0 -185 113 -304.5t291 -119.5z" />
    <glyph glyph-name="uni0257" unicode="&#x257;" horiz-adv-x="1488" 
d="M668 -37q-164 0 -299.5 80t-214 222t-78.5 317q0 177 77.5 319t214 221.5t306.5 79.5q124 0 223 -42t164 -116q13 -16 24 -16q21 0 21 35v270q0 172 82 263.5t242 91.5q103 0 186 -39v-164q-56 20 -119 20q-166 0 -166 -196v-1309h-168q0 70 -12 129q-6 45 -29 45
q-21 0 -47 -33q-151 -178 -407 -178zM713 160q177 0 289 117.5t112 306.5q0 186 -112 305t-289 119q-178 0 -291 -119t-113 -305q0 -189 112.5 -306.5t291.5 -117.5z" />
    <glyph glyph-name="uni0259" unicode="&#x259;" horiz-adv-x="1347" 
d="M676 -39q-264 0 -431 165t-167 423q0 52 6 100h956q-8 168 -107 270.5t-259 102.5q-126 0 -217.5 -57.5t-130.5 -153.5h-230q50 180 203.5 285.5t374.5 105.5q266 0 432 -170.5t166 -447.5q0 -271 -169 -447t-427 -176zM676 141q151 0 249.5 97t112.5 256h-739
q3 -156 109 -256q108 -97 268 -97z" />
    <glyph glyph-name="uni025B" unicode="&#x25b;" horiz-adv-x="1105" 
d="M565 -43q-216 0 -352.5 97t-136.5 263q0 115 69 193.5t193 107.5q-98 29 -154.5 101t-56.5 166q0 143 117 232t313 89q202 0 323 -92.5t134 -259.5h-221q-24 172 -228 172q-99 0 -158 -44.5t-59 -123.5q0 -76 61.5 -124t163.5 -48h199v-158h-201q-122 0 -192 -50
t-70 -138q0 -97 70.5 -150t193.5 -53q229 0 256 207h234q-19 -181 -149.5 -284t-348.5 -103z" />
    <glyph glyph-name="uni0260" unicode="&#x260;" horiz-adv-x="1452" 
d="M719 -514q-240 0 -395 119q-159 122 -207 311h231q32 -117 133 -185.5t238 -68.5q172 0 265 91t93 261v142q0 32 -20 32q-13 0 -31 -18q-136 -145 -367 -145q-166 0 -298.5 75.5t-206.5 209t-74 300.5q0 126 43 236t118.5 188t183 123t230.5 45q231 0 361 -143
q23 -23 35 -23q20 0 20 33v264q0 172 82 263.5t242 91.5q104 0 184 -39v-164q-56 20 -117 20q-166 0 -166 -194v-1288q0 -248 -155 -392.5t-422 -144.5zM696 213q171 0 278 110t107 287q0 174 -107.5 286t-277.5 112q-168 0 -276.5 -112t-108.5 -286q0 -175 108 -286
t277 -111z" />
    <glyph glyph-name="uni0263" unicode="&#x263;" horiz-adv-x="1306" 
d="M657 -516q-142 0 -231.5 79t-89.5 208q0 84 41 181t145 263l-506 950h263l383 -749l378 749h250l-502 -942q107 -173 149 -271t42 -181q0 -129 -90 -208t-232 -79zM657 -350q54 0 84.5 31t30.5 86q0 115 -115 296q-114 -184 -114 -296q0 -55 30 -86t84 -31z" />
    <glyph glyph-name="uni0265" unicode="&#x265;" horiz-adv-x="1380" 
d="M997 1165h226v-1659h-226v625q0 33 -20 33q-16 0 -37 -29q-131 -174 -365 -174q-205 0 -319.5 129t-114.5 363v712h226v-686q0 -154 68 -235.5t196 -81.5q177 0 272 135q94 131 94 379v489z" />
    <glyph glyph-name="uni0266" unicode="&#x266;" horiz-adv-x="1382" 
d="M383 0h-225v1280q0 201 101.5 304.5t299.5 103.5q70 0 140.5 -16.5t119.5 -45.5v-168q-105 45 -209 45q-227 0 -227 -233v-236q0 -33 20 -33q10 0 16.5 5t20.5 24q134 174 365 174q205 0 320.5 -128.5t115.5 -362.5v-713h-225v686q0 153 -69.5 235.5t-194.5 82.5
q-180 0 -275 -136q-94 -131 -94 -379v-489z" />
    <glyph glyph-name="uni0267" unicode="&#x267;" horiz-adv-x="1382" 
d="M840 -514q-149 0 -260 59v170q105 -45 211 -45q113 0 168 59t55 183v774q0 153 -68.5 235.5t-193.5 82.5q-177 0 -273 -134q-96 -137 -96 -383v-487h-225v1280q0 408 401 408q70 0 140.5 -16.5t119.5 -45.5v-168q-100 43 -209 43q-227 0 -227 -231v-234q0 -32 20 -32
q11 0 17.5 5t19.5 23q136 172 365 172q205 0 319.5 -128.5t114.5 -362.5v-822q0 -199 -101 -302t-298 -103z" />
    <glyph glyph-name="uni0268" unicode="&#x268;" horiz-adv-x="659" 
d="M330 1366q-66 0 -109 40.5t-43 102.5t43 102t109 40t107.5 -40t41.5 -102t-41.5 -102.5t-107.5 -40.5zM442 0h-227v535h-180v147h180v483h227v-483h181v-147h-181v-535z" />
    <glyph glyph-name="uni0269" unicode="&#x269;" horiz-adv-x="712" 
d="M524 -14q-195 0 -288 96.5t-93 308.5v774h224v-753q0 -130 47 -186t159 -56q80 0 144 20v-176q-75 -28 -193 -28z" />
    <glyph glyph-name="uni0272" unicode="&#x272;" horiz-adv-x="1382" 
d="M68 -514q-116 0 -189 39v164q58 -21 119 -21q86 0 123 47.5t37 149.5v1300h168q0 -67 12 -129q6 -53 33 -53q12 0 19.5 6t21.5 25q138 190 385 190q211 0 326.5 -128t115.5 -363v-713h-225v686q0 153 -68.5 235.5t-193.5 82.5q-179 0 -275 -134q-94 -131 -94 -383v-647
q0 -354 -315 -354z" />
    <glyph glyph-name="uni0275" unicode="&#x275;" horiz-adv-x="1425" 
d="M713 -39q-136 0 -254.5 47.5t-202.5 129.5t-132 198t-48 248q0 178 82 319.5t227.5 221t327.5 79.5t328 -79.5t228.5 -221t82.5 -319.5q0 -132 -48.5 -248t-132.5 -198t-203 -129.5t-255 -47.5zM713 1020q-165 0 -278 -100.5t-136 -262.5h827q-23 163 -135 263t-278 100z
M713 147q167 0 278 99q114 102 135 264h-827q25 -165 137 -264t277 -99z" />
    <glyph glyph-name="uni027D" unicode="&#x27d;" horiz-adv-x="1021" 
d="M559 -514q-200 0 -300.5 103t-100.5 302v1274h164q4 -54 14 -104q6 -45 31 -45q19 0 41 31q48 70 119.5 108.5t158.5 38.5q146 0 228.5 -98.5t82.5 -272.5q0 -25 -2 -41h-204q0 5 1 15.5t1 15.5q0 87 -42 139t-116 52q-137 0 -205 -148q-47 -105 -47 -287v-655
q0 -127 55.5 -185.5t171.5 -58.5q81 0 166 29v-170q-93 -43 -217 -43z" />
    <glyph glyph-name="uni027E" unicode="&#x27e;" horiz-adv-x="731" 
d="M524 1180q110 0 193 -27v-176q-71 18 -144 18q-112 0 -159 -55.5t-47 -185.5v-754h-224v774q0 213 93 309.5t288 96.5z" />
    <glyph glyph-name="uni0283" unicode="&#x283;" horiz-adv-x="628" 
d="M244 -516q-133 0 -221 49v166q78 -37 165 -37q73 0 111.5 39t38.5 104q0 37 -10 119l-185 1323q-10 74 -10 142q0 137 84.5 218t237.5 81q132 0 221 -50v-163q-78 34 -166 34q-75 0 -112.5 -38.5t-37.5 -104.5q0 -29 11 -119l184 -1325q8 -76 8 -139q0 -136 -83.5 -217.5
t-235.5 -81.5z" />
    <glyph glyph-name="uni0288" unicode="&#x288;" horiz-adv-x="829" 
d="M664 -514q-198 0 -300 103.5t-102 301.5v1088h-229v186h131q64 0 95 23t42 74q22 95 31 247h153v-344h328v-186h-328v-1075q0 -234 230 -234q81 0 166 29v-170q-94 -43 -217 -43z" />
    <glyph glyph-name="uni0289" unicode="&#x289;" horiz-adv-x="1495" 
d="M205 573h-180v150h180v442h223v-442h633v442h221v-442h180v-150h-180v-573h-168q0 68 -10 123q-9 51 -35 51q-15 0 -41 -31q-133 -182 -373 -182q-214 0 -332 129t-118 363v120zM428 573v-92q0 -156 69.5 -238.5t202.5 -82.5q181 0 269 129q76 107 88 284h-629z" />
    <glyph glyph-name="uni028A" unicode="&#x28a;" horiz-adv-x="1456" 
d="M727 -39q-132 0 -246.5 44t-194.5 119t-125.5 178t-45.5 218q0 149 66.5 269.5t174.5 189.5h-270v186h559v-168q-139 -58 -223 -170t-84 -274q0 -172 106 -284.5t283 -112.5q178 0 285.5 112.5t107.5 284.5q0 162 -84.5 274t-224.5 170v168h559v-186h-270
q109 -69 176 -190t67 -269q0 -115 -46 -218t-126 -178t-195.5 -119t-248.5 -44z" />
    <glyph glyph-name="uni028B" unicode="&#x28b;" horiz-adv-x="1300" 
d="M662 -39q-248 0 -385.5 139.5t-137.5 399.5v665h223v-665q0 -174 78 -262t222 -88q161 0 244 133t83 391q0 177 -50.5 259.5t-170.5 82.5q-70 0 -137 -25v170q86 39 209 39q374 -3 374 -504q0 -355 -138.5 -545t-413.5 -190z" />
    <glyph glyph-name="uni028C" unicode="&#x28c;" horiz-adv-x="1259" 
d="M500 1165h254l497 -1165h-254l-376 936l-367 -936h-240z" />
    <glyph glyph-name="uni0292" unicode="&#x292;" horiz-adv-x="1173" 
d="M592 -516q-240 0 -400 125t-188 336h227q25 -127 119.5 -200t235.5 -73q147 0 237 92t90 244q0 159 -98.5 250.5t-271.5 91.5h-264v4l446 625h-623v186h975v-4l-454 -641q233 -6 374.5 -146.5t141.5 -361.5q0 -234 -154.5 -381t-392.5 -147z" />
    <glyph glyph-name="uni0294" unicode="&#x294;" horiz-adv-x="1036" 
d="M584 0h-224v410q0 191 51 310.5t185 246.5q105 99 143.5 168t38.5 149q0 102 -67.5 163.5t-178.5 61.5q-122 0 -202 -64.5t-99 -180.5h-231q27 202 170 315q144 117 365 117q212 0 340.5 -112.5t128.5 -293.5q0 -113 -49.5 -209t-190.5 -237q-107 -110 -143.5 -195.5
t-36.5 -240.5v-408z" />
    <glyph glyph-name="uni0295" unicode="&#x295;" horiz-adv-x="1034" 
d="M674 0h-223v408q0 154 -37 240t-144 196q-140 140 -190.5 236.5t-50.5 207.5q0 182 134.5 295t356.5 113q221 0 355 -114.5t159 -317.5h-231q-17 118 -90 181.5t-195 63.5q-119 0 -190.5 -62.5t-71.5 -166.5q0 -77 38.5 -145t141.5 -168q135 -129 186.5 -247.5
t51.5 -309.5v-410z" />
    <glyph glyph-name="uni0298" unicode="&#x298;" horiz-adv-x="1865" 
d="M934 -39q-182 0 -340 63.5t-269.5 174t-175 266t-63.5 334.5q0 240 108.5 431t302 298.5t437.5 107.5q245 0 438 -107.5t300.5 -298.5t107.5 -431q0 -179 -63 -334.5t-173.5 -266t-268.5 -174t-341 -63.5zM934 158q268 0 437 177t169 464q0 286 -169 464.5t-437 178.5
q-270 0 -439 -178t-169 -465q0 -288 168.5 -464.5t439.5 -176.5zM934 664q-64 0 -102.5 38t-38.5 97q0 57 38.5 96t102.5 39q60 0 99.5 -39t39.5 -96q0 -58 -39 -96.5t-100 -38.5z" />
    <glyph glyph-name="uni029D" unicode="&#x29d;" horiz-adv-x="548" 
d="M274 1366q-66 0 -107.5 40.5t-41.5 102.5t41.5 102t107.5 40t108 -40t42 -102t-42 -102.5t-108 -40.5zM76 -514q-124 0 -204.5 65t-80.5 175q0 99 74.5 161t195.5 62h101v1216h225v-1216h209v-133h-211q-15 -330 -309 -330zM57 -377q113 0 113 156v37h-109
q-49 0 -79.5 -26.5t-30.5 -68.5q0 -46 29 -72t77 -26z" />
    <glyph glyph-name="uni02BB" unicode="&#x2bb;" horiz-adv-x="583" 
d="M287 1597h170l-119 -649h-240z" />
    <glyph glyph-name="uni02BC" unicode="&#x2bc;" horiz-adv-x="532" 
d="M190 1597h236l-141 -604h-183z" />
    <glyph glyph-name="uni02BE" unicode="&#x2be;" horiz-adv-x="430" 
d="M33 932v160q93 5 152 65t59 152t-59 152t-152 65v162q170 -6 278.5 -112.5t108.5 -266.5t-108.5 -265.5t-278.5 -111.5z" />
    <glyph glyph-name="uni02BF" unicode="&#x2bf;" horiz-adv-x="430" 
d="M397 1092v-160q-170 6 -278.5 111.5t-108.5 265.5t108.5 266.5t278.5 112.5v-162q-93 -5 -152 -65t-59 -152t59 -152t152 -65z" />
    <glyph glyph-name="uni02C0" unicode="&#x2c0;" horiz-adv-x="694" 
d="M408 950h-179v51q0 88 36 153t120 128q64 46 85.5 76t21.5 69q0 45 -34 74t-93 29q-66 0 -108 -35.5t-50 -95.5h-187q17 130 108.5 204t238.5 74q135 0 221 -70t86 -180q0 -71 -36.5 -126.5t-125.5 -122.5q-56 -42 -80 -85t-24 -98v-45z" />
    <glyph glyph-name="circumflex" unicode="&#x2c6;" horiz-adv-x="872" 
d="M215 1313h-164l297 434h176l297 -434h-164l-178 209q-23 26 -43 26t-43 -26z" />
    <glyph glyph-name="caron" unicode="&#x2c7;" horiz-adv-x="872" 
d="M51 1747h164l178 -209q24 -27 43 -27t43 27l178 209h164l-297 -434h-176z" />
    <glyph glyph-name="uni02C9" unicode="&#x2c9;" horiz-adv-x="600" 
d="M354 1370h-688v162h688v-162z" />
    <glyph glyph-name="uni02CA" unicode="&#x2ca;" horiz-adv-x="600" 
d="M115 1313h-189l232 434h260z" />
    <glyph glyph-name="uni02CB" unicode="&#x2cb;" horiz-adv-x="600" 
d="M113 1313h-189l-303 434h260z" />
    <glyph glyph-name="uni02D7" unicode="&#x2d7;" horiz-adv-x="1234" 
d="M1061 664h-889v190h889v-190z" />
    <glyph glyph-name="breve" unicode="&#x2d8;" horiz-adv-x="851" 
d="M426 1327q-164 0 -264.5 91t-112.5 247h152q19 -87 77 -135.5t148 -48.5q91 0 148.5 48t76.5 136h152q-12 -156 -112.5 -247t-264.5 -91z" />
    <glyph glyph-name="dotaccent" unicode="&#x2d9;" horiz-adv-x="382" 
d="M190 1339q-62 0 -101.5 39t-39.5 97t39.5 96.5t101.5 38.5t102 -38.5t40 -96.5t-40 -97t-102 -39z" />
    <glyph glyph-name="ring" unicode="&#x2da;" horiz-adv-x="614" 
d="M307 1303q-112 0 -185 68.5t-73 172.5q0 106 73 175t185 69t185 -69t73 -175q0 -104 -73 -172.5t-185 -68.5zM307 1425q53 0 86 33.5t33 85.5q0 54 -32.5 87.5t-86.5 33.5q-51 0 -85 -33.5t-34 -87.5q0 -51 34 -85t85 -34z" />
    <glyph glyph-name="ogonek" unicode="&#x2db;" horiz-adv-x="534" 
d="M317 -504q-122 0 -195 60t-73 163q0 85 56.5 165.5t181.5 174.5l116 -59q-96 -82 -138 -139t-42 -111q0 -49 34.5 -75.5t92.5 -26.5q66 0 133 28v-143q-70 -37 -166 -37z" />
    <glyph glyph-name="tilde" unicode="&#x2dc;" horiz-adv-x="931" 
d="M635 1327q-45 0 -87.5 15t-75 37t-62 44t-58.5 37t-55 15q-80 0 -107 -123h-141q19 131 83 206.5t165 75.5q55 0 107.5 -22.5t86.5 -50t74 -50t72 -22.5q81 0 104 121h142q-19 -131 -83.5 -207t-164.5 -76z" />
    <glyph glyph-name="hungarumlaut" unicode="&#x2dd;" horiz-adv-x="997" 
d="M625 1313h-181l261 434h241zM233 1313h-184l234 434h235z" />
    <glyph glyph-name="uni02EE" unicode="&#x2ee;" horiz-adv-x="833" 
d="M551 1597h223l-162 -587h-172zM180 1597h226l-127 -587h-175z" />
    <glyph glyph-name="gravecomb" unicode="&#x300;" 
d="M94 1313h-188l-303 434h260z" />
    <glyph glyph-name="acutecomb" unicode="&#x301;" 
d="M94 1313h-188l231 434h260z" />
    <glyph glyph-name="uni0302" unicode="&#x302;" 
d="M-221 1313h-164l297 434h176l297 -434h-164l-178 209q-23 26 -43 26t-43 -26z" />
    <glyph glyph-name="tildecomb" unicode="&#x303;" 
d="M164 1327q-45 0 -87.5 15t-75 37t-62 44t-58.5 37t-55 15q-80 0 -107 -123h-141q19 131 83 206.5t165 75.5q55 0 107.5 -22.5t86.5 -50t74 -50t72 -22.5q81 0 104 121h142q-19 -131 -83.5 -207t-164.5 -76z" />
    <glyph glyph-name="uni0304" unicode="&#x304;" 
d="M344 1370h-688v162h688v-162z" />
    <glyph glyph-name="uni0306" unicode="&#x306;" 
d="M0 1327q-164 0 -264.5 91t-112.5 247h152q19 -87 77 -135.5t148 -48.5q91 0 148.5 48t76.5 136h152q-12 -156 -112.5 -247t-264.5 -91z" />
    <glyph glyph-name="uni0307" unicode="&#x307;" 
d="M0 1339q-62 0 -101.5 39t-39.5 97t39.5 96.5t101.5 38.5t101.5 -38.5t39.5 -96.5t-39.5 -97t-101.5 -39z" />
    <glyph glyph-name="uni0308" unicode="&#x308;" 
d="M250 1335q-62 0 -100.5 38t-38.5 95q0 58 38.5 96t100.5 38q61 0 100 -38t39 -96q0 -56 -39 -94.5t-100 -38.5zM-252 1335q-60 0 -98.5 38.5t-38.5 94.5q0 58 38 96t99 38q65 0 103 -38t38 -96q0 -57 -38.5 -95t-102.5 -38z" />
    <glyph glyph-name="hookabovecomb" unicode="&#x309;" 
d="M-70 1311v121q179 41 179 145q0 94 -132 94q-98 0 -198 -53v133q45 31 110 50.5t127 19.5q123 0 193 -59.5t70 -168.5q0 -115 -94.5 -190t-254.5 -92z" />
    <glyph glyph-name="uni030A" unicode="&#x30a;" 
d="M0 1303q-112 0 -185 68.5t-73 172.5q0 106 73 175t185 69t185 -69t73 -175q0 -104 -73 -172.5t-185 -68.5zM0 1425q53 0 86 33.5t33 85.5q0 54 -32.5 87.5t-86.5 33.5q-52 0 -85.5 -33.5t-33.5 -87.5q0 -51 34 -85t85 -34z" />
    <glyph glyph-name="uni030B" unicode="&#x30b;" 
d="M258 1313h-180l260 434h242zM-133 1313h-184l233 434h236z" />
    <glyph glyph-name="uni030C" unicode="&#x30c;" 
d="M-385 1747h164l178 -209q24 -27 43 -27t43 27l178 209h164l-297 -434h-176z" />
    <glyph glyph-name="uni030D" unicode="&#x30d;" 
d="M92 1313h-192v434h192v-434z" />
    <glyph glyph-name="uni0312" unicode="&#x312;" 
d="M41 1769h156l-95 -456h-211z" />
    <glyph glyph-name="uni031B" unicode="&#x31b;" 
d="M109 1014h-164v157h112q70 0 99.5 26.5t29.5 78.5q0 82 -51 184h162q65 -123 65 -225q0 -97 -67 -159t-186 -62z" />
    <glyph glyph-name="dotbelowcomb" unicode="&#x323;" 
d="M0 -453q-62 0 -101.5 39t-39.5 97t39.5 96.5t101.5 38.5t101.5 -38.5t39.5 -96.5t-39.5 -97t-101.5 -39z" />
    <glyph glyph-name="uni0324" unicode="&#x324;" 
d="M252 -436q-62 0 -100.5 39t-38.5 96t38.5 95t100.5 38t101.5 -38.5t39.5 -94.5q0 -57 -39.5 -96t-101.5 -39zM-254 -436q-60 0 -99.5 39t-39.5 96q0 56 39 94.5t100 38.5q64 0 102.5 -38t38.5 -95t-38.5 -96t-102.5 -39z" />
    <glyph glyph-name="uni0325" unicode="&#x325;" 
d="M0 -612q-112 0 -185 68.5t-73 172.5q0 106 73 175t185 69t185 -69t73 -175q0 -104 -73 -172.5t-185 -68.5zM0 -489q53 0 86 33t33 85q0 54 -32.5 87.5t-86.5 33.5q-52 0 -85.5 -34t-33.5 -87q0 -51 34 -84.5t85 -33.5z" />
    <glyph glyph-name="uni0326" unicode="&#x326;" 
d="M-47 -610h-156l94 456h211z" />
    <glyph glyph-name="uni0327" unicode="&#x327;" 
d="M23 -530q-149 0 -234.5 83.5t-93.5 223.5h168q8 -76 50 -120t110 -44q61 0 95 31.5t34 87.5q0 64 -66.5 135t-189.5 133h184q106 -44 167.5 -120t61.5 -161q0 -111 -76.5 -180t-209.5 -69z" />
    <glyph glyph-name="uni0328" unicode="&#x328;" 
d="M-86 -504q-122 0 -195 60t-73 163q0 85 56.5 165.5t180.5 174.5l117 -59q-96 -82 -138 -139t-42 -111q0 -49 34.5 -75.5t92.5 -26.5q66 0 133 28v-143q-70 -37 -166 -37z" />
    <glyph glyph-name="uni0329" unicode="&#x329;" 
d="M96 -625h-192v435h192v-435z" />
    <glyph glyph-name="uni032D" unicode="&#x32d;" 
d="M-221 -629h-164l297 434h176l297 -434h-164l-178 209q-24 27 -43 27t-43 -27z" />
    <glyph glyph-name="uni032E" unicode="&#x32e;" 
d="M0 -483q-164 0 -264.5 91t-112.5 247h152q19 -87 77 -136t148 -49q91 0 148.5 48.5t76.5 136.5h152q-12 -156 -112.5 -247t-264.5 -91z" />
    <glyph glyph-name="uni032F" unicode="&#x32f;" 
d="M0 -100q164 0 264.5 -91t112.5 -247h-152q-19 88 -76.5 136t-148.5 48q-90 0 -148 -48.5t-77 -135.5h-152q12 156 112.5 247t264.5 91z" />
    <glyph glyph-name="uni0330" unicode="&#x330;" 
d="M164 -469q-55 0 -108 23t-87 50.5t-73 50.5t-70 23q-81 0 -107 -122h-141q19 131 83 206.5t165 75.5q55 0 107.5 -22.5t86.5 -50t74 -50t72 -22.5q81 0 104 121h142q-19 -131 -83.5 -207t-164.5 -76z" />
    <glyph glyph-name="uni0331" unicode="&#x331;" 
d="M344 -381h-688v162h688v-162z" />
    <glyph glyph-name="uni0332" unicode="&#x332;" 
d="M678 -381h-1356v162h1356v-162z" />
    <glyph glyph-name="uni0394" unicode="&#x394;" horiz-adv-x="1611" 
d="M1559 0h-1506l602 1597h308zM801 1382l-424 -1181h846z" />
    <glyph glyph-name="uni03A9" unicode="&#x3a9;" horiz-adv-x="1900" 
d="M856 0h-760v207h396q-165 93 -269 269.5t-104 391.5q0 219 104.5 394t294.5 274.5t432 99.5q182 0 337.5 -58t263.5 -160t169.5 -244t61.5 -306q0 -217 -104.5 -392.5t-270.5 -268.5h395v-207h-758v188q215 64 353.5 236t138.5 412q0 258 -162.5 424.5t-423.5 166.5
q-173 0 -307.5 -76.5t-207.5 -211t-73 -303.5q0 -121 38.5 -229t106.5 -189.5t157 -140t192 -89.5v-188z" />
    <glyph glyph-name="uni03BC" unicode="&#x3bc;" horiz-adv-x="1390" 
d="M352 -487h-194v1652h225v-684q0 -154 69.5 -236.5t198.5 -82.5q178 0 267 127q90 128 90 358v518h227v-1165h-168q0 68 -10 123q-9 51 -35 51q-20 0 -41 -31q-122 -176 -338 -176q-148 0 -227 82q-29 29 -43 29q-21 0 -21 -35v-530z" />
    <glyph glyph-name="pi" unicode="&#x3c0;" horiz-adv-x="1564" 
d="M1372 -12q-174 0 -255 90t-81 284v617h-569v-979h-223v979h-217v186h1448v-186h-218v-608q0 -106 41.5 -153.5t133.5 -47.5q44 0 71 8v-172q-45 -18 -131 -18z" />
    <glyph glyph-name="uni058F" unicode="&#x58f;" horiz-adv-x="1437" 
d="M958 524h-585v133h585v156h-585v133h585v115q0 185 -76.5 282t-222.5 97q-138 0 -226 -82.5t-111 -231.5h-244q37 238 191.5 373t387.5 135q262 0 399.5 -147.5t137.5 -423.5v-117h152v-133h-152v-156h152v-133h-152v-524h-236v524z" />
    <glyph glyph-name="uni0E3F" unicode="&#xe3f;" horiz-adv-x="1441" 
d="M604 0h-454v1597h454v142h154v-142h6q234 0 360.5 -109.5t126.5 -301.5q0 -125 -60 -214t-175 -130q139 -38 214 -140.5t75 -252.5q0 -215 -129 -332t-373 -117h-45v-141h-154v141zM377 1411v-504h227v504h-227zM1024 1159q0 121 -70.5 186.5t-195.5 65.5v-504
q125 2 195.5 68t70.5 184zM375 741v-557h229v557h-229zM772 741h-14v-557h18q142 0 218.5 72.5t76.5 206.5t-78.5 206t-220.5 72z" />
    <glyph glyph-name="uni1D43" unicode="&#x1d43;" horiz-adv-x="1081" 
d="M442 633q-157 0 -256.5 80.5t-99.5 214.5q0 262 381 286q220 15 293 35v8q0 102 -56.5 159t-156.5 57q-90 0 -150.5 -42.5t-79.5 -113.5h-204q30 139 146 224t286 85q195 0 300 -98t105 -281v-585h-145q-5 77 -12 106q-6 27 -21 27q-7 0 -12 -3.5t-7.5 -7.5t-9.5 -14
q-101 -137 -301 -137zM289 936q0 -73 53.5 -114.5t142.5 -41.5q167 0 232 129q43 88 43 199v12q-66 -22 -268 -37q-106 -11 -154.5 -45.5t-48.5 -101.5z" />
    <glyph glyph-name="uni1D57" unicode="&#x1d57;" horiz-adv-x="815" 
d="M545 651q-171 0 -243.5 81.5t-72.5 246.5v455h-186v163h107q54 0 79 17.5t33 60.5q11 47 27 195h135v-273h262v-163h-262v-439q0 -93 34 -138.5t130 -45.5q57 0 112 14v-153q-69 -21 -155 -21z" />
    <glyph glyph-name="uni1DC4" unicode="&#x1dc4;" 
d="M223 1659h152l-168 -311h-512v149h395z" />
    <glyph glyph-name="uni1DC5" unicode="&#x1dc5;" 
d="M-375 1659h152l133 -162h395v-149h-512z" />
    <glyph glyph-name="uni1DC6" unicode="&#x1dc6;" 
d="M375 1313h-152l-133 162h-395v149h512z" />
    <glyph glyph-name="uni1DC7" unicode="&#x1dc7;" 
d="M-223 1313h-152l168 311h512v-149h-395z" />
    <glyph glyph-name="uni1E00" unicode="&#x1e00;" horiz-adv-x="1538" 
d="M272 0h-262l590 1597h338l590 -1597h-273l-147 410h-686zM764 1409l-287 -811h574zM766 -588q-115 0 -188.5 69.5t-73.5 178.5q0 106 73.5 176t188.5 70q116 0 189 -69.5t73 -176.5q0 -109 -73.5 -178.5t-188.5 -69.5zM766 -457q50 0 82.5 33t32.5 84q0 50 -32.5 82.5
t-82.5 32.5t-82.5 -32.5t-32.5 -82.5q0 -51 32.5 -84t82.5 -33z" />
    <glyph glyph-name="uni1E01" unicode="&#x1e01;" horiz-adv-x="1271" 
d="M524 -37q-202 0 -323 100q-121 103 -121 269q0 165 114.5 253t350.5 107q249 17 366 45v4q0 135 -70 209t-200 74q-117 0 -193.5 -53.5t-101.5 -147.5h-233q34 169 174 275q138 106 352 106q237 0 365.5 -123.5t128.5 -351.5v-729h-170q-4 91 -15 127q-6 35 -24 35
q-15 0 -37 -31q-120 -168 -363 -168zM309 336q0 -91 68 -144t184 -53q218 0 295 168q55 113 55 258v8q-87 -25 -340 -49q-140 -12 -201 -56t-61 -132zM641 -612q-112 0 -185 68.5t-73 172.5q0 106 73 175t185 69t185 -69t73 -175q0 -104 -73 -172.5t-185 -68.5zM641 -489
q53 0 86 33t33 85q0 54 -32.5 87.5t-86.5 33.5q-51 0 -85 -34t-34 -87q0 -51 34 -84.5t85 -33.5z" />
    <glyph glyph-name="uni1E04" unicode="&#x1e04;" horiz-adv-x="1480" 
d="M852 0h-682v1597h641q241 0 369.5 -109.5t128.5 -303.5q0 -122 -62 -209.5t-180 -128.5q148 -42 225.5 -144t77.5 -251q0 -217 -133 -334t-385 -117zM416 1403v-483h358q143 0 218 61.5t75 179.5q0 117 -73.5 179.5t-217.5 62.5h-360zM414 727v-532h405q149 0 227 69
t78 197q0 129 -79.5 197.5t-227.5 68.5h-403zM729 -418q-62 0 -101.5 38.5t-39.5 94.5q0 58 39.5 96.5t101.5 38.5t100.5 -38.5t38.5 -96.5q0 -57 -38.5 -95t-100.5 -38z" />
    <glyph glyph-name="uni1E05" unicode="&#x1e05;" horiz-adv-x="1488" 
d="M821 -37q-256 0 -407 178q-26 33 -47 33q-23 0 -29 -45q-7 -48 -12 -129h-168v1659h225v-596q0 -35 20 -35q12 0 25 16q65 74 164 116t223 42q170 0 306.5 -79.5t214 -221.5t77.5 -319q0 -175 -78 -317t-213.5 -222t-300.5 -80zM776 160q179 0 291.5 117.5t112.5 306.5
q0 186 -113 305t-291 119q-177 0 -289 -119t-112 -305q0 -189 112 -306.5t289 -117.5zM770 -453q-62 0 -101.5 39t-39.5 97t39.5 96.5t101.5 38.5t101.5 -38.5t39.5 -96.5t-39.5 -97t-101.5 -39z" />
    <glyph glyph-name="uni1E06" unicode="&#x1e06;" horiz-adv-x="1480" 
d="M852 0h-682v1597h641q241 0 369.5 -109.5t128.5 -303.5q0 -122 -62 -209.5t-180 -128.5q148 -42 225.5 -144t77.5 -251q0 -217 -133 -334t-385 -117zM416 1403v-483h358q143 0 218 61.5t75 179.5q0 117 -73.5 179.5t-217.5 62.5h-360zM414 727v-532h405q149 0 227 69
t78 197q0 129 -79.5 197.5t-227.5 68.5h-403zM1073 -330h-688v162h688v-162z" />
    <glyph glyph-name="uni1E07" unicode="&#x1e07;" horiz-adv-x="1488" 
d="M821 -37q-256 0 -407 178q-26 33 -47 33q-23 0 -29 -45q-7 -48 -12 -129h-168v1659h225v-596q0 -35 20 -35q12 0 25 16q65 74 164 116t223 42q170 0 306.5 -79.5t214 -221.5t77.5 -319q0 -175 -78 -317t-213.5 -222t-300.5 -80zM776 160q179 0 291.5 117.5t112.5 306.5
q0 186 -113 305t-291 119q-177 0 -289 -119t-112 -305q0 -189 112 -306.5t289 -117.5zM1114 -381h-688v162h688v-162z" />
    <glyph glyph-name="uni1E0C" unicode="&#x1e0c;" horiz-adv-x="1720" 
d="M801 0h-615v1597h615q247 0 435.5 -99t292 -280.5t103.5 -418.5q0 -236 -103.5 -417.5t-292.5 -281.5t-435 -100zM436 1395v-1192h350q273 0 428.5 158.5t155.5 437.5q0 276 -155.5 436t-428.5 160h-350zM811 -418q-62 0 -101.5 38.5t-39.5 94.5q0 58 39.5 96.5
t101.5 38.5t100.5 -38.5t38.5 -96.5q0 -57 -38.5 -95t-100.5 -38z" />
    <glyph glyph-name="uni1E0D" unicode="&#x1e0d;" horiz-adv-x="1488" 
d="M668 -37q-164 0 -299.5 80t-214 222t-78.5 317q0 177 77.5 319t214 221.5t306.5 79.5q124 0 223 -42t164 -116q13 -16 24 -16q21 0 21 35v596h225v-1659h-168q0 70 -12 129q-6 45 -29 45q-21 0 -47 -33q-151 -178 -407 -178zM713 160q177 0 289 117.5t112 306.5
q0 186 -112 305t-289 119q-178 0 -291 -119t-113 -305q0 -189 112.5 -306.5t291.5 -117.5zM737 -446q-62 0 -101.5 38.5t-39.5 96.5t39.5 96.5t101.5 38.5t102 -38.5t40 -96.5t-40 -96.5t-102 -38.5z" />
    <glyph glyph-name="uni1E0E" unicode="&#x1e0e;" horiz-adv-x="1720" 
d="M801 0h-615v1597h615q247 0 435.5 -99t292 -280.5t103.5 -418.5q0 -236 -103.5 -417.5t-292.5 -281.5t-435 -100zM436 1395v-1192h350q273 0 428.5 158.5t155.5 437.5q0 276 -155.5 436t-428.5 160h-350zM1155 -330h-688v162h688v-162z" />
    <glyph glyph-name="uni1E0F" unicode="&#x1e0f;" horiz-adv-x="1488" 
d="M668 -37q-164 0 -299.5 80t-214 222t-78.5 317q0 177 77.5 319t214 221.5t306.5 79.5q124 0 223 -42t164 -116q13 -16 24 -16q21 0 21 35v596h225v-1659h-168q0 70 -12 129q-6 45 -29 45q-21 0 -47 -33q-151 -178 -407 -178zM713 160q177 0 289 117.5t112 306.5
q0 186 -112 305t-289 119q-178 0 -291 -119t-113 -305q0 -189 112.5 -306.5t291.5 -117.5zM1081 -375h-688v162h688v-162z" />
    <glyph glyph-name="uni1E10" unicode="&#x1e10;" horiz-adv-x="1720" 
d="M801 0h-615v1597h615q247 0 435.5 -99t292 -280.5t103.5 -418.5q0 -236 -103.5 -417.5t-292.5 -281.5t-435 -100zM436 1395v-1192h350q273 0 428.5 158.5t155.5 437.5q0 276 -155.5 436t-428.5 160h-350zM776 -539h-160l86 418h211z" />
    <glyph glyph-name="uni1E11" unicode="&#x1e11;" horiz-adv-x="1488" 
d="M668 -37q-164 0 -299.5 80t-214 222t-78.5 317q0 177 77.5 319t214 221.5t306.5 79.5q124 0 223 -42t164 -116q13 -16 24 -16q21 0 21 35v596h225v-1659h-168q0 70 -12 129q-6 45 -29 45q-21 0 -47 -33q-151 -178 -407 -178zM713 160q177 0 289 117.5t112 306.5
q0 186 -112 305t-289 119q-178 0 -291 -119t-113 -305q0 -189 112.5 -306.5t291.5 -117.5zM692 -604h-155l94 457h211z" />
    <glyph glyph-name="uni1E12" unicode="&#x1e12;" horiz-adv-x="1720" 
d="M801 0h-615v1597h615q247 0 435.5 -99t292 -280.5t103.5 -418.5q0 -236 -103.5 -417.5t-292.5 -281.5t-435 -100zM436 1395v-1192h350q273 0 428.5 158.5t155.5 437.5q0 276 -155.5 436t-428.5 160h-350zM592 7105h-189l293 352h226l295 -352h-189l-192 186
q-15 12 -27 12q-10 0 -25 -12z" />
    <glyph glyph-name="uni1E13" unicode="&#x1e13;" horiz-adv-x="1488" 
d="M668 -37q-164 0 -299.5 80t-214 222t-78.5 317q0 177 77.5 319t214 221.5t306.5 79.5q124 0 223 -42t164 -116q13 -16 24 -16q21 0 21 35v596h225v-1659h-168q0 70 -12 129q-6 45 -29 45q-21 0 -47 -33q-151 -178 -407 -178zM713 160q177 0 289 117.5t112 306.5
q0 186 -112 305t-289 119q-178 0 -291 -119t-113 -305q0 -189 112.5 -306.5t291.5 -117.5zM516 -623h-164l297 435h176l297 -435h-164l-178 209q-24 27 -43 27t-43 -27z" />
    <glyph glyph-name="uni1E1A" unicode="&#x1e1a;" horiz-adv-x="1341" 
d="M1272 0h-1086v1597h1045v-204h-799v-484h694v-198h-694v-506h840v-205zM936 -444q-55 0 -108 23t-87 50.5t-73 50.5t-70 23q-79 0 -106 -123h-142q19 131 83.5 207t164.5 76q55 0 107.5 -23t86.5 -50t74 -50t72 -23q81 0 104 121h142q-19 -131 -83 -206.5t-165 -75.5z
" />
    <glyph glyph-name="uni1E1B" unicode="&#x1e1b;" horiz-adv-x="1349" 
d="M690 -37q-274 0 -443 171.5t-169 449.5q0 178 80 320t217.5 221t306.5 79q137 0 249 -45t186.5 -124.5t114.5 -186.5t40 -232q0 -41 -6 -110h-957q12 -165 114.5 -263t266.5 -98q124 0 214.5 57t119.5 154h229q-42 -177 -194 -286q-149 -107 -369 -107zM688 1024
q-155 0 -257.5 -93t-119.5 -251h740q-6 154 -107 249t-256 95zM846 -469q-55 0 -108 23t-87 50.5t-73 50.5t-70 23q-81 0 -107 -122h-141q19 131 83 206.5t165 75.5q55 0 107.5 -22.5t86.5 -50t74 -50t72 -22.5q81 0 104 121h142q-19 -131 -83.5 -207t-164.5 -76z" />
    <glyph glyph-name="uni1E20" unicode="&#x1e20;" horiz-adv-x="1835" 
d="M895 -37q-172 0 -320.5 60.5t-256 168t-169 264t-61.5 341.5q0 244 109 436t302.5 297.5t438.5 105.5q312 0 526.5 -159.5t266.5 -436.5h-265q-44 183 -181 283t-341 100q-261 0 -427.5 -169.5t-166.5 -450.5q0 -282 161 -456.5t425 -174.5q323 0 465 266q67 129 84 324
h229v-762h-174q-2 20 -5.5 69.5t-6 80.5t-6.5 49q-9 51 -35 51q-22 0 -49 -37q-90 -118 -229 -184t-314 -66zM1270 1763h-688v162h688v-162z" />
    <glyph glyph-name="uni1E21" unicode="&#x1e21;" horiz-adv-x="1449" 
d="M719 -514q-237 0 -394 118t-208 312h231q32 -118 132.5 -186t238.5 -68q172 0 265 91.5t93 258.5v142q0 32 -20 32q-10 0 -31 -18q-63 -69 -159 -107t-208 -38q-166 0 -298.5 75.5t-206.5 209t-74 300.5q0 129 44.5 240.5t120.5 188.5t180.5 121t221.5 44q240 0 393 -170
q28 -31 47 -31q23 0 29 46q5 25 12 118h168v-1145q0 -248 -156 -391t-421 -143zM696 211q171 0 278 110t107 287q0 176 -107 288t-278 112q-169 0 -277 -112.5t-108 -287.5t108 -286t277 -111zM1075 1370h-688v162h688v-162z" />
    <glyph glyph-name="uni1E22" unicode="&#x1e22;" horiz-adv-x="1683" 
d="M436 0h-250v1597h250v-688h813v688h248v-1597h-248v707h-813v-707zM844 1747q-62 0 -102 38.5t-40 94.5q0 58 40 96.5t102 38.5t100.5 -38.5t38.5 -96.5q0 -57 -38.5 -95t-100.5 -38z" />
    <glyph glyph-name="uni1E23" unicode="&#x1e23;" horiz-adv-x="1380" 
d="M383 0h-225v1659h225v-625q0 -33 20 -33q16 0 37 29q131 174 365 174q205 0 319.5 -128.5t114.5 -362.5v-713h-225v686q0 154 -68 236t-196 82q-178 0 -273 -136q-94 -131 -94 -379v-489zM270 1808q-62 0 -101.5 38.5t-39.5 95.5q0 58 39.5 96.5t101.5 38.5t101 -38.5
t39 -96.5q0 -57 -39 -95.5t-101 -38.5z" />
    <glyph glyph-name="uni1E24" unicode="&#x1e24;" horiz-adv-x="1683" 
d="M436 0h-250v1597h250v-688h813v688h248v-1597h-248v707h-813v-707zM844 -418q-62 0 -102 38.5t-40 94.5q0 58 40 96.5t102 38.5t100.5 -38.5t38.5 -96.5q0 -57 -38.5 -95t-100.5 -38z" />
    <glyph glyph-name="uni1E25" unicode="&#x1e25;" horiz-adv-x="1380" 
d="M383 0h-225v1659h225v-625q0 -33 20 -33q16 0 37 29q131 174 365 174q205 0 319.5 -128.5t114.5 -362.5v-713h-225v686q0 154 -68 236t-196 82q-178 0 -273 -136q-94 -131 -94 -379v-489zM707 -453q-62 0 -102 39t-40 97t40 96.5t102 38.5t101.5 -38.5t39.5 -96.5
t-39.5 -97t-101.5 -39z" />
    <glyph glyph-name="uni1E26" unicode="&#x1e26;" horiz-adv-x="1683" 
d="M436 0h-250v1597h250v-688h813v688h248v-1597h-248v707h-813v-707zM1102 1765q-62 0 -100.5 38t-38.5 95q0 58 38.5 97t100.5 39t101.5 -39t39.5 -97q0 -56 -39.5 -94.5t-101.5 -38.5zM586 1765q-62 0 -102 38.5t-40 94.5q0 58 40 97t102 39q61 0 100 -39t39 -97
q0 -56 -39 -94.5t-100 -38.5z" />
    <glyph glyph-name="uni1E27" unicode="&#x1e27;" horiz-adv-x="1380" 
d="M383 0h-225v1659h225v-625q0 -33 20 -33q16 0 37 29q131 174 365 174q205 0 319.5 -128.5t114.5 -362.5v-713h-225v686q0 154 -68 236t-196 82q-178 0 -273 -136q-94 -131 -94 -379v-489zM528 1827q-62 0 -100.5 38t-38.5 95q0 58 38.5 96.5t100.5 38.5t102 -38.5
t40 -96.5q0 -56 -40 -94.5t-102 -38.5zM12 1827q-62 0 -101.5 38.5t-39.5 94.5q0 58 39.5 96.5t101.5 38.5q61 0 100.5 -38.5t39.5 -96.5q0 -56 -39.5 -94.5t-100.5 -38.5z" />
    <glyph glyph-name="uni1E28" unicode="&#x1e28;" horiz-adv-x="1683" 
d="M436 0h-250v1597h250v-688h813v688h248v-1597h-248v707h-813v-707zM346 -532q-152 0 -240 83t-96 226h180q6 -75 46 -116.5t106 -41.5q60 0 92.5 30.5t32.5 86.5q0 64 -64.5 133t-187.5 131l174 18q117 -48 184.5 -127.5t67.5 -175.5q0 -110 -80.5 -178.5t-214.5 -68.5z
" />
    <glyph glyph-name="uni1E29" unicode="&#x1e29;" horiz-adv-x="1380" 
d="M383 0h-225v1659h225v-625q0 -33 20 -33q16 0 37 29q131 174 365 174q205 0 319.5 -128.5t114.5 -362.5v-713h-225v686q0 154 -68 236t-196 82q-178 0 -273 -136q-94 -131 -94 -379v-489zM307 -530q-149 0 -234 83.5t-93 223.5h167q8 -76 50 -120t110 -44q61 0 95 31.5
t34 87.5q0 64 -66.5 135t-189.5 133h185q106 -44 167.5 -120t61.5 -161q0 -111 -77 -180t-210 -69z" />
    <glyph glyph-name="uni1E2A" unicode="&#x1e2a;" horiz-adv-x="1683" 
d="M436 0h-250v1597h250v-688h813v688h248v-1597h-248v707h-813v-707zM844 -440q-164 0 -263.5 85t-111.5 234h156q40 -168 219 -168t219 168h156q-12 -149 -111.5 -234t-263.5 -85z" />
    <glyph glyph-name="uni1E2B" unicode="&#x1e2b;" horiz-adv-x="1380" 
d="M383 0h-225v1659h225v-625q0 -33 20 -33q16 0 37 29q131 174 365 174q205 0 319.5 -128.5t114.5 -362.5v-713h-225v686q0 154 -68 236t-196 82q-178 0 -273 -136q-94 -131 -94 -379v-489zM707 -483q-164 0 -264.5 91t-112.5 247h151q19 -87 77.5 -136t148.5 -49
q91 0 148.5 48.5t76.5 136.5h151q-12 -156 -112.5 -247t-263.5 -91z" />
    <glyph glyph-name="uni1E2C" unicode="&#x1e2c;" horiz-adv-x="622" 
d="M436 0h-250v1597h250v-1597zM483 -444q-55 0 -108 23t-87 50.5t-73 50.5t-70 23q-79 0 -106 -123h-141q19 131 83 207t164 76q55 0 107.5 -23t86.5 -50t74 -50t72 -23q40 0 67 32t38 89h141q-19 -131 -83 -206.5t-165 -75.5z" />
    <glyph glyph-name="uni1E2D" unicode="&#x1e2d;" horiz-adv-x="565" 
d="M293 1366q-66 0 -108 40.5t-42 102.5t42 102t108 40t108.5 -40t42.5 -102t-42.5 -102.5t-108.5 -40.5zM406 0h-226v1165h226v-1165zM436 -471q-45 0 -89 20.5t-72.5 45t-61 45t-57.5 20.5q-65 0 -80 -111h-137q8 116 66 191.5t149 75.5q45 0 89 -20.5t72.5 -45t61 -45
t57.5 -20.5q65 0 80 110h137q-8 -117 -64.5 -191.5t-150.5 -74.5z" />
    <glyph glyph-name="uni1E2E" unicode="&#x1e2e;" horiz-adv-x="622" 
d="M436 0h-250v1597h250v-1597zM541 1751q-58 0 -93.5 36t-35.5 89t35.5 89t93.5 36q56 0 92.5 -36.5t36.5 -88.5q0 -53 -35.5 -89t-93.5 -36zM82 1751q-58 0 -93.5 36t-35.5 89t35.5 89t93.5 36q56 0 92.5 -36.5t36.5 -88.5q0 -53 -35.5 -89t-93.5 -36zM391 2085h-184
l242 321h245z" />
    <glyph glyph-name="uni1E2F" unicode="&#x1e2f;" horiz-adv-x="544" 
d="M160 0h225v1165h-225v-1165zM494 1309q56 0 91.5 34t35.5 84q0 52 -35.5 85.5t-91.5 33.5q-55 0 -90 -34t-35 -85q0 -50 35 -84t90 -34zM51 1309q55 0 91 34t36 84q0 51 -36 85t-91 34q-56 0 -90.5 -33.5t-34.5 -85.5q0 -51 34.5 -84.5t90.5 -33.5zM340 1630h-147
l178 342h211z" />
    <glyph glyph-name="uni1E32" unicode="&#x1e32;" horiz-adv-x="1460" 
d="M436 0h-250v1597h250v-774l723 774h297l-733 -778l764 -819h-328l-723 786v-786zM776 -418q-62 0 -101.5 38.5t-39.5 94.5q0 58 39.5 96.5t101.5 38.5t100.5 -38.5t38.5 -96.5q0 -57 -38.5 -95t-100.5 -38z" />
    <glyph glyph-name="uni1E33" unicode="&#x1e33;" horiz-adv-x="1200" 
d="M383 0h-225v1659h225v-1059l526 565h285l-543 -569l574 -596h-305l-537 567v-567zM645 -453q-62 0 -101.5 39t-39.5 97t39.5 96.5t101.5 38.5t101.5 -38.5t39.5 -96.5t-39.5 -97t-101.5 -39z" />
    <glyph glyph-name="uni1E34" unicode="&#x1e34;" horiz-adv-x="1460" 
d="M436 0h-250v1597h250v-774l723 774h297l-733 -778l764 -819h-328l-723 786v-786zM1120 -330h-688v162h688v-162z" />
    <glyph glyph-name="uni1E35" unicode="&#x1e35;" horiz-adv-x="1200" 
d="M383 0h-225v1659h225v-1059l526 565h285l-543 -569l574 -596h-305l-537 567v-567zM989 -381h-688v162h688v-162z" />
    <glyph glyph-name="uni1E36" unicode="&#x1e36;" horiz-adv-x="1222" 
d="M1194 0h-1008v1597h250v-1392h758v-205zM723 -418q-62 0 -101.5 38.5t-39.5 94.5q0 58 39.5 96.5t101.5 38.5t100.5 -38.5t38.5 -96.5q0 -57 -38.5 -95t-100.5 -38z" />
    <glyph glyph-name="uni1E37" unicode="&#x1e37;" horiz-adv-x="544" 
d="M385 0h-225v1659h225v-1659zM272 -453q-62 0 -101.5 39t-39.5 97t39.5 96.5t101.5 38.5t102 -38.5t40 -96.5t-40 -97t-102 -39z" />
    <glyph glyph-name="uni1E3A" unicode="&#x1e3a;" horiz-adv-x="1222" 
d="M1194 0h-1008v1597h250v-1392h758v-205zM1067 -330h-688v162h688v-162z" />
    <glyph glyph-name="uni1E3B" unicode="&#x1e3b;" horiz-adv-x="544" 
d="M385 0h-225v1659h225v-1659zM524 -381h-504v162h504v-162z" />
    <glyph glyph-name="uni1E3C" unicode="&#x1e3c;" horiz-adv-x="1222" 
d="M1194 0h-1008v1597h250v-1392h758v-205zM506 7105h-189l293 352h226l294 -352h-188l-192 186q-15 12 -27 12q-10 0 -25 -12z" />
    <glyph glyph-name="uni1E3D" unicode="&#x1e3d;" horiz-adv-x="544" 
d="M385 0h-225v1659h225v-1659zM37 7102h-189l293 353h226l295 -353h-189l-192 187q-15 12 -27 12q-10 0 -25 -12z" />
    <glyph glyph-name="uni1E3E" unicode="&#x1e3e;" horiz-adv-x="2058" 
d="M186 0h228v1325l501 -1325h218l501 1325v-1325h238v1597h-342l-496 -1298l-499 1298h-349v-1597zM1151 1718h-238l357 340h303z" />
    <glyph glyph-name="uni1E3F" unicode="&#x1e3f;" horiz-adv-x="2136" 
d="M158 0h225v494q0 242 88 370q91 142 248 142q117 0 180.5 -82t63.5 -234v-690h227v494q0 242 88 370q91 142 246 142q117 0 181 -82t64 -234v-690h226v725q0 226 -110 352.5t-306 126.5q-118 0 -208 -51t-163 -160q-14 -17 -19.5 -22.5t-12.5 -10t-15 -4.5q-22 0 -45 45
q-51 104 -135.5 153.5t-212.5 49.5q-218 0 -358 -194q-13 -18 -20.5 -23.5t-18.5 -5.5q-14 0 -21.5 12t-13.5 43q-7 37 -12 129h-166v-1165zM1180 1313h-189l232 434h260z" />
    <glyph glyph-name="uni1E40" unicode="&#x1e40;" horiz-adv-x="2058" 
d="M414 0h-228v1597h349l499 -1298l496 1298h342v-1597h-238v1325l-501 -1325h-218l-501 1325v-1325zM1028 1747q-62 0 -101.5 38.5t-39.5 94.5q0 58 39.5 96.5t101.5 38.5t100.5 -38.5t38.5 -96.5q0 -57 -38.5 -95t-100.5 -38z" />
    <glyph glyph-name="uni1E41" unicode="&#x1e41;" horiz-adv-x="2136" 
d="M383 0h-225v1165h166q5 -92 12 -129q6 -31 13.5 -43t21.5 -12q11 0 18.5 5.5t20.5 23.5q140 194 358 194q128 0 212.5 -49.5t135.5 -153.5q23 -45 45 -45q11 0 19 7t28 30q73 109 163 160t208 51q196 0 306 -126.5t110 -352.5v-725h-226v690q0 152 -64 234t-181 82
q-155 0 -246 -142q-88 -128 -88 -370v-494h-227v690q0 152 -63.5 234t-180.5 82q-157 0 -248 -142q-88 -128 -88 -370v-494zM1083 1339q-62 0 -101.5 39t-39.5 97t39.5 96.5t101.5 38.5t102 -38.5t40 -96.5t-40 -97t-102 -39z" />
    <glyph glyph-name="uni1E42" unicode="&#x1e42;" horiz-adv-x="2058" 
d="M414 0h-228v1597h349l499 -1298l496 1298h342v-1597h-238v1325l-501 -1325h-218l-501 1325v-1325zM1028 -418q-62 0 -101.5 38.5t-39.5 94.5q0 58 39.5 96.5t101.5 38.5t100.5 -38.5t38.5 -96.5q0 -57 -38.5 -95t-100.5 -38z" />
    <glyph glyph-name="uni1E43" unicode="&#x1e43;" horiz-adv-x="2136" 
d="M383 0h-225v1165h166q5 -92 12 -129q6 -31 13.5 -43t21.5 -12q11 0 18.5 5.5t20.5 23.5q140 194 358 194q128 0 212.5 -49.5t135.5 -153.5q23 -45 45 -45q11 0 19 7t28 30q73 109 163 160t208 51q196 0 306 -126.5t110 -352.5v-725h-226v690q0 152 -64 234t-181 82
q-155 0 -246 -142q-88 -128 -88 -370v-494h-227v690q0 152 -63.5 234t-180.5 82q-157 0 -248 -142q-88 -128 -88 -370v-494zM1075 -453q-62 0 -101.5 39t-39.5 97t39.5 96.5t101.5 38.5t102 -38.5t40 -96.5t-40 -97t-102 -39z" />
    <glyph glyph-name="uni1E44" unicode="&#x1e44;" horiz-adv-x="1716" 
d="M422 0h-236v1597h281l829 -1267v1267h236v-1597h-281l-829 1268v-1268zM860 1747q-62 0 -101.5 38.5t-39.5 94.5q0 58 39.5 96.5t101.5 38.5t100.5 -38.5t38.5 -96.5q0 -57 -38.5 -95t-100.5 -38z" />
    <glyph glyph-name="uni1E45" unicode="&#x1e45;" horiz-adv-x="1380" 
d="M383 0h-225v1165h166q5 -95 12 -131q9 -53 35 -53q19 0 39 31q137 192 387 192q211 0 326.5 -128t115.5 -361v-715h-225v686q0 154 -68 236t-196 82q-178 0 -273 -136q-94 -131 -94 -379v-489zM696 1339q-62 0 -101.5 39t-39.5 97t39.5 96.5t101.5 38.5t102 -38.5
t40 -96.5t-40 -97t-102 -39z" />
    <glyph glyph-name="uni1E46" unicode="&#x1e46;" horiz-adv-x="1716" 
d="M422 0h-236v1597h281l829 -1267v1267h236v-1597h-281l-829 1268v-1268zM860 -418q-62 0 -101.5 38.5t-39.5 94.5q0 58 39.5 96.5t101.5 38.5t100.5 -38.5t38.5 -96.5q0 -57 -38.5 -95t-100.5 -38z" />
    <glyph glyph-name="uni1E47" unicode="&#x1e47;" horiz-adv-x="1380" 
d="M383 0h-225v1165h166q5 -95 12 -131q9 -53 35 -53q19 0 39 31q137 192 387 192q211 0 326.5 -128t115.5 -361v-715h-225v686q0 154 -68 236t-196 82q-178 0 -273 -136q-94 -131 -94 -379v-489zM702 -453q-62 0 -101.5 39t-39.5 97t39.5 96.5t101.5 38.5t102 -38.5
t40 -96.5t-40 -97t-102 -39z" />
    <glyph glyph-name="uni1E48" unicode="&#x1e48;" horiz-adv-x="1716" 
d="M422 0h-236v1597h281l829 -1267v1267h236v-1597h-281l-829 1268v-1268zM1204 -330h-688v162h688v-162z" />
    <glyph glyph-name="uni1E49" unicode="&#x1e49;" horiz-adv-x="1380" 
d="M383 0h-225v1165h166q5 -95 12 -131q9 -53 35 -53q19 0 39 31q137 192 387 192q211 0 326.5 -128t115.5 -361v-715h-225v686q0 154 -68 236t-196 82q-178 0 -273 -136q-94 -131 -94 -379v-489zM1047 -381h-689v162h689v-162z" />
    <glyph glyph-name="uni1E4A" unicode="&#x1e4a;" horiz-adv-x="1716" 
d="M422 0h-236v1597h281l829 -1267v1267h236v-1597h-281l-829 1268v-1268zM641 7105h-188l292 352h226l295 -352h-189l-192 186q-15 12 -27 12q-9 0 -24 -12z" />
    <glyph glyph-name="uni1E4B" unicode="&#x1e4b;" horiz-adv-x="1380" 
d="M383 0h-225v1165h166q5 -95 12 -131q9 -53 35 -53q19 0 39 31q137 192 387 192q211 0 326.5 -128t115.5 -361v-715h-225v686q0 154 -68 236t-196 82q-178 0 -273 -136q-94 -131 -94 -379v-489zM481 -629h-164l297 434h177l296 -434h-163l-179 209q-24 27 -43 27t-43 -27z
" />
    <glyph glyph-name="uni1E4C" unicode="&#x1e4c;" horiz-adv-x="1878" 
d="M940 -39q-247 0 -442.5 108.5t-303.5 299.5t-108 430q0 180 63.5 335t175 265.5t271 173.5t344.5 63q186 0 345 -63t270.5 -173.5t174 -265.5t62.5 -335q0 -239 -107 -430t-302 -299.5t-443 -108.5zM940 174q264 0 428 173.5t164 451.5t-164 451t-428 173
q-263 0 -427.5 -173t-164.5 -451t164.5 -451.5t427.5 -173.5zM1085 1733q-46 0 -91.5 20t-75.5 44.5t-65 44.5t-62 20q-72 0 -95 -109h-129q14 118 75.5 188t154.5 70q46 0 90.5 -20t74.5 -44.5t65 -44.5t63 -20q70 0 94 111h131q-18 -121 -77 -190.5t-153 -69.5zM1020 2099
h-184l241 322h246z" />
    <glyph glyph-name="uni1E4D" unicode="&#x1e4d;" horiz-adv-x="1425" 
d="M713 -39q136 0 255 47.5t203 129.5t132.5 198t48.5 248q0 178 -82.5 319.5t-228.5 221t-328 79.5t-327.5 -79.5t-227.5 -221t-82 -319.5q0 -132 48 -248t132 -198t202.5 -129.5t254.5 -47.5zM713 158q-180 0 -293 119t-113 307t113 307t293 119q181 0 293 -119t112 -307
t-112 -307t-293 -119zM840 1329q86 0 143.5 66t75.5 178h-133q-18 -94 -88 -94q-25 0 -54.5 17t-54.5 37t-63.5 37t-79.5 17q-87 0 -145 -67t-72 -177h133q18 95 86 95q26 0 56 -17t55 -37.5t63.5 -37.5t77.5 -17zM780 1692h-147l178 342h211z" />
    <glyph glyph-name="uni1E4E" unicode="&#x1e4e;" horiz-adv-x="1878" 
d="M940 -39q-247 0 -442.5 108.5t-303.5 299.5t-108 430q0 180 63.5 335t175 265.5t271 173.5t344.5 63q186 0 345 -63t270.5 -173.5t174 -265.5t62.5 -335q0 -239 -107 -430t-302 -299.5t-443 -108.5zM940 174q264 0 428 173.5t164 451.5t-164 451t-428 173
q-263 0 -427.5 -173t-164.5 -451t164.5 -451.5t427.5 -173.5zM1085 1733q-46 0 -91.5 20t-75.5 44.5t-65 44.5t-62 20q-72 0 -95 -109h-129q14 118 75.5 188t154.5 70q46 0 90.5 -20t74.5 -44.5t65 -44.5t63 -20q70 0 94 111h131q-18 -121 -77 -190.5t-153 -69.5zM1169 2128
q-58 0 -93.5 36t-35.5 89t35.5 89t93.5 36q56 0 92.5 -36.5t36.5 -88.5q0 -53 -35.5 -89t-93.5 -36zM711 2128q-58 0 -93.5 36t-35.5 89t35.5 89t93.5 36q56 0 92.5 -36.5t36.5 -88.5q0 -53 -35.5 -89t-93.5 -36z" />
    <glyph glyph-name="uni1E4F" unicode="&#x1e4f;" horiz-adv-x="1425" 
d="M713 -39q-136 0 -254.5 47.5t-202.5 129.5t-132 198t-48 248q0 178 82 319.5t227.5 221t327.5 79.5t328 -79.5t228.5 -221t82.5 -319.5q0 -132 -48.5 -248t-132.5 -198t-203 -129.5t-255 -47.5zM713 158q181 0 293 119t112 307t-112 307t-293 119q-180 0 -293 -119
t-113 -307t113 -307t293 -119zM840 1329q-39 0 -77.5 17t-63.5 37.5t-55 37.5t-56 17q-68 0 -86 -95h-133q14 110 72 177t145 67q41 0 79.5 -17t63.5 -37t54.5 -37t54.5 -17q70 0 88 94h133q-18 -112 -75.5 -178t-143.5 -66zM934 1688q-55 0 -90 34t-35 84q0 51 35 85t90 34
q56 0 91.5 -33.5t35.5 -85.5q0 -50 -35.5 -84t-91.5 -34zM492 1688q-56 0 -90.5 33.5t-34.5 84.5q0 52 34.5 85.5t90.5 33.5q55 0 90.5 -34t35.5 -85q0 -50 -35.5 -84t-90.5 -34z" />
    <glyph glyph-name="uni1E50" unicode="&#x1e50;" horiz-adv-x="1878" 
d="M940 -39q248 0 443 108.5t302 299.5t107 430q0 180 -62.5 335t-174 265.5t-270.5 173.5t-345 63q-185 0 -344.5 -63t-271 -173.5t-175 -265.5t-63.5 -335q0 -239 108 -430t303.5 -299.5t442.5 -108.5zM940 174q-263 0 -427.5 173.5t-164.5 451.5t164.5 451t427.5 173
q264 0 428 -173t164 -451t-164 -451.5t-428 -173.5zM618 1774h644v155h-644v-155zM1028 2044h-184l-303 321h245z" />
    <glyph glyph-name="uni1E51" unicode="&#x1e51;" horiz-adv-x="1425" 
d="M713 -39q-136 0 -254.5 47.5t-202.5 129.5t-132 198t-48 248q0 178 82 319.5t227.5 221t327.5 79.5t328 -79.5t228.5 -221t82.5 -319.5q0 -132 -48.5 -248t-132.5 -198t-203 -129.5t-255 -47.5zM713 158q181 0 293 119t112 307t-112 307t-293 119q-180 0 -293 -119
t-113 -307t113 -307t293 -119zM1028 1348h-631v147h631v-147zM793 1618h-148l-242 342h211z" />
    <glyph glyph-name="uni1E52" unicode="&#x1e52;" horiz-adv-x="1878" 
d="M940 -39q-247 0 -442.5 108.5t-303.5 299.5t-108 430q0 180 63.5 335t175 265.5t271 173.5t344.5 63q186 0 345 -63t270.5 -173.5t174 -265.5t62.5 -335q0 -239 -107 -430t-302 -299.5t-443 -108.5zM940 174q264 0 428 173.5t164 451.5t-164 451t-428 173
q-263 0 -427.5 -173t-164.5 -451t164.5 -451.5t427.5 -173.5zM1262 1774h-644v155h644v-155zM1020 2044h-184l241 321h246z" />
    <glyph glyph-name="uni1E53" unicode="&#x1e53;" horiz-adv-x="1425" 
d="M713 -39q136 0 255 47.5t203 129.5t132.5 198t48.5 248q0 178 -82.5 319.5t-228.5 221t-328 79.5t-327.5 -79.5t-227.5 -221t-82 -319.5q0 -132 48 -248t132 -198t202.5 -129.5t254.5 -47.5zM713 158q-180 0 -293 119t-113 307t113 307t293 119q181 0 293 -119t112 -307
t-112 -307t-293 -119zM397 1348h631v147h-631v-147zM780 1618h-147l178 342h211z" />
    <glyph glyph-name="uni1E58" unicode="&#x1e58;" horiz-adv-x="1521" 
d="M432 0h-246v1597h680q251 0 385.5 -112.5t134.5 -323.5q0 -142 -73.5 -244t-210.5 -143q109 -17 160.5 -80.5t70.5 -201.5l43 -330q7 -57 23 -102t31 -60h-254q-34 24 -46 127l-36 330q-14 123 -67 169t-185 46h-410v-672zM432 1401v-545h397q310 0 310 270
q0 275 -301 275h-406zM752 1747q-62 0 -102 38.5t-40 94.5q0 58 40 96.5t102 38.5t100.5 -38.5t38.5 -96.5q0 -57 -38.5 -95t-100.5 -38z" />
    <glyph glyph-name="uni1E59" unicode="&#x1e59;" horiz-adv-x="1021" 
d="M383 0h-225v1165h164q4 -52 14 -106q6 -45 31 -45q19 0 41 30q48 71 120 110.5t158 39.5q148 0 230.5 -98.5t80.5 -272.5q0 -25 -2 -41h-204q0 4 1 15t1 16q0 88 -41 139.5t-117 51.5q-137 0 -205 -150q-47 -103 -47 -285v-569zM530 1339q-62 0 -101.5 39t-39.5 97
t39.5 96.5t101.5 38.5t102 -38.5t40 -96.5t-40 -97t-102 -39z" />
    <glyph glyph-name="uni1E5A" unicode="&#x1e5a;" horiz-adv-x="1521" 
d="M432 0h-246v1597h680q251 0 385.5 -112.5t134.5 -323.5q0 -142 -73.5 -244t-210.5 -143q109 -17 160.5 -80.5t70.5 -201.5l43 -330q7 -57 23 -102t31 -60h-254q-34 24 -46 127l-36 330q-14 123 -67 169t-185 46h-410v-672zM432 1401v-545h397q310 0 310 270
q0 275 -301 275h-406zM829 -418q-62 0 -101.5 38.5t-39.5 94.5q0 58 39.5 96.5t101.5 38.5t101 -38.5t39 -96.5q0 -57 -39 -95t-101 -38z" />
    <glyph glyph-name="uni1E5B" unicode="&#x1e5b;" horiz-adv-x="1021" 
d="M383 0h-225v1165h164q4 -52 14 -106q6 -45 31 -45q19 0 41 30q48 71 120 110.5t158 39.5q148 0 230.5 -98.5t80.5 -272.5q0 -25 -2 -41h-204q0 4 1 15t1 16q0 88 -41 139.5t-117 51.5q-137 0 -205 -150q-47 -103 -47 -285v-569zM276 -453q-62 0 -101.5 39t-39.5 97
t39.5 96.5t101.5 38.5t102 -38.5t40 -96.5t-40 -97t-102 -39z" />
    <glyph glyph-name="uni1E5E" unicode="&#x1e5e;" horiz-adv-x="1521" 
d="M432 0h-246v1597h680q251 0 385.5 -112.5t134.5 -323.5q0 -142 -73.5 -244t-210.5 -143q109 -17 160.5 -80.5t70.5 -201.5l43 -330q7 -57 23 -102t31 -60h-254q-34 24 -46 127l-36 330q-14 123 -67 169t-185 46h-410v-672zM432 1401v-545h397q310 0 310 270
q0 275 -301 275h-406zM1174 -330h-689v162h689v-162z" />
    <glyph glyph-name="uni1E5F" unicode="&#x1e5f;" horiz-adv-x="1021" 
d="M383 0h-225v1165h164q4 -52 14 -106q6 -45 31 -45q19 0 41 30q48 71 120 110.5t158 39.5q148 0 230.5 -98.5t80.5 -272.5q0 -25 -2 -41h-204q0 4 1 15t1 16q0 88 -41 139.5t-117 51.5q-137 0 -205 -150q-47 -103 -47 -285v-569zM528 -381h-503v162h503v-162z" />
    <glyph glyph-name="uni1E60" unicode="&#x1e60;" horiz-adv-x="1343" 
d="M694 -41q-266 0 -438.5 143.5t-194.5 378.5h244q23 -155 128 -241t269 -86q140 0 226 69.5t86 179.5q0 127 -81.5 194.5t-283.5 113.5q-271 66 -389.5 178t-118.5 303q0 200 145.5 322t387.5 122q237 0 380 -121.5t169 -338.5h-240q-19 129 -97.5 199.5t-211.5 70.5
q-130 0 -208.5 -65t-78.5 -175q0 -104 67 -165.5t232 -102.5q304 -73 439 -191.5t135 -324.5q0 -207 -157.5 -335t-408.5 -128zM668 1747q-62 0 -102 38.5t-40 94.5q0 58 40 96.5t102 38.5t100.5 -38.5t38.5 -96.5q0 -57 -38.5 -95t-100.5 -38z" />
    <glyph glyph-name="uni1E61" unicode="&#x1e61;" horiz-adv-x="1130" 
d="M588 -39q-221 0 -359.5 101.5t-167.5 281.5h232q18 -99 93.5 -154t203.5 -55q110 0 178 46.5t68 121.5q0 80 -60 122t-223 69q-235 43 -334.5 127t-99.5 239q0 153 122 248.5t318 95.5q209 0 330 -94.5t141 -271.5h-221q-19 99 -78 145.5t-168 46.5q-103 0 -164 -42.5
t-61 -115.5q0 -74 56.5 -113.5t197.5 -64.5q261 -46 362 -128t101 -249q0 -156 -131 -256t-336 -100zM569 1339q-62 0 -101.5 39t-39.5 97t39.5 96.5t101.5 38.5t102 -38.5t40 -96.5t-40 -97t-102 -39z" />
    <glyph glyph-name="uni1E62" unicode="&#x1e62;" horiz-adv-x="1343" 
d="M694 -41q-266 0 -438.5 143.5t-194.5 378.5h244q23 -155 128 -241t269 -86q140 0 226 69.5t86 179.5q0 127 -81.5 194.5t-283.5 113.5q-271 66 -389.5 178t-118.5 303q0 200 145.5 322t387.5 122q237 0 380 -121.5t169 -338.5h-240q-19 129 -97.5 199.5t-211.5 70.5
q-130 0 -208.5 -65t-78.5 -175q0 -104 67 -165.5t232 -102.5q304 -73 439 -191.5t135 -324.5q0 -207 -157.5 -335t-408.5 -128zM723 -418q-62 0 -101.5 38.5t-39.5 94.5q0 58 39.5 96.5t101.5 38.5t100.5 -38.5t38.5 -96.5q0 -57 -38.5 -95t-100.5 -38z" />
    <glyph glyph-name="uni1E63" unicode="&#x1e63;" horiz-adv-x="1130" 
d="M588 -39q-221 0 -359.5 101.5t-167.5 281.5h232q18 -99 93.5 -154t203.5 -55q110 0 178 46.5t68 121.5q0 80 -60 122t-223 69q-235 43 -334.5 127t-99.5 239q0 153 122 248.5t318 95.5q209 0 330 -94.5t141 -271.5h-221q-19 99 -78 145.5t-168 46.5q-103 0 -164 -42.5
t-61 -115.5q0 -74 56.5 -113.5t197.5 -64.5q261 -46 362 -128t101 -249q0 -156 -131 -256t-336 -100zM621 -453q-62 0 -102 39t-40 97t40 96.5t102 38.5t101.5 -38.5t39.5 -96.5t-39.5 -97t-101.5 -39z" />
    <glyph glyph-name="uni1E6C" unicode="&#x1e6c;" horiz-adv-x="1337" 
d="M795 0h-250v1393h-518v204h1284v-204h-516v-1393zM670 -418q-62 0 -102 38.5t-40 94.5q0 58 40 96.5t102 38.5t100.5 -38.5t38.5 -96.5q0 -57 -38.5 -95t-100.5 -38z" />
    <glyph glyph-name="uni1E6D" unicode="&#x1e6d;" horiz-adv-x="868" 
d="M637 -14q-195 0 -288 96.5t-93 308.5v588h-231v186h131q64 0 95.5 23t43.5 74q23 149 29 247h155v-344h326v-186h-326v-567q0 -130 46.5 -186t158.5 -56q82 0 143 20v-176q-72 -28 -190 -28zM559 -449q-62 0 -101.5 39t-39.5 97t39.5 96.5t101.5 38.5t101.5 -38.5
t39.5 -96.5t-39.5 -97t-101.5 -39z" />
    <glyph glyph-name="uni1E6E" unicode="&#x1e6e;" horiz-adv-x="1337" 
d="M795 0h-250v1393h-518v204h1284v-204h-516v-1393zM1014 -330h-688v162h688v-162z" />
    <glyph glyph-name="uni1E6F" unicode="&#x1e6f;" horiz-adv-x="868" 
d="M637 -14q-195 0 -288 96.5t-93 308.5v588h-231v186h131q64 0 95.5 23t43.5 74q23 149 29 247h155v-344h326v-186h-326v-567q0 -130 46.5 -186t158.5 -56q82 0 143 20v-176q-72 -28 -190 -28zM903 -379h-688v162h688v-162z" />
    <glyph glyph-name="uni1E70" unicode="&#x1e70;" horiz-adv-x="1337" 
d="M795 0h-250v1393h-518v204h1284v-204h-516v-1393zM453 7105h-189l293 352h225l295 -352h-188l-193 186q-15 12 -26 12q-10 0 -25 -12z" />
    <glyph glyph-name="uni1E71" unicode="&#x1e71;" horiz-adv-x="868" 
d="M637 -14q-195 0 -288 96.5t-93 308.5v588h-231v186h131q64 0 95.5 23t43.5 74q23 149 29 247h155v-344h326v-186h-326v-567q0 -130 46.5 -186t158.5 -56q82 0 143 20v-176q-72 -28 -190 -28zM338 -625h-164l297 435h176l297 -435h-164l-178 209q-24 27 -43 27t-43 -27z
" />
    <glyph glyph-name="uni1E72" unicode="&#x1e72;" horiz-adv-x="1654" 
d="M827 -41q-303 0 -481 166.5t-178 482.5v989h250v-999q0 -212 105.5 -321t303.5 -109t304 109t106 321v999h250v-989q0 -212 -83 -359.5t-229.5 -218.5t-347.5 -71zM1079 -436q-62 0 -100.5 39t-38.5 96t38.5 95t100.5 38t102 -38.5t40 -94.5q0 -57 -40 -96t-102 -39z
M573 -436q-61 0 -100 39t-39 96q0 56 39 94.5t100 38.5q64 0 103 -38t39 -95t-39 -96t-103 -39z" />
    <glyph glyph-name="uni1E73" unicode="&#x1e73;" horiz-adv-x="1374" 
d="M592 -39q-216 0 -333.5 128.5t-117.5 363.5v712h226v-684q0 -154 70 -236.5t200 -82.5q175 0 264 127q92 128 92 358v518h226v-1165h-168q0 62 -11 123q-9 51 -34 51q-10 0 -16.5 -5t-24.5 -26q-133 -182 -373 -182zM956 -436q-62 0 -100.5 39t-38.5 96t38.5 95t100.5 38
t102 -38.5t40 -94.5q0 -57 -40 -96t-102 -39zM451 -436q-61 0 -100.5 39.5t-39.5 95.5t39.5 94.5t100.5 38.5q64 0 102.5 -38t38.5 -95t-38.5 -96t-102.5 -39z" />
    <glyph glyph-name="uni1E74" unicode="&#x1e74;" horiz-adv-x="1654" 
d="M827 -41q-303 0 -481 166.5t-178 482.5v989h250v-999q0 -212 105.5 -321t303.5 -109t304 109t106 321v999h250v-989q0 -212 -83 -359.5t-229.5 -218.5t-347.5 -71zM999 -444q-55 0 -107.5 23t-86.5 50.5t-73 50.5t-70 23q-80 0 -107 -123h-141q19 131 83.5 207t164.5 76
q55 0 107.5 -23t86 -50t73.5 -50t72 -23q40 0 67 32t38 89h141q-19 -131 -83 -206.5t-165 -75.5z" />
    <glyph glyph-name="uni1E75" unicode="&#x1e75;" horiz-adv-x="1374" 
d="M592 -39q-216 0 -333.5 128.5t-117.5 363.5v712h226v-684q0 -154 70 -236.5t200 -82.5q175 0 264 127q92 128 92 358v518h226v-1165h-168q0 62 -11 123q-9 51 -34 51q-10 0 -16.5 -5t-24.5 -26q-133 -182 -373 -182zM868 -469q-55 0 -108 23t-87 50.5t-73 50.5t-70 23
q-80 0 -106 -122h-141q19 131 83 206.5t164 75.5q55 0 107.5 -22.5t86.5 -50t74 -50t72 -22.5q40 0 67 32t38 89h141q-19 -131 -83.5 -207t-164.5 -76z" />
    <glyph glyph-name="uni1E78" unicode="&#x1e78;" horiz-adv-x="1654" 
d="M827 -41q-303 0 -481 166.5t-178 482.5v989h250v-999q0 -212 105.5 -321t303.5 -109t304 109t106 321v999h250v-989q0 -212 -83 -359.5t-229.5 -218.5t-347.5 -71zM973 1733q-46 0 -92 20t-76 44.5t-65 44.5t-62 20q-71 0 -94 -109h-129q14 118 75 188t154 70
q46 0 90.5 -20t74.5 -44.5t65 -44.5t63 -20q70 0 94 111h131q-18 -121 -76.5 -190.5t-152.5 -69.5zM909 2099h-184l242 322h245z" />
    <glyph glyph-name="uni1E79" unicode="&#x1e79;" horiz-adv-x="1374" 
d="M592 -39q240 0 373 182q18 21 24.5 26t16.5 5q25 0 34 -51q11 -61 11 -123h168v1165h-226v-518q0 -230 -92 -358q-89 -127 -264 -127q-130 0 -200 82.5t-70 236.5v684h-226v-712q0 -235 117.5 -363.5t333.5 -128.5zM807 1329q86 0 143.5 66t75.5 178h-133
q-18 -94 -88 -94q-25 0 -54.5 17t-54.5 37t-63.5 37t-79.5 17q-87 0 -145 -67t-72 -177h133q18 95 86 95q26 0 56 -17t55 -37.5t63.5 -37.5t77.5 -17zM748 1692h-148l178 342h211z" />
    <glyph glyph-name="uni1E7C" unicode="&#x1e7c;" horiz-adv-x="1533" 
d="M928 0h-310l-616 1597h277l505 -1355l484 1355h250zM940 1735q-55 0 -108 23t-87 50.5t-73 50.5t-70 23q-79 0 -106 -123h-142q19 131 83.5 207t164.5 76q55 0 107.5 -23t86.5 -50t74 -50t72 -23q40 0 67 32t38 89h141q-19 -131 -83 -206.5t-165 -75.5z" />
    <glyph glyph-name="uni1E7D" unicode="&#x1e7d;" horiz-adv-x="1259" 
d="M760 0h-254l-498 1165h254l377 -936l367 936h239zM797 1327q-45 0 -87.5 15t-75 37t-62 44t-58.5 37t-55 15q-80 0 -107 -123h-141q19 131 83 206.5t165 75.5q55 0 107.5 -22.5t86.5 -50t74 -50t72 -22.5q81 0 104 121h141q-19 -131 -83 -207t-164 -76z" />
    <glyph glyph-name="uni1E7E" unicode="&#x1e7e;" horiz-adv-x="1533" 
d="M928 0h-310l-616 1597h277l505 -1355l484 1355h250zM778 -418q-62 0 -101.5 38.5t-39.5 94.5q0 58 39.5 96.5t101.5 38.5t101 -38.5t39 -96.5q0 -57 -39 -95t-101 -38z" />
    <glyph glyph-name="uni1E7F" unicode="&#x1e7f;" horiz-adv-x="1259" 
d="M760 0h-254l-498 1165h254l377 -936l367 936h239zM627 -453q-62 0 -102 39t-40 97t40 96.5t102 38.5t101.5 -38.5t39.5 -96.5t-39.5 -97t-101.5 -39z" />
    <glyph glyph-name="Wgrave" unicode="&#x1e80;" horiz-adv-x="2267" 
d="M782 0h-288l-474 1597h254l373 -1329l357 1329h274l358 -1331l375 1331h240l-479 -1597h-285l-352 1329zM1249 1718h-237l-422 340h303z" />
    <glyph glyph-name="wgrave" unicode="&#x1e81;" horiz-adv-x="1816" 
d="M653 0h-239l-396 1165h246l283 -899l258 899h227l258 -899l285 899h223l-393 -1165h-238l-256 889zM1004 1313h-189l-303 434h260z" />
    <glyph glyph-name="Wacute" unicode="&#x1e82;" horiz-adv-x="2267" 
d="M494 0h288l353 1329l352 -1329h285l479 1597h-240l-375 -1331l-358 1331h-274l-357 -1329l-373 1329h-254zM1257 1718h-237l356 340h303z" />
    <glyph glyph-name="wacute" unicode="&#x1e83;" horiz-adv-x="1816" 
d="M414 0h239l258 889l256 -889h238l393 1165h-223l-285 -899l-258 899h-227l-258 -899l-283 899h-246zM1004 1313h-189l232 434h260z" />
    <glyph glyph-name="Wdieresis" unicode="&#x1e84;" horiz-adv-x="2267" 
d="M782 0h-288l-474 1597h254l373 -1329l357 1329h274l358 -1331l375 1331h240l-479 -1597h-285l-352 1329zM1393 1765q-62 0 -101 38t-39 95q0 58 39 97t101 39t101.5 -39t39.5 -97q0 -56 -39.5 -94.5t-101.5 -38.5zM877 1765q-62 0 -102 38.5t-40 94.5q0 58 40 97t102 39
q61 0 100 -39t39 -97q0 -56 -39 -94.5t-100 -38.5z" />
    <glyph glyph-name="wdieresis" unicode="&#x1e85;" horiz-adv-x="1816" 
d="M653 0h-239l-396 1165h246l283 -899l258 899h227l258 -899l285 899h223l-393 -1165h-238l-256 889zM1159 1335q-62 0 -100.5 38t-38.5 95q0 58 38.5 96t100.5 38q61 0 100 -38t39 -96q0 -56 -39 -94.5t-100 -38.5zM657 1335q-61 0 -99 38.5t-38 94.5q0 58 38 96t99 38
q65 0 103.5 -38t38.5 -96q0 -57 -39 -95t-103 -38z" />
    <glyph glyph-name="uni1E8C" unicode="&#x1e8c;" horiz-adv-x="1423" 
d="M287 0h-281l549 801l-549 796h297l416 -628l414 628h274l-539 -788l555 -809h-297l-417 639zM975 1765q-62 0 -100.5 38t-38.5 95q0 58 38.5 97t100.5 39t101.5 -39t39.5 -97q0 -56 -39.5 -94.5t-101.5 -38.5zM459 1765q-62 0 -102 38.5t-40 94.5q0 58 40 97t102 39
q61 0 100 -39t39 -97q0 -56 -39 -94.5t-100 -38.5z" />
    <glyph glyph-name="uni1E8D" unicode="&#x1e8d;" horiz-adv-x="1159" 
d="M260 0h-250l424 584l-424 581h275l303 -434l305 434h248l-416 -573l428 -592h-272l-310 440zM831 1335q-62 0 -100.5 38t-38.5 95q0 58 38.5 96t100.5 38q61 0 100.5 -38.5t39.5 -95.5q0 -56 -39.5 -94.5t-100.5 -38.5zM330 1335q-60 0 -98.5 38.5t-38.5 94.5q0 58 38 96
t99 38q65 0 103 -38t38 -96q0 -57 -38.5 -95t-102.5 -38z" />
    <glyph glyph-name="uni1E8E" unicode="&#x1e8e;" horiz-adv-x="1437" 
d="M842 0h-244v645l-592 952h281l444 -735l430 735h260l-579 -952v-645zM717 1747q-62 0 -102 38.5t-40 94.5q0 58 40 96.5t102 38.5t100.5 -38.5t38.5 -96.5q0 -57 -38.5 -95t-100.5 -38z" />
    <glyph glyph-name="uni1E8F" unicode="&#x1e8f;" horiz-adv-x="1239" 
d="M528 -498h-233l211 498l-496 1165h254l369 -913l360 913h236zM627 1339q-62 0 -102 39t-40 97t40 96.5t102 38.5t101.5 -38.5t39.5 -96.5t-39.5 -97t-101.5 -39z" />
    <glyph glyph-name="uni1E90" unicode="&#x1e90;" horiz-adv-x="1294" 
d="M1223 0h-1205v4l873 1391h-815v202h1204v-6l-872 -1388h815v-203zM432 1718h-188l293 353h225l295 -353h-189l-192 187q-15 12 -27 12q-9 0 -24 -12z" />
    <glyph glyph-name="uni1E91" unicode="&#x1e91;" horiz-adv-x="1101" 
d="M1036 0h-1001v4l670 975h-637v186h1003v-4l-674 -981h639v-180zM332 1313h-164l297 434h176l297 -434h-164l-178 209q-23 26 -43 26t-43 -26z" />
    <glyph glyph-name="uni1E92" unicode="&#x1e92;" horiz-adv-x="1294" 
d="M1223 0h-1205v4l873 1391h-815v202h1204v-6l-872 -1388h815v-203zM649 -418q-62 0 -101.5 38.5t-39.5 94.5q0 58 39.5 96.5t101.5 38.5t100.5 -38.5t38.5 -96.5q0 -57 -38.5 -95t-100.5 -38z" />
    <glyph glyph-name="uni1E93" unicode="&#x1e93;" horiz-adv-x="1101" 
d="M1036 0h-1001v4l670 975h-637v186h1003v-4l-674 -981h639v-180zM553 -453q-62 0 -101.5 39t-39.5 97t39.5 96.5t101.5 38.5t101.5 -38.5t39.5 -96.5t-39.5 -97t-101.5 -39z" />
    <glyph glyph-name="uni1E94" unicode="&#x1e94;" horiz-adv-x="1294" 
d="M1223 0h-1205v4l873 1391h-815v202h1204v-6l-872 -1388h815v-203zM993 -330h-688v162h688v-162z" />
    <glyph glyph-name="uni1E95" unicode="&#x1e95;" horiz-adv-x="1101" 
d="M1036 0h-1001v4l670 975h-637v186h1003v-4l-674 -981h639v-180zM897 -381h-688v162h688v-162z" />
    </font>
</defs>
</svg>
